<svg version="1.1"  xmlns="http://www.w3.org/2000/svg" xmlns:xlink="http://www.w3.org/1999/xlink">

  <symbol id="icon-logo"  viewBox="0 0 33 33" xmlns="http://www.w3.org/2000/svg">
    <path fill="inherit" d="M31.6867 10.1438C29.1247 4.13976 23.1712 0 16.4355 0C7.27482 0 0 7.55758 0 16.5645C0 25.6485 7.35081 33 16.4355 33C25.4523 33 33 25.7149 33 16.5645C33 14.3462 32.5582 12.186 31.6867 10.1438ZM30.213 11.6405C28.5196 10.3002 26.3314 9.3651 24.2361 8.76994C23.6414 6.67257 22.7082 4.484 21.3567 2.78599C25.4708 4.25996 28.7383 7.52677 30.213 11.6405ZM24.3104 15.5982C24.8381 15.6046 25.2656 16.0352 25.2656 16.5645C25.2656 17.0937 24.8381 17.5244 24.3104 17.5307C24.3066 17.5304 24.303 17.5296 24.2993 17.5294C24.2831 17.5284 24.2672 17.5291 24.2513 17.5289C23.7405 17.5038 23.3324 17.0818 23.3321 16.5651C23.3321 16.5649 23.3321 16.5647 23.3321 16.5645C23.3321 16.5642 23.3321 16.5641 23.3321 16.5638C23.3324 16.0537 23.73 15.6359 24.2315 15.6011C24.2338 15.6011 24.2361 15.6014 24.2383 15.6014C24.2585 15.6014 24.2788 15.6007 24.2993 15.5995C24.303 15.5992 24.3066 15.5985 24.3104 15.5982ZM17.4023 2.09408C19.2552 2.706 20.9474 5.02908 22.0448 8.25271C20.5621 7.96931 19.0014 7.79889 17.4023 7.74978V2.09408ZM17.4023 9.68421C19.2333 9.7437 21.0035 9.9718 22.6439 10.3538C22.904 11.4649 23.0971 12.6474 23.2107 13.8767C22.4454 14.1877 21.842 14.8159 21.5647 15.5977H17.4023V9.68421ZM17.4023 17.5312H21.5647C21.842 18.3131 22.4455 18.9414 23.2109 19.2523C23.1026 20.432 22.9213 21.5745 22.6729 22.6572C21.5469 22.9132 20.3554 23.1001 19.1236 23.2114C18.8128 22.4458 18.1844 21.8421 17.4023 21.5647V17.5312ZM11.5096 2.8032C10.8596 3.63509 10.2689 4.63959 9.75498 5.80297C9.72598 5.80213 9.69717 5.80078 9.66797 5.80078C7.8248 5.80078 6.42978 7.51337 6.83841 9.33584C5.2452 9.93854 3.88459 10.6968 2.80668 11.5629C4.2755 7.50163 7.47985 4.27595 11.5096 2.8032ZM10.6348 8.70117C10.6348 9.23426 10.2011 9.66797 9.66797 9.66797C9.13488 9.66797 8.70117 9.23426 8.70117 8.70117C8.70117 8.16808 9.13488 7.73438 9.66797 7.73438C10.2011 7.73438 10.6348 8.16808 10.6348 8.70117ZM7.90717 11.0038C7.99367 11.07 8.08371 11.1318 8.17743 11.1882C7.94108 12.5706 7.79399 14.0882 7.74933 15.5977H2.09099C2.66997 13.8044 4.81271 12.093 7.90717 11.0038ZM7.74901 17.5312C7.79599 19.1332 7.95925 20.6667 8.22344 22.1037C4.98996 21.039 2.69459 19.3811 2.09144 17.5312H7.74901ZM2.79179 21.4798C4.47595 22.8016 6.63609 23.6978 8.71774 24.2718C9.37864 26.6732 10.3432 28.7092 11.5222 30.2089C7.47257 28.7462 4.25513 25.5292 2.79179 21.4798ZM15.4688 30.9028C13.173 30.1325 11.649 27.0602 10.891 24.7697C11.7873 24.9358 12.7141 25.0618 13.6614 25.145C13.9301 26.0243 14.6062 26.727 15.4688 27.0329V30.9028ZM15.4688 21.5647C14.6868 21.8421 14.0584 22.4457 13.7475 23.2112C12.5463 23.1021 11.3955 22.9208 10.3157 22.678C9.95549 21.0711 9.74048 19.3337 9.6837 17.5312H15.4688V21.5647ZM15.4688 15.5977H9.6837C9.72688 14.2171 9.86068 12.8342 10.0735 11.5726C11.0472 11.4357 11.8674 10.8141 12.2807 9.95988C13.3176 9.81041 14.385 9.71921 15.4688 9.68473V15.5977ZM15.4688 7.75036C14.4561 7.78065 13.4561 7.85813 12.4783 7.98291C12.3291 7.39967 12.0023 6.8872 11.5597 6.50538C12.6184 4.14633 14.0124 2.58367 15.4688 2.09685V7.75036ZM16.4355 25.2656C15.9063 25.2656 15.4756 24.8381 15.4693 24.3104C15.4696 24.3067 15.4704 24.3031 15.4706 24.2993C15.4715 24.2833 15.4709 24.2676 15.4711 24.2518C15.4959 23.7406 15.9183 23.332 16.4355 23.332C16.9528 23.332 17.3752 23.7406 17.4 24.2518C17.4002 24.2677 17.3995 24.2834 17.4005 24.2993C17.4008 24.3031 17.4015 24.3067 17.4018 24.3104C17.3954 24.8381 16.9648 25.2656 16.4355 25.2656ZM17.4023 30.9084V27.0329C18.2649 26.727 18.9409 26.0244 19.2097 25.1451C20.1923 25.0589 21.1536 24.9269 22.0829 24.7524C21.3011 27.062 19.7175 30.1567 17.4023 30.9084ZM21.395 30.208C22.7537 28.5052 23.6744 26.329 24.2598 24.2494C26.3348 23.6735 28.5191 22.7694 30.2139 21.4424C28.7442 25.5085 25.492 28.7404 21.395 30.208ZM24.7679 22.0759C24.9352 21.1892 25.0614 20.2735 25.1446 19.3387C26.0241 19.0701 26.727 18.381 27.0329 17.5184H30.9019C30.1366 19.7771 27.0465 21.3183 24.7679 22.0759ZM27.0329 15.5977C26.727 14.735 26.0241 14.0588 25.1446 13.7902C25.0587 12.8215 24.9264 11.8725 24.7508 10.9538C27.0588 11.7424 30.1315 13.31 30.9019 15.5977H27.0329Z"/>
  </symbol>

  <symbol id="icon-globe" viewBox="0 0 20 20" xmlns="http://www.w3.org/2000/svg">
    <path d="M10 0C4.5 0 0 4.5 0 10C0 15.5 4.5 20 10 20C15.5 20 20 15.5 20 10C20 4.5 15.5 0 10 0ZM16.9 6H14C13.7 4.7 13.2 3.6 12.6 2.4C14.4 3.1 16 4.3 16.9 6ZM10 2C10.8 3.2 11.5 4.5 11.9 6H8.1C8.5 4.6 9.2 3.2 10 2ZM2.3 12C2.1 11.4 2 10.7 2 10C2 9.3 2.1 8.6 2.3 8H5.7C5.6 8.7 5.6 9.3 5.6 10C5.6 10.7 5.7 11.3 5.7 12H2.3ZM3.1 14H6C6.3 15.3 6.8 16.4 7.4 17.6C5.6 16.9 4 15.7 3.1 14ZM6 6H3.1C4.1 4.3 5.6 3.1 7.4 2.4C6.8 3.6 6.3 4.7 6 6ZM10 18C9.2 16.8 8.5 15.5 8.1 14H11.9C11.5 15.4 10.8 16.8 10 18ZM12.3 12H7.7C7.6 11.3 7.5 10.7 7.5 10C7.5 9.3 7.6 8.7 7.7 8H12.4C12.5 8.7 12.6 9.3 12.6 10C12.6 10.7 12.4 11.3 12.3 12ZM12.6 17.6C13.2 16.5 13.7 15.3 14 14H16.9C16 15.7 14.4 16.9 12.6 17.6ZM14.4 12C14.5 11.3 14.5 10.7 14.5 10C14.5 9.3 14.4 8.7 14.4 8H17.8C18 8.6 18.1 9.3 18.1 10C18.1 10.7 18 11.4 17.8 12H14.4Z" fill="inherit"/>
  </symbol>

  <symbol id="icon-clock" viewBox="0 0 18 18" xmlns="http://www.w3.org/2000/svg">
    <path d="M9 0C4.03741 0 0 4.03741 0 9C0 13.9626 4.03741 18 9 18C13.9626 18 18 13.9626 18 9C18 4.03741 13.9626 0 9 0ZM13.1773 9.96841H9C8.46745 9.96841 8.0357 9.53659 8.0357 9.00411V4.82678C8.0357 4.29423 8.46745 3.86248 9 3.86248C9.53255 3.86248 9.9643 4.29423 9.9643 4.82678V8.03985H13.1773C13.7098 8.03985 14.1416 8.47153 14.1416 9.00415C14.1416 9.53659 13.7098 9.96841 13.1773 9.96841Z" fill="inherit"/>
  </symbol>

  <symbol id="icon-deal" viewBox="0 0 24 24" xmlns="http://www.w3.org/2000/svg">
    <path d="M20.3763 14.8052C20.3428 14.7676 15.0919 9.49493 15.0919 9.49493L12.3979 12.1891C11.8403 12.7467 11.0989 13.0538 10.3103 13.0538C9.52185 13.0538 8.78046 12.7467 8.2229 12.1891C7.0719 11.0381 7.0719 9.16534 8.2229 8.01416L11.4888 4.74829L8.06287 1.35938L0 9.42224L3.21735 12.5958C3.69159 12.1956 4.30353 11.9535 4.97113 11.9535C6.47259 11.9535 7.69409 13.175 7.69409 14.6765C7.69409 14.723 7.69281 14.7691 7.69061 14.8151C7.73511 14.8129 7.77978 14.8116 7.82465 14.8116C9.32611 14.8116 10.5476 16.0331 10.5476 17.5344C10.5476 17.5805 10.5463 17.6261 10.5441 17.6715C10.5895 17.6693 10.6353 17.668 10.6813 17.668C12.1826 17.668 13.4041 18.8895 13.4041 20.391C13.4041 21.024 13.1863 21.607 12.8225 22.0699L12.9492 22.1949C13.2858 22.5084 13.7133 22.6637 14.1396 22.6637C14.6074 22.6637 15.074 22.4769 15.418 22.1076C16.0525 21.4266 16.0382 20.3736 15.4023 19.7098L15.4186 19.7256C15.7551 20.0392 16.1825 20.1943 16.6088 20.1943C17.0766 20.1943 17.5431 20.0076 17.8872 19.6384C18.5255 18.9532 18.5074 17.892 17.8603 17.2289L17.8835 17.2474C18.2201 17.5611 18.6476 17.7162 19.0739 17.7162C19.5417 17.7162 20.0083 17.5294 20.3524 17.1603C20.9733 16.4936 20.9729 15.4708 20.3763 14.8052Z" fill="inherit"/>
    <path d="M16.8676 1.35938L9.21777 9.00897C8.61426 9.61249 8.61426 10.5908 9.21777 11.1943C9.51953 11.4959 9.91486 11.6468 10.3104 11.6468C10.7059 11.6468 11.1012 11.4959 11.403 11.1943L15.0918 7.50549L20.0404 12.4515L24.0001 8.49188L16.8676 1.35938Z" fill="inherit"/>
    <path d="M11.9975 20.3909C11.9975 19.6653 11.4072 19.075 10.6815 19.075C9.95587 19.075 9.36572 19.6653 9.36572 20.3909C9.36572 21.1166 9.95587 21.7067 10.6815 21.7067C11.4072 21.7067 11.9975 21.1164 11.9975 20.3909Z" fill="inherit"/>
    <path d="M7.82428 18.8502C8.54993 18.8502 9.14026 18.2599 9.14026 17.5342C9.14026 16.8086 8.54993 16.2183 7.82428 16.2183C7.09863 16.2183 6.5083 16.8086 6.5083 17.5342C6.5083 18.2599 7.09863 18.8502 7.82428 18.8502Z" fill="inherit"/>
    <path d="M4.97107 15.9921C5.69672 15.9921 6.28705 15.4018 6.28705 14.6761C6.28705 13.9507 5.69672 13.3604 4.97107 13.3604C4.24561 13.3604 3.65527 13.9507 3.65527 14.6761C3.65527 15.4018 4.24561 15.9921 4.97107 15.9921Z" fill="inherit"/>
  </symbol>

  <symbol id="icon-coding" viewBox="0 0 21 21" xmlns="http://www.w3.org/2000/svg">
    <path d="M10.5268 -0.0410156L1.43555 5.20899V15.7089L10.5268 20.959L19.6182 15.7089V5.20899L10.5268 -0.0410156ZM7.01625 12.1141L6.14562 12.9848L3.61995 10.459L6.14562 7.93333L7.01625 8.80396L5.3612 10.459L7.01625 12.1141ZM9.62843 13.6326L8.5271 13.0819L11.4253 7.28542L12.5266 7.83608L9.62843 13.6326ZM14.9081 12.9847L14.0373 12.1141L15.6925 10.459L14.0373 8.80396L14.9081 7.93317L17.4338 10.459L14.9081 12.9847Z" fill="inherit"/>
  </symbol>

  <symbol id="icon-gear" viewBox="0 0 21 21" xmlns="http://www.w3.org/2000/svg">
    <path d="M18.1139 8.14251L17.5838 6.88284C17.5838 6.88284 18.8172 4.0999 18.7083 3.9929L17.0751 2.39861C16.9622 2.2887 14.1783 3.55907 14.1783 3.55907L12.8943 3.04061C12.8943 3.04061 11.7602 0.219727 11.6045 0.219727H9.30015C9.13965 0.219727 8.09009 3.04644 8.09009 3.04644L6.80805 3.56685C6.80805 3.56685 3.96577 2.35873 3.85683 2.4667L2.22655 4.06293C2.11372 4.17285 3.41132 6.89938 3.41132 6.89938L2.88119 8.1571C2.88119 8.1571 0 9.26697 0 9.41677V11.6754C0 11.833 2.888 12.8612 2.888 12.8612L3.41813 14.1169C3.41813 14.1169 2.18472 16.8979 2.2927 17.0049L3.92492 18.6031C4.03581 18.7111 6.8207 17.4407 6.8207 17.4407L8.10566 17.9611C8.10566 17.9611 9.23984 20.7801 9.39645 20.7801H11.7008C11.8603 20.7801 12.9109 17.9533 12.9109 17.9533L14.1968 17.4329C14.1968 17.4329 17.0333 18.6411 17.1432 18.535L18.7754 16.9388C18.8892 16.8269 17.5887 14.1024 17.5887 14.1024L18.1178 12.8446C18.1178 12.8446 21 11.7328 21 11.5811V9.32436C21.001 9.16776 18.1139 8.14251 18.1139 8.14251ZM13.8671 10.4994C13.8671 12.3155 12.3564 13.794 10.5005 13.794C8.64649 13.794 7.13391 12.3155 7.13391 10.4994C7.13391 8.68334 8.64649 7.20676 10.5005 7.20676C12.3574 7.20773 13.8671 8.68334 13.8671 10.4994Z" fill="inherit"/>
  </symbol>

  <symbol id="icon-newspaper" viewBox="0 0 16 16" xmlns="http://www.w3.org/2000/svg">
    <path d="M12.6897 2.20691V0H0V13.5173C0 14.8862 1.11378 16 2.48275 16H13.5172C14.8862 16 16 14.8862 16 13.5173V2.20691H12.6897ZM10.4827 12.1379H2.20691V10.4827H10.4828V12.1379H10.4827ZM10.4827 8.82759H2.20691V7.17241H10.4828V8.82759H10.4827ZM10.4827 3.86206V5.51725H2.20691V3.86206V2.20691H10.4828V3.86206H10.4827ZM14.3448 13.5173C14.3448 13.9736 13.9736 14.3448 13.5172 14.3448C13.0609 14.3448 12.6896 13.9736 12.6896 13.5173V3.86206H14.3448V13.5173Z" fill="inherit"/>
  </symbol>

  <symbol id="icon-round-question" viewBox="0 0 19 19" xmlns="http://www.w3.org/2000/svg">
    <path d="M9.374 0.000619226C4.12773 0.0708366 -0.0679693 4.38115 0.00183509 9.62763C0.0720525 14.8718 4.38196 19.0688 9.62802 18.999C14.8733 18.9283 19.0698 14.618 19 9.37196C18.9298 4.12734 14.6197 -0.0693916 9.374 0.000619226ZM9.34591 15.2824L9.29346 15.2816C8.48554 15.2576 7.91596 14.6624 7.93888 13.8665C7.96139 13.0842 8.54482 12.5162 9.32609 12.5162L9.37297 12.5171C10.2034 12.5417 10.7666 13.1309 10.7432 13.9497C10.7201 14.7343 10.1458 15.2824 9.34591 15.2824ZM12.7442 8.53761C12.5542 8.80753 12.1364 9.14272 11.61 9.55287L11.0303 9.95311C10.7121 10.2005 10.52 10.4333 10.4479 10.6623C10.3911 10.8426 10.3632 10.8903 10.3583 11.2571L10.3575 11.3502H8.14396L8.15036 11.1629C8.17741 10.393 8.19641 9.9401 8.51549 9.56588C9.0161 8.97812 10.1204 8.26706 10.1673 8.23691C10.3254 8.11775 10.4589 7.98206 10.5582 7.83709C10.7905 7.51677 10.8934 7.26461 10.8934 7.01678C10.8934 6.67292 10.7914 6.35488 10.5896 6.07174C10.3957 5.79851 10.0272 5.66014 9.4944 5.66014C8.96591 5.66014 8.60409 5.82784 8.38765 6.1719C8.16502 6.52567 8.05247 6.89721 8.05247 7.27679V7.37117H5.7702L5.77433 7.27266C5.83318 5.87472 6.33214 4.86813 7.25674 4.28078C7.83769 3.90677 8.56051 3.71718 9.40395 3.71718C10.508 3.71718 11.44 3.98546 12.1738 4.51456C12.9173 5.0507 13.2944 5.85365 13.2944 6.90113C13.2944 7.48703 13.1094 8.03741 12.7442 8.53761Z" fill="inherit"/>
  </symbol>

  <symbol id="icon-square-question" viewBox="0 0 18 18" xmlns="http://www.w3.org/2000/svg">
    <path d="M14.9999 0H2.99993C2.05707 0 1.28564 0.771429 1.28564 1.71429V13.7143C1.28564 14.6571 2.05707 15.4286 2.99993 15.4286H6.4285L8.99993 18L11.5714 15.4286H14.9999C15.9428 15.4286 16.7142 14.6571 16.7142 13.7143V1.71429C16.7142 0.771429 15.9428 0 14.9999 0ZM9.85707 13.7143H8.14279V12H9.85707V13.7143ZM11.6571 7.11429L10.8856 7.88572C10.2 8.48571 9.85707 9 9.85707 10.2857H8.14279V9.85714C8.14279 8.91429 8.48564 8.05714 9.17136 7.45714L10.2 6.34286C10.5428 6.08571 10.7142 5.65714 10.7142 5.14286C10.7142 4.2 9.94282 3.42857 8.99996 3.42857C8.05711 3.42857 7.28568 4.2 7.28568 5.14286H5.57139C5.57139 3.25714 7.11425 1.71429 8.99996 1.71429C10.8857 1.71429 12.4285 3.25714 12.4285 5.14286C12.4285 5.91429 12.0856 6.6 11.6571 7.11429Z" fill="inherit"/>
  </symbol>

  <symbol id="icon-pointer" viewBox="0 0 8 5" xmlns="http://www.w3.org/2000/svg">
    <path fill-rule="evenodd" clip-rule="evenodd" d="M7.85715 4.3892C8.04762 4.19394 8.04761 3.87735 7.85715 3.68209L4.41481 0.152966C4.41278 0.150811 4.41073 0.14867 4.40866 0.146543C4.2963 0.0313567 4.14277 -0.0158802 3.99664 0.00483214C3.89502 0.019215 3.79697 0.0664567 3.71884 0.146557C3.71704 0.1484 3.71526 0.150254 3.7135 0.152119L0.270342 3.68208C0.0798816 3.87734 0.0798816 4.19392 0.270342 4.38918C0.460803 4.58445 0.769601 4.58445 0.960062 4.38918L4.06374 1.20726L7.16744 4.3892C7.3579 4.58446 7.66669 4.58446 7.85715 4.3892Z" fill="inherit"/>
  </symbol>

  <symbol id="icon-man" viewBox="0 0 16 16" xmlns="http://www.w3.org/2000/svg">
    <path d="M8.00055 7.82505C9.77948 7.82505 11.2217 6.07337 11.2217 3.91255C11.2217 1.75168 10.7482 0 8.00055 0C5.2529 0 4.7793 1.75168 4.7793 3.91255C4.7793 6.07337 6.22154 7.82505 8.00055 7.82505Z" fill="inherit"/>
    <path d="M1.91616 13.799C1.91561 13.6672 1.91506 13.7619 1.91616 13.799V13.799Z" fill="inherit"/>
    <path d="M14.084 13.9019C14.0857 13.8658 14.0846 13.6517 14.084 13.9019V13.9019Z" fill="inherit"/>
    <path d="M14.0772 13.641C14.0176 9.8768 13.526 8.8042 9.76401 8.12526C9.76401 8.12526 9.23446 8.80004 8.00017 8.80004C6.76589 8.80004 6.23624 8.12526 6.23624 8.12526C2.51533 8.7968 1.99382 9.85348 1.92525 13.5187C1.91963 13.818 1.91702 13.8337 1.91602 13.799C1.91624 13.8641 1.91652 13.9845 1.91652 14.1945C1.91652 14.1945 2.81215 16 8.00017 16C13.1881 16 14.0838 14.1945 14.0838 14.1945C14.0838 14.0596 14.0839 13.9658 14.0841 13.9019C14.0831 13.9234 14.081 13.8818 14.0772 13.641Z" fill="inherit"/>
  </symbol>

  <symbol id="icon-logout" viewBox="0 0 16 15" xmlns="http://www.w3.org/2000/svg">
    <path d="M2.78264 14.3107H8.54668C9.10321 14.3107 9.54048 13.8734 9.54048 13.3169C9.54048 12.7604 9.10321 12.3231 8.54668 12.3231H2.78264C2.34537 12.3231 1.9876 11.9654 1.9876 11.5281V2.78264C1.9876 2.34537 2.34537 1.9876 2.78264 1.9876H8.54668C9.10321 1.9876 9.54048 1.55033 9.54048 0.9938C9.54048 0.437272 9.10321 0 8.54668 0H2.78264C1.25219 0 0 1.25219 0 2.78264V11.5281C0 13.0585 1.25219 14.3107 2.78264 14.3107Z" fill="inherit"/>
    <path d="M12.7205 3.37892C12.323 2.9814 11.7068 2.9814 11.3093 3.37892C10.9118 3.77644 10.9118 4.39259 11.3093 4.79011L12.7006 6.18143H5.36636C4.80983 6.18143 4.37256 6.61871 4.37256 7.17523C4.37256 7.73176 4.80983 8.16903 5.36636 8.16903H12.5018L11.3093 9.36159C10.9118 9.75911 10.9118 10.3753 11.3093 10.7728C11.508 10.9715 11.7664 11.0709 12.0049 11.0709C12.2435 11.0709 12.5416 10.9318 12.7205 10.733L15.7019 7.75164C16.0994 7.35412 16.0994 6.73796 15.7019 6.34044L12.7205 3.37892Z" fill="inherit"/>
  </symbol>

  <symbol id="icon-refresh" viewBox="0 0 15 15" xmlns="http://www.w3.org/2000/svg">
    <path d="M14.8147 0.810465C14.6911 0.686916 14.5445 0.624936 14.3752 0.624936C14.206 0.624936 14.0596 0.686916 13.9358 0.810465L12.6663 2.07042C11.9697 1.41279 11.1721 0.90323 10.2737 0.541988C9.37542 0.180711 8.45069 0.000106812 7.50012 0.000106812C5.70968 0.000106812 4.14725 0.542022 2.81256 1.62609C1.47784 2.71002 0.598969 4.12428 0.175781 5.86919V5.9375C0.175781 6.02213 0.206669 6.09543 0.268546 6.1572C0.330423 6.21908 0.403623 6.24997 0.488246 6.24997H2.43158C2.57487 6.24997 2.67246 6.17506 2.72459 6.02541C2.99799 5.37441 3.17045 4.99357 3.24215 4.88285C3.69783 4.14066 4.3033 3.55794 5.05855 3.13475C5.81387 2.7116 6.62765 2.49994 7.49998 2.49994C8.80871 2.49994 9.94474 2.94594 10.9084 3.83788L9.56048 5.18546C9.4371 5.30919 9.37505 5.45576 9.37505 5.62504C9.37505 5.79429 9.43706 5.94079 9.56048 6.06447C9.68433 6.18819 9.83087 6.25 10.0001 6.25H14.3752C14.5445 6.25 14.691 6.18819 14.8147 6.06447C14.9383 5.94079 15.0001 5.79432 15.0001 5.62504V1.24994C15.0001 1.08065 14.9386 0.93422 14.8147 0.810465Z" fill="inherit"/>
    <path d="M14.4433 8.75017H12.5683C12.425 8.75017 12.3274 8.82498 12.2754 8.97477C12.0021 9.62583 11.8294 10.0065 11.7579 10.1172C11.3021 10.8592 10.6966 11.4422 9.94156 11.8653C9.1862 12.2886 8.37242 12.5 7.50005 12.5C6.86859 12.5 6.2598 12.383 5.67393 12.1486C5.088 11.9141 4.56384 11.582 4.10166 11.1522L5.43959 9.8144C5.56325 9.69082 5.62512 9.54415 5.62512 9.37497C5.62512 9.20572 5.56325 9.05905 5.43959 8.93553C5.31587 8.81171 5.16944 8.74976 5.00016 8.74976H0.625067C0.455683 8.74976 0.309181 8.81171 0.185495 8.93553C0.0618089 9.05908 0 9.20575 0 9.375V13.7501C0 13.9193 0.0618089 14.0659 0.185529 14.1895C0.309318 14.313 0.455819 14.3752 0.625101 14.3752C0.794349 14.3752 0.940782 14.3131 1.06454 14.1895L2.32428 12.9297C3.02094 13.5936 3.81365 14.1048 4.70233 14.4628C5.59102 14.821 6.51063 14.9999 7.46109 14.9999C9.24507 14.9999 10.801 14.4579 12.1291 13.374C13.4572 12.2901 14.3296 10.8756 14.7465 9.13081C14.753 9.11781 14.7561 9.095 14.7561 9.06257C14.7561 8.97781 14.7251 8.90482 14.6632 8.84273C14.6013 8.7812 14.528 8.75017 14.4433 8.75017Z" fill="inherit"/>
  </symbol>

  <symbol id="icon-search" viewBox="0 0 17 17" xmlns="http://www.w3.org/2000/svg">
    <path d="M16.4157 13.5961L12.1095 9.30167C12.5616 8.41332 12.8064 7.42751 12.8064 6.40243C12.8064 4.69219 12.1397 3.08432 10.9307 1.87529C9.72168 0.665889 8.11342 0 6.40319 0C4.69333 0 3.08469 0.665889 1.87567 1.87529C0.666645 3.08469 0 4.69257 0 6.40281C0 8.11304 0.666267 9.72092 1.87567 10.9299C3.08469 12.1393 4.69295 12.8052 6.40281 12.8052C7.42789 12.8052 8.41407 12.5612 9.30167 12.1095L13.5965 16.4161C13.9852 16.8047 14.4962 17 15.0061 17C15.516 17 16.0263 16.8047 16.4153 16.4161C17.1945 15.6369 17.1945 14.375 16.4157 13.5961ZM3.56702 9.23822C2.80973 8.48055 2.39274 7.47397 2.39274 6.40281C2.39274 5.33164 2.80973 4.32469 3.5674 3.56702C4.32469 2.80973 5.33165 2.39237 6.40281 2.39237C7.47397 2.39237 8.48093 2.80935 9.2386 3.56702C9.99589 4.32431 10.4133 5.33127 10.4133 6.40243C10.4133 7.47359 9.99589 8.48055 9.2386 9.23822C8.48093 9.99551 7.4736 10.4125 6.40281 10.4125C5.33202 10.4125 4.32507 9.99589 3.56702 9.23822Z" fill="inherit"/>
  </symbol>

  <symbol id="icon-draw" viewBox="0 0 17 17" xmlns="http://www.w3.org/2000/svg">
    <path fill-rule="evenodd" clip-rule="evenodd" d="M10.2082 3.56398C9.76277 3.11805 9.04051 3.11805 8.59515 3.56398L8.19192 3.96765L2.54626 9.61926L2.54771 9.62072L2.36982 9.79911C2.36982 9.79911 1.80249 10.3705 0.521566 14.5057C0.512583 14.5346 0.503663 14.5633 0.494617 14.5926C0.471779 14.6667 0.448689 14.742 0.425408 14.8183C0.404785 14.8857 0.383909 14.9546 0.362969 15.0238C0.345319 15.0822 0.327795 15.14 0.309892 15.1996C0.269278 15.335 0.228158 15.4728 0.186216 15.6151C0.09417 15.9274 -0.130662 16.6317 0.123587 16.8866C0.368409 17.1322 1.0801 16.9162 1.39154 16.8238C1.53274 16.7819 1.66958 16.7409 1.80394 16.7003C1.866 16.6816 1.92617 16.6633 1.98683 16.6448C2.05206 16.6249 2.11696 16.6052 2.18054 16.5856C2.26082 16.561 2.33996 16.5366 2.41777 16.5124C2.44099 16.5052 2.46376 16.4981 2.48679 16.4909C6.42116 15.2659 7.12748 14.6909 7.18618 14.6384C7.18663 14.6381 7.18663 14.6381 7.18694 14.6377C7.18941 14.6355 7.19112 14.634 7.19112 14.634L7.37325 14.4514L7.38546 14.4636L13.0312 8.81198L13.0312 8.81191L13.4344 8.40824C13.8798 7.96237 13.8798 7.23942 13.4344 6.79349L10.2082 3.56398ZM6.54155 13.9038C6.53661 13.9071 6.52991 13.9115 6.52282 13.916C6.5189 13.9185 6.51416 13.9215 6.50947 13.9244C6.50473 13.9274 6.49954 13.9306 6.49404 13.934C6.48917 13.9369 6.48411 13.94 6.47867 13.9433C6.29084 14.0557 5.73964 14.3457 4.40191 14.83C4.24559 14.8866 4.07535 14.9465 3.89702 15.0083L1.99537 13.1047C2.05737 12.9251 2.11741 12.7536 2.17415 12.596C2.65734 11.2527 2.94715 10.6998 3.05893 10.5123C3.06165 10.5078 3.06412 10.5037 3.06658 10.4996C3.07051 10.4932 3.07418 10.4871 3.07759 10.4816C3.08031 10.4773 3.08316 10.4727 3.08556 10.469C3.09005 10.462 3.09442 10.4553 3.09777 10.4503L3.23695 10.3107L6.68376 13.7611L6.54155 13.9038ZM16.6604 3.56398L13.4342 0.33447C12.9888 -0.111398 12.2667 -0.111398 11.8212 0.33447L11.0147 1.14188C10.5693 1.58775 10.5693 2.3107 11.0147 2.75657L14.2408 5.98608C14.6862 6.43195 15.4084 6.43195 15.8539 5.98608L16.6604 5.17873C17.1058 4.7328 17.1058 4.00985 16.6604 3.56398Z" fill="inherit"/>
  </symbol>

  <symbol id="icon-download" viewBox="0 0 17 17" xmlns="http://www.w3.org/2000/svg">
    <path d="M8.5 17C3.80375 17 0 13.1962 0 8.5C0 3.80375 3.80375 0 8.5 0C13.1963 0 17 3.80375 17 8.5C17 13.1962 13.1963 17 8.5 17ZM12.8775 7.735C12.5375 7.395 12.0063 7.395 11.6663 7.735L9.32875 10.0725V4.8875C9.32875 4.42 8.94625 4.0375 8.47875 4.0375C8.01125 4.0375 7.62875 4.42 7.62875 4.8875V10.0512L5.29125 7.71375C4.95125 7.37375 4.42 7.37375 4.08 7.71375C3.74 8.05375 3.74 8.585 4.08 8.925L7.54375 12.3887C8.05375 12.8987 8.8825 12.8987 9.41375 12.3887L12.8775 8.925C13.2175 8.60625 13.2175 8.05375 12.8775 7.735Z" fill="inherit"/>
  </symbol>

  <symbol id="icon-console" viewBox="0 0 16 16" xmlns="http://www.w3.org/2000/svg">
    <path d="M14.9128 4.72944V1.78131C14.9128 1.26327 14.4932 0.84211 13.9751 0.84211C13.458 0.84211 13.0386 1.26327 13.0386 1.78131V4.72922C12.3928 5.06751 11.9511 5.74364 11.9511 6.52473C11.9511 7.30583 12.3928 7.98262 13.0386 8.32134V14.2189C13.0386 14.7387 13.458 15.1581 13.9751 15.1581C14.4932 15.1581 14.9128 14.7387 14.9128 14.2189V8.32112C15.5587 7.9824 16 7.30561 16 6.52473C16 5.74386 15.5587 5.06794 14.9128 4.72944ZM2.96143 3.55386V1.78131C2.96143 1.26327 2.54203 0.84211 2.024 0.84211C1.50685 0.84211 1.08744 1.26327 1.08744 1.78131V3.55364C0.441492 3.89236 0 4.56937 0 5.35025C0 6.13156 0.441492 6.80835 1.08744 7.14707V14.2189C1.08744 14.7387 1.50685 15.1581 2.024 15.1581C2.54203 15.1581 2.96143 14.7387 2.96143 14.2189V7.14686C3.60738 6.80813 4.04865 6.13134 4.04865 5.35025C4.04865 4.56959 3.60738 3.89258 2.96143 3.55386ZM9.03299 8.01936V1.78131C9.03299 1.26327 8.61359 0.84211 8.09556 0.84211C7.57819 0.84211 7.15791 1.26327 7.15791 1.78131V8.01958C6.5124 8.3583 6.07134 9.03509 6.07134 9.81596C6.07134 10.5964 6.5124 11.2723 7.15791 11.6108V14.2189C7.15791 14.7387 7.57819 15.1581 8.09556 15.1581C8.61359 15.1581 9.03299 14.7387 9.03299 14.2189V11.611C9.67872 11.2728 10.12 10.5964 10.12 9.81596C10.1198 9.03487 9.67916 8.35808 9.03299 8.01936Z" fill="inherit"/>
  </symbol>

  <symbol id="icon-check" viewBox="0 0 10 7" xmlns="http://www.w3.org/2000/svg">
    <path fill-rule="evenodd" clip-rule="evenodd" d="M4.65669 4.24254L8.19212 0.70711C8.58265 0.316584 9.21581 0.316584 9.60633 0.707108C9.99686 1.09763 9.99686 1.7308 9.60633 2.12132L5.37535 6.35231C5.37157 6.35622 5.36774 6.3601 5.36389 6.36396C5.19698 6.53087 4.98574 6.62643 4.76807 6.65066C4.73103 6.65479 4.69381 6.65686 4.65659 6.65686C4.40067 6.65686 4.14474 6.55923 3.94948 6.36396C3.94548 6.35997 3.94153 6.35594 3.93761 6.3519L1.24992 3.66421C0.8594 3.27368 0.8594 2.64052 1.24993 2.24999C1.64045 1.85947 2.27362 1.85947 2.66414 2.24999L4.65669 4.24254Z" fill="inherit"/>
  </symbol>

  <symbol id="icon-invisible" viewBox="0 0 17 17" xmlns="http://www.w3.org/2000/svg">
    <g clip-path="url(#clip0)">
    <path d="M8.37061 5.80762L10.8041 8.24116L10.8157 8.11369C10.8157 6.83511 9.77666 5.79604 8.49808 5.79604L8.37061 5.80762Z" fill="inherit"/>
    <path d="M8.49849 4.25096C10.6307 4.25096 12.3613 5.98149 12.3613 8.11373C12.3613 8.61203 12.2608 9.08715 12.087 9.52363L14.3467 11.7833C15.5133 10.8099 16.4326 9.55068 17.0004 8.11373C15.6601 4.72224 12.3651 2.3196 8.49853 2.3196C7.41694 2.3196 6.38175 2.51272 5.41992 2.86037L7.08863 4.52521C7.52508 4.35526 8.0002 4.25096 8.49849 4.25096Z" fill="inherit"/>
    <path d="M0.77254 2.14574L2.53396 3.90716L2.88548 4.25868C1.61077 5.25527 0.60259 6.58021 0 8.1137C1.33653 11.5052 4.63531 13.9078 8.49808 13.9078C9.69555 13.9078 10.8389 13.6761 11.8857 13.255L12.2141 13.5834L14.4661 15.8392L15.4511 14.8581L1.75754 1.16074L0.77254 2.14574ZM5.04477 6.4141L6.23837 7.60769C6.2036 7.7738 6.18043 7.93988 6.18043 8.1137C6.18043 9.39229 7.2195 10.4314 8.49808 10.4314C8.6719 10.4314 8.83801 10.4082 9.00025 10.3734L10.1938 11.567C9.68008 11.8219 9.10842 11.9765 8.49808 11.9765C6.36584 11.9765 4.63531 10.2459 4.63531 8.1137C4.63531 7.5034 4.78983 6.9317 5.04477 6.4141Z" fill="inherit"/>
    </g>
    <defs>
    <clipPath id="clip0">
    <rect width="17" height="17" fill="white"/>
    </clipPath>
    </defs>
  </symbol>

  <symbol id="icon-visible" viewBox="0 0 16 16" xmlns="http://www.w3.org/2000/svg">
    <g clip-path="url(#clip0)">
    <path d="M8 3.23126C4.94303 3.23126 2.17081 4.90376 0.125192 7.62034C-0.0417306 7.8429 -0.0417306 8.15384 0.125192 8.3764C2.17081 11.0963 4.94303 12.7687 8 12.7687C11.057 12.7687 13.8292 11.0963 15.8748 8.37967C16.0417 8.15711 16.0417 7.84618 15.8748 7.62361C13.8292 4.90376 11.057 3.23126 8 3.23126ZM8.21929 11.3581C6.19004 11.4857 4.51427 9.81324 4.64191 7.78072C4.74665 6.10495 6.10494 4.74666 7.78071 4.64192C9.80996 4.51427 11.4857 6.18677 11.3581 8.2193C11.2501 9.89179 9.89179 11.2501 8.21929 11.3581ZM8.11783 9.80669C7.02465 9.87543 6.1213 8.97536 6.19331 7.88218C6.24895 6.97883 6.9821 6.24896 7.88545 6.19004C8.97862 6.12131 9.88197 7.02138 9.80996 8.11456C9.75105 9.02118 9.0179 9.75105 8.11783 9.80669Z" fill="inherit"/>
    </g>
    <defs>
    <clipPath id="clip0">
    <rect width="16" height="16" fill="white"/>
    </clipPath>
    </defs>
  </symbol>

  <symbol id="icon-tick" viewBox="0 0 13 13" xmlns="http://www.w3.org/2000/svg">
    <path d="M6.49997 0C2.91591 0 0 2.91584 0 6.49997C0 10.0841 2.91591 13 6.49997 13C10.084 13 12.9999 10.0841 12.9999 6.49997C12.9999 2.91584 10.0841 0 6.49997 0ZM10.2324 5.40207L6.14876 9.48566C5.97513 9.6593 5.74432 9.75487 5.49879 9.75487C5.25326 9.75487 5.02244 9.6593 4.84881 9.48566L2.76757 7.40443C2.59394 7.23079 2.4983 6.99998 2.4983 6.75445C2.4983 6.50885 2.59394 6.27804 2.76757 6.1044C2.94114 5.93077 3.17195 5.83514 3.41755 5.83514C3.66308 5.83514 3.89396 5.93077 4.06752 6.10447L5.49872 7.5356L8.93227 4.10205C9.10591 3.92841 9.33672 3.83285 9.58225 3.83285C9.82778 3.83285 10.0586 3.92841 10.2322 4.10205C10.5908 4.46057 10.5908 5.04367 10.2324 5.40207Z" fill="inherit"/>
  </symbol>

  <symbol id="icon-tick-allright" viewBox="0 0 13 13" fill="none" xmlns="http://www.w3.org/2000/svg">
    <path d="M6.49997 0C2.91591 0 0 2.91584 0 6.49997C0 10.0841 2.91591 13 6.49997 13C10.084 13 12.9999 10.0841 12.9999 6.49997C12.9999 2.91584 10.0841 0 6.49997 0ZM10.2324 5.40207L6.14876 9.48566C5.97513 9.6593 5.74432 9.75487 5.49879 9.75487C5.25326 9.75487 5.02244 9.6593 4.84881 9.48566L2.76757 7.40443C2.59394 7.23079 2.4983 6.99998 2.4983 6.75445C2.4983 6.50885 2.59394 6.27804 2.76757 6.1044C2.94114 5.93077 3.17195 5.83514 3.41755 5.83514C3.66308 5.83514 3.89396 5.93077 4.06752 6.10447L5.49872 7.5356L8.93227 4.10205C9.10591 3.92841 9.33672 3.83285 9.58225 3.83285C9.82778 3.83285 10.0586 3.92841 10.2322 4.10205C10.5908 4.46057 10.5908 5.04367 10.2324 5.40207Z" fill="#1AB04D"/>
  </symbol>

  <symbol id="icon-tick-error" width="13" height="13" viewBox="0 0 13 13" fill="none" xmlns="http://www.w3.org/2000/svg">
    <path fill-rule="evenodd" clip-rule="evenodd" d="M0 6.49997C0 2.91584 2.91591 0 6.49997 0C10.0841 0 12.9999 2.91584 12.9999 6.49997C12.9999 10.0841 10.084 13 6.49997 13C2.91591 13 0 10.0841 0 6.49997ZM4.29289 4.29289C4.68342 3.90237 5.31658 3.90237 5.70711 4.29289L6.41429 5.00008L7.12147 4.2929C7.512 3.90237 8.14516 3.90237 8.53568 4.2929C8.92621 4.68342 8.92621 5.31659 8.53568 5.70711L7.82851 6.41429L8.53553 7.12132C8.92606 7.51184 8.92606 8.14501 8.53553 8.53553C8.14501 8.92606 7.51184 8.92606 7.12132 8.53553L6.41429 7.82851L5.70726 8.53554C5.31673 8.92606 4.68357 8.92606 4.29304 8.53554C3.90252 8.14501 3.90252 7.51185 4.29304 7.12133L5.00008 6.41429L4.29289 5.70711C3.90237 5.31658 3.90237 4.68342 4.29289 4.29289Z" fill="#E00101"/>
  </symbol>

  <symbol id="icon-exchange-arrows" viewBox="0 0 20 20" fill="none" xmlns="http://www.w3.org/2000/svg">
    <path d="M7.3571 7.85716H15.7145V10.0001C15.7145 10.0968 15.7497 10.1804 15.8204 10.2512C15.8912 10.3219 15.9749 10.3572 16.0716 10.3572C16.1758 10.3572 16.2614 10.3238 16.3282 10.2568L19.8997 6.68536C19.9665 6.61839 19.9999 6.53278 19.9999 6.42872C19.9999 6.32446 19.9665 6.23882 19.8995 6.17201L16.3394 2.61164C16.2501 2.53714 16.1607 2.5 16.0713 2.5C15.9673 2.5 15.8816 2.53346 15.8148 2.60039C15.7479 2.66743 15.7145 2.75288 15.7145 2.8571V5.00001H7.3571C7.26039 5.00001 7.17669 5.03531 7.10602 5.10603C7.03534 5.17674 7 5.2604 7 5.35711V7.50002C7 7.59673 7.0353 7.68043 7.10602 7.7511C7.17673 7.82178 7.26039 7.85716 7.3571 7.85716Z" fill="white"/>
    <path d="M12.6429 12.1431H4.28565V10.0002C4.28565 9.90345 4.25027 9.81976 4.17963 9.74908C4.10892 9.67837 4.02518 9.64307 3.92851 9.64307C3.82425 9.64307 3.73876 9.67653 3.6718 9.74345L0.100386 13.3147C0.0335793 13.3819 0 13.4672 0 13.5716C0 13.6682 0.033423 13.7502 0.100386 13.8169L3.6607 17.3885C3.75002 17.4628 3.8393 17.4999 3.92863 17.4999C4.0253 17.4999 4.10903 17.4646 4.17971 17.3941C4.25035 17.3233 4.28573 17.2398 4.28573 17.1429V15.0001H12.6429C12.7398 15.0001 12.8233 14.9649 12.8942 14.8941C12.9648 14.8233 13 14.7397 13 14.6429V12.5001C13 12.4033 12.9647 12.3197 12.8942 12.2491C12.8233 12.1784 12.7398 12.1431 12.6429 12.1431Z" fill="white"/>
  </symbol>

  <symbol id="icon-close" width="16" height="16" viewBox="0 0 16 16" fill="none" xmlns="http://www.w3.org/2000/svg">
    <path fill-rule="evenodd" clip-rule="evenodd" d="M0.707108 0L0 0.707123L7.07108 7.7782L4.57764e-05 14.8492L0.707153 15.5564L7.7782 8.48532L14.8492 15.5564L15.5564 14.8492L8.48532 7.7782L15.5564 0.707123L14.8493 0L7.7782 7.07111L0.707108 0Z" fill="#CCCCCC"/>
  </symbol>

  <symbol id="icon-card" viewBox="0 0 64 64" fill="none" xmlns="http://www.w3.org/2000/svg">
    <path d="M46.2208 10.3466L10.3345 17.3036C9.19199 17.5251 8.44535 18.6309 8.66684 19.7734L12.9042 41.6311C13.1257 42.7736 14.2315 43.5202 15.374 43.2988L51.2603 36.3417C52.4028 36.1202 53.1495 35.0145 52.928 33.8719L48.6906 12.0143C48.4691 10.8717 47.3633 10.1251 46.2208 10.3466Z" fill="#D15241"/>
    <path d="M9.14551 22.2708L49.1806 14.5247L49.9875 18.695L9.95239 26.4411L9.14551 22.2708Z" fill="#3A556A"/>
    <path d="M53.6521 53.6924H16.324C15.3738 53.6924 14.6035 52.9221 14.6035 51.9719V28.9337C14.6035 27.9835 15.3738 27.2133 16.324 27.2133H53.6521C54.6022 27.2133 55.3725 27.9835 55.3725 28.9337V51.9719C55.3725 52.9221 54.6022 53.6924 53.6521 53.6924Z" fill="#FEDA6F"/>
    <path d="M48.6043 50.8642C50.343 50.8642 51.7525 49.4547 51.7525 47.716C51.7525 45.9773 50.343 44.5678 48.6043 44.5678C46.8656 44.5678 45.4561 45.9773 45.4561 47.716C45.4561 49.4547 46.8656 50.8642 48.6043 50.8642Z" fill="#64798A"/>
    <path d="M43.6716 50.8642C45.4104 50.8642 46.8199 49.4547 46.8199 47.716C46.8199 45.9773 45.4104 44.5678 43.6716 44.5678C41.9329 44.5678 40.5234 45.9773 40.5234 47.716C40.5234 49.4547 41.9329 50.8642 43.6716 50.8642Z" fill="#E56353"/>
    <path d="M23.738 29.5772H17.333C16.9512 29.5772 16.6416 29.8868 16.6416 30.2687V35.1452C16.6416 35.527 16.9512 35.8366 17.333 35.8366H23.738C24.1199 35.8366 24.4295 35.527 24.4295 35.1452V30.2687C24.4295 29.8868 24.1199 29.5772 23.738 29.5772Z" fill="#E1E6E9"/>
    <path d="M24.4283 31.4143V30.7986H22.9212V29.5772H22.3055V31.5374H20.8428V29.5772H20.2271V32.9066H18.7643V29.5772H18.1487V30.9218H16.6416V31.5374H18.1487V35.8371H18.7643V33.5222H20.2271V35.8371H20.8428V34.8914H22.3055V35.8371H22.9212V33.8301H24.4283V33.2144H22.9212V31.4143H24.4283ZM22.3055 34.2758H20.8428V32.1531H22.3055V34.2758Z" fill="#EDEDED"/>
    <path d="M36.0933 50.3522C36.0933 50.6376 35.8623 50.8641 35.5814 50.8641H31.3052C31.0243 50.8641 30.7979 50.6376 30.7979 50.3522C30.7979 50.0714 31.0243 49.8449 31.3052 49.8449H35.5814C35.8623 49.8449 36.0933 50.0714 36.0933 50.3522Z" fill="#D6B24E"/>
    <path d="M16.6416 46.3116C16.6416 46.0308 16.8681 45.8043 17.1489 45.8043H33.9503C34.2312 45.8043 34.4577 46.0308 34.4577 46.3116C34.4577 46.5924 34.2312 46.8235 33.9503 46.8235H17.1489C16.8681 46.8235 16.6416 46.5924 16.6416 46.3116Z" fill="#D6B24E"/>
    <path d="M21.937 50.3522C21.937 50.6376 21.706 50.8641 21.4252 50.8641H17.1489C16.8681 50.8641 16.6416 50.6376 16.6416 50.3522C16.6416 50.0714 16.8681 49.8449 17.1489 49.8449H21.4252C21.706 49.8449 21.937 50.0714 21.937 50.3522Z" fill="#D6B24E"/>
    <path d="M29.0122 50.3522C29.0122 50.6376 28.7857 50.8641 28.5049 50.8641H24.2287C23.9478 50.8641 23.7168 50.6376 23.7168 50.3522C23.7168 50.0714 23.9478 49.8449 24.2287 49.8449H28.5049C28.7857 49.8449 29.0122 50.0714 29.0122 50.3522Z" fill="#D6B24E"/>
  </symbol>

  <symbol id="icon-yandex-money" viewBox="0 0 95 26" fill="none" xmlns="http://www.w3.org/2000/svg">
    <path d="M6.5357 13.6603L2.75697 22.1474H0L4.15097 13.0714C2.19909 12.0802 0.898152 10.2839 0.898152 6.96951C0.898152 2.32317 3.84077 0 7.34127 0H10.9033V22.1474H8.51813V13.6603H6.5357ZM8.51813 2.01345H7.24821C5.32783 2.01345 3.46948 3.28336 3.46948 6.96951C3.46948 10.5316 5.17273 11.6779 7.24821 11.6779H8.51813V2.01345Z" fill="#FF0000"/>
    <path d="M22.3984 6.53545V22.1472H20.0132V15.1471H16.4201V22.1472H14.0039V6.53545H16.4201V13.1637H20.0132V6.53545H22.3984ZM34.8194 25.2139H32.6513V22.1472H25.9605V25.2139H23.7924V20.1647H24.7526C26.1772 16.8499 26.3323 12.0184 26.3323 7.86741V6.53545H33.5805V20.1647H34.8194V25.2139ZM31.1953 8.48686H28.5003V8.76604C28.5003 12.0494 28.3457 16.8499 27.0448 20.1647H31.1953V8.48686ZM41.4792 22.3638C38.2578 22.3638 36.2754 19.7935 36.2754 14.9925C36.2754 9.97391 37.6694 6.31879 40.9838 6.31879C43.5857 6.31879 45.2894 8.27019 45.2894 13.5665V14.899H38.7842C38.7842 18.4305 39.7754 20.2888 41.6958 20.2888C43.0588 20.2888 44.1431 19.6694 44.7625 19.236L45.3204 21.0934C44.3292 21.8685 43.0278 22.3638 41.4792 22.3638ZM38.8152 12.9165H42.8111C42.8111 10.2526 42.3773 8.30121 40.9838 8.30121C39.4967 8.30121 38.9703 10.1285 38.8152 12.9165ZM50.1834 14.3721V22.1472H47.7672V6.53545H50.1834V13.7526L53.9311 6.53545H56.3784L52.5066 13.8767L56.9358 22.1472H54.3029L50.1834 14.3721ZM57.2455 14.3415C57.2455 9.44705 59.1353 6.31879 62.7905 6.31879C64.184 6.31879 64.9896 6.69055 65.671 7.12388L65.3303 9.4165C64.6798 8.85862 63.7507 8.33223 62.7594 8.33223C61.0247 8.33223 59.7858 10.2836 59.7858 14.2175C59.7858 18.1203 60.715 20.3509 62.6664 20.3509C63.8432 20.3509 64.7419 19.886 65.2993 19.3907L65.8567 21.187C65.0206 21.899 64.0294 22.3638 62.6043 22.3638C59.2589 22.3638 57.2455 19.6694 57.2455 14.3415Z" fill="black"/>
    <path d="M76.4485 12.435C76.4485 11.1005 76.5604 10.2536 79.3242 8.19046C81.6123 6.48242 88.9465 0.64563 88.9465 0.64563V10.3891H94.524V24.4125H78.1906C77.2325 24.4125 76.4482 23.6283 76.4482 22.6701L76.4485 12.435Z" fill="#FFD000"/>
    <path d="M88.9462 10.3893V16.035L78.6973 23.0172L91.6553 18.801V10.3893H88.9462Z" fill="#D8B100"/>
    <path d="M84.2629 10.0973C84.8622 9.38311 85.7375 9.13097 86.2181 9.53428C86.6987 9.93763 86.6027 10.8436 86.0033 11.5578C85.4043 12.2719 84.5287 12.5237 84.0481 12.1203C83.5674 11.7171 83.6637 10.8113 84.2629 10.0973Z" fill="#1D1D1B"/>
  </symbol>

  <symbol id="icon-qiwi" viewBox="0 0 88 32" fill="none" xmlns="http://www.w3.org/2000/svg">
    <path d="M57.8816 6.70064V21.5538C57.8816 21.7767 57.7005 21.9575 57.4771 21.9575H54.4366C54.2132 21.9575 54.0321 21.7767 54.0321 21.5538V6.70064C54.0321 6.47758 54.2132 6.29685 54.4366 6.29685H57.4771C57.7005 6.29685 57.8816 6.47758 57.8816 6.70064ZM81.5734 6.29685H78.1714C77.9935 6.29685 77.8365 6.41197 77.7846 6.5805L75.0926 15.3581L72.1339 6.57074C72.0789 6.40723 71.9243 6.29685 71.7502 6.29685H69.3763C69.2021 6.29685 69.0476 6.40723 68.9925 6.57074L66.0338 15.3581L63.3419 6.5805C63.2899 6.41197 63.1329 6.29685 62.955 6.29685H59.553C59.423 6.29685 59.3009 6.35888 59.2248 6.46335C59.1488 6.56771 59.1282 6.70209 59.1694 6.82408L64.1661 21.6853C64.2212 21.8488 64.3757 21.9591 64.5497 21.9591H67.2499C67.4239 21.9591 67.5784 21.8488 67.6336 21.6855L70.5632 13.0032L73.4928 21.6855C73.548 21.8488 73.7025 21.9591 73.8765 21.9591H76.5767C76.7507 21.9591 76.9053 21.8488 76.9604 21.6853L81.9571 6.82408C81.9982 6.70209 81.9776 6.56771 81.9016 6.46335C81.8256 6.35888 81.7034 6.29685 81.5734 6.29685ZM86.6899 6.29685H83.6493C83.426 6.29685 83.2449 6.47758 83.2449 6.70064V21.5538C83.2449 21.7767 83.426 21.9575 83.6493 21.9575H86.6899C86.9133 21.9575 87.0944 21.7767 87.0944 21.5538V6.70064C87.0944 6.47758 86.9133 6.29685 86.6899 6.29685ZM52.2727 21.448C52.4497 21.6437 52.3044 21.9591 52.0372 21.9591H48.3115C48.1599 21.9591 48.0161 21.8917 47.9191 21.7753L47.2876 21.0173C46.0014 21.8497 44.47 22.3352 42.8262 22.3352C38.2911 22.3352 34.6015 18.6532 34.6015 14.1272C34.6015 9.6013 38.2911 5.91922 42.8262 5.91922C47.3615 5.91922 51.0511 9.6013 51.0511 14.1272C51.0511 15.7587 50.5696 17.2792 49.744 18.5584L52.2727 21.448ZM44.8885 18.1376L43.2567 16.179C43.0856 15.9736 43.232 15.6621 43.4997 15.6621H46.9138C47.0764 15.1792 47.1683 14.6631 47.1683 14.1272C47.1683 11.6734 45.3382 9.55794 42.8262 9.55794C40.3144 9.55794 38.4842 11.6734 38.4842 14.1272C38.4842 16.581 40.3144 18.6667 42.8262 18.6667C43.5874 18.6667 44.2845 18.4728 44.8885 18.1376ZM25.2663 21.3726C25.3588 21.9917 25.1629 22.2481 24.966 22.2481C24.7513 22.2481 24.4816 21.9971 24.1635 21.5019C23.8498 21.0132 23.7349 20.4523 23.8904 20.1689C23.9931 19.9815 24.2084 19.8999 24.4797 20.0022C25.0049 20.2004 25.2111 21.0028 25.2663 21.3726ZM22.3606 22.7222C22.9902 23.2536 23.1819 23.8852 22.8487 24.3308C22.6634 24.5751 22.3632 24.7099 22.0034 24.7099C21.65 24.7099 21.2901 24.5795 21.0401 24.3617C20.4674 23.8624 20.2994 23.0526 20.6733 22.5926C20.8193 22.4128 21.0566 22.3138 21.3411 22.3138C21.6868 22.3138 22.0488 22.4591 22.3606 22.7222ZM21.3069 27.8511C24.0196 27.8511 26.9633 28.7795 30.2212 31.6602C30.5476 31.9488 30.982 31.5903 30.6975 31.2318C27.4956 27.1976 24.5343 26.4294 21.5811 25.78C17.9687 24.9857 16.1105 22.9571 14.8155 20.73C14.5578 20.2868 14.4423 20.3649 14.4191 20.9345C14.3908 21.631 14.4389 22.5529 14.5951 23.4598C14.4495 23.4666 14.3028 23.4648 14.1555 23.4648C8.98743 23.4648 4.79792 19.2839 4.79792 14.1265C4.79792 8.96903 8.98743 4.78808 14.1555 4.78808C19.3235 4.78808 23.513 8.96903 23.513 14.1265C23.513 14.4934 23.4951 14.8561 23.4538 15.212C22.7702 15.0891 21.4255 15.0752 20.4819 15.1566C20.1269 15.1872 20.1769 15.3522 20.4452 15.4006C23.5385 15.9585 25.6638 17.8715 26.1495 21.3431C26.1607 21.4229 26.2654 21.4469 26.3068 21.3778C27.5797 19.2582 28.3109 16.7774 28.3109 14.1265C28.3109 6.32463 21.9733 0 14.1555 0C6.33762 0 0 6.32463 0 14.1265C0 21.9283 6.33762 28.2536 14.1555 28.2536C16.2297 28.2536 18.2871 27.8511 21.3069 27.8511Z" fill="#FF8C00"/>
  </symbol>

  <symbol id="icon-webmoney" viewBox="0 0 159 48" fill="none" xmlns="http://www.w3.org/2000/svg">
    <path d="M131.745 8.64459C134.239 8.64459 136.612 9.21635 138.741 10.2391C139.075 10.3898 139.411 10.5703 139.744 10.7509L138.284 12.045L136.095 9.78826L132.323 13.0977L130.102 10.7204L123.167 16.8888L127.607 21.7331L125.874 23.2372L130.255 28.0815L128.521 29.5849L134.788 36.4754L138.497 33.1053L141.723 36.7169C141.083 37.1984 140.384 37.6808 139.624 38.1013C137.312 39.3949 134.634 40.1457 131.775 40.1457C122.983 40.1457 115.836 33.0764 115.836 24.3816C115.805 15.7456 122.954 8.64459 131.745 8.64459ZM128.824 23.4181L132.627 20.048L136.034 23.8089L132.231 27.1787L128.824 23.4181ZM131.532 29.9174L135.304 26.5175L138.741 30.2781L134.939 33.6483L131.532 29.9174ZM126.118 17.0096L129.92 13.6395L133.327 17.4004L129.524 20.7704L126.118 17.0096ZM133.083 15.2037L135.912 12.6764L138.468 15.4747L135.639 18.0319L133.083 15.2037ZM138.133 26.7877L140.961 24.2603L143.517 27.0878L140.688 29.6168L138.133 26.7877ZM140.627 32.475L143.456 29.947L146.01 32.7452L143.182 35.302L140.627 32.475ZM141.783 19.4763L143.669 17.7911L145.372 19.6573L143.486 21.3418L141.783 19.4763ZM139.35 13.9099L141.235 12.1953L142.94 14.0905L141.052 15.7755L139.35 13.9099ZM144.186 25.0431L146.072 23.3581L147.806 25.2237L145.89 26.9082L144.186 25.0431ZM135.699 20.8607L138.529 18.3332L141.083 21.1309L138.255 23.6588L135.699 20.8607Z" fill="#036CB5"/>
    <mask id="mask0" mask-type="alpha" maskUnits="userSpaceOnUse" x="10" y="15" width="18" height="15">
    <path d="M10.4717 15.1893V29.7327H27.0981V15.1893H10.4717Z" fill="white"/>
    </mask>
    <path d="M18.8156 19.4958H18.6721L15.9784 29.7327H13.7767L10.4717 15.1893H12.7561L15.041 26.0411H15.1837L17.8353 15.1893H19.6515L22.4872 26.0411H22.63L24.7111 15.1893H27.0981L23.7922 29.7327H21.5888L18.8156 19.4958Z" fill="#036CB5"/>
    <path d="M29.9956 23.5413H34.6663C34.565 21.3881 33.524 20.5273 32.4228 20.5273C31.1785 20.5273 30.219 21.4912 29.9956 23.5413ZM36.2981 27.3987V28.958C35.3803 29.4911 34.1569 29.9017 32.6873 29.9017C29.261 29.9017 27.8535 27.7683 27.8535 24.5278C27.8535 21.4086 29.424 19.1522 32.484 19.1522C35.0333 19.1522 36.605 20.8148 36.605 24.1575V24.9166H29.9547C29.9547 27.3773 30.9537 28.4648 33.0557 28.4648C34.1569 28.4648 35.1769 28.0744 36.2981 27.3987Z" fill="#036CB5"/>
    <path d="M41.3511 28.2569C42.004 28.5441 42.7186 28.5866 43.2294 28.5866C44.7387 28.5866 45.8798 27.6416 45.8798 24.3195C45.8798 21.7144 44.9415 20.8733 43.5753 20.8733C42.7587 20.8733 42.1673 21.0997 41.3511 21.55V28.2569ZM41.3726 20.0325C41.983 19.7054 43.0233 19.2732 44.1253 19.2732C46.6551 19.2732 48.0221 21.0372 48.0221 24.3195C48.0221 28.1556 46.1858 30.0222 43.2294 30.0222C42.1474 30.0222 40.4747 29.6733 39.25 29.0155V14.6993L41.3726 14.1872V20.0325Z" fill="#036CB5"/>
    <path d="M57.203 26.6469H57.3052L61.6699 15.1804H64.2008V29.7249H61.9977V19.1807H61.8138L57.6516 29.7249H56.3472L52.1841 19.4272H52.0012V29.7249H50.165V15.1804H52.6341L57.203 26.6469Z" fill="#036CB5"/>
    <path d="M73.2021 24.5271C73.2021 21.7582 72.081 20.5895 70.6938 20.5895C69.3479 20.5895 68.1841 21.7582 68.1841 24.5271C68.1841 27.3377 69.2462 28.4648 70.6938 28.4648C72.1415 28.4648 73.2021 27.3377 73.2021 24.5271ZM66.043 24.5271C66.043 20.9362 68.0019 19.1522 70.6938 19.1522C73.3874 19.1522 75.3452 20.9362 75.3452 24.5271C75.3452 28.0341 73.489 29.9017 70.6938 29.9017C67.8992 29.9017 66.043 28.0341 66.043 24.5271Z" fill="#036CB5"/>
    <path d="M76.959 20.6712C77.8769 20.1165 79.8157 19.1522 82.1611 19.1522C84.6089 19.1522 85.5252 20.1165 85.5252 22.2287V29.6553H83.4051V22.7011C83.4051 21.081 82.6109 20.7939 81.5692 20.7939C80.7542 20.7939 79.7125 21.1636 79.0806 21.5328V29.6553H76.959V20.6712Z" fill="#036CB5"/>
    <path d="M90.0165 23.5413H94.6876C94.5872 21.3881 93.5456 20.5273 92.444 20.5273C91.1993 20.5273 90.2418 21.4912 90.0165 23.5413ZM96.3191 27.3987V28.958C95.4017 29.4911 94.1776 29.9017 92.7086 29.9017C89.2834 29.9017 87.875 27.7683 87.875 24.5278C87.875 21.4086 89.4449 19.1522 92.5052 19.1522C95.056 19.1522 96.6275 20.8148 96.6275 24.1575V24.9166H89.9764C89.9764 27.3773 90.9761 28.4648 93.0772 28.4648C94.1776 28.4648 95.1992 28.0744 96.3191 27.3987Z" fill="#036CB5"/>
    <path d="M105.1 19.1522H107.283L103.591 29.4071C102.569 32.2381 101.326 33.7151 98.9807 33.7151V32.0342C100.369 32.0342 101.224 30.926 101.715 29.4071L97.7979 19.1522H100.042L102.653 26.7006H102.776L105.1 19.1522Z" fill="#036CB5"/>
    <path d="M32.5066 39.1862V38.3004C33.2631 38.6848 33.9829 38.8777 34.6649 38.8777C35.233 38.8777 35.6682 38.7735 35.9723 38.563C36.2764 38.354 36.4287 38.0714 36.4287 37.7142C36.4287 37.3571 36.3037 37.0891 36.0535 36.9109C35.8039 36.733 35.3374 36.5125 34.655 36.2515C34.4182 36.1625 34.2669 36.1045 34.1986 36.0768C34.1314 36.05 33.9996 35.9944 33.8033 35.9123C33.6076 35.8305 33.4793 35.7682 33.4187 35.7272C33.3577 35.6849 33.255 35.6229 33.1094 35.5416C32.9643 35.4584 32.8664 35.3851 32.8154 35.3211C32.7653 35.2551 32.6956 35.1719 32.6077 35.0725C32.52 34.9735 32.4607 34.8751 32.4302 34.7748C32.4001 34.6754 32.3709 34.5604 32.3442 34.4297C32.3175 34.2988 32.3037 34.1585 32.3037 34.0074C32.3037 33.4238 32.5185 32.9548 32.9472 32.5974C33.3766 32.2412 33.9691 32.0627 34.7261 32.0627C35.3947 32.0627 36.0607 32.1859 36.7223 32.4332V33.3694C36.0806 33.0533 35.4387 32.8967 34.7968 32.8967C34.3442 32.8967 34.0063 32.9912 33.7834 33.1832C33.5604 33.3752 33.4488 33.6292 33.4488 33.9454C33.4488 34.2819 33.5604 34.537 33.7834 34.7124C34.0063 34.8885 34.4052 35.0824 34.9796 35.2945C35.9657 35.6583 36.6449 35.9876 37.0162 36.2832C37.3881 36.5774 37.5738 37.0179 37.5738 37.6004C37.5738 38.2119 37.3188 38.7116 36.8086 39.0994C36.2985 39.4871 35.5977 39.6811 34.7056 39.6811C33.8884 39.6811 33.1552 39.5155 32.5066 39.1862ZM42.8184 39.5252H41.8558L41.7847 38.9281C41.2032 39.4091 40.6225 39.6497 40.0414 39.6497C39.5552 39.6497 39.1784 39.5179 38.9117 39.2529C38.6444 38.9887 38.5111 38.6551 38.5111 38.2491C38.5111 38.036 38.5498 37.8324 38.6277 37.6367C38.7055 37.4408 38.8339 37.251 39.0128 37.0657C39.1918 36.8801 39.4619 36.7312 39.8233 36.6175C40.1847 36.5036 40.6191 36.4474 41.126 36.4474H41.7545V36.1695C41.7545 35.7097 41.67 35.3967 41.501 35.2276C41.3317 35.0594 41.0481 34.9754 40.6496 34.9754C40.1632 34.9754 39.5651 35.1769 38.8559 35.5829V34.7595C39.5857 34.4233 40.3015 34.2538 41.0041 34.2538C41.6862 34.2538 42.1597 34.3953 42.4228 34.6773C42.6866 34.958 42.8184 35.3842 42.8184 35.9525V39.5252ZM41.7646 37.1677H41.2271C40.1189 37.1677 39.5651 37.5009 39.5651 38.1669C39.5651 38.401 39.6391 38.5691 39.7879 38.6761C39.9369 38.7828 40.1227 38.8355 40.3459 38.8355C40.629 38.8355 40.9029 38.7668 41.1664 38.6291C41.4299 38.4928 41.6295 38.335 41.7646 38.1564V37.1677ZM44.4652 41.5849V35.0069C44.7626 34.7798 45.1134 34.5972 45.5192 34.4602C45.9248 34.3239 46.3228 34.2538 46.7152 34.2538C48.12 34.2538 48.8231 35.1156 48.8231 36.839C48.8231 37.7312 48.6407 38.4142 48.2756 38.8869C47.9109 39.361 47.3878 39.5967 46.7048 39.5967C46.2317 39.5967 45.8365 39.4766 45.5192 39.2379V41.5849H44.4652ZM45.5091 35.3557V38.4763C45.6442 38.6062 45.8145 38.7029 46.0207 38.7685C46.2269 38.8336 46.4078 38.8661 46.563 38.8661C46.9344 38.8661 47.227 38.7211 47.4398 38.4295C47.6526 38.1372 47.7586 37.6072 47.7586 36.839C47.7586 36.2145 47.6494 35.7567 47.4298 35.4701C47.2102 35.1808 46.9244 35.0374 46.573 35.0374C46.175 35.0374 45.8203 35.1431 45.5091 35.3557ZM51.2403 34.3067V39.5252H50.1863V34.5636L51.2403 34.3067ZM50.024 32.7925C50.024 32.6073 50.0932 32.4448 50.2315 32.3033C50.3705 32.1627 50.531 32.0921 50.7127 32.0921C50.8956 32.0921 51.056 32.1627 51.1948 32.3033C51.3333 32.4448 51.4025 32.6073 51.4025 32.7925C51.4025 32.9778 51.3333 33.1414 51.1948 33.2826C51.056 33.4219 50.8956 33.4925 50.7127 33.4925C50.531 33.4925 50.3705 33.4219 50.2315 33.2826C50.0932 33.1414 50.024 32.9778 50.024 32.7925ZM55.1876 38.9281C55.6744 38.9281 56.211 38.7496 56.7989 38.3934V39.1757C56.2587 39.4919 55.6606 39.6497 55.0053 39.6497C54.181 39.6497 53.5748 39.4127 53.1863 38.9389C52.7977 38.4649 52.6034 37.803 52.6034 36.952C52.6034 36.1417 52.8029 35.489 53.201 34.9964C53.6001 34.5023 54.1671 34.2538 54.9035 34.2538C55.5527 34.2538 56.0554 34.4672 56.4143 34.8932C56.7722 35.3194 56.9508 35.943 56.9508 36.7664V37.1479H53.6473C53.6473 37.759 53.7724 38.2091 54.022 38.4956C54.2721 38.785 54.6607 38.9281 55.1876 38.9281ZM54.8731 34.9447C54.5561 34.9447 54.2888 35.0719 54.0726 35.3248C53.8568 35.5791 53.7213 35.9573 53.6674 36.4569H55.9881C55.9608 35.9497 55.843 35.5715 55.6334 35.3211C55.4243 35.0699 55.1708 34.9447 54.8731 34.9447ZM58.2935 39.5252V35.0166C59.1245 34.5083 59.986 34.2538 60.8782 34.2538C61.4795 34.2538 61.9082 34.3783 62.165 34.6256C62.4218 34.8729 62.5501 35.2637 62.5501 35.7986V39.5252H61.4963V36.0356C61.4963 35.6583 61.4185 35.404 61.2632 35.2744C61.1077 35.1431 60.8816 35.0785 60.5841 35.0785C60.1789 35.0785 59.7666 35.2025 59.3479 35.4493V39.5252H58.2935ZM65.2003 34.5023H66.8016L66.5481 35.2025H65.2003V37.9196C65.2003 38.6062 65.4909 38.9492 66.0718 38.9492C66.2947 38.9492 66.521 38.9016 66.7515 38.8052V39.4635C66.4337 39.5874 66.0551 39.6497 65.616 39.6497C65.1092 39.6497 64.7377 39.5035 64.501 39.2109C64.2647 38.9205 64.1463 38.5374 64.1463 38.0627V33.8222L65.2003 33.0492V34.5023ZM68.8646 34.3067V39.5252H67.8103V34.5636L68.8646 34.3067ZM67.6484 32.7925C67.6484 32.6073 67.7177 32.4448 67.8554 32.3033C67.9939 32.1627 68.1543 32.0921 68.3372 32.0921C68.5194 32.0921 68.6803 32.1627 68.8183 32.3033C68.9571 32.4448 69.0264 32.6073 69.0264 32.7925C69.0264 32.9778 68.9571 33.1414 68.8183 33.2826C68.6803 33.4219 68.5194 33.4925 68.3372 33.4925C68.1543 33.4925 67.9939 33.4219 67.8554 33.2826C67.7177 33.1414 67.6484 32.9778 67.6484 32.7925ZM76.0396 34.6665V35.489C75.5327 35.1463 75.0191 34.9754 74.4993 34.9754C74.2358 34.9754 74.0196 35.0268 73.8502 35.13C73.6816 35.2322 73.5971 35.3976 73.5971 35.6229C73.5971 35.8369 73.6897 36.0062 73.8755 36.1331C74.0615 36.2604 74.3537 36.3891 74.7527 36.5186C74.9757 36.5942 75.1426 36.653 75.2538 36.6939C75.3657 36.7361 75.5122 36.8048 75.695 36.9003C75.8773 36.9968 76.0143 37.0919 76.1054 37.1888C76.1966 37.2852 76.2793 37.4114 76.3538 37.5698C76.4282 37.7276 76.4649 37.9021 76.4649 38.0944C76.4649 38.5684 76.2774 38.9456 75.903 39.2271C75.5279 39.5085 75.0259 39.6497 74.398 39.6497C73.695 39.6497 73.1102 39.4986 72.6444 39.1957V38.3934C73.2388 38.7496 73.7828 38.9281 74.2765 38.9281C75.0191 38.9281 75.3909 38.6818 75.3909 38.187C75.3909 38.0914 75.3689 38.0015 75.325 37.9196C75.2811 37.8373 75.2305 37.7704 75.1732 37.7187C75.1155 37.6673 75.0224 37.6092 74.894 37.543C74.7655 37.4791 74.6578 37.4313 74.5698 37.3998C74.4822 37.3692 74.3437 37.3194 74.1547 37.251C73.8774 37.1479 73.6579 37.059 73.4955 36.9831C73.3331 36.907 73.1715 36.8095 73.0092 36.6899C72.8468 36.5697 72.7284 36.4263 72.6546 36.2621C72.5804 36.0979 72.5432 35.9017 72.5432 35.6755C72.5432 35.3871 72.6106 35.1408 72.7457 34.9354C72.8807 34.7281 73.0568 34.5806 73.2726 34.4917C73.4888 34.4022 73.6864 34.34 73.8655 34.3067C74.0448 34.2713 74.222 34.2538 74.398 34.2538C74.9724 34.2538 75.5194 34.3914 76.0396 34.6665ZM81.6387 39.5252H80.6761L80.6048 38.9281C80.0234 39.4091 79.4429 39.6497 78.8621 39.6497C78.3756 39.6497 77.9989 39.5179 77.732 39.2529C77.4648 38.9887 77.3317 38.6551 77.3317 38.2491C77.3317 38.036 77.3704 37.8324 77.4483 37.6367C77.5259 37.4408 77.6543 37.251 77.8334 37.0657C78.0129 36.8801 78.2824 36.7312 78.6439 36.6175C79.0055 36.5036 79.4399 36.4474 79.9459 36.4474H80.575V36.1695C80.575 35.7097 80.49 35.3967 80.322 35.2276C80.152 35.0594 79.8685 34.9754 79.4705 34.9754C78.9837 34.9754 78.3856 35.1769 77.6763 35.5829V34.7595C78.4062 34.4233 79.122 34.2538 79.8246 34.2538C80.5074 34.2538 80.9796 34.3953 81.2433 34.6773C81.5067 34.958 81.6387 35.3842 81.6387 35.9525V39.5252ZM80.5856 37.1677H80.0479C78.9397 37.1677 78.3855 37.5009 78.3855 38.1669C78.3855 38.401 78.46 38.5691 78.6084 38.6761C78.7574 38.7828 78.9426 38.8355 79.166 38.8355C79.4496 38.8355 79.7225 38.7668 79.987 38.6291C80.2504 38.4928 80.4501 38.335 80.5856 38.1564V37.1677ZM84.2894 34.5023H85.8905L85.6365 35.2025H84.2894V37.9196C84.2894 38.6062 84.5797 38.9492 85.16 38.9492C85.3833 38.9492 85.6089 38.9016 85.8397 38.8052V39.4635C85.5219 39.5874 85.1441 39.6497 84.7036 39.6497C84.1978 39.6497 83.8264 39.5035 83.5898 39.2109C83.3531 38.9205 83.2345 38.5374 83.2345 38.0627V33.8222L84.2894 33.0492V34.5023Z" fill="#B6B6B6"/>
  </symbol>

  <symbol id="icon-arrow" width="5" height="9" viewBox="0 0 5 9" xmlns="http://www.w3.org/2000/svg">
    <path fill-rule="evenodd" clip-rule="evenodd" d="M4.38871 0.146447C4.19345 -0.0488155 3.87687 -0.0488156 3.6816 0.146447L0.146069 3.68198C0.127763 3.70029 0.111173 3.71966 0.0962996 3.7399C0.0739932 3.77025 0.0555468 3.80255 0.0409603 3.83613C-0.0384836 4.01897 -0.0034542 4.2396 0.146055 4.38911L3.68159 7.92464C3.87685 8.11991 4.19343 8.11991 4.3887 7.92464C4.58396 7.72938 4.58396 7.4128 4.3887 7.21754L1.20671 4.03555L4.38871 0.853554C4.58397 0.658291 4.58397 0.341709 4.38871 0.146447Z" fill="inherit"/>
  </symbol>

  <symbol id="icon-facebook" viewBox="0 0 7 14" xmlns="http://www.w3.org/2000/svg">
    <path d="M5.20068 2.66527H7V0H4.88486V0.00961208C2.32199 0.100633 1.79673 1.54524 1.75043 3.06251H1.74516V4.39341H0V7.00351H1.74516V14H4.37522V7.00351H6.52966L6.94584 4.39341H4.37608V3.58932C4.37608 3.07654 4.71635 2.66527 5.20068 2.66527Z" fill="inherit"/>
  </symbol>

  <symbol id="icon-vk" viewBox="0 0 16 10" xmlns="http://www.w3.org/2000/svg">
    <path d="M14.1037 6.60321C14.1393 6.63723 14.1762 6.67241 14.2143 6.70884C15.0084 7.44516 15.9613 8.50873 15.8819 9.08143C15.8819 9.32687 15.7231 9.49049 15.1672 9.49049H13.0231C12.0931 9.49049 11.744 9.0915 11.1821 8.44927C11.0243 8.26895 10.8498 8.06945 10.6409 7.85423C9.76736 6.95428 9.2909 7.60879 9.2909 8.9178C9.2909 9.08142 9.21149 9.24505 9.13208 9.32687C9.05267 9.40868 8.89386 9.49049 8.73504 9.49049C8.64677 9.49049 8.55583 9.49128 8.46239 9.49209C7.21073 9.50296 5.51119 9.51772 3.81165 7.6906C1.98524 5.64527 0 1.63643 0 1.22736C0 0.981923 0.238228 0.90011 0.555866 0.90011H2.62051C3.01756 0.90011 3.3352 1.14555 3.4146 1.55462C4.12929 3.10907 5.71748 6.13615 6.11453 4.41808C6.35275 3.43632 6.43216 1.14555 5.39984 0.981923C4.84397 0.90011 5.8763 0.245605 7.38508 0.245605C7.78212 0.245605 8.17917 0.327418 8.57622 0.409231C8.81445 0.409231 9.05268 0.572857 9.21149 0.736484C9.37031 0.90011 9.44972 1.14555 9.37031 1.39099C9.37031 1.94338 9.35146 2.4375 9.33496 2.86969C9.29284 3.97377 9.26613 4.67377 9.60854 4.90895C10.085 5.23621 11.3555 3.19088 11.9908 1.63643C12.0043 1.6016 12.0173 1.56736 12.03 1.53387C12.166 1.17401 12.2696 0.90011 12.7055 0.90011H15.326C16.6813 0.90011 15.3238 2.66524 14.1641 4.17325C14.1007 4.25574 14.0378 4.33746 13.9761 4.41808C13.0558 5.60324 13.0983 5.64383 14.1037 6.60321Z" fill="inherit"/>
  </symbol>

  <symbol id="icon-twitter" viewBox="0 0 15 13" xmlns="http://www.w3.org/2000/svg">
    <path d="M15 1.84931C14.4479 2.09394 13.8555 2.25984 13.2331 2.33391C13.8686 1.95335 14.3551 1.34972 14.5857 0.632666C13.9895 0.985092 13.3315 1.241 12.6304 1.37972C12.0689 0.780778 11.2703 0.407715 10.3846 0.407715C8.6852 0.407715 7.30733 1.78558 7.30733 3.48401C7.30733 3.72489 7.33451 3.96016 7.38701 4.18514C4.83 4.0567 2.56262 2.83163 1.0451 0.970092C0.779828 1.42377 0.628922 1.95239 0.628922 2.51668C0.628922 3.5843 1.17257 4.52631 1.99743 5.07744C1.49314 5.06058 1.01885 4.92185 0.603627 4.69126V4.72969C0.603627 6.22004 1.66468 7.46386 3.07159 7.74695C2.81382 7.81631 2.54201 7.85474 2.26081 7.85474C2.06211 7.85474 1.86995 7.83506 1.68154 7.79756C2.07333 9.02077 3.20939 9.91028 4.55539 9.93466C3.50277 10.7595 2.17551 11.2497 0.733922 11.2497C0.485539 11.2497 0.240882 11.2347 0 11.2076C1.36194 12.0821 2.97882 12.592 4.71662 12.592C10.3771 12.592 13.4712 7.90349 13.4712 3.83739L13.4609 3.43903C14.0655 3.00783 14.5885 2.46607 15 1.84931Z" fill="inherit"/>
  </symbol>

</svg>
