<svg version="1.1"  xmlns="http://www.w3.org/2000/svg" xmlns:xlink="http://www.w3.org/1999/xlink">

  <symbol id="icon-logo"  viewBox="0 0 33 33" xmlns="http://www.w3.org/2000/svg">
    <path fill="inherit" d="M31.6867 10.1438C29.1247 4.13976 23.1712 0 16.4355 0C7.27482 0 0 7.55758 0 16.5645C0 25.6485 7.35081 33 16.4355 33C25.4523 33 33 25.7149 33 16.5645C33 14.3462 32.5582 12.186 31.6867 10.1438ZM30.213 11.6405C28.5196 10.3002 26.3314 9.3651 24.2361 8.76994C23.6414 6.67257 22.7082 4.484 21.3567 2.78599C25.4708 4.25996 28.7383 7.52677 30.213 11.6405ZM24.3104 15.5982C24.8381 15.6046 25.2656 16.0352 25.2656 16.5645C25.2656 17.0937 24.8381 17.5244 24.3104 17.5307C24.3066 17.5304 24.303 17.5296 24.2993 17.5294C24.2831 17.5284 24.2672 17.5291 24.2513 17.5289C23.7405 17.5038 23.3324 17.0818 23.3321 16.5651C23.3321 16.5649 23.3321 16.5647 23.3321 16.5645C23.3321 16.5642 23.3321 16.5641 23.3321 16.5638C23.3324 16.0537 23.73 15.6359 24.2315 15.6011C24.2338 15.6011 24.2361 15.6014 24.2383 15.6014C24.2585 15.6014 24.2788 15.6007 24.2993 15.5995C24.303 15.5992 24.3066 15.5985 24.3104 15.5982ZM17.4023 2.09408C19.2552 2.706 20.9474 5.02908 22.0448 8.25271C20.5621 7.96931 19.0014 7.79889 17.4023 7.74978V2.09408ZM17.4023 9.68421C19.2333 9.7437 21.0035 9.9718 22.6439 10.3538C22.904 11.4649 23.0971 12.6474 23.2107 13.8767C22.4454 14.1877 21.842 14.8159 21.5647 15.5977H17.4023V9.68421ZM17.4023 17.5312H21.5647C21.842 18.3131 22.4455 18.9414 23.2109 19.2523C23.1026 20.432 22.9213 21.5745 22.6729 22.6572C21.5469 22.9132 20.3554 23.1001 19.1236 23.2114C18.8128 22.4458 18.1844 21.8421 17.4023 21.5647V17.5312ZM11.5096 2.8032C10.8596 3.63509 10.2689 4.63959 9.75498 5.80297C9.72598 5.80213 9.69717 5.80078 9.66797 5.80078C7.8248 5.80078 6.42978 7.51337 6.83841 9.33584C5.2452 9.93854 3.88459 10.6968 2.80668 11.5629C4.2755 7.50163 7.47985 4.27595 11.5096 2.8032ZM10.6348 8.70117C10.6348 9.23426 10.2011 9.66797 9.66797 9.66797C9.13488 9.66797 8.70117 9.23426 8.70117 8.70117C8.70117 8.16808 9.13488 7.73438 9.66797 7.73438C10.2011 7.73438 10.6348 8.16808 10.6348 8.70117ZM7.90717 11.0038C7.99367 11.07 8.08371 11.1318 8.17743 11.1882C7.94108 12.5706 7.79399 14.0882 7.74933 15.5977H2.09099C2.66997 13.8044 4.81271 12.093 7.90717 11.0038ZM7.74901 17.5312C7.79599 19.1332 7.95925 20.6667 8.22344 22.1037C4.98996 21.039 2.69459 19.3811 2.09144 17.5312H7.74901ZM2.79179 21.4798C4.47595 22.8016 6.63609 23.6978 8.71774 24.2718C9.37864 26.6732 10.3432 28.7092 11.5222 30.2089C7.47257 28.7462 4.25513 25.5292 2.79179 21.4798ZM15.4688 30.9028C13.173 30.1325 11.649 27.0602 10.891 24.7697C11.7873 24.9358 12.7141 25.0618 13.6614 25.145C13.9301 26.0243 14.6062 26.727 15.4688 27.0329V30.9028ZM15.4688 21.5647C14.6868 21.8421 14.0584 22.4457 13.7475 23.2112C12.5463 23.1021 11.3955 22.9208 10.3157 22.678C9.95549 21.0711 9.74048 19.3337 9.6837 17.5312H15.4688V21.5647ZM15.4688 15.5977H9.6837C9.72688 14.2171 9.86068 12.8342 10.0735 11.5726C11.0472 11.4357 11.8674 10.8141 12.2807 9.95988C13.3176 9.81041 14.385 9.71921 15.4688 9.68473V15.5977ZM15.4688 7.75036C14.4561 7.78065 13.4561 7.85813 12.4783 7.98291C12.3291 7.39967 12.0023 6.8872 11.5597 6.50538C12.6184 4.14633 14.0124 2.58367 15.4688 2.09685V7.75036ZM16.4355 25.2656C15.9063 25.2656 15.4756 24.8381 15.4693 24.3104C15.4696 24.3067 15.4704 24.3031 15.4706 24.2993C15.4715 24.2833 15.4709 24.2676 15.4711 24.2518C15.4959 23.7406 15.9183 23.332 16.4355 23.332C16.9528 23.332 17.3752 23.7406 17.4 24.2518C17.4002 24.2677 17.3995 24.2834 17.4005 24.2993C17.4008 24.3031 17.4015 24.3067 17.4018 24.3104C17.3954 24.8381 16.9648 25.2656 16.4355 25.2656ZM17.4023 30.9084V27.0329C18.2649 26.727 18.9409 26.0244 19.2097 25.1451C20.1923 25.0589 21.1536 24.9269 22.0829 24.7524C21.3011 27.062 19.7175 30.1567 17.4023 30.9084ZM21.395 30.208C22.7537 28.5052 23.6744 26.329 24.2598 24.2494C26.3348 23.6735 28.5191 22.7694 30.2139 21.4424C28.7442 25.5085 25.492 28.7404 21.395 30.208ZM24.7679 22.0759C24.9352 21.1892 25.0614 20.2735 25.1446 19.3387C26.0241 19.0701 26.727 18.381 27.0329 17.5184H30.9019C30.1366 19.7771 27.0465 21.3183 24.7679 22.0759ZM27.0329 15.5977C26.727 14.735 26.0241 14.0588 25.1446 13.7902C25.0587 12.8215 24.9264 11.8725 24.7508 10.9538C27.0588 11.7424 30.1315 13.31 30.9019 15.5977H27.0329Z"/>
  </symbol>

  <symbol id="icon-globe" viewBox="0 0 20 20" xmlns="http://www.w3.org/2000/svg">
    <path d="M10 0C4.5 0 0 4.5 0 10C0 15.5 4.5 20 10 20C15.5 20 20 15.5 20 10C20 4.5 15.5 0 10 0ZM16.9 6H14C13.7 4.7 13.2 3.6 12.6 2.4C14.4 3.1 16 4.3 16.9 6ZM10 2C10.8 3.2 11.5 4.5 11.9 6H8.1C8.5 4.6 9.2 3.2 10 2ZM2.3 12C2.1 11.4 2 10.7 2 10C2 9.3 2.1 8.6 2.3 8H5.7C5.6 8.7 5.6 9.3 5.6 10C5.6 10.7 5.7 11.3 5.7 12H2.3ZM3.1 14H6C6.3 15.3 6.8 16.4 7.4 17.6C5.6 16.9 4 15.7 3.1 14ZM6 6H3.1C4.1 4.3 5.6 3.1 7.4 2.4C6.8 3.6 6.3 4.7 6 6ZM10 18C9.2 16.8 8.5 15.5 8.1 14H11.9C11.5 15.4 10.8 16.8 10 18ZM12.3 12H7.7C7.6 11.3 7.5 10.7 7.5 10C7.5 9.3 7.6 8.7 7.7 8H12.4C12.5 8.7 12.6 9.3 12.6 10C12.6 10.7 12.4 11.3 12.3 12ZM12.6 17.6C13.2 16.5 13.7 15.3 14 14H16.9C16 15.7 14.4 16.9 12.6 17.6ZM14.4 12C14.5 11.3 14.5 10.7 14.5 10C14.5 9.3 14.4 8.7 14.4 8H17.8C18 8.6 18.1 9.3 18.1 10C18.1 10.7 18 11.4 17.8 12H14.4Z" fill="inherit"/>
  </symbol>

  <symbol id="icon-clock" viewBox="0 0 18 18" xmlns="http://www.w3.org/2000/svg">
    <path d="M9 0C4.03741 0 0 4.03741 0 9C0 13.9626 4.03741 18 9 18C13.9626 18 18 13.9626 18 9C18 4.03741 13.9626 0 9 0ZM13.1773 9.96841H9C8.46745 9.96841 8.0357 9.53659 8.0357 9.00411V4.82678C8.0357 4.29423 8.46745 3.86248 9 3.86248C9.53255 3.86248 9.9643 4.29423 9.9643 4.82678V8.03985H13.1773C13.7098 8.03985 14.1416 8.47153 14.1416 9.00415C14.1416 9.53659 13.7098 9.96841 13.1773 9.96841Z" fill="inherit"/>
  </symbol>

  <symbol id="icon-deal" viewBox="0 0 24 24" xmlns="http://www.w3.org/2000/svg">
    <path d="M20.3763 14.8052C20.3428 14.7676 15.0919 9.49493 15.0919 9.49493L12.3979 12.1891C11.8403 12.7467 11.0989 13.0538 10.3103 13.0538C9.52185 13.0538 8.78046 12.7467 8.2229 12.1891C7.0719 11.0381 7.0719 9.16534 8.2229 8.01416L11.4888 4.74829L8.06287 1.35938L0 9.42224L3.21735 12.5958C3.69159 12.1956 4.30353 11.9535 4.97113 11.9535C6.47259 11.9535 7.69409 13.175 7.69409 14.6765C7.69409 14.723 7.69281 14.7691 7.69061 14.8151C7.73511 14.8129 7.77978 14.8116 7.82465 14.8116C9.32611 14.8116 10.5476 16.0331 10.5476 17.5344C10.5476 17.5805 10.5463 17.6261 10.5441 17.6715C10.5895 17.6693 10.6353 17.668 10.6813 17.668C12.1826 17.668 13.4041 18.8895 13.4041 20.391C13.4041 21.024 13.1863 21.607 12.8225 22.0699L12.9492 22.1949C13.2858 22.5084 13.7133 22.6637 14.1396 22.6637C14.6074 22.6637 15.074 22.4769 15.418 22.1076C16.0525 21.4266 16.0382 20.3736 15.4023 19.7098L15.4186 19.7256C15.7551 20.0392 16.1825 20.1943 16.6088 20.1943C17.0766 20.1943 17.5431 20.0076 17.8872 19.6384C18.5255 18.9532 18.5074 17.892 17.8603 17.2289L17.8835 17.2474C18.2201 17.5611 18.6476 17.7162 19.0739 17.7162C19.5417 17.7162 20.0083 17.5294 20.3524 17.1603C20.9733 16.4936 20.9729 15.4708 20.3763 14.8052Z" fill="inherit"/>
    <path d="M16.8676 1.35938L9.21777 9.00897C8.61426 9.61249 8.61426 10.5908 9.21777 11.1943C9.51953 11.4959 9.91486 11.6468 10.3104 11.6468C10.7059 11.6468 11.1012 11.4959 11.403 11.1943L15.0918 7.50549L20.0404 12.4515L24.0001 8.49188L16.8676 1.35938Z" fill="inherit"/>
    <path d="M11.9975 20.3909C11.9975 19.6653 11.4072 19.075 10.6815 19.075C9.95587 19.075 9.36572 19.6653 9.36572 20.3909C9.36572 21.1166 9.95587 21.7067 10.6815 21.7067C11.4072 21.7067 11.9975 21.1164 11.9975 20.3909Z" fill="inherit"/>
    <path d="M7.82428 18.8502C8.54993 18.8502 9.14026 18.2599 9.14026 17.5342C9.14026 16.8086 8.54993 16.2183 7.82428 16.2183C7.09863 16.2183 6.5083 16.8086 6.5083 17.5342C6.5083 18.2599 7.09863 18.8502 7.82428 18.8502Z" fill="inherit"/>
    <path d="M4.97107 15.9921C5.69672 15.9921 6.28705 15.4018 6.28705 14.6761C6.28705 13.9507 5.69672 13.3604 4.97107 13.3604C4.24561 13.3604 3.65527 13.9507 3.65527 14.6761C3.65527 15.4018 4.24561 15.9921 4.97107 15.9921Z" fill="inherit"/>
  </symbol>

  <symbol id="icon-coding" viewBox="0 0 21 21" xmlns="http://www.w3.org/2000/svg">
    <path d="M10.5268 -0.0410156L1.43555 5.20899V15.7089L10.5268 20.959L19.6182 15.7089V5.20899L10.5268 -0.0410156ZM7.01625 12.1141L6.14562 12.9848L3.61995 10.459L6.14562 7.93333L7.01625 8.80396L5.3612 10.459L7.01625 12.1141ZM9.62843 13.6326L8.5271 13.0819L11.4253 7.28542L12.5266 7.83608L9.62843 13.6326ZM14.9081 12.9847L14.0373 12.1141L15.6925 10.459L14.0373 8.80396L14.9081 7.93317L17.4338 10.459L14.9081 12.9847Z" fill="inherit"/>
  </symbol>

  <symbol id="icon-gear" viewBox="0 0 21 21" xmlns="http://www.w3.org/2000/svg">
    <path d="M18.1139 8.14251L17.5838 6.88284C17.5838 6.88284 18.8172 4.0999 18.7083 3.9929L17.0751 2.39861C16.9622 2.2887 14.1783 3.55907 14.1783 3.55907L12.8943 3.04061C12.8943 3.04061 11.7602 0.219727 11.6045 0.219727H9.30015C9.13965 0.219727 8.09009 3.04644 8.09009 3.04644L6.80805 3.56685C6.80805 3.56685 3.96577 2.35873 3.85683 2.4667L2.22655 4.06293C2.11372 4.17285 3.41132 6.89938 3.41132 6.89938L2.88119 8.1571C2.88119 8.1571 0 9.26697 0 9.41677V11.6754C0 11.833 2.888 12.8612 2.888 12.8612L3.41813 14.1169C3.41813 14.1169 2.18472 16.8979 2.2927 17.0049L3.92492 18.6031C4.03581 18.7111 6.8207 17.4407 6.8207 17.4407L8.10566 17.9611C8.10566 17.9611 9.23984 20.7801 9.39645 20.7801H11.7008C11.8603 20.7801 12.9109 17.9533 12.9109 17.9533L14.1968 17.4329C14.1968 17.4329 17.0333 18.6411 17.1432 18.535L18.7754 16.9388C18.8892 16.8269 17.5887 14.1024 17.5887 14.1024L18.1178 12.8446C18.1178 12.8446 21 11.7328 21 11.5811V9.32436C21.001 9.16776 18.1139 8.14251 18.1139 8.14251ZM13.8671 10.4994C13.8671 12.3155 12.3564 13.794 10.5005 13.794C8.64649 13.794 7.13391 12.3155 7.13391 10.4994C7.13391 8.68334 8.64649 7.20676 10.5005 7.20676C12.3574 7.20773 13.8671 8.68334 13.8671 10.4994Z" fill="inherit"/>
  </symbol>

  <symbol id="icon-newspaper" viewBox="0 0 16 16" xmlns="http://www.w3.org/2000/svg">
    <path d="M12.6897 2.20691V0H0V13.5173C0 14.8862 1.11378 16 2.48275 16H13.5172C14.8862 16 16 14.8862 16 13.5173V2.20691H12.6897ZM10.4827 12.1379H2.20691V10.4827H10.4828V12.1379H10.4827ZM10.4827 8.82759H2.20691V7.17241H10.4828V8.82759H10.4827ZM10.4827 3.86206V5.51725H2.20691V3.86206V2.20691H10.4828V3.86206H10.4827ZM14.3448 13.5173C14.3448 13.9736 13.9736 14.3448 13.5172 14.3448C13.0609 14.3448 12.6896 13.9736 12.6896 13.5173V3.86206H14.3448V13.5173Z" fill="inherit"/>
  </symbol>

  <symbol id="icon-round-question" viewBox="0 0 19 19" xmlns="http://www.w3.org/2000/svg">
    <path d="M9.374 0.000619226C4.12773 0.0708366 -0.0679693 4.38115 0.00183509 9.62763C0.0720525 14.8718 4.38196 19.0688 9.62802 18.999C14.8733 18.9283 19.0698 14.618 19 9.37196C18.9298 4.12734 14.6197 -0.0693916 9.374 0.000619226ZM9.34591 15.2824L9.29346 15.2816C8.48554 15.2576 7.91596 14.6624 7.93888 13.8665C7.96139 13.0842 8.54482 12.5162 9.32609 12.5162L9.37297 12.5171C10.2034 12.5417 10.7666 13.1309 10.7432 13.9497C10.7201 14.7343 10.1458 15.2824 9.34591 15.2824ZM12.7442 8.53761C12.5542 8.80753 12.1364 9.14272 11.61 9.55287L11.0303 9.95311C10.7121 10.2005 10.52 10.4333 10.4479 10.6623C10.3911 10.8426 10.3632 10.8903 10.3583 11.2571L10.3575 11.3502H8.14396L8.15036 11.1629C8.17741 10.393 8.19641 9.9401 8.51549 9.56588C9.0161 8.97812 10.1204 8.26706 10.1673 8.23691C10.3254 8.11775 10.4589 7.98206 10.5582 7.83709C10.7905 7.51677 10.8934 7.26461 10.8934 7.01678C10.8934 6.67292 10.7914 6.35488 10.5896 6.07174C10.3957 5.79851 10.0272 5.66014 9.4944 5.66014C8.96591 5.66014 8.60409 5.82784 8.38765 6.1719C8.16502 6.52567 8.05247 6.89721 8.05247 7.27679V7.37117H5.7702L5.77433 7.27266C5.83318 5.87472 6.33214 4.86813 7.25674 4.28078C7.83769 3.90677 8.56051 3.71718 9.40395 3.71718C10.508 3.71718 11.44 3.98546 12.1738 4.51456C12.9173 5.0507 13.2944 5.85365 13.2944 6.90113C13.2944 7.48703 13.1094 8.03741 12.7442 8.53761Z" fill="inherit"/>
  </symbol>

  <symbol id="icon-square-question" viewBox="0 0 18 18" xmlns="http://www.w3.org/2000/svg">
    <path d="M14.9999 0H2.99993C2.05707 0 1.28564 0.771429 1.28564 1.71429V13.7143C1.28564 14.6571 2.05707 15.4286 2.99993 15.4286H6.4285L8.99993 18L11.5714 15.4286H14.9999C15.9428 15.4286 16.7142 14.6571 16.7142 13.7143V1.71429C16.7142 0.771429 15.9428 0 14.9999 0ZM9.85707 13.7143H8.14279V12H9.85707V13.7143ZM11.6571 7.11429L10.8856 7.88572C10.2 8.48571 9.85707 9 9.85707 10.2857H8.14279V9.85714C8.14279 8.91429 8.48564 8.05714 9.17136 7.45714L10.2 6.34286C10.5428 6.08571 10.7142 5.65714 10.7142 5.14286C10.7142 4.2 9.94282 3.42857 8.99996 3.42857C8.05711 3.42857 7.28568 4.2 7.28568 5.14286H5.57139C5.57139 3.25714 7.11425 1.71429 8.99996 1.71429C10.8857 1.71429 12.4285 3.25714 12.4285 5.14286C12.4285 5.91429 12.0856 6.6 11.6571 7.11429Z" fill="inherit"/>
  </symbol>

  <symbol id="icon-pointer" viewBox="0 0 8 5" xmlns="http://www.w3.org/2000/svg">
    <path fill-rule="evenodd" clip-rule="evenodd" d="M7.85715 4.3892C8.04762 4.19394 8.04761 3.87735 7.85715 3.68209L4.41481 0.152966C4.41278 0.150811 4.41073 0.14867 4.40866 0.146543C4.2963 0.0313567 4.14277 -0.0158802 3.99664 0.00483214C3.89502 0.019215 3.79697 0.0664567 3.71884 0.146557C3.71704 0.1484 3.71526 0.150254 3.7135 0.152119L0.270342 3.68208C0.0798816 3.87734 0.0798816 4.19392 0.270342 4.38918C0.460803 4.58445 0.769601 4.58445 0.960062 4.38918L4.06374 1.20726L7.16744 4.3892C7.3579 4.58446 7.66669 4.58446 7.85715 4.3892Z" fill="inherit"/>
  </symbol>

  <symbol id="icon-man" viewBox="0 0 16 16" xmlns="http://www.w3.org/2000/svg">
    <path d="M8.00055 7.82505C9.77948 7.82505 11.2217 6.07337 11.2217 3.91255C11.2217 1.75168 10.7482 0 8.00055 0C5.2529 0 4.7793 1.75168 4.7793 3.91255C4.7793 6.07337 6.22154 7.82505 8.00055 7.82505Z" fill="inherit"/>
    <path d="M1.91616 13.799C1.91561 13.6672 1.91506 13.7619 1.91616 13.799V13.799Z" fill="inherit"/>
    <path d="M14.084 13.9019C14.0857 13.8658 14.0846 13.6517 14.084 13.9019V13.9019Z" fill="inherit"/>
    <path d="M14.0772 13.641C14.0176 9.8768 13.526 8.8042 9.76401 8.12526C9.76401 8.12526 9.23446 8.80004 8.00017 8.80004C6.76589 8.80004 6.23624 8.12526 6.23624 8.12526C2.51533 8.7968 1.99382 9.85348 1.92525 13.5187C1.91963 13.818 1.91702 13.8337 1.91602 13.799C1.91624 13.8641 1.91652 13.9845 1.91652 14.1945C1.91652 14.1945 2.81215 16 8.00017 16C13.1881 16 14.0838 14.1945 14.0838 14.1945C14.0838 14.0596 14.0839 13.9658 14.0841 13.9019C14.0831 13.9234 14.081 13.8818 14.0772 13.641Z" fill="inherit"/>
  </symbol>

  <symbol id="icon-logout" viewBox="0 0 16 15" xmlns="http://www.w3.org/2000/svg">
    <path d="M2.78264 14.3107H8.54668C9.10321 14.3107 9.54048 13.8734 9.54048 13.3169C9.54048 12.7604 9.10321 12.3231 8.54668 12.3231H2.78264C2.34537 12.3231 1.9876 11.9654 1.9876 11.5281V2.78264C1.9876 2.34537 2.34537 1.9876 2.78264 1.9876H8.54668C9.10321 1.9876 9.54048 1.55033 9.54048 0.9938C9.54048 0.437272 9.10321 0 8.54668 0H2.78264C1.25219 0 0 1.25219 0 2.78264V11.5281C0 13.0585 1.25219 14.3107 2.78264 14.3107Z" fill="inherit"/>
    <path d="M12.7205 3.37892C12.323 2.9814 11.7068 2.9814 11.3093 3.37892C10.9118 3.77644 10.9118 4.39259 11.3093 4.79011L12.7006 6.18143H5.36636C4.80983 6.18143 4.37256 6.61871 4.37256 7.17523C4.37256 7.73176 4.80983 8.16903 5.36636 8.16903H12.5018L11.3093 9.36159C10.9118 9.75911 10.9118 10.3753 11.3093 10.7728C11.508 10.9715 11.7664 11.0709 12.0049 11.0709C12.2435 11.0709 12.5416 10.9318 12.7205 10.733L15.7019 7.75164C16.0994 7.35412 16.0994 6.73796 15.7019 6.34044L12.7205 3.37892Z" fill="inherit"/>
  </symbol>

  <symbol id="icon-refresh" viewBox="0 0 15 15" xmlns="http://www.w3.org/2000/svg">
    <path d="M14.8147 0.810465C14.6911 0.686916 14.5445 0.624936 14.3752 0.624936C14.206 0.624936 14.0596 0.686916 13.9358 0.810465L12.6663 2.07042C11.9697 1.41279 11.1721 0.90323 10.2737 0.541988C9.37542 0.180711 8.45069 0.000106812 7.50012 0.000106812C5.70968 0.000106812 4.14725 0.542022 2.81256 1.62609C1.47784 2.71002 0.598969 4.12428 0.175781 5.86919V5.9375C0.175781 6.02213 0.206669 6.09543 0.268546 6.1572C0.330423 6.21908 0.403623 6.24997 0.488246 6.24997H2.43158C2.57487 6.24997 2.67246 6.17506 2.72459 6.02541C2.99799 5.37441 3.17045 4.99357 3.24215 4.88285C3.69783 4.14066 4.3033 3.55794 5.05855 3.13475C5.81387 2.7116 6.62765 2.49994 7.49998 2.49994C8.80871 2.49994 9.94474 2.94594 10.9084 3.83788L9.56048 5.18546C9.4371 5.30919 9.37505 5.45576 9.37505 5.62504C9.37505 5.79429 9.43706 5.94079 9.56048 6.06447C9.68433 6.18819 9.83087 6.25 10.0001 6.25H14.3752C14.5445 6.25 14.691 6.18819 14.8147 6.06447C14.9383 5.94079 15.0001 5.79432 15.0001 5.62504V1.24994C15.0001 1.08065 14.9386 0.93422 14.8147 0.810465Z" fill="inherit"/>
    <path d="M14.4433 8.75017H12.5683C12.425 8.75017 12.3274 8.82498 12.2754 8.97477C12.0021 9.62583 11.8294 10.0065 11.7579 10.1172C11.3021 10.8592 10.6966 11.4422 9.94156 11.8653C9.1862 12.2886 8.37242 12.5 7.50005 12.5C6.86859 12.5 6.2598 12.383 5.67393 12.1486C5.088 11.9141 4.56384 11.582 4.10166 11.1522L5.43959 9.8144C5.56325 9.69082 5.62512 9.54415 5.62512 9.37497C5.62512 9.20572 5.56325 9.05905 5.43959 8.93553C5.31587 8.81171 5.16944 8.74976 5.00016 8.74976H0.625067C0.455683 8.74976 0.309181 8.81171 0.185495 8.93553C0.0618089 9.05908 0 9.20575 0 9.375V13.7501C0 13.9193 0.0618089 14.0659 0.185529 14.1895C0.309318 14.313 0.455819 14.3752 0.625101 14.3752C0.794349 14.3752 0.940782 14.3131 1.06454 14.1895L2.32428 12.9297C3.02094 13.5936 3.81365 14.1048 4.70233 14.4628C5.59102 14.821 6.51063 14.9999 7.46109 14.9999C9.24507 14.9999 10.801 14.4579 12.1291 13.374C13.4572 12.2901 14.3296 10.8756 14.7465 9.13081C14.753 9.11781 14.7561 9.095 14.7561 9.06257C14.7561 8.97781 14.7251 8.90482 14.6632 8.84273C14.6013 8.7812 14.528 8.75017 14.4433 8.75017Z" fill="inherit"/>
  </symbol>

  <symbol id="icon-search" viewBox="0 0 17 17" xmlns="http://www.w3.org/2000/svg">
    <path d="M16.4157 13.5961L12.1095 9.30167C12.5616 8.41332 12.8064 7.42751 12.8064 6.40243C12.8064 4.69219 12.1397 3.08432 10.9307 1.87529C9.72168 0.665889 8.11342 0 6.40319 0C4.69333 0 3.08469 0.665889 1.87567 1.87529C0.666645 3.08469 0 4.69257 0 6.40281C0 8.11304 0.666267 9.72092 1.87567 10.9299C3.08469 12.1393 4.69295 12.8052 6.40281 12.8052C7.42789 12.8052 8.41407 12.5612 9.30167 12.1095L13.5965 16.4161C13.9852 16.8047 14.4962 17 15.0061 17C15.516 17 16.0263 16.8047 16.4153 16.4161C17.1945 15.6369 17.1945 14.375 16.4157 13.5961ZM3.56702 9.23822C2.80973 8.48055 2.39274 7.47397 2.39274 6.40281C2.39274 5.33164 2.80973 4.32469 3.5674 3.56702C4.32469 2.80973 5.33165 2.39237 6.40281 2.39237C7.47397 2.39237 8.48093 2.80935 9.2386 3.56702C9.99589 4.32431 10.4133 5.33127 10.4133 6.40243C10.4133 7.47359 9.99589 8.48055 9.2386 9.23822C8.48093 9.99551 7.4736 10.4125 6.40281 10.4125C5.33202 10.4125 4.32507 9.99589 3.56702 9.23822Z" fill="inherit"/>
  </symbol>

  <symbol id="icon-draw" viewBox="0 0 17 17" xmlns="http://www.w3.org/2000/svg">
    <path fill-rule="evenodd" clip-rule="evenodd" d="M10.2082 3.56398C9.76277 3.11805 9.04051 3.11805 8.59515 3.56398L8.19192 3.96765L2.54626 9.61926L2.54771 9.62072L2.36982 9.79911C2.36982 9.79911 1.80249 10.3705 0.521566 14.5057C0.512583 14.5346 0.503663 14.5633 0.494617 14.5926C0.471779 14.6667 0.448689 14.742 0.425408 14.8183C0.404785 14.8857 0.383909 14.9546 0.362969 15.0238C0.345319 15.0822 0.327795 15.14 0.309892 15.1996C0.269278 15.335 0.228158 15.4728 0.186216 15.6151C0.09417 15.9274 -0.130662 16.6317 0.123587 16.8866C0.368409 17.1322 1.0801 16.9162 1.39154 16.8238C1.53274 16.7819 1.66958 16.7409 1.80394 16.7003C1.866 16.6816 1.92617 16.6633 1.98683 16.6448C2.05206 16.6249 2.11696 16.6052 2.18054 16.5856C2.26082 16.561 2.33996 16.5366 2.41777 16.5124C2.44099 16.5052 2.46376 16.4981 2.48679 16.4909C6.42116 15.2659 7.12748 14.6909 7.18618 14.6384C7.18663 14.6381 7.18663 14.6381 7.18694 14.6377C7.18941 14.6355 7.19112 14.634 7.19112 14.634L7.37325 14.4514L7.38546 14.4636L13.0312 8.81198L13.0312 8.81191L13.4344 8.40824C13.8798 7.96237 13.8798 7.23942 13.4344 6.79349L10.2082 3.56398ZM6.54155 13.9038C6.53661 13.9071 6.52991 13.9115 6.52282 13.916C6.5189 13.9185 6.51416 13.9215 6.50947 13.9244C6.50473 13.9274 6.49954 13.9306 6.49404 13.934C6.48917 13.9369 6.48411 13.94 6.47867 13.9433C6.29084 14.0557 5.73964 14.3457 4.40191 14.83C4.24559 14.8866 4.07535 14.9465 3.89702 15.0083L1.99537 13.1047C2.05737 12.9251 2.11741 12.7536 2.17415 12.596C2.65734 11.2527 2.94715 10.6998 3.05893 10.5123C3.06165 10.5078 3.06412 10.5037 3.06658 10.4996C3.07051 10.4932 3.07418 10.4871 3.07759 10.4816C3.08031 10.4773 3.08316 10.4727 3.08556 10.469C3.09005 10.462 3.09442 10.4553 3.09777 10.4503L3.23695 10.3107L6.68376 13.7611L6.54155 13.9038ZM16.6604 3.56398L13.4342 0.33447C12.9888 -0.111398 12.2667 -0.111398 11.8212 0.33447L11.0147 1.14188C10.5693 1.58775 10.5693 2.3107 11.0147 2.75657L14.2408 5.98608C14.6862 6.43195 15.4084 6.43195 15.8539 5.98608L16.6604 5.17873C17.1058 4.7328 17.1058 4.00985 16.6604 3.56398Z" fill="inherit"/>
  </symbol>

  <symbol id="icon-download" viewBox="0 0 17 17" xmlns="http://www.w3.org/2000/svg">
    <path d="M8.5 17C3.80375 17 0 13.1962 0 8.5C0 3.80375 3.80375 0 8.5 0C13.1963 0 17 3.80375 17 8.5C17 13.1962 13.1963 17 8.5 17ZM12.8775 7.735C12.5375 7.395 12.0063 7.395 11.6663 7.735L9.32875 10.0725V4.8875C9.32875 4.42 8.94625 4.0375 8.47875 4.0375C8.01125 4.0375 7.62875 4.42 7.62875 4.8875V10.0512L5.29125 7.71375C4.95125 7.37375 4.42 7.37375 4.08 7.71375C3.74 8.05375 3.74 8.585 4.08 8.925L7.54375 12.3887C8.05375 12.8987 8.8825 12.8987 9.41375 12.3887L12.8775 8.925C13.2175 8.60625 13.2175 8.05375 12.8775 7.735Z" fill="inherit"/>
  </symbol>

  <symbol id="icon-console" viewBox="0 0 16 16" xmlns="http://www.w3.org/2000/svg">
    <path d="M14.9128 4.72944V1.78131C14.9128 1.26327 14.4932 0.84211 13.9751 0.84211C13.458 0.84211 13.0386 1.26327 13.0386 1.78131V4.72922C12.3928 5.06751 11.9511 5.74364 11.9511 6.52473C11.9511 7.30583 12.3928 7.98262 13.0386 8.32134V14.2189C13.0386 14.7387 13.458 15.1581 13.9751 15.1581C14.4932 15.1581 14.9128 14.7387 14.9128 14.2189V8.32112C15.5587 7.9824 16 7.30561 16 6.52473C16 5.74386 15.5587 5.06794 14.9128 4.72944ZM2.96143 3.55386V1.78131C2.96143 1.26327 2.54203 0.84211 2.024 0.84211C1.50685 0.84211 1.08744 1.26327 1.08744 1.78131V3.55364C0.441492 3.89236 0 4.56937 0 5.35025C0 6.13156 0.441492 6.80835 1.08744 7.14707V14.2189C1.08744 14.7387 1.50685 15.1581 2.024 15.1581C2.54203 15.1581 2.96143 14.7387 2.96143 14.2189V7.14686C3.60738 6.80813 4.04865 6.13134 4.04865 5.35025C4.04865 4.56959 3.60738 3.89258 2.96143 3.55386ZM9.03299 8.01936V1.78131C9.03299 1.26327 8.61359 0.84211 8.09556 0.84211C7.57819 0.84211 7.15791 1.26327 7.15791 1.78131V8.01958C6.5124 8.3583 6.07134 9.03509 6.07134 9.81596C6.07134 10.5964 6.5124 11.2723 7.15791 11.6108V14.2189C7.15791 14.7387 7.57819 15.1581 8.09556 15.1581C8.61359 15.1581 9.03299 14.7387 9.03299 14.2189V11.611C9.67872 11.2728 10.12 10.5964 10.12 9.81596C10.1198 9.03487 9.67916 8.35808 9.03299 8.01936Z" fill="inherit"/>
  </symbol>

  <symbol id="icon-check" viewBox="0 0 10 7" xmlns="http://www.w3.org/2000/svg">
    <path fill-rule="evenodd" clip-rule="evenodd" d="M4.65669 4.24254L8.19212 0.70711C8.58265 0.316584 9.21581 0.316584 9.60633 0.707108C9.99686 1.09763 9.99686 1.7308 9.60633 2.12132L5.37535 6.35231C5.37157 6.35622 5.36774 6.3601 5.36389 6.36396C5.19698 6.53087 4.98574 6.62643 4.76807 6.65066C4.73103 6.65479 4.69381 6.65686 4.65659 6.65686C4.40067 6.65686 4.14474 6.55923 3.94948 6.36396C3.94548 6.35997 3.94153 6.35594 3.93761 6.3519L1.24992 3.66421C0.8594 3.27368 0.8594 2.64052 1.24993 2.24999C1.64045 1.85947 2.27362 1.85947 2.66414 2.24999L4.65669 4.24254Z" fill="inherit"/>
  </symbol>

  <symbol id="icon-invisible" viewBox="0 0 17 17" xmlns="http://www.w3.org/2000/svg">
    <g clip-path="url(#clip0)">
    <path d="M8.37061 5.80762L10.8041 8.24116L10.8157 8.11369C10.8157 6.83511 9.77666 5.79604 8.49808 5.79604L8.37061 5.80762Z" fill="inherit"/>
    <path d="M8.49849 4.25096C10.6307 4.25096 12.3613 5.98149 12.3613 8.11373C12.3613 8.61203 12.2608 9.08715 12.087 9.52363L14.3467 11.7833C15.5133 10.8099 16.4326 9.55068 17.0004 8.11373C15.6601 4.72224 12.3651 2.3196 8.49853 2.3196C7.41694 2.3196 6.38175 2.51272 5.41992 2.86037L7.08863 4.52521C7.52508 4.35526 8.0002 4.25096 8.49849 4.25096Z" fill="inherit"/>
    <path d="M0.77254 2.14574L2.53396 3.90716L2.88548 4.25868C1.61077 5.25527 0.60259 6.58021 0 8.1137C1.33653 11.5052 4.63531 13.9078 8.49808 13.9078C9.69555 13.9078 10.8389 13.6761 11.8857 13.255L12.2141 13.5834L14.4661 15.8392L15.4511 14.8581L1.75754 1.16074L0.77254 2.14574ZM5.04477 6.4141L6.23837 7.60769C6.2036 7.7738 6.18043 7.93988 6.18043 8.1137C6.18043 9.39229 7.2195 10.4314 8.49808 10.4314C8.6719 10.4314 8.83801 10.4082 9.00025 10.3734L10.1938 11.567C9.68008 11.8219 9.10842 11.9765 8.49808 11.9765C6.36584 11.9765 4.63531 10.2459 4.63531 8.1137C4.63531 7.5034 4.78983 6.9317 5.04477 6.4141Z" fill="inherit"/>
    </g>
    <defs>
    <clipPath id="clip0">
    <rect width="17" height="17" fill="white"/>
    </clipPath>
    </defs>
  </symbol>

  <symbol id="icon-tick" viewBox="0 0 13 13" xmlns="http://www.w3.org/2000/svg">
    <path d="M6.49997 0C2.91591 0 0 2.91584 0 6.49997C0 10.0841 2.91591 13 6.49997 13C10.084 13 12.9999 10.0841 12.9999 6.49997C12.9999 2.91584 10.0841 0 6.49997 0ZM10.2324 5.40207L6.14876 9.48566C5.97513 9.6593 5.74432 9.75487 5.49879 9.75487C5.25326 9.75487 5.02244 9.6593 4.84881 9.48566L2.76757 7.40443C2.59394 7.23079 2.4983 6.99998 2.4983 6.75445C2.4983 6.50885 2.59394 6.27804 2.76757 6.1044C2.94114 5.93077 3.17195 5.83514 3.41755 5.83514C3.66308 5.83514 3.89396 5.93077 4.06752 6.10447L5.49872 7.5356L8.93227 4.10205C9.10591 3.92841 9.33672 3.83285 9.58225 3.83285C9.82778 3.83285 10.0586 3.92841 10.2322 4.10205C10.5908 4.46057 10.5908 5.04367 10.2324 5.40207Z" fill="inherit"/>
  </symbol>

</svg>
