<svg version="1.1"  xmlns="http://www.w3.org/2000/svg" xmlns:xlink="http://www.w3.org/1999/xlink">

  <symbol id="icon-logo"  viewBox="0 0 33 33" xmlns="http://www.w3.org/2000/svg">
    <path fill="inherit" d="M31.6867 10.1438C29.1247 4.13976 23.1712 0 16.4355 0C7.27482 0 0 7.55758 0 16.5645C0 25.6485 7.35081 33 16.4355 33C25.4523 33 33 25.7149 33 16.5645C33 14.3462 32.5582 12.186 31.6867 10.1438ZM30.213 11.6405C28.5196 10.3002 26.3314 9.3651 24.2361 8.76994C23.6414 6.67257 22.7082 4.484 21.3567 2.78599C25.4708 4.25996 28.7383 7.52677 30.213 11.6405ZM24.3104 15.5982C24.8381 15.6046 25.2656 16.0352 25.2656 16.5645C25.2656 17.0937 24.8381 17.5244 24.3104 17.5307C24.3066 17.5304 24.303 17.5296 24.2993 17.5294C24.2831 17.5284 24.2672 17.5291 24.2513 17.5289C23.7405 17.5038 23.3324 17.0818 23.3321 16.5651C23.3321 16.5649 23.3321 16.5647 23.3321 16.5645C23.3321 16.5642 23.3321 16.5641 23.3321 16.5638C23.3324 16.0537 23.73 15.6359 24.2315 15.6011C24.2338 15.6011 24.2361 15.6014 24.2383 15.6014C24.2585 15.6014 24.2788 15.6007 24.2993 15.5995C24.303 15.5992 24.3066 15.5985 24.3104 15.5982ZM17.4023 2.09408C19.2552 2.706 20.9474 5.02908 22.0448 8.25271C20.5621 7.96931 19.0014 7.79889 17.4023 7.74978V2.09408ZM17.4023 9.68421C19.2333 9.7437 21.0035 9.9718 22.6439 10.3538C22.904 11.4649 23.0971 12.6474 23.2107 13.8767C22.4454 14.1877 21.842 14.8159 21.5647 15.5977H17.4023V9.68421ZM17.4023 17.5312H21.5647C21.842 18.3131 22.4455 18.9414 23.2109 19.2523C23.1026 20.432 22.9213 21.5745 22.6729 22.6572C21.5469 22.9132 20.3554 23.1001 19.1236 23.2114C18.8128 22.4458 18.1844 21.8421 17.4023 21.5647V17.5312ZM11.5096 2.8032C10.8596 3.63509 10.2689 4.63959 9.75498 5.80297C9.72598 5.80213 9.69717 5.80078 9.66797 5.80078C7.8248 5.80078 6.42978 7.51337 6.83841 9.33584C5.2452 9.93854 3.88459 10.6968 2.80668 11.5629C4.2755 7.50163 7.47985 4.27595 11.5096 2.8032ZM10.6348 8.70117C10.6348 9.23426 10.2011 9.66797 9.66797 9.66797C9.13488 9.66797 8.70117 9.23426 8.70117 8.70117C8.70117 8.16808 9.13488 7.73438 9.66797 7.73438C10.2011 7.73438 10.6348 8.16808 10.6348 8.70117ZM7.90717 11.0038C7.99367 11.07 8.08371 11.1318 8.17743 11.1882C7.94108 12.5706 7.79399 14.0882 7.74933 15.5977H2.09099C2.66997 13.8044 4.81271 12.093 7.90717 11.0038ZM7.74901 17.5312C7.79599 19.1332 7.95925 20.6667 8.22344 22.1037C4.98996 21.039 2.69459 19.3811 2.09144 17.5312H7.74901ZM2.79179 21.4798C4.47595 22.8016 6.63609 23.6978 8.71774 24.2718C9.37864 26.6732 10.3432 28.7092 11.5222 30.2089C7.47257 28.7462 4.25513 25.5292 2.79179 21.4798ZM15.4688 30.9028C13.173 30.1325 11.649 27.0602 10.891 24.7697C11.7873 24.9358 12.7141 25.0618 13.6614 25.145C13.9301 26.0243 14.6062 26.727 15.4688 27.0329V30.9028ZM15.4688 21.5647C14.6868 21.8421 14.0584 22.4457 13.7475 23.2112C12.5463 23.1021 11.3955 22.9208 10.3157 22.678C9.95549 21.0711 9.74048 19.3337 9.6837 17.5312H15.4688V21.5647ZM15.4688 15.5977H9.6837C9.72688 14.2171 9.86068 12.8342 10.0735 11.5726C11.0472 11.4357 11.8674 10.8141 12.2807 9.95988C13.3176 9.81041 14.385 9.71921 15.4688 9.68473V15.5977ZM15.4688 7.75036C14.4561 7.78065 13.4561 7.85813 12.4783 7.98291C12.3291 7.39967 12.0023 6.8872 11.5597 6.50538C12.6184 4.14633 14.0124 2.58367 15.4688 2.09685V7.75036ZM16.4355 25.2656C15.9063 25.2656 15.4756 24.8381 15.4693 24.3104C15.4696 24.3067 15.4704 24.3031 15.4706 24.2993C15.4715 24.2833 15.4709 24.2676 15.4711 24.2518C15.4959 23.7406 15.9183 23.332 16.4355 23.332C16.9528 23.332 17.3752 23.7406 17.4 24.2518C17.4002 24.2677 17.3995 24.2834 17.4005 24.2993C17.4008 24.3031 17.4015 24.3067 17.4018 24.3104C17.3954 24.8381 16.9648 25.2656 16.4355 25.2656ZM17.4023 30.9084V27.0329C18.2649 26.727 18.9409 26.0244 19.2097 25.1451C20.1923 25.0589 21.1536 24.9269 22.0829 24.7524C21.3011 27.062 19.7175 30.1567 17.4023 30.9084ZM21.395 30.208C22.7537 28.5052 23.6744 26.329 24.2598 24.2494C26.3348 23.6735 28.5191 22.7694 30.2139 21.4424C28.7442 25.5085 25.492 28.7404 21.395 30.208ZM24.7679 22.0759C24.9352 21.1892 25.0614 20.2735 25.1446 19.3387C26.0241 19.0701 26.727 18.381 27.0329 17.5184H30.9019C30.1366 19.7771 27.0465 21.3183 24.7679 22.0759ZM27.0329 15.5977C26.727 14.735 26.0241 14.0588 25.1446 13.7902C25.0587 12.8215 24.9264 11.8725 24.7508 10.9538C27.0588 11.7424 30.1315 13.31 30.9019 15.5977H27.0329Z"/>
  </symbol>

  <symbol id="icon-globe" width="20" height="20" viewBox="0 0 20 20" xmlns="http://www.w3.org/2000/svg">
    <path d="M10 0C4.5 0 0 4.5 0 10C0 15.5 4.5 20 10 20C15.5 20 20 15.5 20 10C20 4.5 15.5 0 10 0ZM16.9 6H14C13.7 4.7 13.2 3.6 12.6 2.4C14.4 3.1 16 4.3 16.9 6ZM10 2C10.8 3.2 11.5 4.5 11.9 6H8.1C8.5 4.6 9.2 3.2 10 2ZM2.3 12C2.1 11.4 2 10.7 2 10C2 9.3 2.1 8.6 2.3 8H5.7C5.6 8.7 5.6 9.3 5.6 10C5.6 10.7 5.7 11.3 5.7 12H2.3ZM3.1 14H6C6.3 15.3 6.8 16.4 7.4 17.6C5.6 16.9 4 15.7 3.1 14ZM6 6H3.1C4.1 4.3 5.6 3.1 7.4 2.4C6.8 3.6 6.3 4.7 6 6ZM10 18C9.2 16.8 8.5 15.5 8.1 14H11.9C11.5 15.4 10.8 16.8 10 18ZM12.3 12H7.7C7.6 11.3 7.5 10.7 7.5 10C7.5 9.3 7.6 8.7 7.7 8H12.4C12.5 8.7 12.6 9.3 12.6 10C12.6 10.7 12.4 11.3 12.3 12ZM12.6 17.6C13.2 16.5 13.7 15.3 14 14H16.9C16 15.7 14.4 16.9 12.6 17.6ZM14.4 12C14.5 11.3 14.5 10.7 14.5 10C14.5 9.3 14.4 8.7 14.4 8H17.8C18 8.6 18.1 9.3 18.1 10C18.1 10.7 18 11.4 17.8 12H14.4Z" fill="inherit"/>
  </symbol>

  <symbol id="icon-clock" viewBox="0 0 18 18" xmlns="http://www.w3.org/2000/svg">
    <path d="M9 0C4.03741 0 0 4.03741 0 9C0 13.9626 4.03741 18 9 18C13.9626 18 18 13.9626 18 9C18 4.03741 13.9626 0 9 0ZM13.1773 9.96841H9C8.46745 9.96841 8.0357 9.53659 8.0357 9.00411V4.82678C8.0357 4.29423 8.46745 3.86248 9 3.86248C9.53255 3.86248 9.9643 4.29423 9.9643 4.82678V8.03985H13.1773C13.7098 8.03985 14.1416 8.47153 14.1416 9.00415C14.1416 9.53659 13.7098 9.96841 13.1773 9.96841Z" fill="inherit"/>
  </symbol>

  <symbol id="icon-deal" viewBox="0 0 24 24" xmlns="http://www.w3.org/2000/svg">
    <path d="M20.3763 14.8052C20.3428 14.7676 15.0919 9.49493 15.0919 9.49493L12.3979 12.1891C11.8403 12.7467 11.0989 13.0538 10.3103 13.0538C9.52185 13.0538 8.78046 12.7467 8.2229 12.1891C7.0719 11.0381 7.0719 9.16534 8.2229 8.01416L11.4888 4.74829L8.06287 1.35938L0 9.42224L3.21735 12.5958C3.69159 12.1956 4.30353 11.9535 4.97113 11.9535C6.47259 11.9535 7.69409 13.175 7.69409 14.6765C7.69409 14.723 7.69281 14.7691 7.69061 14.8151C7.73511 14.8129 7.77978 14.8116 7.82465 14.8116C9.32611 14.8116 10.5476 16.0331 10.5476 17.5344C10.5476 17.5805 10.5463 17.6261 10.5441 17.6715C10.5895 17.6693 10.6353 17.668 10.6813 17.668C12.1826 17.668 13.4041 18.8895 13.4041 20.391C13.4041 21.024 13.1863 21.607 12.8225 22.0699L12.9492 22.1949C13.2858 22.5084 13.7133 22.6637 14.1396 22.6637C14.6074 22.6637 15.074 22.4769 15.418 22.1076C16.0525 21.4266 16.0382 20.3736 15.4023 19.7098L15.4186 19.7256C15.7551 20.0392 16.1825 20.1943 16.6088 20.1943C17.0766 20.1943 17.5431 20.0076 17.8872 19.6384C18.5255 18.9532 18.5074 17.892 17.8603 17.2289L17.8835 17.2474C18.2201 17.5611 18.6476 17.7162 19.0739 17.7162C19.5417 17.7162 20.0083 17.5294 20.3524 17.1603C20.9733 16.4936 20.9729 15.4708 20.3763 14.8052Z" fill="inherit"/>
    <path d="M16.8676 1.35938L9.21777 9.00897C8.61426 9.61249 8.61426 10.5908 9.21777 11.1943C9.51953 11.4959 9.91486 11.6468 10.3104 11.6468C10.7059 11.6468 11.1012 11.4959 11.403 11.1943L15.0918 7.50549L20.0404 12.4515L24.0001 8.49188L16.8676 1.35938Z" fill="inherit"/>
    <path d="M11.9975 20.3909C11.9975 19.6653 11.4072 19.075 10.6815 19.075C9.95587 19.075 9.36572 19.6653 9.36572 20.3909C9.36572 21.1166 9.95587 21.7067 10.6815 21.7067C11.4072 21.7067 11.9975 21.1164 11.9975 20.3909Z" fill="inherit"/>
    <path d="M7.82428 18.8502C8.54993 18.8502 9.14026 18.2599 9.14026 17.5342C9.14026 16.8086 8.54993 16.2183 7.82428 16.2183C7.09863 16.2183 6.5083 16.8086 6.5083 17.5342C6.5083 18.2599 7.09863 18.8502 7.82428 18.8502Z" fill="inherit"/>
    <path d="M4.97107 15.9921C5.69672 15.9921 6.28705 15.4018 6.28705 14.6761C6.28705 13.9507 5.69672 13.3604 4.97107 13.3604C4.24561 13.3604 3.65527 13.9507 3.65527 14.6761C3.65527 15.4018 4.24561 15.9921 4.97107 15.9921Z" fill="inherit"/>
  </symbol>

  <symbol id="icon-coding" viewBox="0 0 21 21" xmlns="http://www.w3.org/2000/svg">
    <path d="M10.5268 -0.0410156L1.43555 5.20899V15.7089L10.5268 20.959L19.6182 15.7089V5.20899L10.5268 -0.0410156ZM7.01625 12.1141L6.14562 12.9848L3.61995 10.459L6.14562 7.93333L7.01625 8.80396L5.3612 10.459L7.01625 12.1141ZM9.62843 13.6326L8.5271 13.0819L11.4253 7.28542L12.5266 7.83608L9.62843 13.6326ZM14.9081 12.9847L14.0373 12.1141L15.6925 10.459L14.0373 8.80396L14.9081 7.93317L17.4338 10.459L14.9081 12.9847Z" fill="inherit"/>
  </symbol>

  <symbol id="icon-gear" viewBox="0 0 21 21" xmlns="http://www.w3.org/2000/svg">
    <path d="M18.1139 8.14251L17.5838 6.88284C17.5838 6.88284 18.8172 4.0999 18.7083 3.9929L17.0751 2.39861C16.9622 2.2887 14.1783 3.55907 14.1783 3.55907L12.8943 3.04061C12.8943 3.04061 11.7602 0.219727 11.6045 0.219727H9.30015C9.13965 0.219727 8.09009 3.04644 8.09009 3.04644L6.80805 3.56685C6.80805 3.56685 3.96577 2.35873 3.85683 2.4667L2.22655 4.06293C2.11372 4.17285 3.41132 6.89938 3.41132 6.89938L2.88119 8.1571C2.88119 8.1571 0 9.26697 0 9.41677V11.6754C0 11.833 2.888 12.8612 2.888 12.8612L3.41813 14.1169C3.41813 14.1169 2.18472 16.8979 2.2927 17.0049L3.92492 18.6031C4.03581 18.7111 6.8207 17.4407 6.8207 17.4407L8.10566 17.9611C8.10566 17.9611 9.23984 20.7801 9.39645 20.7801H11.7008C11.8603 20.7801 12.9109 17.9533 12.9109 17.9533L14.1968 17.4329C14.1968 17.4329 17.0333 18.6411 17.1432 18.535L18.7754 16.9388C18.8892 16.8269 17.5887 14.1024 17.5887 14.1024L18.1178 12.8446C18.1178 12.8446 21 11.7328 21 11.5811V9.32436C21.001 9.16776 18.1139 8.14251 18.1139 8.14251ZM13.8671 10.4994C13.8671 12.3155 12.3564 13.794 10.5005 13.794C8.64649 13.794 7.13391 12.3155 7.13391 10.4994C7.13391 8.68334 8.64649 7.20676 10.5005 7.20676C12.3574 7.20773 13.8671 8.68334 13.8671 10.4994Z" fill="inherit"/>
  </symbol>

  <symbol id="icon-newspaper" viewBox="0 0 16 16" xmlns="http://www.w3.org/2000/svg">
    <path d="M12.6897 2.20691V0H0V13.5173C0 14.8862 1.11378 16 2.48275 16H13.5172C14.8862 16 16 14.8862 16 13.5173V2.20691H12.6897ZM10.4827 12.1379H2.20691V10.4827H10.4828V12.1379H10.4827ZM10.4827 8.82759H2.20691V7.17241H10.4828V8.82759H10.4827ZM10.4827 3.86206V5.51725H2.20691V3.86206V2.20691H10.4828V3.86206H10.4827ZM14.3448 13.5173C14.3448 13.9736 13.9736 14.3448 13.5172 14.3448C13.0609 14.3448 12.6896 13.9736 12.6896 13.5173V3.86206H14.3448V13.5173Z" fill="inherit"/>
  </symbol>

  <symbol id="icon-round-question" viewBox="0 0 19 19" xmlns="http://www.w3.org/2000/svg">
    <path d="M9.374 0.000619226C4.12773 0.0708366 -0.0679693 4.38115 0.00183509 9.62763C0.0720525 14.8718 4.38196 19.0688 9.62802 18.999C14.8733 18.9283 19.0698 14.618 19 9.37196C18.9298 4.12734 14.6197 -0.0693916 9.374 0.000619226ZM9.34591 15.2824L9.29346 15.2816C8.48554 15.2576 7.91596 14.6624 7.93888 13.8665C7.96139 13.0842 8.54482 12.5162 9.32609 12.5162L9.37297 12.5171C10.2034 12.5417 10.7666 13.1309 10.7432 13.9497C10.7201 14.7343 10.1458 15.2824 9.34591 15.2824ZM12.7442 8.53761C12.5542 8.80753 12.1364 9.14272 11.61 9.55287L11.0303 9.95311C10.7121 10.2005 10.52 10.4333 10.4479 10.6623C10.3911 10.8426 10.3632 10.8903 10.3583 11.2571L10.3575 11.3502H8.14396L8.15036 11.1629C8.17741 10.393 8.19641 9.9401 8.51549 9.56588C9.0161 8.97812 10.1204 8.26706 10.1673 8.23691C10.3254 8.11775 10.4589 7.98206 10.5582 7.83709C10.7905 7.51677 10.8934 7.26461 10.8934 7.01678C10.8934 6.67292 10.7914 6.35488 10.5896 6.07174C10.3957 5.79851 10.0272 5.66014 9.4944 5.66014C8.96591 5.66014 8.60409 5.82784 8.38765 6.1719C8.16502 6.52567 8.05247 6.89721 8.05247 7.27679V7.37117H5.7702L5.77433 7.27266C5.83318 5.87472 6.33214 4.86813 7.25674 4.28078C7.83769 3.90677 8.56051 3.71718 9.40395 3.71718C10.508 3.71718 11.44 3.98546 12.1738 4.51456C12.9173 5.0507 13.2944 5.85365 13.2944 6.90113C13.2944 7.48703 13.1094 8.03741 12.7442 8.53761Z" fill="inherit"/>
  </symbol>

  <symbol id="icon-square-question" viewBox="0 0 18 18" xmlns="http://www.w3.org/2000/svg">
    <path d="M14.9999 0H2.99993C2.05707 0 1.28564 0.771429 1.28564 1.71429V13.7143C1.28564 14.6571 2.05707 15.4286 2.99993 15.4286H6.4285L8.99993 18L11.5714 15.4286H14.9999C15.9428 15.4286 16.7142 14.6571 16.7142 13.7143V1.71429C16.7142 0.771429 15.9428 0 14.9999 0ZM9.85707 13.7143H8.14279V12H9.85707V13.7143ZM11.6571 7.11429L10.8856 7.88572C10.2 8.48571 9.85707 9 9.85707 10.2857H8.14279V9.85714C8.14279 8.91429 8.48564 8.05714 9.17136 7.45714L10.2 6.34286C10.5428 6.08571 10.7142 5.65714 10.7142 5.14286C10.7142 4.2 9.94282 3.42857 8.99996 3.42857C8.05711 3.42857 7.28568 4.2 7.28568 5.14286H5.57139C5.57139 3.25714 7.11425 1.71429 8.99996 1.71429C10.8857 1.71429 12.4285 3.25714 12.4285 5.14286C12.4285 5.91429 12.0856 6.6 11.6571 7.11429Z" fill="inherit"/>
  </symbol>

  <symbol id="icon-pointer" viewBox="0 0 8 5" xmlns="http://www.w3.org/2000/svg">
    <path fill-rule="evenodd" clip-rule="evenodd" d="M7.85715 4.3892C8.04762 4.19394 8.04761 3.87735 7.85715 3.68209L4.41481 0.152966C4.41278 0.150811 4.41073 0.14867 4.40866 0.146543C4.2963 0.0313567 4.14277 -0.0158802 3.99664 0.00483214C3.89502 0.019215 3.79697 0.0664567 3.71884 0.146557C3.71704 0.1484 3.71526 0.150254 3.7135 0.152119L0.270342 3.68208C0.0798816 3.87734 0.0798816 4.19392 0.270342 4.38918C0.460803 4.58445 0.769601 4.58445 0.960062 4.38918L4.06374 1.20726L7.16744 4.3892C7.3579 4.58446 7.66669 4.58446 7.85715 4.3892Z" fill="inherit"/>
  </symbol>

</svg>
