<svg width="52" height="52" viewBox="0 0 52 52" fill="none" xmlns="http://www.w3.org/2000/svg">
<g clip-path="url(#clip0)">
<path d="M20.4089 23.9628C19.7139 23.805 18.9972 23.7251 18.2784 23.7251C12.9896 23.7251 8.68674 28.028 8.68674 33.3168C8.68674 35.2241 9.24543 37.0669 10.3025 38.646C10.477 38.9067 10.7634 39.0477 11.0553 39.0477C11.2282 39.0477 11.4032 38.9982 11.5578 38.8946C11.9731 38.6166 12.0844 38.0546 11.8064 37.6393C10.9494 36.3592 10.4966 34.8644 10.4966 33.3168C10.4966 29.0258 13.9876 25.5348 18.2785 25.5348C18.8627 25.5348 19.4447 25.5997 20.0084 25.7276C20.4956 25.8382 20.9806 25.5327 21.0912 25.0454C21.2017 24.558 20.8962 24.0734 20.4089 23.9628Z" fill="#7E64FE"/>
<path d="M27.6325 31.1859C27.5216 30.6984 27.0369 30.3929 26.5497 30.5036C26.0623 30.6142 25.7569 31.099 25.8675 31.5864C25.9955 32.1503 26.0605 32.7325 26.0605 33.3169C26.0605 37.6078 22.5695 41.0988 18.2785 41.0988C16.7314 41.0988 15.2372 40.6463 13.9574 39.7899C13.5421 39.512 12.98 39.6235 12.7021 40.0388C12.4243 40.4541 12.5357 41.0162 12.9511 41.294C14.5298 42.3502 16.372 42.9086 18.2786 42.9086C23.5674 42.9086 27.8703 38.6057 27.8703 33.3169C27.8702 32.598 27.7903 31.8811 27.6325 31.1859Z" fill="#7E64FE"/>
<path d="M25.7387 27.2877C25.3145 26.7636 24.8338 26.2828 24.3099 25.8586C23.9215 25.5441 23.3516 25.6042 23.0373 25.9926C22.7228 26.3808 22.7827 26.9505 23.1711 27.265C23.5967 27.6096 23.9872 28.0002 24.3317 28.4261C24.5105 28.6471 24.772 28.7619 25.0357 28.7619C25.2356 28.7619 25.4369 28.6958 25.6044 28.5604C25.9929 28.2459 26.0529 27.6762 25.7387 27.2877Z" fill="#7E64FE"/>
<path d="M18.2784 27.5858C15.1185 27.5858 12.5475 30.1568 12.5475 33.3167C12.5475 36.4766 15.1185 39.0475 18.2784 39.0475C21.4383 39.0475 24.0093 36.4766 24.0093 33.3167C24.0093 30.1568 21.4383 27.5858 18.2784 27.5858ZM18.2784 37.2378C16.1164 37.2378 14.3573 35.4787 14.3573 33.3167C14.3573 31.1546 16.1164 29.3956 18.2784 29.3956C20.4405 29.3956 22.1995 31.1546 22.1995 33.3167C22.1995 35.4787 20.4405 37.2378 18.2784 37.2378Z" fill="#7E64FE"/>
<path d="M34.6867 29.5162H33.1869C32.8253 28.0941 32.2612 26.7371 31.5036 25.4662L32.5681 24.4014C32.9214 24.0483 33.1159 23.5786 33.1159 23.0791C33.1159 22.5796 32.9214 22.1099 32.5681 21.7567L29.838 19.0266C29.1089 18.2977 27.9226 18.2977 27.1934 19.0266L26.1286 20.0912C24.8577 19.3336 23.5008 18.7695 22.0786 18.4079V16.908C22.0786 15.8769 21.2397 15.038 20.2085 15.038H16.3477C15.3165 15.038 14.4776 15.8769 14.4776 16.908V18.4079C13.0556 18.7695 11.6985 19.3336 10.4276 20.0912L9.36315 19.0267C8.63403 18.2978 7.44768 18.2978 6.71846 19.0267L3.98866 21.7569C3.63543 22.1101 3.44094 22.5798 3.44094 23.0793C3.44094 23.5788 3.63543 24.0485 3.98866 24.4016L5.05324 25.4664C4.29559 26.7373 3.73151 28.0944 3.36995 29.5164H1.87007C0.838906 29.5162 0 30.3551 0 31.3863V35.2471C0 36.2782 0.838906 37.1171 1.87007 37.1171H3.36995C3.73151 38.5391 4.29559 39.8963 5.05324 41.1672L3.98866 42.2319C3.25955 42.961 3.25955 44.1474 3.98866 44.8766L6.71877 47.6067C7.44788 48.3356 8.63434 48.3356 9.36335 47.6067L10.4279 46.5421C11.6988 47.2998 13.056 47.8639 14.4779 48.2254V49.7253C14.4779 50.7565 15.3168 51.5954 16.348 51.5954H20.2088C21.24 51.5954 22.0789 50.7565 22.0789 49.7253V48.2254C23.501 47.8639 24.858 47.2998 26.1289 46.5421L27.1937 47.6069C27.9228 48.3358 29.1091 48.3358 29.8382 47.6069L32.5684 44.8768C33.2975 44.1477 33.2973 42.9613 32.5684 42.2321L31.5038 41.1674C32.2614 39.8966 32.8255 38.5393 33.1871 37.1173H34.6868C35.718 37.1173 36.5569 36.2784 36.5569 35.2473V31.3865C36.5568 30.3552 35.718 29.5162 34.6867 29.5162ZM34.6867 35.3074H32.4656C32.0353 35.3074 31.6643 35.6105 31.5788 36.0323C31.234 37.7309 30.5679 39.3339 29.599 40.7971C29.3614 41.1559 29.4094 41.6322 29.7136 41.9365L31.2886 43.5114C31.3121 43.535 31.3121 43.5733 31.2886 43.5968L28.5587 46.3267C28.5351 46.3503 28.4969 46.3503 28.4732 46.3267L26.8984 44.7518C26.5941 44.4476 26.1178 44.3995 25.759 44.6371C24.2959 45.6059 22.6927 46.2722 20.9941 46.617C20.5723 46.7025 20.2692 47.0734 20.2692 47.5037V49.7249C20.2692 49.7582 20.2422 49.7852 20.2089 49.7852H16.3481C16.3148 49.7852 16.2878 49.7582 16.2878 49.7249V47.5037C16.2878 47.0734 15.9847 46.7025 15.5629 46.617C13.8643 46.2722 12.2611 45.606 10.798 44.6371C10.6454 44.536 10.4715 44.4867 10.2986 44.4867C10.065 44.4867 9.83328 44.577 9.65849 44.7518L8.08356 46.3267C8.06 46.3503 8.02181 46.3503 7.99815 46.3267L5.26815 43.5967C5.24459 43.5732 5.24459 43.5349 5.26815 43.5113L6.84318 41.9366C7.14746 41.6323 7.1954 41.1559 6.95784 40.7972C5.98894 39.3341 5.32279 37.7309 4.97798 36.0324C4.89247 35.6106 4.52156 35.3075 4.09124 35.3075H1.87007C1.83676 35.3075 1.80974 35.2805 1.80974 35.2472V31.3864C1.80974 31.3531 1.83676 31.3261 1.87007 31.3261H4.09124C4.52156 31.3261 4.89247 31.023 4.97798 30.6012C5.32279 28.9026 5.98894 27.2994 6.95784 25.8363C7.1954 25.4775 7.14746 25.0011 6.84318 24.6969L5.26825 23.1219C5.24469 23.0984 5.24469 23.0602 5.26825 23.0366L7.99815 20.3067C8.02171 20.2832 8.0599 20.2832 8.08356 20.3067L9.65859 21.8817C9.96287 22.1859 10.4392 22.234 10.798 21.9963C12.2611 21.0275 13.8642 20.3613 15.5628 20.0165C15.9846 19.9309 16.2877 19.56 16.2877 19.1297V16.9085C16.2877 16.8752 16.3147 16.8482 16.348 16.8482H20.2088C20.2421 16.8482 20.2691 16.8752 20.2691 16.9085V19.1297C20.2691 19.56 20.5722 19.9309 20.994 20.0165C22.6926 20.3613 24.2957 21.0274 25.7588 21.9963C26.1175 22.2339 26.5939 22.1861 26.8982 21.8817L28.473 20.3068C28.4966 20.2833 28.5348 20.2833 28.5585 20.3068L31.2884 23.0367C31.3119 23.0603 31.3119 23.0985 31.2884 23.122L29.7134 24.697C29.4091 25.0012 29.3612 25.4777 29.5988 25.8364C30.5676 27.2995 31.2338 28.9027 31.5786 30.6013C31.6641 31.0231 32.035 31.3262 32.4654 31.3262H34.6865C34.7199 31.3262 34.7469 31.3532 34.7469 31.3865V35.2471H34.747C34.7471 35.2804 34.7201 35.3074 34.6867 35.3074Z" fill="#7E64FE"/>
<path d="M41.6686 6.50167C41.2813 6.40204 40.8807 6.35156 40.4778 6.35156C37.8501 6.35156 35.7122 8.48945 35.7122 11.1172C35.7122 11.5197 35.7627 11.9198 35.862 12.3066C35.9671 12.715 36.3346 12.9863 36.7377 12.9863C36.8122 12.9863 36.8881 12.9771 36.9637 12.9576C37.4477 12.8332 37.7392 12.3399 37.6147 11.8559C37.553 11.6164 37.5218 11.3678 37.5218 11.1172C37.5218 9.4873 38.8479 8.16131 40.4776 8.16131C40.7287 8.16141 40.9776 8.19279 41.2177 8.25444C41.7018 8.37895 42.195 8.08747 42.3195 7.60342C42.4441 7.11948 42.1526 6.62619 41.6686 6.50167Z" fill="#7E64FE"/>
<path d="M45.093 9.92484C44.9682 9.4408 44.4742 9.14962 43.9908 9.27454C43.5068 9.39926 43.2158 9.89275 43.3405 10.3767C43.4023 10.6169 43.4337 10.8661 43.4337 11.1174C43.4337 12.7473 42.1076 14.0733 40.4778 14.0733C40.2269 14.0733 39.978 14.0419 39.7379 13.9801C39.2543 13.8554 38.7605 14.1468 38.636 14.6308C38.5114 15.1148 38.8028 15.6081 39.2867 15.7327C39.6741 15.8324 40.0749 15.883 40.478 15.883C43.1058 15.883 45.2437 13.7451 45.2437 11.1174C45.2437 10.7138 45.193 10.3125 45.093 9.92484Z" fill="#7E64FE"/>
<path d="M50.1299 8.28198H48.6176C48.2606 7.25366 47.7134 6.30364 47.0052 5.48221L47.7594 4.17591C48.2748 3.28287 47.9679 2.13694 47.0748 1.62141L45.4031 0.656262C44.9707 0.406519 44.4666 0.339894 43.9841 0.469387C43.5014 0.598676 43.0982 0.908137 42.8485 1.34069L42.0935 2.64851C41.0138 2.43878 39.9422 2.43878 38.8625 2.64851L38.1075 1.34079C37.8577 0.908136 37.4544 0.598676 36.9719 0.469387C36.4896 0.340098 35.9854 0.406519 35.5528 0.656262L33.881 1.62141C32.9881 2.13694 32.6811 3.28287 33.1966 4.17591L33.9507 5.48211C33.2425 6.30364 32.6954 7.25356 32.3383 8.28188H30.8259C29.7948 8.28188 28.9559 9.12078 28.9559 10.1519V12.0823C28.9559 13.1135 29.7948 13.9524 30.8259 13.9524H32.3383C32.6953 14.9807 33.2424 15.9308 33.9507 16.7522L33.1966 18.0584C32.6811 18.9513 32.9881 20.0972 33.881 20.6129L35.5528 21.578C35.8466 21.7476 36.1676 21.8283 36.4847 21.8283C37.1316 21.8283 37.7614 21.4929 38.1074 20.8936L38.8624 19.5859C39.9421 19.7956 41.0137 19.7956 42.0934 19.5859L42.8484 20.8936C43.3639 21.7866 44.51 22.0937 45.4029 21.578L47.0747 20.6129C47.9677 20.0972 48.2747 18.9513 47.7592 18.0584L47.0051 16.7522C47.7132 15.9307 48.2603 14.9806 48.6175 13.9524H50.1299C51.1611 13.9524 52 13.1135 52 12.0823V10.1519C52 9.12089 51.1611 8.28198 50.1299 8.28198ZM50.1903 12.0824C50.1903 12.1158 50.1632 12.1428 50.1299 12.1428H47.9464C47.5337 12.1428 47.1733 12.4221 47.0703 12.8217C46.7604 14.0231 46.1318 15.1147 45.2523 15.9786C44.9579 16.2676 44.8964 16.7193 45.1027 17.0766L46.192 18.9633C46.2087 18.9922 46.1988 19.029 46.17 19.0457L44.4983 20.0108C44.4694 20.0276 44.4326 20.0174 44.4159 19.9888L43.3249 18.099C43.1188 17.7419 42.697 17.5692 42.2997 17.6794C41.6904 17.8482 41.0775 17.9337 40.4781 17.9337C39.8787 17.9337 39.2659 17.8482 38.6566 17.6794C38.2593 17.5691 37.8376 17.7417 37.6313 18.099L36.5404 19.9888C36.5237 20.0175 36.4869 20.0277 36.458 20.0108L34.7863 19.0457C34.7574 19.029 34.7476 18.9919 34.764 18.9631L35.8534 17.0764C36.0597 16.7192 35.9982 16.2674 35.7038 15.9784C34.8243 15.1145 34.1957 14.0229 33.8858 12.8215C33.7827 12.4218 33.4224 12.1426 33.0096 12.1426H30.8262C30.7929 12.1426 30.7659 12.1156 30.7659 12.0822V10.1519C30.7659 10.1186 30.7929 10.0916 30.8262 10.0916H33.0097C33.4225 10.0916 33.7828 9.81232 33.8859 9.41267C34.1958 8.21129 34.8244 7.1196 35.7039 6.25581C35.9983 5.96676 36.0598 5.51511 35.8535 5.15782L34.7642 3.27109C34.7476 3.24225 34.7574 3.20518 34.7863 3.18852L36.4581 2.22337C36.4634 2.22022 36.4797 2.21078 36.5038 2.21738C36.5279 2.22398 36.5373 2.24003 36.5405 2.24551L37.6314 4.13528C37.8376 4.49238 38.2595 4.66514 38.6567 4.55494C39.266 4.38614 39.8789 4.30063 40.4782 4.30063C41.0777 4.30063 41.6905 4.38614 42.2998 4.55494C42.6973 4.66524 43.1189 4.49258 43.325 4.13528L44.416 2.24541C44.4191 2.24013 44.4286 2.22378 44.4526 2.21728C44.4769 2.21088 44.493 2.22022 44.4983 2.22327L46.17 3.18842C46.1988 3.20507 46.2087 3.24194 46.192 3.27079L45.1027 5.15761C44.8964 5.51481 44.9579 5.96656 45.2523 6.25561C46.1318 7.1195 46.7604 8.21109 47.0703 9.41247C47.1733 9.81202 47.5337 10.0914 47.9464 10.0914H50.1298C50.1631 10.0914 50.1902 10.1184 50.1902 10.1517V12.0824H50.1903Z" fill="#7E64FE"/>
<path d="M51.0952 29.5162H49.9825C49.8584 28.8737 49.6059 28.2765 49.2512 27.7535L50.0388 26.9659C50.3922 26.6125 50.3922 26.0395 50.0388 25.6863C49.6855 25.3329 49.1125 25.3329 48.7592 25.6863L47.9716 26.4739C47.4486 26.1193 46.8514 25.8667 46.2089 25.7426V24.6299C46.2089 24.1302 45.8038 23.7251 45.3041 23.7251C44.8044 23.7251 44.3992 24.1302 44.3992 24.6299V25.7426C43.7567 25.8666 43.1595 26.1193 42.6364 26.4739L41.8488 25.6863C41.4955 25.3329 40.9225 25.3329 40.5692 25.6863C40.2159 26.0396 40.2159 26.6126 40.5692 26.9659L41.3569 27.7535C41.0023 28.2765 40.7496 28.8737 40.6256 29.5162H39.5129C39.0132 29.5162 38.6081 29.9213 38.6081 30.4211C38.6081 30.9208 39.0132 31.3259 39.5129 31.3259H40.6256C40.7496 31.9684 41.0023 32.5656 41.3569 33.0886L40.5692 33.8763C40.2159 34.2296 40.2159 34.8026 40.5692 35.1558C40.7459 35.3326 40.9775 35.4209 41.2091 35.4209C41.4406 35.4209 41.6722 35.3326 41.8489 35.1558L42.6365 34.3682C43.1596 34.7228 43.7568 34.9754 44.3993 35.0995V36.2122C44.3993 36.7119 44.8044 37.117 45.3041 37.117C45.8038 37.117 46.209 36.7119 46.209 36.2122V35.0995C46.8515 34.9755 47.4486 34.7228 47.9717 34.3682L48.7593 35.1558C48.936 35.3326 49.1676 35.4209 49.3992 35.4209C49.6307 35.4209 49.8623 35.3326 50.039 35.1558C50.3924 34.8025 50.3924 34.2296 50.039 33.8763L49.2514 33.0886C49.606 32.5656 49.8586 31.9684 49.9827 31.3259H51.0954C51.5951 31.3259 52.0002 30.9208 52.0002 30.4211C52.0002 29.9214 51.5949 29.5162 51.0952 29.5162ZM45.304 33.377C43.6741 33.377 42.3481 32.0509 42.3481 30.4211C42.3481 28.7912 43.6742 27.4652 45.304 27.4652C46.9339 27.4652 48.2599 28.7913 48.2599 30.4211C48.2599 32.051 46.9338 33.377 45.304 33.377Z" fill="#7E64FE"/>
<path d="M45.304 29.5115C44.8043 29.5115 44.3943 29.9215 44.3943 30.4212C44.3943 30.9209 44.8043 31.3309 45.304 31.3309C45.8036 31.3309 46.2136 30.9209 46.2136 30.4212C46.2136 29.9215 45.8036 29.5115 45.304 29.5115Z" fill="#7E64FE"/>
</g>
<defs>
<clipPath id="clip0">
<rect width="52" height="52" fill="white"/>
</clipPath>
</defs>
</svg>
