<svg width="52" height="52" viewBox="0 0 52 52" fill="none" xmlns="http://www.w3.org/2000/svg">
<g clip-path="url(#clip0)">
<path d="M18.9824 21.8226C18.8955 21.3814 18.4667 21.0942 18.0262 21.1812C17.4931 21.2862 16.9266 21.3775 16.3426 21.4523C15.8967 21.5095 15.5814 21.9175 15.6386 22.3635C15.6912 22.7744 16.0416 23.0742 16.4452 23.0742C16.4797 23.0742 16.5147 23.072 16.5497 23.0675C17.1697 22.9881 17.7723 22.8909 18.341 22.7788C18.7822 22.692 19.0694 22.2638 18.9824 21.8226Z" fill="#7E64FE"/>
<path d="M18.9824 16.6117C18.8955 16.1705 18.4667 15.8833 18.0262 15.9702C17.4931 16.0752 16.9266 16.1665 16.3426 16.2414C15.8967 16.2986 15.5814 16.7066 15.6386 17.1525C15.6912 17.5634 16.0416 17.8633 16.4452 17.8633C16.4797 17.8633 16.5147 17.861 16.5497 17.8565C17.1697 17.7771 17.7723 17.6799 18.341 17.5679C18.7822 17.4811 19.0694 17.0529 18.9824 16.6117Z" fill="#7E64FE"/>
<path d="M20.3272 4.52738C18.1194 3.84803 15.1991 3.47388 12.1044 3.47388C9.00971 3.47388 6.08948 3.84793 3.88162 4.52738C2.11088 5.07227 0 6.07571 0 7.76205V29.474C0 30.4048 0.673359 31.7215 3.88152 32.7086C6.08938 33.388 9.00961 33.7621 12.1043 33.7621C14.32 33.7621 16.4769 33.568 18.3416 33.2006C18.7828 33.1137 19.0699 32.6856 18.983 32.2444C18.8961 31.8031 18.4675 31.5157 18.0268 31.6029C16.264 31.9502 14.2161 32.1338 12.1042 32.1338C9.16744 32.1338 6.41723 31.7852 4.36038 31.1523C2.19923 30.4874 1.62825 29.7637 1.62825 29.4741V26.5371C2.31552 26.9515 3.12894 27.2663 3.88141 27.4979C6.08928 28.1772 9.00951 28.5514 12.1042 28.5514C12.4008 28.5514 12.6995 28.5479 12.9919 28.541C13.4414 28.5305 13.7973 28.1575 13.7867 27.7079C13.7761 27.2584 13.4045 26.9017 12.9536 26.9131C12.6738 26.9197 12.3881 26.9229 12.1042 26.9229C9.16744 26.9229 6.41723 26.5744 4.36038 25.9414C2.19913 25.2765 1.62815 24.5529 1.62815 24.2632V21.3261C2.31542 21.7405 3.12884 22.0553 3.88131 22.2869C6.08918 22.9663 9.00941 23.3404 12.1041 23.3404C12.4007 23.3404 12.6994 23.337 12.9918 23.3301C13.4413 23.3195 13.7972 22.9466 13.7866 22.4969C13.776 22.0473 13.4044 21.692 12.9535 21.7021C12.6737 21.7087 12.388 21.712 12.1041 21.712C9.16734 21.712 6.41713 21.3634 4.36028 20.7305C2.19903 20.0655 1.62805 19.3419 1.62805 19.0522V16.1153C2.31532 16.5296 3.12873 16.8445 3.88121 17.076C6.08908 17.7554 9.00931 18.1295 12.104 18.1295C12.4006 18.1295 12.6993 18.1261 12.9917 18.1192C13.4412 18.1086 13.7971 17.7357 13.7865 17.2861C13.7759 16.8365 13.4043 16.4823 12.9534 16.4912C12.6736 16.4978 12.3879 16.5011 12.104 16.5011C9.16723 16.5011 6.41702 16.1525 4.36018 15.5196C2.19893 14.8547 1.62795 14.131 1.62795 13.8414V10.0359C2.31522 10.4503 3.12863 10.7652 3.88111 10.9967C6.08898 11.6761 9.0092 12.0501 12.1039 12.0501C15.1986 12.0501 18.1189 11.6761 20.3267 10.9967C21.0793 10.7652 21.8927 10.4504 22.5799 10.0359V13.8414C22.5799 14.0705 22.2448 14.5015 21.3004 14.9617C20.8961 15.1586 20.7282 15.646 20.9251 16.0503C21.0661 16.3397 21.356 16.5079 21.6577 16.5079C21.7774 16.5079 21.8989 16.4814 22.0138 16.4255C22.2211 16.3246 22.4086 16.222 22.5799 16.1183V19.0522C22.5799 19.2814 22.2448 19.7124 21.3004 20.1726C20.8961 20.3695 20.7282 20.8569 20.9251 21.2611C21.0661 21.5506 21.356 21.7188 21.6577 21.7188C21.7774 21.7188 21.8989 21.6923 22.0138 21.6364C22.2211 21.5354 22.4086 21.4329 22.5799 21.3292V21.6574C22.5799 22.107 22.9444 22.4717 23.3941 22.4717C23.8438 22.4717 24.2083 22.1071 24.2083 21.6574V7.76205C24.2087 6.07571 22.098 5.07227 20.3272 4.52738ZM19.8483 9.44027C17.7914 10.0732 15.0411 10.4218 12.1044 10.4218C9.16774 10.4218 6.41743 10.0732 4.36059 9.44027C2.19944 8.77534 1.62845 8.05171 1.62845 7.76205C1.62845 7.47239 2.19944 6.74876 4.36059 6.08383C6.41743 5.45089 9.16774 5.10233 12.1044 5.10233C15.0411 5.10233 17.7914 5.45089 19.8483 6.08383C22.0093 6.74876 22.5804 7.47239 22.5804 7.76205C22.5804 8.05171 22.0093 8.77534 19.8483 9.44027Z" fill="#7E64FE"/>
<path d="M18.9824 27.0334C18.8956 26.5923 18.4667 26.305 18.0262 26.392C17.4931 26.497 16.9266 26.5883 16.3426 26.6632C15.8967 26.7203 15.5814 27.1283 15.6386 27.5743C15.6912 27.9852 16.0416 28.285 16.4452 28.285C16.4797 28.285 16.5147 28.2828 16.5497 28.2783C17.1697 28.1989 17.7723 28.1017 18.341 27.9897C18.7821 27.9028 19.0693 27.4746 18.9824 27.0334Z" fill="#7E64FE"/>
<path d="M50.3173 43.4237H50.2631V26.8684C50.2631 25.4617 49.1187 24.3173 47.7119 24.3173H23.3946C21.9879 24.3173 20.8435 25.4617 20.8435 26.8684V43.4237H20.7893C19.8614 43.4237 19.1066 44.1785 19.1066 45.1064V46.8433C19.1066 47.7712 19.8614 48.526 20.7893 48.526H50.3174C51.2453 48.526 52.0001 47.7712 52.0001 46.8433V45.1064C52 44.1785 51.2452 43.4237 50.3173 43.4237ZM22.4718 26.8684C22.4718 26.3596 22.8858 25.9456 23.3946 25.9456H47.7119C48.2208 25.9456 48.6347 26.3596 48.6347 26.8684V43.4237H22.4718V26.8684ZM50.3716 46.8434C50.3716 46.8734 50.3474 46.8976 50.3174 46.8976H20.7892C20.7592 46.8976 20.7349 46.8734 20.7349 46.8434V45.1065C20.7349 45.0765 20.7592 45.0523 20.7892 45.0523H21.6576H49.4488H50.3173C50.3473 45.0523 50.3715 45.0765 50.3715 45.1065V46.8434H50.3716Z" fill="#7E64FE"/>
<path d="M39.8961 27.7913H25.1315C24.6819 27.7913 24.3173 28.1558 24.3173 28.6055V40.7641C24.3173 41.2138 24.6818 41.5784 25.1315 41.5784H27.7371C28.1868 41.5784 28.5514 41.2139 28.5514 40.7641C28.5514 40.3145 28.187 39.9499 27.7371 39.9499H25.9458V29.4196H39.8961C40.3457 29.4196 40.7103 29.0551 40.7103 28.6054C40.7103 28.1557 40.3457 27.7913 39.8961 27.7913Z" fill="#7E64FE"/>
<path d="M45.9749 27.7913H43.3694C42.9198 27.7913 42.5552 28.1558 42.5552 28.6055C42.5552 29.0552 42.9197 29.4197 43.3694 29.4197H45.1608V39.95H31.2105C30.7608 39.95 30.3962 40.3145 30.3962 40.7642C30.3962 41.2139 30.7607 41.5785 31.2105 41.5785H45.975C46.4246 41.5785 46.7892 41.214 46.7892 40.7642V28.6054C46.7891 28.1558 46.4246 27.7913 45.9749 27.7913Z" fill="#7E64FE"/>
<path d="M26.8685 13.0271C26.4189 13.0271 26.0543 13.3916 26.0543 13.8413C26.0543 14.291 26.4188 14.6556 26.8685 14.6556C30.7294 14.6556 33.8706 17.7967 33.8706 21.6577C33.8706 22.1073 34.2351 22.4719 34.6848 22.4719C35.1346 22.4719 35.4991 22.1074 35.4991 21.6577C35.499 16.8988 31.6273 13.0271 26.8685 13.0271Z" fill="#7E64FE"/>
<path d="M16.4467 43.4238C12.5858 43.4238 9.44462 40.2826 9.44462 36.4216C9.44462 35.972 9.08011 35.6074 8.63039 35.6074C8.18067 35.6074 7.81616 35.9719 7.81616 36.4216C7.81616 41.1805 11.6878 45.0521 16.4466 45.0521C16.8963 45.0521 17.2609 44.6876 17.2609 44.2379C17.261 43.7884 16.8965 43.4238 16.4467 43.4238Z" fill="#7E64FE"/>
</g>
<defs>
<clipPath id="clip0">
<rect width="52" height="52" fill="white"/>
</clipPath>
</defs>
</svg>
