<svg width="52" height="52" viewBox="0 0 52 52" fill="none" xmlns="http://www.w3.org/2000/svg">
<g clip-path="url(#clip0)">
<path d="M47.131 14.19C46.8217 13.6378 46.4865 13.0907 46.1345 12.5643C45.8761 12.1775 45.3526 12.0737 44.9661 12.3323C44.5794 12.5909 44.4755 13.114 44.7341 13.5007C45.0613 13.9903 45.3732 14.4992 45.661 15.013C45.8155 15.2888 46.1017 15.4439 46.3967 15.4439C46.5359 15.4439 46.6773 15.4092 46.8075 15.3364C47.2134 15.1091 47.3582 14.5959 47.131 14.19Z" fill="#7E64FE"/>
<path d="M39.4342 5.86464C38.908 5.51272 38.3608 5.17736 37.808 4.8679C37.4021 4.64061 36.8888 4.78543 36.6616 5.19138C36.4344 5.59722 36.5789 6.11052 36.985 6.33782C37.4994 6.62575 38.0082 6.93775 38.4979 7.26508C38.6416 7.36126 38.8044 7.40737 38.9652 7.40737C39.237 7.40737 39.5037 7.27605 39.6661 7.03311C39.9247 6.64647 39.8209 6.12332 39.4342 5.86464Z" fill="#7E64FE"/>
<path d="M34.3447 3.27424C33.7499 3.05578 33.139 2.85855 32.5287 2.68803C32.0806 2.5625 31.616 2.82453 31.4908 3.27252C31.3655 3.72051 31.6273 4.18526 32.0754 4.31049C32.6428 4.46903 33.2108 4.65245 33.7638 4.85567C33.8597 4.89082 33.9578 4.90757 34.0542 4.90757C34.3974 4.90757 34.7198 4.69632 34.845 4.35548C35.0053 3.91876 34.7814 3.43471 34.3447 3.27424Z" fill="#7E64FE"/>
<path d="M43.7746 9.57251C43.3446 9.10756 42.8912 8.65398 42.4264 8.22448C42.0847 7.90851 41.5518 7.92964 41.236 8.27119C40.92 8.61275 40.9411 9.14565 41.2826 9.46151C41.7153 9.86146 42.1376 10.2837 42.5376 10.7163C42.7037 10.8959 42.9296 10.9868 43.1563 10.9868C43.3609 10.9868 43.5659 10.9127 43.728 10.7629C44.0695 10.447 44.0904 9.91407 43.7746 9.57251Z" fill="#7E64FE"/>
<path d="M49.3105 19.4656C49.1399 18.8559 48.9429 18.2455 48.7244 17.6513C48.564 17.2148 48.0802 16.9903 47.6432 17.1512C47.2066 17.3117 46.9826 17.7957 47.1431 18.2324C47.3462 18.785 47.5296 19.3527 47.6883 19.9196C47.7924 20.2917 48.1306 20.5352 48.4991 20.5352C48.5742 20.5352 48.6507 20.525 48.7264 20.5038C49.1743 20.3784 49.4359 19.9137 49.3105 19.4656Z" fill="#7E64FE"/>
<path d="M15.3361 5.19282C15.1088 4.78698 14.5956 4.64225 14.1897 4.86945C13.6377 5.1785 13.0909 5.51386 12.5641 5.86598C12.1774 6.12456 12.0734 6.64771 12.332 7.03436C12.4944 7.27729 12.7611 7.40861 13.033 7.40861C13.1939 7.40861 13.3565 7.3626 13.5004 7.26643C13.9904 6.93878 14.4992 6.62678 15.0127 6.33926C15.4187 6.11196 15.5635 5.59867 15.3361 5.19282Z" fill="#7E64FE"/>
<path d="M7.03303 12.334C6.64628 12.0753 6.12313 12.1794 5.86466 12.5661C5.51254 13.0928 5.17718 13.6401 4.86792 14.1923C4.64063 14.598 4.78535 15.1114 5.1914 15.3387C5.3216 15.4116 5.46288 15.4463 5.60212 15.4463C5.89706 15.4463 6.18346 15.2911 6.33784 15.0153C6.62556 14.5015 6.93756 13.9925 7.26521 13.5022C7.52378 13.1157 7.41978 12.5926 7.03303 12.334Z" fill="#7E64FE"/>
<path d="M10.7627 8.27206C10.4467 7.93051 9.91394 7.90958 9.57229 8.22555C9.10733 8.65556 8.65375 9.10914 8.22435 9.57369C7.90849 9.91524 7.92941 10.4481 8.27107 10.764C8.43306 10.9139 8.63811 10.9879 8.84266 10.9879C9.06935 10.9879 9.29543 10.8969 9.46138 10.7174C9.86123 10.2848 10.2834 9.86273 10.7162 9.46237C11.0577 9.14652 11.0786 8.61362 10.7627 8.27206Z" fill="#7E64FE"/>
<path d="M4.35527 17.1552C3.91906 16.9948 3.43461 17.2186 3.27414 17.6553C3.05578 18.2498 2.85844 18.8608 2.68792 19.4711C2.56269 19.9192 2.82442 20.384 3.27241 20.5092C3.34838 20.5304 3.42445 20.5405 3.49961 20.5405C3.86797 20.5405 4.20638 20.2969 4.31038 19.9248C4.46912 19.3571 4.65234 18.7891 4.85557 18.2363C5.01594 17.7997 4.79189 17.3156 4.35527 17.1552Z" fill="#7E64FE"/>
<path d="M20.5031 3.27397C20.3777 2.82598 19.9128 2.56435 19.465 2.68968C18.8554 2.8603 18.2449 3.05754 17.6509 3.2758C17.2142 3.43627 16.9904 3.92031 17.1508 4.35693C17.276 4.69787 17.5984 4.90902 17.9415 4.90902C18.038 4.90902 18.136 4.89237 18.232 4.85712C18.7846 4.6541 19.3522 4.47078 19.9191 4.31204C20.3669 4.18681 20.6285 3.72196 20.5031 3.27397Z" fill="#7E64FE"/>
<path d="M28.7874 1.95579C28.7059 1.94645 28.6236 1.93862 28.5418 1.93009C28.231 0.818187 27.2096 0 26 0C24.7904 0 23.7689 0.818187 23.4583 1.93009C23.3761 1.93862 23.2935 1.94665 23.212 1.95589C22.7499 2.00901 22.4182 2.42673 22.4713 2.88884C22.5205 3.31835 22.8848 3.63512 23.307 3.63512C23.3391 3.63512 23.3715 3.6333 23.4042 3.62964C23.4519 3.62416 23.5002 3.61969 23.5483 3.61451C23.937 4.58839 24.8892 5.27861 26.0001 5.27861C27.111 5.27861 28.0631 4.58839 28.4519 3.61441C28.4997 3.61959 28.5479 3.62405 28.5955 3.62944C28.6282 3.63309 28.6604 3.63492 28.6925 3.63492C29.1147 3.63492 29.479 3.31805 29.5283 2.88854C29.5813 2.42633 29.2496 2.0088 28.7874 1.95579ZM26 3.59399C25.4736 3.59399 25.0453 3.1657 25.0453 2.6393C25.0453 2.11291 25.4736 1.68462 26 1.68462C26.5264 1.68462 26.9547 2.11291 26.9547 2.6393C26.9547 3.1657 26.5264 3.59399 26 3.59399Z" fill="#7E64FE"/>
<path d="M10.7171 42.5384C10.2849 42.1384 9.86256 41.7162 9.4624 41.2836C9.14644 40.9419 8.61354 40.9211 8.27199 41.237C7.93033 41.5529 7.90951 42.0858 8.22537 42.4274C8.65529 42.8923 9.10897 43.3459 9.57351 43.7754C9.73551 43.9252 9.94056 43.9993 10.1451 43.9993C10.3718 43.9993 10.5979 43.9083 10.7638 43.7287C11.0796 43.3871 11.0588 42.8543 10.7171 42.5384Z" fill="#7E64FE"/>
<path d="M15.015 45.662C14.5012 45.3743 13.9922 45.0622 13.5019 44.7346C13.1153 44.4759 12.5921 44.58 12.3336 44.9668C12.075 45.3534 12.179 45.8766 12.5657 46.1352C13.0924 46.4873 13.6397 46.8226 14.1919 47.1319C14.3221 47.2048 14.4633 47.2394 14.6026 47.2394C14.8975 47.2394 15.1839 47.0843 15.3383 46.8085C15.5658 46.4027 15.4209 45.8893 15.015 45.662Z" fill="#7E64FE"/>
<path d="M19.9244 47.6895C19.3574 47.531 18.7892 47.3476 18.236 47.1443C17.7994 46.9839 17.3153 47.2079 17.1549 47.6445C16.9945 48.0811 17.2185 48.5652 17.6551 48.7256C18.2501 48.9442 18.861 49.1415 19.471 49.3118C19.5468 49.333 19.6231 49.3432 19.6981 49.3432C20.0666 49.3432 20.4049 49.0996 20.5089 48.7274C20.6342 48.2793 20.3725 47.8146 19.9244 47.6895Z" fill="#7E64FE"/>
<path d="M4.85698 33.7674C4.65396 33.2148 4.47054 32.6472 4.3119 32.0803C4.18657 31.6324 3.72212 31.3709 3.27372 31.496C2.82573 31.6213 2.56411 32.0861 2.68944 32.5342C2.86006 33.1437 3.05729 33.7542 3.27555 34.3485C3.40078 34.6893 3.72314 34.9005 4.06632 34.9005C4.1628 34.9005 4.26081 34.8838 4.35679 34.8486C4.79351 34.6882 5.01735 34.2042 4.85698 33.7674Z" fill="#7E64FE"/>
<path d="M7.2662 38.4995C6.93836 38.0092 6.62646 37.5003 6.33894 36.987C6.11164 36.581 5.59845 36.4365 5.1925 36.6636C4.78666 36.8909 4.64183 37.4042 4.86913 37.8101C5.17818 38.362 5.51354 38.9089 5.86566 39.4357C6.02806 39.6786 6.29476 39.81 6.56674 39.81C6.72772 39.81 6.89032 39.764 7.03413 39.6678C7.42088 39.4094 7.52488 38.8862 7.2662 38.4995Z" fill="#7E64FE"/>
<path d="M5.27861 26.0001C5.27861 24.8891 4.58839 23.937 3.61441 23.5482C3.61959 23.5004 3.62405 23.4523 3.62944 23.4047C3.68245 22.9426 3.35075 22.5249 2.88854 22.4719C2.42511 22.4189 2.0087 22.7506 1.95569 23.2128C1.94634 23.2942 1.93852 23.3764 1.92999 23.4583C0.818188 23.769 0 24.7904 0 26.0001C0 27.2097 0.818187 28.2311 1.93009 28.5418C1.93862 28.6237 1.94645 28.706 1.95579 28.7873C2.00495 29.2169 2.36935 29.5337 2.79165 29.5337C2.82364 29.5337 2.85614 29.5319 2.88864 29.5282C3.35085 29.4752 3.68245 29.0577 3.62954 28.5954C3.62405 28.5477 3.61969 28.4996 3.61451 28.4519C4.58839 28.0631 5.27861 27.111 5.27861 26.0001ZM2.6393 26.9547C2.11291 26.9547 1.68462 26.5266 1.68462 26.0001C1.68462 25.4736 2.11291 25.0454 2.6393 25.0454C3.1657 25.0454 3.59399 25.4737 3.59399 26.0001C3.59399 26.5264 3.1657 26.9547 2.6393 26.9547Z" fill="#7E64FE"/>
<path d="M46.8086 36.6613C46.4025 36.434 45.8893 36.5786 45.662 36.9847C45.3743 37.4984 45.0623 38.0075 44.7347 38.4978C44.4761 38.8847 44.5801 39.4077 44.967 39.6662C45.1107 39.7622 45.2734 39.8083 45.4341 39.8083C45.706 39.8083 45.9729 39.6769 46.1352 39.4338C46.4874 38.9069 46.8227 38.3598 47.1319 37.8078C47.3593 37.4019 47.2145 36.8886 46.8086 36.6613Z" fill="#7E64FE"/>
<path d="M39.6679 44.9655C39.4093 44.579 38.886 44.4751 38.4995 44.7336C38.0093 45.0613 37.5004 45.3732 36.9871 45.6607C36.5813 45.888 36.4366 46.4014 36.6638 46.8072C36.8182 47.0829 37.1044 47.238 37.3995 47.238C37.5387 47.238 37.6801 47.2032 37.8103 47.1304C38.362 46.8215 38.9088 46.4862 39.4357 46.1339C39.8225 45.8754 39.9265 45.3524 39.6679 44.9655Z" fill="#7E64FE"/>
<path d="M43.7289 41.236C43.387 40.92 42.8541 40.9411 42.5385 41.2826C42.1384 41.7153 41.7162 42.1375 41.2835 42.5374C40.9419 42.8533 40.9209 43.3862 41.2369 43.7277C41.403 43.9073 41.6288 43.9983 41.8556 43.9983C42.0601 43.9983 42.2652 43.9243 42.4273 43.7745C42.8921 43.3446 43.3457 42.8912 43.7754 42.4263C44.0915 42.0848 44.0704 41.5519 43.7289 41.236Z" fill="#7E64FE"/>
<path d="M34.8491 47.643C34.6887 47.2064 34.205 46.9823 33.7679 47.1429C33.2156 47.346 32.6479 47.5293 32.0809 47.688C31.6329 47.8134 31.3712 48.2781 31.4966 48.7262C31.6007 49.0983 31.9389 49.3418 32.3073 49.3418C32.3825 49.3418 32.459 49.3316 32.5346 49.3104C33.1446 49.1397 33.7549 48.9425 34.3489 48.7243C34.7857 48.5638 35.0096 48.0798 34.8491 47.643Z" fill="#7E64FE"/>
<path d="M48.7275 31.4908C48.2787 31.3652 47.8146 31.6273 47.6895 32.0753C47.5307 32.6431 47.3474 33.2112 47.1443 33.7639C46.9839 34.2005 47.2078 34.6846 47.6445 34.845C47.7404 34.8801 47.8385 34.8969 47.9349 34.8969C48.2781 34.8969 48.6004 34.6856 48.7257 34.3448C48.944 33.7505 49.1412 33.1396 49.3119 32.5291C49.4372 32.0808 49.1757 31.616 48.7275 31.4908Z" fill="#7E64FE"/>
<path d="M29.5285 49.1113C29.4754 48.6492 29.0573 48.3173 28.5956 48.3705C28.548 48.376 28.4997 48.3804 28.4517 48.3855C28.063 47.4117 27.111 46.7214 26 46.7214C24.889 46.7214 23.9369 47.4117 23.5482 48.3856C23.5003 48.3805 23.452 48.376 23.4042 48.3706C22.9412 48.3173 22.5244 48.6494 22.4714 49.1115C22.4184 49.5737 22.7501 49.9913 23.2123 50.0444C23.2937 50.0537 23.3761 50.0616 23.4582 50.0702C23.7689 51.1819 24.7904 52 26 52C27.2096 52 28.231 51.1819 28.5417 50.0699C28.6236 50.0614 28.7061 50.0534 28.7876 50.0442C29.2497 49.9911 29.5814 49.5735 29.5285 49.1113ZM26 50.3154C25.4736 50.3154 25.0453 49.8871 25.0453 49.3607C25.0453 48.8343 25.4736 48.4061 26 48.4061C26.5264 48.4061 26.9547 48.8342 26.9547 49.3607C26.9547 49.8872 26.5264 50.3154 26 50.3154Z" fill="#7E64FE"/>
<path d="M50.0699 23.4583C50.0614 23.3764 50.0536 23.294 50.0443 23.2127C49.9912 22.7505 49.5735 22.419 49.1114 22.4718C48.6493 22.5249 48.3176 22.9424 48.3705 23.4046C48.3759 23.4521 48.3804 23.5005 48.3855 23.5482C47.4117 23.937 46.7214 24.8891 46.7214 26C46.7214 27.1109 47.4117 28.0631 48.3856 28.4518C48.3805 28.4996 48.376 28.5478 48.3706 28.5953C48.3176 29.0576 48.6493 29.4752 49.1115 29.5282C49.1441 29.5319 49.1764 29.5337 49.2086 29.5337C49.6308 29.5337 49.9951 29.2168 50.0443 28.7873C50.0536 28.7061 50.0614 28.6237 50.0699 28.5417C51.1819 28.231 52 27.2096 52 26C52 24.7904 51.1819 23.769 50.0699 23.4583ZM49.3607 26.9547C48.8343 26.9547 48.4061 26.5265 48.4061 26C48.4061 25.4735 48.8342 25.0453 49.3607 25.0453C49.8872 25.0453 50.3154 25.4736 50.3154 26C50.3154 26.5264 49.8871 26.9547 49.3607 26.9547Z" fill="#7E64FE"/>
<path d="M44.8684 25.1577H43.8933C43.4649 15.949 36.0511 8.53528 26.8424 8.10679V7.13179C26.8424 6.66663 26.4654 6.28943 26.0001 6.28943C25.5349 6.28943 25.1577 6.66653 25.1577 7.13179V8.10679C15.949 8.53528 8.53528 15.949 8.10679 25.1577H7.13179C6.66663 25.1577 6.28943 25.5348 6.28943 26.0001C6.28943 26.4652 6.66653 26.8424 7.13179 26.8424H8.10679C8.53528 36.0511 15.949 43.465 25.1577 43.8933V44.8684C25.1577 45.3335 25.5348 45.7107 26.0001 45.7107C26.4653 45.7107 26.8424 45.3336 26.8424 44.8684V43.8933C36.0511 43.4649 43.465 36.0512 43.8933 26.8424H44.8684C45.3336 26.8424 45.7107 26.4653 45.7107 26.0001C45.7106 25.5349 45.3336 25.1577 44.8684 25.1577ZM20.2608 10.8203C19.5472 11.5718 18.883 12.4695 18.2824 13.5068C17.804 14.3333 17.379 15.2263 17.0095 16.1728H13.0939C14.9216 13.7784 17.3989 11.9059 20.2608 10.8203ZM11.9664 17.8575H16.4297C15.7497 20.1031 15.3566 22.5814 15.2864 25.1577H9.79283C9.92892 22.5078 10.7042 20.0242 11.9664 17.8575ZM9.79283 26.8424H15.2863C15.3565 29.4188 15.7497 31.897 16.4296 34.1426H11.9663C10.7042 31.9759 9.92892 29.4923 9.79283 26.8424ZM13.0941 35.8273H17.0097C17.3791 36.7737 17.8041 37.6668 18.2826 38.4933C18.8832 39.5305 19.5473 40.4283 20.261 41.1797C17.3989 40.0942 14.9216 38.2216 13.0941 35.8273ZM25.1577 42.1571C23.141 41.814 21.2426 40.2439 19.7404 37.6493C19.4085 37.0761 19.1046 36.4669 18.829 35.8273H25.1577V42.1571ZM25.1577 34.1426H18.1954C17.4682 31.9307 17.0459 29.4453 16.9712 26.8424H25.1576V34.1426H25.1577ZM25.1577 25.1577H16.9713C17.0459 22.5549 17.4682 20.0694 18.1955 17.8575H25.1578V25.1577H25.1577ZM25.1577 16.1729H18.829C19.1046 15.5333 19.4085 14.9241 19.7404 14.3509C21.2426 11.7562 23.1409 10.1863 25.1577 9.843V16.1729ZM38.906 16.1729H34.9905C34.621 15.2264 34.1961 14.3334 33.7176 13.5069C33.1171 12.4696 32.4528 11.5718 31.7393 10.8202C34.6012 11.9059 37.0784 13.7784 38.906 16.1729ZM26.8424 9.843C28.8592 10.1862 30.7576 11.7562 32.2597 14.3509C32.5916 14.9241 32.8955 15.5332 33.171 16.1729H26.8425V9.843H26.8424ZM26.8424 17.8575H33.8047C34.5319 20.0694 34.9542 22.5549 35.029 25.1577H26.8425V17.8575H26.8424ZM26.8424 26.8424H35.0289C34.9542 29.4453 34.5319 31.9307 33.8046 34.1426H26.8423V26.8424H26.8424ZM26.8424 42.1571V35.8273H33.1711C32.8956 36.4668 32.5917 37.0761 32.2598 37.6493C30.7576 40.2439 28.8592 41.814 26.8424 42.1571ZM31.7393 41.1798C32.4528 40.4283 33.1171 39.5306 33.7176 38.4932C34.1962 37.6667 34.621 36.7736 34.9905 35.8272H38.906C37.0784 38.2216 34.6012 40.0942 31.7393 41.1798ZM40.0338 34.1426H35.5704C36.2505 31.897 36.6435 29.4188 36.7137 26.8424H42.2072C42.0712 29.4923 41.2959 31.9759 40.0338 34.1426ZM36.7139 25.1577C36.6437 22.5814 36.2506 20.1031 35.5706 17.8575H40.034C41.296 20.0242 42.0713 22.5078 42.2074 25.1577H36.7139Z" fill="#7E64FE"/>
</g>
<defs>
<clipPath id="clip0">
<rect width="52" height="52" fill="white"/>
</clipPath>
</defs>
</svg>
