<svg width="95" height="26" viewBox="0 0 95 26" fill="none" xmlns="http://www.w3.org/2000/svg">
<path d="M6.90234 13.9001L3.12361 22.3872H0.366638L4.51761 13.3112C2.56573 12.3199 1.26479 10.5236 1.26479 7.20926C1.26479 2.56292 4.20741 0.239746 7.70791 0.239746H11.27V22.3872H8.88477V13.9001H6.90234ZM8.88477 2.25319H7.61485C5.69447 2.25319 3.83612 3.52311 3.83612 7.20926C3.83612 10.7713 5.53936 11.9176 7.61485 11.9176H8.88477V2.25319Z" fill="#FF0000"/>
<path d="M22.7651 6.77526V22.387H20.3799V15.3869H16.7868V22.387H14.3705V6.77526H16.7868V13.4035H20.3799V6.77526H22.7651ZM35.186 25.4537H33.0179V22.387H26.3271V25.4537H24.1591V20.4046H25.1193C26.5438 17.0897 26.6989 12.2582 26.6989 8.10721V6.77526H33.9471V20.4046H35.186V25.4537ZM31.5619 8.72666H28.867V9.00584C28.867 12.2892 28.7123 17.0897 27.4114 20.4046H31.5619V8.72666ZM41.8458 22.6036C38.6245 22.6036 36.642 20.0333 36.642 15.2323C36.642 10.2137 38.036 6.55859 41.3504 6.55859C43.9523 6.55859 45.656 8.51 45.656 13.8063V15.1388H39.1509C39.1509 18.6703 40.1421 20.5286 42.0625 20.5286C43.4254 20.5286 44.5097 19.9092 45.1292 19.4759L45.687 21.3332C44.6958 22.1083 43.3944 22.6036 41.8458 22.6036ZM39.1819 13.1563H43.1778C43.1778 10.4924 42.7439 8.54102 41.3504 8.54102C39.8634 8.54102 39.337 10.3683 39.1819 13.1563ZM50.55 14.6119V22.387H48.1338V6.77526H50.55V13.9924L54.2978 6.77526H56.745L52.8732 14.1165L57.3024 22.387H54.6695L50.55 14.6119ZM57.6121 14.5814C57.6121 9.68685 59.502 6.55859 63.1571 6.55859C64.5506 6.55859 65.3562 6.93036 66.0377 7.36369L65.6969 9.65631C65.0465 9.09843 64.1173 8.57204 63.1261 8.57204C61.3913 8.57204 60.1524 10.5234 60.1524 14.4573C60.1524 18.3601 61.0816 20.5907 63.033 20.5907C64.2099 20.5907 65.1085 20.1258 65.6659 19.6305L66.2233 21.4268C65.3872 22.1388 64.396 22.6036 62.971 22.6036C59.6256 22.6036 57.6121 19.9092 57.6121 14.5814Z" fill="black"/>
<path d="M76.815 12.6747C76.815 11.3401 76.9269 10.4932 79.6907 8.43008C81.9788 6.72205 89.313 0.885254 89.313 0.885254V10.6288H94.8904V24.6522H78.5571C77.599 24.6522 76.8147 23.8679 76.8147 22.9097L76.815 12.6747Z" fill="#FFD000"/>
<path d="M89.3129 10.6289V16.2745L79.064 23.2567L92.022 19.0406V10.6289H89.3129Z" fill="#D8B100"/>
<path d="M84.6294 10.3367C85.2287 9.62255 86.104 9.37041 86.5846 9.77372C87.0652 10.1771 86.9692 11.0831 86.3698 11.7972C85.7708 12.5113 84.8952 12.7631 84.4146 12.3598C83.934 11.9565 84.0303 11.0508 84.6294 10.3367Z" fill="#1D1D1B"/>
</svg>
