<svg width="90" height="25" viewBox="0 0 90 25" fill="none" xmlns="http://www.w3.org/2000/svg">
<path d="M2.00257 19.563V4.95705H6.73506C8.52842 4.95705 9.69743 5.03011 10.2421 5.17624C11.079 5.39542 11.7797 5.87365 12.3443 6.61093C12.9089 7.34155 13.1912 8.28805 13.1912 9.45042C13.1912 10.3471 13.0284 11.101 12.703 11.712C12.3775 12.3231 11.9624 12.8047 11.4576 13.1567C10.9594 13.5021 10.4513 13.7312 9.93322 13.8442C9.22916 13.9836 8.2096 14.0534 6.87454 14.0534H4.95166V19.563H2.00257ZM4.95166 7.4279V11.5726H6.56568C7.72805 11.5726 8.50517 11.4962 8.89705 11.3434C9.28894 11.1906 9.59447 10.9515 9.81366 10.6261C10.0395 10.3006 10.1524 9.922 10.1524 9.49027C10.1524 8.9589 9.99632 8.52052 9.68414 8.17514C9.37196 7.82975 8.97676 7.61388 8.49853 7.52753C8.1465 7.46111 7.43912 7.4279 6.37638 7.4279H4.95166ZM27.2691 19.563H24.0609L22.7857 16.2453H16.9473L15.7417 19.563H12.6133L18.3022 4.95705H21.4207L27.2691 19.563ZM21.8392 13.7844L19.8266 8.36444L17.8539 13.7844H21.8392ZM30.806 19.563V13.4157L25.4558 4.95705H28.913L32.3502 10.7357L35.7178 4.95705H39.1152L33.7451 13.4357V19.563H30.806Z" fill="black"/>
<path d="M40.5693 19.5625V4.95656H51.3993V7.42741H43.5184V10.6654H50.8513V13.1263H43.5184V17.1016H51.6782V19.5625H40.5693ZM54.179 19.5625V4.95656H65.0089V7.42741H57.1281V10.6654H64.4609V13.1263H57.1281V17.1016H65.2879V19.5625H54.179ZM67.7986 19.5625V4.95656H74.0056C75.5665 4.95656 76.699 5.0894 77.403 5.35508C78.1137 5.61413 78.6816 6.07907 79.1067 6.74992C79.5318 7.42077 79.7444 8.18793 79.7444 9.0514C79.7444 10.1473 79.4222 11.054 78.7779 11.7713C78.1336 12.482 77.1705 12.9304 75.8886 13.1164C76.5263 13.4883 77.051 13.8968 77.4628 14.3418C77.8812 14.7868 78.4425 15.5773 79.1466 16.713L80.93 19.5625H77.403L75.2709 16.3843C74.5137 15.2485 73.9956 14.5344 73.7167 14.2422C73.4377 13.9433 73.1421 13.7407 72.8299 13.6344C72.5178 13.5215 72.0229 13.4651 71.3454 13.4651H70.7476V19.5625H67.7986ZM70.7476 11.1337H72.9296C74.3443 11.1337 75.2277 11.0739 75.5798 10.9544C75.9318 10.8348 76.2074 10.6289 76.4067 10.3366C76.606 10.0444 76.7056 9.67908 76.7056 9.2407C76.7056 8.74919 76.5728 8.35398 76.3071 8.05509C76.048 7.74955 75.6794 7.55693 75.2012 7.47723C74.9621 7.44402 74.2447 7.42741 73.0491 7.42741H70.7476V11.1337Z" fill="#64B3DF"/>
<path d="M89.2759 16.8876C89.2759 18.0143 88.8791 18.9756 88.0857 19.7721C87.292 20.569 86.3333 20.9679 85.2075 20.9679C84.0817 20.9679 83.1249 20.569 82.335 19.7721C81.5488 18.9784 81.1559 18.0169 81.1559 16.8876C81.1559 15.7691 81.5532 14.8143 82.3457 14.0209C83.1363 13.2314 84.0896 12.8364 85.2075 12.8364C86.3333 12.8364 87.292 13.2314 88.0857 14.0209C88.8791 14.8105 89.2759 15.7671 89.2759 16.8876ZM85.2075 13.3897C84.2444 13.3897 83.422 13.7328 82.7386 14.4193C82.0603 15.1025 81.7203 15.9264 81.7203 16.8939C81.7203 17.868 82.0581 18.6984 82.7332 19.3852C83.4131 20.0711 84.2365 20.4142 85.2075 20.4142C86.1781 20.4142 87.0019 20.0711 87.6814 19.3852C88.3613 18.6984 88.7 17.868 88.7 16.8939C88.7 15.9264 88.3613 15.1025 87.6814 14.4193C87 13.7328 86.1737 13.3897 85.2075 13.3897ZM85.1296 14.6462C85.6837 14.6462 86.0899 14.6997 86.3478 14.8066C86.8095 14.999 87.0397 15.3755 87.0397 15.9377C87.0397 16.336 86.8943 16.6306 86.6045 16.8185C86.4509 16.9182 86.2362 16.9891 85.959 17.0333C86.309 17.0888 86.5635 17.2351 86.7253 17.4723C86.8867 17.7069 86.9678 17.9368 86.9678 18.1626V18.488C86.9678 18.5921 86.9706 18.7027 86.9785 18.8204C86.9864 18.9374 87 19.0153 87.0173 19.0528L87.0451 19.108H86.309C86.3046 19.0925 86.3021 19.078 86.2977 19.0638C86.2933 19.0484 86.2914 19.0326 86.2866 19.0128L86.2702 18.8699V18.5167C86.2702 18.0024 86.1296 17.6621 85.8493 17.4965C85.6837 17.4013 85.392 17.3521 84.9748 17.3521H84.3551V19.108H83.5692V14.6462H85.1296ZM86.2759 16.0018C86.2759 15.6787 86.1763 15.459 85.9792 15.3493C85.7808 15.2385 85.463 15.1831 85.0271 15.1831H84.3551V16.7987H85.0656C85.3989 16.7987 85.649 16.7655 85.8152 16.699C86.122 16.5776 86.2759 16.3449 86.2759 16.0018Z" fill="black"/>
</svg>
