<svg width="114" height="28" viewBox="0 0 114 28" fill="none" xmlns="http://www.w3.org/2000/svg">
<path d="M27.0541 17.0432C25.2851 24.1388 18.0983 28.4571 11.0019 26.6878C3.90831 24.9187 -0.410098 17.7316 1.35989 10.6363C3.12809 3.53981 10.3147 -0.778919 17.4093 0.990094C24.5054 2.75927 28.8233 9.94722 27.0541 17.0432Z" fill="url(#paint0_linear)"/>
<path d="M20.0446 11.9524C20.3083 10.19 18.9664 9.24255 17.1315 8.6105L17.7266 6.22304L16.2734 5.86095L15.694 8.18541C15.312 8.09019 14.9196 8.00032 14.5296 7.91141L15.1133 5.57157L13.6608 5.20947L13.0652 7.59612C12.749 7.52406 12.4385 7.45297 12.1373 7.37799L12.139 7.37054L10.1348 6.87015L9.74826 8.42233C9.74826 8.42233 10.8264 8.66945 10.8038 8.68467C11.3924 8.83155 11.4987 9.22117 11.481 9.52982L10.803 12.2496C10.8434 12.2599 10.8961 12.2748 10.9541 12.298C10.9056 12.286 10.8538 12.2727 10.8005 12.2599L9.85012 16.07C9.77806 16.2488 9.59555 16.517 9.18407 16.4153C9.19848 16.4363 8.12775 16.1516 8.12775 16.1516L7.40631 17.8151L9.29742 18.2865C9.64932 18.3746 9.99408 18.4669 10.3335 18.5538L9.73207 20.9687L11.1837 21.3308L11.7793 18.9417C12.1759 19.0494 12.5608 19.1486 12.9375 19.2422L12.344 21.6201L13.7972 21.9822L14.3986 19.5721C16.8768 20.0411 18.7402 19.8519 19.5245 17.6105C20.1565 15.8059 19.4931 14.765 18.1891 14.0861C19.1386 13.8672 19.8539 13.2426 20.0446 11.9524ZM16.7242 16.6085C16.2752 18.4131 13.2366 17.4376 12.2515 17.1929L13.0495 13.9938C14.0346 14.2396 17.1935 14.7264 16.7242 16.6085ZM17.1738 11.9263C16.7641 13.5679 14.2351 12.7339 13.4147 12.5294L14.1382 9.62796C14.9585 9.83232 17.6005 10.214 17.1738 11.9263Z" fill="white"/>
<path d="M37.7586 10.6266C37.9037 10.1291 39.3132 3.85889 39.3132 3.85889L35.1572 4.49109L30.7111 24.2242C30.7111 24.2242 34.0897 26.836 39.448 24.7839C44.8062 22.7318 45.7907 16.4719 44.8787 13.228C43.9667 9.98404 40.2253 9.70421 37.7586 10.6266ZM40.8678 18.0991C39.8832 22.8873 35.0847 21.8301 35.0847 21.8301L36.9191 14.2229C39.593 12.8756 41.7902 13.5907 40.8678 18.0991Z" fill="#4D4D4D"/>
<path d="M45.9254 24.7221H49.8119L53.0662 10.4819H49.1901L45.9254 24.7221Z" fill="#4D4D4D"/>
<path d="M52.0714 8.47138C53.3772 8.35738 54.4447 7.21733 54.4447 5.93219C54.4447 4.64705 53.3876 3.70393 52.0714 3.81793C50.7655 3.93193 49.698 5.07198 49.698 6.35712C49.698 7.64226 50.7551 8.58539 52.0714 8.47138Z" fill="#4D4D4D"/>
<path d="M95.2066 10.4819L91.9523 24.7221H95.8284L99.0827 10.4819H95.2066Z" fill="#4D4D4D"/>
<path d="M98.0877 8.47138C99.3936 8.35738 100.461 7.21733 100.461 5.93219C100.461 4.64705 99.4039 3.70393 98.0877 3.81793C96.7818 3.93193 95.7144 5.07198 95.7144 6.35712C95.7247 7.64226 96.7818 8.58539 98.0877 8.47138Z" fill="#4D4D4D"/>
<path d="M61.0155 6.25342L57.0668 6.75089C57.0668 6.75089 55.025 14.8556 53.9679 19.1567C52.9108 23.4577 55.5847 25.002 58.0513 25.2922C60.518 25.572 62.7048 24.4423 62.7048 24.4423C62.7048 24.4423 62.5597 23.2401 62.425 21.416C60.7978 21.9964 59.7096 21.9964 59.7096 21.9964C56.9528 22.2037 57.9788 19.1567 57.9788 19.1567L59.3883 13.5912H63.7619L64.5392 10.4198H60.1034L61.0155 6.25342Z" fill="#4D4D4D"/>
<path d="M71.877 10.2023C69.0372 10.7516 65.3891 13.0213 64.902 18.1619C64.4149 23.3024 67.3064 25.2509 71.2448 25.282C71.2448 25.282 73.7632 25.3234 74.9136 24.5772C74.8411 24.0176 74.7685 21.6857 74.7685 21.6857C74.7685 21.6857 72.447 22.4526 70.8198 21.9655C68.9647 21.4058 68.1459 18.9392 69.2652 16.3274C70.3949 13.7157 73.4938 13.0835 76.0329 13.8608L77.2974 10.9692C77.2974 10.9796 74.8722 9.61154 71.877 10.2023Z" fill="#4D4D4D"/>
<path d="M85.4022 10.2744C81.7644 10.2744 78.6344 13.3733 77.6913 17.5707C76.7171 21.9029 78.6034 25.0017 82.2308 25.1468C87.3713 25.3541 90.1178 21.9858 90.9262 17.6743C91.745 13.3629 89.8276 10.2744 85.4022 10.2744ZM86.9568 17.5707C86.4282 19.9233 85.3711 21.8407 83.319 21.8407C81.4535 21.8407 81.07 19.9337 81.5986 17.5707C82.1271 15.2181 83.8061 13.4147 85.2882 13.4147C86.7702 13.4147 87.4853 15.2077 86.9568 17.5707Z" fill="#4D4D4D"/>
<path d="M111.063 10.8346C107.54 9.21784 102.254 11.187 102.254 11.187L99.0826 24.9297H103.104L105.716 13.7262C105.716 13.7262 109.737 12.5965 109.094 15.8405C108.462 19.0844 106.907 25.0023 106.907 25.0023H111.136L113.105 16.825C113.105 16.825 114.587 12.4618 111.063 10.8346Z" fill="#4D4D4D"/>
<defs>
<linearGradient id="paint0_linear" x1="14.2053" y1="0.59311" x2="14.2053" y2="1.00768" gradientUnits="userSpaceOnUse">
<stop stop-color="#F9AA4B"/>
<stop offset="1" stop-color="#F7931A"/>
</linearGradient>
</defs>
</svg>
