<svg width="70" height="22" viewBox="0 0 70 22" fill="none" xmlns="http://www.w3.org/2000/svg">
<path d="M28.2467 0.177246L24.7785 21.7596H30.322L33.7881 0.177246H28.2467ZM44.968 8.96871C43.0308 8.01206 41.8432 7.36641 41.8432 6.38797C41.8669 5.49836 42.8474 4.58695 45.0371 4.58695C46.8382 4.54171 48.1619 4.96497 49.1662 5.38609L49.6692 5.61062L50.4229 1.09505C49.3279 0.671792 47.5918 0.20543 45.4474 0.20543C39.973 0.20543 36.1182 3.05168 36.0943 7.12245C36.0491 10.1264 38.8541 11.7934 40.9533 12.7934C43.0978 13.8192 43.8278 14.4843 43.8278 15.3957C43.8041 16.795 42.0938 17.4407 40.4979 17.4407C38.2866 17.4407 37.0988 17.1081 35.2957 16.3284L34.5657 15.9959L33.7905 20.6886C35.0927 21.2675 37.4875 21.7769 39.9732 21.803C45.791 21.803 49.5766 18.9998 49.6242 14.6614C49.6432 12.2815 48.164 10.4587 44.968 8.96871ZM64.6347 0.244038H60.3458C59.0242 0.244038 58.0199 0.624185 57.4477 1.9804L49.2133 21.7596H55.0311L56.6334 17.4774H63.1423L63.9737 21.7769H69.1048L64.6347 0.244038ZM58.2468 13.1558C58.3591 13.1667 60.4799 6.16533 60.4799 6.16533L62.1686 13.1558C62.1686 13.1558 59.3418 13.1558 58.2468 13.1558ZM20.1464 0.177246L14.7151 14.8405L14.1235 11.9488C13.1192 8.61224 9.97076 4.98652 6.45706 3.1855L11.4305 21.7381H17.2959L26.0118 0.179613H20.1464V0.177246Z" fill="#2394BC"/>
<path d="M12.2964 2.96232C11.8731 1.31668 10.5233 0.206791 8.69009 0.183105H0.0885825L0 0.582437C6.70977 2.23661 12.3416 7.32655 14.1687 12.1143L12.2964 2.96232Z" fill="#EFC75E"/>
</svg>
