<svg width="92" height="24" viewBox="0 0 92 24" fill="none" xmlns="http://www.w3.org/2000/svg">
<path d="M16.9727 2.08225C15.8986 0.862065 13.957 0.338944 11.4732 0.338944H4.2643C4.01842 0.338813 3.78056 0.426153 3.59353 0.58524C3.40651 0.744329 3.28259 0.96472 3.24408 1.20676L0.24374 20.1816C0.229828 20.2697 0.235228 20.3596 0.259568 20.4454C0.283908 20.5311 0.326609 20.6106 0.38473 20.6783C0.442851 20.746 0.51501 20.8004 0.596235 20.8376C0.67746 20.8749 0.765821 20.8941 0.855229 20.894H5.30569L6.42344 13.8281L6.38879 14.0494C6.42656 13.8078 6.54965 13.5877 6.73588 13.4285C6.92211 13.2694 7.15923 13.1818 7.40452 13.1816H9.51938C13.674 13.1816 16.9272 11.4997 17.8775 6.63427C17.9057 6.49038 17.9301 6.35033 17.9513 6.21348C18.2336 4.41518 17.9493 3.19116 16.9734 2.08289" fill="#003087"/>
<path d="M71.4561 11.1115C71.184 12.8919 69.8199 12.8919 68.5007 12.8919H67.75L68.2767 9.56769C68.3088 9.36689 68.4821 9.21916 68.6861 9.21916H69.0307C69.929 9.21916 70.7772 9.21916 71.2148 9.72885C71.476 10.0339 71.5549 10.4867 71.4561 11.1115ZM70.8818 6.46607H65.9052C65.7404 6.46616 65.581 6.52479 65.4556 6.63145C65.3303 6.7381 65.2472 6.8858 65.2212 7.04803L63.2103 19.7659C63.2011 19.8249 63.2047 19.8852 63.221 19.9426C63.2373 20 63.2659 20.0532 63.3048 20.0986C63.3437 20.144 63.3919 20.1804 63.4463 20.2055C63.5007 20.2305 63.5598 20.2435 63.6197 20.2437H66.1734C66.4115 20.2437 66.6142 20.071 66.6515 19.8369L67.2225 16.2301C67.2751 15.8956 67.5652 15.6481 67.9052 15.6481H69.4798C72.7586 15.6481 74.6502 14.0679 75.1443 10.9337C75.3669 9.56385 75.1533 8.48692 74.5097 7.73294C73.8019 6.90414 72.5475 6.46544 70.8825 6.46544" fill="#009CDE"/>
<path d="M35.9604 11.1114C35.6883 12.8918 34.3242 12.8918 33.0043 12.8918H32.2536L32.7804 9.56761C32.8125 9.36681 32.9857 9.21908 33.1897 9.21908H33.5343C34.4326 9.21908 35.2809 9.21908 35.7185 9.72877C35.9803 10.0338 36.0592 10.4866 35.9604 11.1114ZM35.3861 6.46599H30.4095C30.0694 6.46599 29.7794 6.71284 29.7261 7.04795L27.7146 19.7659C27.7052 19.8248 27.7088 19.8851 27.725 19.9426C27.7413 20.0001 27.7699 20.0533 27.8088 20.0988C27.8477 20.1442 27.896 20.1806 27.9504 20.2056C28.0048 20.2306 28.064 20.2436 28.1239 20.2436H30.5006C30.8407 20.2436 31.1301 19.9967 31.1833 19.6616L31.7268 16.2307C31.7794 15.8956 32.0694 15.6487 32.4095 15.6487H33.9841C37.2629 15.6487 39.1545 14.0678 39.6486 10.9336C39.8712 9.56377 39.6575 8.48684 39.014 7.73286C38.3062 6.90406 37.0518 6.46535 35.3867 6.46535L35.3861 6.46599ZM46.9402 15.6775C46.7092 17.0345 45.6293 17.9458 44.2504 17.9458C43.5594 17.9458 43.0056 17.7239 42.6502 17.3044C42.2973 16.8887 42.1651 16.2959 42.2767 15.6366C42.491 14.291 43.5895 13.3509 44.9473 13.3509C45.6242 13.3509 46.1728 13.5748 46.536 13.9981C46.9011 14.4247 47.0448 15.0207 46.9402 15.6775ZM50.2614 11.0538H47.8783C47.7792 11.0537 47.6834 11.0889 47.6081 11.1531C47.5328 11.2172 47.483 11.3061 47.4677 11.4036L47.3637 12.0675L47.1969 11.827C46.681 11.0807 45.5305 10.8306 44.382 10.8306C41.7493 10.8306 39.5003 12.8195 39.0627 15.6078C38.8349 17 39.1583 18.3295 39.9501 19.2575C40.6771 20.1099 41.7147 20.4648 42.9511 20.4648C45.0737 20.4648 46.2505 19.1065 46.2505 19.1065L46.1439 19.7665C46.1346 19.8255 46.1382 19.8859 46.1545 19.9434C46.1708 20.0009 46.1994 20.0542 46.2384 20.0996C46.2773 20.1451 46.3257 20.1815 46.3802 20.2065C46.4347 20.2314 46.494 20.2443 46.554 20.2442H48.6996C49.0397 20.2442 49.3297 19.998 49.383 19.6623L50.6714 11.5322C50.6807 11.4731 50.677 11.4127 50.6606 11.3552C50.6442 11.2977 50.6155 11.2444 50.5765 11.199C50.5375 11.1536 50.489 11.1172 50.4345 11.0922C50.38 11.0673 50.3207 11.0544 50.2607 11.0545" fill="#003087"/>
<path d="M82.4361 15.6775C82.2051 17.0345 81.1252 17.9458 79.7463 17.9458C79.0552 17.9458 78.5015 17.7239 78.146 17.3044C77.7931 16.8887 77.6609 16.2959 77.7726 15.6366C77.9869 14.291 79.0848 13.351 80.4431 13.351C81.1201 13.351 81.6687 13.5748 82.0318 13.9981C82.3969 14.4247 82.5407 15.0207 82.4361 15.6775ZM85.7573 11.0538H83.3742C83.2751 11.0537 83.1793 11.0889 83.1039 11.1531C83.0286 11.2172 82.9788 11.3061 82.9635 11.4036L82.8596 12.0675L82.6927 11.827C82.1769 11.0807 81.0264 10.8306 79.8778 10.8306C77.2458 10.8306 74.9968 12.8195 74.5586 15.6078C74.3308 17 74.6548 18.3295 75.4466 19.2575C76.1736 20.1099 77.2112 20.4648 78.4476 20.4648C80.5708 20.4648 81.7476 19.1065 81.7476 19.1065L81.6411 19.7665C81.6315 19.8255 81.6349 19.8858 81.651 19.9433C81.6672 20.0008 81.6957 20.0542 81.7346 20.0996C81.7734 20.145 81.8218 20.1815 81.8762 20.2065C81.9307 20.2315 81.9899 20.2443 82.0498 20.2442H84.1948C84.5349 20.2442 84.8249 19.998 84.8788 19.6623L86.1673 11.5322C86.1765 11.4731 86.1729 11.4128 86.1565 11.3552C86.1401 11.2977 86.1114 11.2444 86.0724 11.199C86.0333 11.1536 85.9849 11.1172 85.9304 11.0922C85.8759 11.0673 85.8166 11.0544 85.7566 11.0545" fill="#009CDE"/>
<path d="M62.9537 11.0546H60.5578C60.3288 11.0546 60.1151 11.1678 59.9868 11.3571L56.6823 16.2071L55.2816 11.5464C55.2388 11.4042 55.1513 11.2795 55.0319 11.1909C54.9125 11.1022 54.7676 11.0542 54.6187 11.0539H52.2646C52.1985 11.054 52.1335 11.0697 52.0748 11.0998C52.0161 11.1299 51.9654 11.1735 51.927 11.2271C51.8886 11.2806 51.8636 11.3425 51.854 11.4076C51.8444 11.4727 51.8505 11.5391 51.8719 11.6014L54.509 19.3177L52.0284 22.8062C51.9846 22.8681 51.9587 22.9409 51.9535 23.0165C51.9483 23.0921 51.964 23.1676 51.999 23.2349C52.0339 23.3022 52.0867 23.3587 52.1517 23.3981C52.2166 23.4375 52.2912 23.4584 52.3672 23.4585H54.7606C54.9864 23.4585 55.1988 23.3479 55.3284 23.1624L63.2938 11.7037C63.3371 11.6417 63.3625 11.5692 63.3673 11.4939C63.372 11.4186 63.356 11.3434 63.321 11.2765C63.286 11.2096 63.2332 11.1535 63.1685 11.1144C63.1037 11.0753 63.0294 11.0546 62.9537 11.0546Z" fill="#003087"/>
<path d="M88.5657 6.81622L86.5227 19.7669C86.5134 19.8259 86.5171 19.8862 86.5334 19.9437C86.5498 20.0012 86.5784 20.0544 86.6174 20.0998C86.6563 20.1452 86.7047 20.1817 86.7591 20.2067C86.8136 20.2317 86.8728 20.2446 86.9327 20.2446H88.9866C89.3267 20.2446 89.6167 19.9978 89.67 19.6627L91.6841 6.94412C91.6935 6.88509 91.6899 6.82474 91.6736 6.76722C91.6573 6.70971 91.6287 6.6564 91.5897 6.61099C91.5507 6.56557 91.5023 6.52913 91.4478 6.50417C91.3933 6.47921 91.3341 6.46632 91.2741 6.46641H88.9757C88.8768 6.46616 88.781 6.50124 88.7058 6.5653C88.6306 6.62935 88.5809 6.71814 88.5657 6.81558" fill="#009CDE"/>
<path d="M16.9727 2.08225C15.8986 0.862065 13.957 0.338944 11.4732 0.338944H4.2643C4.01842 0.338813 3.78056 0.426153 3.59353 0.58524C3.40651 0.744329 3.28259 0.96472 3.24408 1.20676L0.24374 20.1816C0.229828 20.2697 0.235228 20.3596 0.259568 20.4454C0.283908 20.5311 0.326609 20.6106 0.38473 20.6783C0.442851 20.746 0.51501 20.8004 0.596235 20.8376C0.67746 20.8749 0.765821 20.8941 0.855229 20.894H5.30569L6.42344 13.8281L6.38879 14.0494C6.42656 13.8078 6.54965 13.5877 6.73588 13.4285C6.92211 13.2694 7.15923 13.1818 7.40452 13.1816H9.51938C13.674 13.1816 16.9272 11.4997 17.8775 6.63427C17.9057 6.49038 17.9301 6.35033 17.9513 6.21348C18.2336 4.41518 17.9493 3.19116 16.9734 2.08289" fill="#003087"/>
<path d="M7.62385 6.23729C7.65757 6.0258 7.76582 5.83321 7.92916 5.69409C8.0925 5.55497 8.30024 5.47842 8.5151 5.47819H14.1667C14.836 5.47819 15.4603 5.52168 16.0307 5.61249C16.3426 5.66249 16.6511 5.73126 16.9547 5.81841C17.2994 5.915 17.633 6.04747 17.9499 6.21363C18.2335 4.41469 17.9486 3.19131 16.9726 2.0824C15.8979 0.862854 13.9569 0.339735 11.4731 0.339735H4.26355C4.01789 0.339909 3.78034 0.427384 3.59358 0.586445C3.40682 0.745505 3.28309 0.965729 3.24461 1.20755L0.242987 20.1805C0.228981 20.2685 0.234288 20.3585 0.258544 20.4443C0.2828 20.5301 0.325428 20.6096 0.383489 20.6774C0.441551 20.7451 0.513666 20.7996 0.594865 20.8369C0.676064 20.8742 0.764417 20.8935 0.853835 20.8936H5.30494L6.42269 13.827L7.62385 6.23729Z" fill="#003087"/>
<path d="M17.9506 6.21286C17.9286 6.35356 17.904 6.49385 17.8768 6.63366C16.9265 11.4984 13.6734 13.1809 9.51871 13.1809H7.4032C7.15795 13.1811 6.92084 13.2687 6.73469 13.4278C6.54854 13.587 6.42562 13.8072 6.38811 14.0488L5.30501 20.8928L4.99702 22.8343C4.98477 22.9114 4.98944 22.9902 5.01071 23.0653C5.03197 23.1404 5.06933 23.2101 5.1202 23.2694C5.17106 23.3287 5.23423 23.3763 5.30535 23.409C5.37647 23.4416 5.45385 23.4585 5.53215 23.4585H9.28387C9.72789 23.4585 10.1052 23.1362 10.1751 22.6994L10.2117 22.5088L10.9188 18.0425L10.9637 17.7956C10.9973 17.584 11.1056 17.3912 11.2691 17.2521C11.4326 17.1129 11.6406 17.0365 11.8556 17.0365H12.417C16.0513 17.0365 18.897 15.5657 19.7286 11.3091C20.0751 9.53127 19.8954 8.0457 18.9779 7.00266C18.6865 6.67928 18.3384 6.41163 17.9506 6.21286Z" fill="#009CDE"/>
<path d="M16.9553 5.81884C16.8103 5.77599 16.6608 5.73762 16.5068 5.70372C16.3528 5.66983 16.1937 5.63977 16.0307 5.61419C15.4597 5.52146 14.836 5.47798 14.1661 5.47798H8.51512C8.30002 5.47771 8.09193 5.55417 7.92847 5.69351C7.76501 5.83285 7.65696 6.02589 7.62387 6.23771L6.42271 13.8287L6.38806 14.0493C6.42557 13.8078 6.54849 13.5875 6.73464 13.4284C6.92079 13.2692 7.1579 13.1817 7.40315 13.1815H9.51865C13.6733 13.1815 16.9265 11.4996 17.8767 6.63421C17.905 6.49032 17.9287 6.35091 17.9505 6.21341C17.6996 6.08254 17.4382 5.97259 17.169 5.8847C17.0991 5.86168 17.0278 5.83994 16.9553 5.8182" fill="#012169"/>
</svg>
