<svg width="48" height="40" viewBox="0 0 48 40" fill="none" xmlns="http://www.w3.org/2000/svg">
<path d="M11.7393 34.4492V32.5117C11.7506 32.3487 11.727 32.1852 11.6702 32.0321C11.6133 31.879 11.5245 31.7397 11.4096 31.6236C11.2947 31.5075 11.1564 31.4172 11.0039 31.3588C10.8514 31.3003 10.6882 31.275 10.5251 31.2846C10.3117 31.2706 10.0984 31.3141 9.90753 31.4107C9.71668 31.5073 9.55524 31.6533 9.44008 31.8335C9.33511 31.6587 9.18491 31.5154 9.00532 31.4188C8.82573 31.3222 8.6234 31.2758 8.41966 31.2846C8.24206 31.2756 8.0652 31.3132 7.9066 31.3936C7.748 31.4741 7.61317 31.5945 7.51548 31.7431V31.3621H6.84381V34.4492H7.52194V32.7506C7.50752 32.6451 7.51659 32.5376 7.54852 32.436C7.58045 32.3343 7.63444 32.241 7.70663 32.1626C7.77882 32.0842 7.86743 32.0228 7.96613 31.9827C8.06483 31.9425 8.17118 31.9247 8.27757 31.9304C8.7232 31.9304 8.94925 32.221 8.94925 32.7442V34.4621H9.62738V32.7506C9.61354 32.6452 9.62303 32.538 9.65518 32.4366C9.68732 32.3352 9.74134 32.2421 9.81341 32.1638C9.88548 32.0856 9.97384 32.0242 10.0723 31.9838C10.1707 31.9435 10.2768 31.9253 10.383 31.9304C10.8416 31.9304 11.0611 32.221 11.0611 32.7442V34.4621L11.7393 34.4492ZM21.7724 31.3621H20.668V30.4256H19.9899V31.3621H19.3763V31.9756H20.0028V33.3965C20.0028 34.1134 20.2805 34.5396 21.0749 34.5396C21.3717 34.5406 21.6627 34.4578 21.9145 34.3007L21.7207 33.7259C21.5406 33.8333 21.3362 33.8933 21.1265 33.9002C20.8036 33.9002 20.6809 33.6936 20.6809 33.3836V31.9756H21.7788L21.7724 31.3621ZM27.501 31.2846C27.3372 31.2798 27.1752 31.3192 27.032 31.3988C26.8887 31.4783 26.7696 31.5951 26.6872 31.7367V31.3621H26.022V34.4492H26.6937V32.7183C26.6937 32.2081 26.9133 31.924 27.3395 31.924C27.4832 31.922 27.6258 31.9483 27.7593 32.0015L27.966 31.3556C27.8126 31.3007 27.651 31.2724 27.4881 31.2717L27.501 31.2846ZM18.8403 31.6075C18.4601 31.3814 18.0229 31.2694 17.5809 31.2846C16.7994 31.2846 16.2892 31.6592 16.2892 32.2727C16.2892 32.7765 16.6638 33.0865 17.3548 33.1833L17.6778 33.2286C18.0459 33.2802 18.2203 33.3771 18.2203 33.5515C18.2203 33.7904 17.9749 33.9261 17.5163 33.9261C17.1475 33.9367 16.7858 33.823 16.4894 33.6031L16.1665 34.1263C16.5578 34.3995 17.0264 34.5398 17.5034 34.5267C18.3946 34.5267 18.9113 34.1069 18.9113 33.5192C18.9113 32.9315 18.5044 32.6925 17.8328 32.5956L17.5098 32.5504C17.2192 32.5117 16.9867 32.4536 16.9867 32.2469C16.9867 32.0402 17.2063 31.8852 17.5744 31.8852C17.9147 31.8892 18.2482 31.9803 18.5432 32.15L18.8403 31.6075ZM36.8301 31.2846C36.6664 31.2798 36.5043 31.3192 36.3611 31.3988C36.2179 31.4783 36.0988 31.5951 36.0164 31.7367V31.3621H35.3512V34.4492H36.0228V32.7183C36.0228 32.2081 36.2424 31.924 36.6687 31.924C36.8123 31.922 36.955 31.9483 37.0885 32.0015L37.2951 31.3556C37.1417 31.3007 36.9801 31.2724 36.8172 31.2717L36.8301 31.2846ZM28.1759 32.8992C28.1679 33.1161 28.2053 33.3323 28.2856 33.534C28.366 33.7357 28.4876 33.9183 28.6426 34.0703C28.7976 34.2223 28.9827 34.3402 29.1859 34.4166C29.3891 34.493 29.606 34.5261 29.8228 34.5138C30.2261 34.5343 30.6224 34.403 30.9336 34.1456L30.6107 33.6031C30.3785 33.7802 30.0954 33.8776 29.8034 33.8809C29.5551 33.8608 29.3235 33.748 29.1546 33.5649C28.9857 33.3818 28.892 33.1418 28.892 32.8927C28.892 32.6436 28.9857 32.4037 29.1546 32.2206C29.3235 32.0375 29.5551 31.9247 29.8034 31.9046C30.0954 31.9078 30.3785 32.0052 30.6107 32.1823L30.9336 31.6398C30.6224 31.3825 30.2261 31.2511 29.8228 31.2717C29.606 31.2594 29.3891 31.2925 29.1859 31.3688C28.9827 31.4452 28.7976 31.5631 28.6426 31.7151C28.4876 31.8671 28.366 32.0498 28.2856 32.2514C28.2053 32.4531 28.1679 32.6693 28.1759 32.8863V32.8992ZM34.4664 32.8992V31.3621H33.7947V31.7367C33.6806 31.5899 33.5333 31.4724 33.3648 31.3938C33.1964 31.3151 33.0117 31.2777 32.8259 31.2846C32.3977 31.2846 31.987 31.4547 31.6842 31.7575C31.3814 32.0603 31.2113 32.471 31.2113 32.8992C31.2113 33.3274 31.3814 33.7381 31.6842 34.0409C31.987 34.3437 32.3977 34.5138 32.8259 34.5138C33.0117 34.5206 33.1964 34.4832 33.3648 34.4046C33.5333 34.326 33.6806 34.2085 33.7947 34.0617V34.4363H34.4664V32.8992ZM31.967 32.8992C31.9777 32.7175 32.0413 32.5428 32.15 32.3968C32.2587 32.2508 32.4077 32.1398 32.5787 32.0774C32.7497 32.015 32.9352 32.004 33.1124 32.0457C33.2896 32.0874 33.4507 32.18 33.5759 32.3121C33.7012 32.4443 33.785 32.6101 33.8171 32.7893C33.8493 32.9685 33.8283 33.1531 33.7569 33.3205C33.6854 33.4879 33.5665 33.6308 33.4149 33.7315C33.2632 33.8322 33.0855 33.8864 32.9034 33.8873C32.7756 33.8889 32.6488 33.8641 32.531 33.8143C32.4132 33.7645 32.307 33.6909 32.219 33.5981C32.1311 33.5053 32.0633 33.3953 32.0199 33.275C31.9765 33.1547 31.9585 33.0268 31.967 32.8992ZM23.8617 31.2846C23.4335 31.2906 23.0252 31.4664 22.7266 31.7735C22.428 32.0805 22.2637 32.4936 22.2697 32.9218C22.2757 33.35 22.4515 33.7583 22.7586 34.0569C23.0656 34.3554 23.4787 34.5198 23.9069 34.5138C24.3715 34.5376 24.8284 34.388 25.1889 34.094L24.866 33.5967C24.611 33.8012 24.2951 33.9148 23.9682 33.9196C23.7462 33.9387 23.5255 33.8704 23.353 33.7293C23.1806 33.5882 23.0699 33.3854 23.0447 33.164H25.3374C25.3374 33.08 25.3374 32.9961 25.3374 32.9056C25.3374 31.9369 24.7368 31.291 23.8714 31.291L23.8617 31.2846ZM23.8617 31.8852C23.9622 31.8831 24.0621 31.9007 24.1558 31.9372C24.2495 31.9737 24.335 32.0283 24.4076 32.0979C24.4802 32.1675 24.5383 32.2507 24.5788 32.3427C24.6192 32.4348 24.641 32.5339 24.6431 32.6344H23.0285C23.0402 32.4271 23.1326 32.2326 23.2859 32.0926C23.4392 31.9526 23.6413 31.8781 23.8488 31.8852H23.8617ZM40.689 32.9056V30.1221H40.0432V31.7367C39.9291 31.5899 39.7818 31.4724 39.6133 31.3938C39.4449 31.3151 39.2602 31.2777 39.0744 31.2846C38.6462 31.2846 38.2355 31.4547 37.9327 31.7575C37.6299 32.0603 37.4598 32.471 37.4598 32.8992C37.4598 33.3274 37.6299 33.7381 37.9327 34.0409C38.2355 34.3437 38.6462 34.5138 39.0744 34.5138C39.2602 34.5206 39.4449 34.4832 39.6133 34.4046C39.7818 34.326 39.9291 34.2085 40.0432 34.0617V34.4363H40.689V32.9056ZM41.8095 34.0003C41.8515 33.9998 41.8932 34.0075 41.9323 34.0229C41.9693 34.0381 42.0033 34.06 42.0324 34.0875C42.0607 34.1154 42.0837 34.1482 42.1002 34.1844C42.1165 34.2221 42.125 34.2628 42.125 34.3039C42.125 34.345 42.1165 34.3856 42.1002 34.4234C42.0837 34.4596 42.0607 34.4924 42.0324 34.5202C42.0033 34.5478 41.9693 34.5697 41.9323 34.5848C41.8936 34.6019 41.8518 34.6107 41.8095 34.6107C41.7483 34.6102 41.6885 34.5923 41.6371 34.5592C41.5856 34.526 41.5446 34.4789 41.5189 34.4234C41.5028 34.3856 41.4944 34.345 41.4944 34.3039C41.4944 34.2628 41.5028 34.2222 41.5189 34.1844C41.5354 34.1482 41.5584 34.1154 41.5867 34.0875C41.6158 34.06 41.6497 34.0381 41.6868 34.0229C41.7289 34.0062 41.774 33.9985 41.8192 34.0003H41.8095ZM41.8095 34.5461C41.8418 34.5463 41.8737 34.5397 41.9032 34.5267C41.931 34.5143 41.9562 34.4968 41.9775 34.475C42.0179 34.431 42.0403 34.3733 42.0403 34.3136C42.0403 34.2538 42.0179 34.1962 41.9775 34.1521C41.9562 34.1303 41.931 34.1128 41.9032 34.1004C41.8737 34.0876 41.8418 34.081 41.8095 34.0811C41.7774 34.0812 41.7455 34.0878 41.7159 34.1004C41.6869 34.1123 41.6605 34.1299 41.6384 34.1521C41.598 34.1962 41.5756 34.2538 41.5756 34.3136C41.5756 34.3733 41.598 34.431 41.6384 34.475C41.6606 34.4972 41.6869 34.5147 41.7159 34.5267C41.7485 34.5407 41.7838 34.5474 41.8192 34.5461H41.8095ZM41.8289 34.1618C41.8591 34.1603 41.8888 34.1695 41.9129 34.1876C41.9228 34.1958 41.9306 34.2062 41.9356 34.218C41.9407 34.2298 41.9428 34.2426 41.9419 34.2554C41.9424 34.2662 41.9406 34.2769 41.9367 34.2869C41.9329 34.2969 41.9269 34.306 41.9193 34.3136C41.9006 34.3306 41.8767 34.3408 41.8515 34.3426L41.9452 34.4492H41.8709L41.7837 34.3426H41.7547V34.4492H41.6933V34.165L41.8289 34.1618ZM41.7579 34.2167V34.2942H41.8289C41.8416 34.298 41.855 34.298 41.8677 34.2942C41.8699 34.2897 41.8711 34.2847 41.8711 34.2797C41.8711 34.2746 41.8699 34.2696 41.8677 34.2651C41.8699 34.2606 41.8711 34.2556 41.8711 34.2506C41.8711 34.2455 41.8699 34.2406 41.8677 34.2361C41.855 34.2323 41.8416 34.2323 41.8289 34.2361L41.7579 34.2167ZM38.2058 32.9056C38.2165 32.7239 38.2801 32.5493 38.3888 32.4033C38.4975 32.2573 38.6465 32.1462 38.8175 32.0838C38.9885 32.0214 39.174 32.0104 39.3512 32.0521C39.5284 32.0939 39.6895 32.1865 39.8148 32.3186C39.94 32.4507 40.0238 32.6166 40.056 32.7957C40.0881 32.9749 40.0671 33.1596 39.9957 33.327C39.9242 33.4944 39.8053 33.6373 39.6537 33.738C39.502 33.8387 39.3243 33.8928 39.1422 33.8938C39.0144 33.8954 38.8876 33.8705 38.7698 33.8208C38.652 33.771 38.5458 33.6974 38.4578 33.6046C38.3699 33.5118 38.3021 33.4018 38.2587 33.2815C38.2153 33.1612 38.1973 33.0332 38.2058 32.9056ZM15.5271 32.9056V31.3621H14.8554V31.7367C14.7414 31.5899 14.594 31.4724 14.4256 31.3938C14.2572 31.3151 14.0724 31.2777 13.8867 31.2846C13.4585 31.2846 13.0478 31.4547 12.745 31.7575C12.4422 32.0603 12.2721 32.471 12.2721 32.8992C12.2721 33.3274 12.4422 33.7381 12.745 34.0409C13.0478 34.3437 13.4585 34.5138 13.8867 34.5138C14.0724 34.5206 14.2572 34.4832 14.4256 34.4046C14.594 34.326 14.7414 34.2085 14.8554 34.0617V34.4363H15.5271V32.9056ZM13.0277 32.9056C13.0384 32.7239 13.1021 32.5493 13.2107 32.4033C13.3194 32.2573 13.4685 32.1462 13.6395 32.0838C13.8105 32.0214 13.996 32.0104 14.1732 32.0521C14.3504 32.0939 14.5115 32.1865 14.6367 32.3186C14.7619 32.4507 14.8458 32.6166 14.8779 32.7957C14.9101 32.9749 14.8891 33.1596 14.8176 33.327C14.7461 33.4944 14.6273 33.6373 14.4756 33.738C14.324 33.8387 14.1462 33.8928 13.9642 33.8938C13.8358 33.8963 13.7083 33.8721 13.5897 33.8227C13.4712 33.7734 13.3642 33.6999 13.2755 33.607C13.1868 33.5141 13.1185 33.4038 13.0747 33.283C13.0309 33.1623 13.0127 33.0338 13.0213 32.9056H13.0277Z" fill="#231F20"/>
<path d="M28.7894 7.83691H18.6174V26.1174H28.7894V7.83691Z" fill="#FF5F00"/>
<path d="M19.2633 16.9798C19.2614 15.219 19.6602 13.4808 20.4295 11.897C21.1988 10.3131 22.3183 8.92504 23.7034 7.8379C21.9885 6.4901 19.9289 5.65199 17.7601 5.41935C15.5913 5.1867 13.4008 5.56891 11.439 6.5223C9.47716 7.47569 7.82313 8.96178 6.66594 10.8107C5.50874 12.6597 4.89508 14.7969 4.89508 16.9781C4.89508 19.1594 5.50874 21.2966 6.66594 23.1455C7.82313 24.9945 9.47716 26.4806 11.439 27.434C13.4008 28.3874 15.5913 28.7696 17.7601 28.5369C19.9289 28.3043 21.9885 27.4662 23.7034 26.1184C22.3188 25.0316 21.1994 23.644 20.4302 22.0608C19.6609 20.4775 19.2619 18.74 19.2633 16.9798Z" fill="#EB001B"/>
<path d="M42.5135 16.9787C42.5134 19.16 41.8996 21.2974 40.7422 23.1464C39.5848 24.9954 37.9306 26.4815 35.9685 27.4348C34.0064 28.388 31.8157 28.77 29.6468 28.537C27.4779 28.304 25.4183 27.4655 23.7034 26.1173C25.0876 25.0295 26.2066 23.6416 26.976 22.0582C27.7455 20.4749 28.1453 18.7375 28.1453 16.977C28.1453 15.2166 27.7455 13.4792 26.976 11.8958C26.2066 10.3125 25.0876 8.92458 23.7034 7.8368C25.4183 6.48859 27.4779 5.65006 29.6468 5.41709C31.8157 5.18411 34.0064 5.56607 35.9685 6.51932C37.9306 7.47257 39.5848 8.95864 40.7422 10.8077C41.8996 12.6567 42.5134 14.794 42.5135 16.9754V16.9787Z" fill="#F79E1B"/>
<path d="M41.4027 24.1801V23.8055H41.5544V23.728H41.1702V23.8055H41.3349V24.1801H41.4027ZM42.1486 24.1801V23.728H42.0324L41.8967 24.0509L41.7611 23.728H41.6578V24.1801H41.7417V23.8411L41.8677 24.1349H41.9549L42.0808 23.8411V24.1833L42.1486 24.1801Z" fill="#F79E1B"/>
</svg>
