<svg width="172" height="52" viewBox="0 0 172 52" fill="none" xmlns="http://www.w3.org/2000/svg">
<path d="M143.256 9.36523C145.958 9.36523 148.529 9.98464 150.835 11.0926C151.197 11.256 151.561 11.4514 151.922 11.6471L150.34 13.049L147.969 10.6042L143.883 14.1895L141.476 11.6141L133.963 18.2966L138.773 23.5447L136.895 25.1741L141.641 30.4222L139.763 32.051L146.552 39.5157L150.57 35.8648L154.065 39.7774C153.373 40.299 152.615 40.8216 151.792 41.2772C149.287 42.6786 146.386 43.492 143.289 43.492C133.764 43.492 126.021 35.8334 126.021 26.414C125.987 17.0581 133.732 9.36523 143.256 9.36523ZM140.091 25.3701L144.211 21.7191L147.903 25.7935L143.782 29.4442L140.091 25.3701ZM143.025 32.4111L147.111 28.7278L150.835 32.8019L146.716 36.453L143.025 32.4111ZM137.16 18.4274L141.279 14.7765L144.969 18.8509L140.85 22.5017L137.16 18.4274ZM144.705 16.471L147.77 13.7331L150.539 16.7647L147.474 19.5349L144.705 16.471ZM150.176 29.0206L153.24 26.2825L156.009 29.3457L152.944 32.0855L150.176 29.0206ZM152.878 35.1819L155.944 32.4433L158.71 35.4747L155.646 38.2446L152.878 35.1819ZM154.131 21.0997L156.174 19.2741L158.019 21.2959L155.976 23.1208L154.131 21.0997ZM151.494 15.0694L153.537 13.2119L155.384 15.265L153.339 17.0905L151.494 15.0694ZM156.734 27.1305L158.777 25.3051L160.655 27.3262L158.58 29.1511L156.734 27.1305ZM147.54 22.5995L150.605 19.8614L153.373 22.8923L150.309 25.6309L147.54 22.5995Z" fill="#036CB5"/>
<mask id="mask0" mask-type="alpha" maskUnits="userSpaceOnUse" x="11" y="16" width="19" height="17">
<path d="M11.8744 16.4556V32.2112H29.8866V16.4556H11.8744Z" fill="white"/>
</mask>
<g mask="url(#mask0)">
<path d="M20.9138 21.121H20.7584L17.8401 32.2112H15.4549L11.8744 16.4556H14.3492L16.8246 28.2119H16.9792L19.8518 16.4556H21.8193L24.8914 28.2119H25.0461L27.3006 16.4556H29.8866L26.3052 32.2112H23.9181L20.9138 21.121Z" fill="#036CB5"/>
</g>
<path d="M33.0264 25.5035H38.0864C37.9767 23.1709 36.8489 22.2383 35.656 22.2383C34.3079 22.2383 33.2685 23.2825 33.0264 25.5035ZM39.8542 29.6825V31.3716C38.8599 31.9493 37.5346 32.394 35.9425 32.394C32.2306 32.394 30.7058 30.0829 30.7058 26.5722C30.7058 23.193 32.4071 20.7485 35.7223 20.7485C38.484 20.7485 40.1868 22.5497 40.1868 26.1711V26.9934H32.9821C32.9821 29.6593 34.0644 30.8374 36.3416 30.8374C37.5346 30.8374 38.6396 30.4144 39.8542 29.6825Z" fill="#036CB5"/>
<path d="M45.3271 30.6121C46.0345 30.9232 46.8086 30.9692 47.362 30.9692C48.997 30.9692 50.2333 29.9455 50.2333 26.3464C50.2333 23.5242 49.2168 22.613 47.7368 22.613C46.8521 22.613 46.2114 22.8583 45.3271 23.3462V30.6121ZM45.3504 21.7022C46.0117 21.3478 47.1387 20.8795 48.3326 20.8795C51.0733 20.8795 52.5542 22.7906 52.5542 26.3464C52.5542 30.5023 50.5648 32.5245 47.362 32.5245C46.1898 32.5245 44.3777 32.1466 43.0509 31.4339V15.9244L45.3504 15.3696V21.7022Z" fill="#036CB5"/>
<path d="M62.5011 28.8681H62.6118L67.3403 16.4458H70.0822V32.2026H67.6954V20.7795H67.4961L62.987 32.2026H61.5739L57.0638 21.0465H56.8657V32.2026H54.8765V16.4458H57.5514L62.5011 28.8681Z" fill="#036CB5"/>
<path d="M79.8336 26.5715C79.8336 23.5718 78.619 22.3057 77.1163 22.3057C75.6582 22.3057 74.3974 23.5718 74.3974 26.5715C74.3974 29.6163 75.548 30.8374 77.1163 30.8374C78.6846 30.8374 79.8336 29.6163 79.8336 26.5715ZM72.0778 26.5715C72.0778 22.6812 74.1999 20.7485 77.1163 20.7485C80.0344 20.7485 82.1554 22.6812 82.1554 26.5715C82.1554 30.3708 80.1444 32.394 77.1163 32.394C74.0887 32.394 72.0778 30.3708 72.0778 26.5715Z" fill="#036CB5"/>
<path d="M83.9033 22.3942C84.8977 21.7933 86.9981 20.7485 89.539 20.7485C92.1908 20.7485 93.1835 21.7933 93.1835 24.0815V32.1271H90.8867V24.5933C90.8867 22.8381 90.0263 22.5271 88.8978 22.5271C88.0148 22.5271 86.8863 22.9277 86.2018 23.3276V32.1271H83.9033V22.3942Z" fill="#036CB5"/>
<path d="M98.0484 25.5035H103.109C103 23.1709 101.872 22.2383 100.678 22.2383C99.3298 22.2383 98.2924 23.2825 98.0484 25.5035ZM104.876 29.6825V31.3716C103.882 31.9493 102.556 32.394 100.965 32.394C97.2542 32.394 95.7284 30.0829 95.7284 26.5722C95.7284 23.193 97.4291 20.7485 100.745 20.7485C103.508 20.7485 105.21 22.5497 105.21 26.1711V26.9934H98.0049C98.0049 29.6593 99.0879 30.8374 101.364 30.8374C102.556 30.8374 103.663 30.4144 104.876 29.6825Z" fill="#036CB5"/>
<path d="M114.39 20.7485H116.755L112.755 31.8582C111.648 34.9252 110.302 36.5253 107.761 36.5253V34.7043C109.264 34.7043 110.191 33.5037 110.723 31.8582L106.479 20.7485H108.911L111.739 28.9261H111.872L114.39 20.7485Z" fill="#036CB5"/>
<path d="M35.7453 42.4521V41.4925C36.5648 41.9089 37.3447 42.1179 38.0836 42.1179C38.699 42.1179 39.1705 42.005 39.4999 41.777C39.8294 41.5506 39.9944 41.2445 39.9944 40.8574C39.9944 40.4705 39.8589 40.1803 39.5878 39.9872C39.3174 39.7944 38.812 39.5556 38.0728 39.2728C37.8162 39.1764 37.6523 39.1136 37.5783 39.0836C37.5055 39.0545 37.3628 38.9943 37.1501 38.9054C36.9381 38.8167 36.7991 38.7492 36.7335 38.7049C36.6673 38.659 36.5561 38.5918 36.3984 38.5038C36.2412 38.4136 36.1351 38.3342 36.0799 38.2648C36.0256 38.1934 35.9501 38.1032 35.8548 37.9956C35.7599 37.8883 35.6956 37.7817 35.6625 37.673C35.6299 37.5654 35.5983 37.4408 35.5694 37.2992C35.5404 37.1573 35.5255 37.0054 35.5255 36.8417C35.5255 36.2094 35.7582 35.7014 36.2226 35.3142C36.6879 34.9283 37.3297 34.7349 38.1498 34.7349C38.8741 34.7349 39.5957 34.8684 40.3124 35.1363V36.1505C39.6172 35.808 38.9218 35.6384 38.2264 35.6384C37.736 35.6384 37.37 35.7408 37.1285 35.9488C36.887 36.1568 36.766 36.432 36.766 36.7745C36.766 37.1391 36.887 37.4154 37.1285 37.6055C37.37 37.7962 37.8022 38.0062 38.4245 38.2361C39.4927 38.6302 40.2285 38.987 40.6308 39.3072C41.0337 39.6258 41.2348 40.1031 41.2348 40.7342C41.2348 41.3966 40.9586 41.938 40.4059 42.358C39.8532 42.7781 39.0941 42.9883 38.1276 42.9883C37.2423 42.9883 36.4479 42.8089 35.7453 42.4521ZM46.9166 42.8194H45.8738L45.7967 42.1725C45.1668 42.6936 44.5376 42.9543 43.9082 42.9543C43.3814 42.9543 42.9732 42.8114 42.6843 42.5244C42.3947 42.2382 42.2503 41.8767 42.2503 41.4369C42.2503 41.206 42.2923 40.9855 42.3766 40.7735C42.4609 40.5612 42.6 40.3556 42.7938 40.1549C42.9877 39.9538 43.2804 39.7925 43.6719 39.6693C44.0634 39.546 44.534 39.485 45.0831 39.485H45.764V39.184C45.764 38.6859 45.6725 38.3468 45.4894 38.1636C45.306 37.9814 44.9987 37.8903 44.5671 37.8903C44.0401 37.8903 43.3921 38.1086 42.6239 38.5485V37.6564C43.4144 37.2922 44.1899 37.1086 44.9511 37.1086C45.6901 37.1086 46.203 37.2619 46.488 37.5674C46.7739 37.8715 46.9166 38.3332 46.9166 38.9489V42.8194ZM45.775 40.2654H45.1926C43.9921 40.2654 43.3921 40.6264 43.3921 41.3479C43.3921 41.6015 43.4723 41.7836 43.6335 41.8996C43.7949 42.0152 43.9962 42.0722 44.238 42.0722C44.5447 42.0722 44.8415 41.9977 45.1269 41.8486C45.4124 41.7009 45.6286 41.5299 45.775 41.3365V40.2654ZM48.7006 45.0508V37.9245C49.0229 37.6784 49.4029 37.4806 49.8425 37.3322C50.282 37.1846 50.7131 37.1086 51.1382 37.1086C52.6601 37.1086 53.4218 38.0423 53.4218 39.9093C53.4218 40.8758 53.2242 41.6157 52.8287 42.1279C52.4336 42.6415 51.8668 42.8969 51.1269 42.8969C50.6144 42.8969 50.1862 42.7668 49.8425 42.5082V45.0508H48.7006ZM49.8315 38.3024V41.6831C49.9779 41.8237 50.1625 41.9285 50.3858 41.9996C50.6093 42.0702 50.8052 42.1054 50.9733 42.1054C51.3757 42.1054 51.6926 41.9483 51.9233 41.6323C52.1538 41.3157 52.2686 40.7415 52.2686 39.9093C52.2686 39.2327 52.1503 38.7368 51.9123 38.4263C51.6744 38.1129 51.3648 37.9575 50.9842 37.9575C50.5529 37.9575 50.1687 38.0721 49.8315 38.3024ZM56.0404 37.166V42.8194H54.8986V37.4442L56.0404 37.166ZM54.7228 35.5255C54.7228 35.3248 54.7978 35.1488 54.9476 34.9955C55.0981 34.8432 55.272 34.7667 55.4689 34.7667C55.6671 34.7667 55.8408 34.8432 55.9912 34.9955C56.1413 35.1488 56.2162 35.3248 56.2162 35.5255C56.2162 35.7263 56.1413 35.9034 55.9912 36.0564C55.8408 36.2074 55.6671 36.2839 55.4689 36.2839C55.272 36.2839 55.0981 36.2074 54.9476 36.0564C54.7978 35.9034 54.7228 35.7263 54.7228 35.5255ZM60.3168 42.1725C60.8442 42.1725 61.4254 41.9791 62.0624 41.5933V42.4408C61.4771 42.7833 60.8292 42.9543 60.1192 42.9543C59.2262 42.9543 58.5696 42.6975 58.1486 42.1842C57.7276 41.6708 57.5172 40.9537 57.5172 40.0317C57.5172 39.1538 57.7333 38.4468 58.1646 37.9132C58.5969 37.3778 59.2113 37.1086 60.009 37.1086C60.7123 37.1086 61.2569 37.3398 61.6458 37.8013C62.0335 38.263 62.2269 38.9386 62.2269 39.8306V40.2439H58.6481C58.6481 40.906 58.7836 41.3935 59.0541 41.7039C59.325 42.0175 59.7459 42.1725 60.3168 42.1725ZM59.9761 37.8571C59.6326 37.8571 59.3431 37.9949 59.1089 38.2689C58.875 38.5444 58.7283 38.9542 58.6698 39.4954H61.184C61.1545 38.9458 61.0268 38.5361 60.7997 38.2648C60.5732 37.9927 60.2986 37.8571 59.9761 37.8571ZM63.6816 42.8194V37.935C64.5818 37.3843 65.5152 37.1086 66.4817 37.1086C67.1332 37.1086 67.5975 37.2435 67.8757 37.5114C68.1539 37.7793 68.293 38.2027 68.293 38.7822V42.8194H67.1514V39.0389C67.1514 38.6302 67.067 38.3547 66.8988 38.2142C66.7304 38.0721 66.4854 38.002 66.163 38.002C65.7241 38.002 65.2774 38.1364 64.8239 38.4038V42.8194H63.6816ZM71.164 37.3778H72.8988L72.6242 38.1364H71.164V41.08C71.164 41.8237 71.4789 42.1954 72.1082 42.1954C72.3497 42.1954 72.5948 42.1438 72.8445 42.0394V42.7525C72.5002 42.8867 72.0901 42.9543 71.6144 42.9543C71.0653 42.9543 70.6628 42.7959 70.4064 42.4789C70.1504 42.1643 70.0222 41.7493 70.0222 41.235V36.641L71.164 35.8036V37.3778ZM75.1338 37.166V42.8194H73.9916V37.4442L75.1338 37.166ZM73.8162 35.5255C73.8162 35.3248 73.8913 35.1488 74.0405 34.9955C74.1905 34.8432 74.3643 34.7667 74.5624 34.7667C74.7598 34.7667 74.9341 34.8432 75.0836 34.9955C75.234 35.1488 75.309 35.3248 75.309 35.5255C75.309 35.7263 75.234 35.9034 75.0836 36.0564C74.9341 36.2074 74.7598 36.2839 74.5624 36.2839C74.3643 36.2839 74.1905 36.2074 74.0405 36.0564C73.8913 35.9034 73.8162 35.7263 73.8162 35.5255ZM82.9068 37.5557V38.4468C82.3576 38.0754 81.8012 37.8903 81.2382 37.8903C80.9527 37.8903 80.7185 37.946 80.535 38.0579C80.3523 38.1685 80.2607 38.3478 80.2607 38.5918C80.2607 38.8237 80.3611 39.0071 80.5624 39.1445C80.7638 39.2825 81.0804 39.4219 81.5127 39.5622C81.7542 39.6441 81.9351 39.7078 82.0556 39.7521C82.1768 39.7978 82.3355 39.8723 82.5335 39.9757C82.7309 40.0803 82.8794 40.1833 82.9781 40.2883C83.0769 40.3927 83.1665 40.5294 83.2472 40.701C83.3278 40.872 83.3675 41.061 83.3675 41.2693C83.3675 41.7828 83.1645 42.1915 82.7589 42.4965C82.3525 42.8013 81.8086 42.9543 81.1284 42.9543C80.3668 42.9543 79.7333 42.7906 79.2286 42.4625V41.5933C79.8725 41.9791 80.4619 42.1725 80.9967 42.1725C81.8012 42.1725 82.2041 41.9057 82.2041 41.3697C82.2041 41.2661 82.1802 41.1686 82.1327 41.08C82.0851 40.9908 82.0303 40.9183 81.9682 40.8623C81.9057 40.8066 81.8049 40.7437 81.6658 40.6719C81.5266 40.6027 81.4098 40.5509 81.3145 40.5169C81.2196 40.4837 81.0695 40.4297 80.8648 40.3556C80.5644 40.2439 80.3266 40.1476 80.1507 40.0654C79.9748 39.9829 79.7997 39.8773 79.6239 39.7477C79.4479 39.6176 79.3196 39.4622 79.2397 39.2843C79.1593 39.1065 79.119 38.8939 79.119 38.6488C79.119 38.3364 79.192 38.0695 79.3384 37.847C79.4847 37.6224 79.6754 37.4626 79.9091 37.3663C80.1434 37.2694 80.3575 37.202 80.5515 37.166C80.7457 37.1276 80.9377 37.1086 81.1284 37.1086C81.7507 37.1086 82.3433 37.2577 82.9068 37.5557ZM88.9726 42.8194H87.9298L87.8525 42.1725C87.2226 42.6936 86.5937 42.9543 85.9645 42.9543C85.4376 42.9543 85.0294 42.8114 84.7403 42.5244C84.4508 42.2382 84.3066 41.8767 84.3066 41.4369C84.3066 41.206 84.3485 40.9855 84.4329 40.7735C84.517 40.5612 84.6561 40.3556 84.8501 40.1549C85.0446 39.9538 85.3366 39.7925 85.7282 39.6693C86.12 39.546 86.5905 39.485 87.1387 39.485H87.8202V39.184C87.8202 38.6859 87.7282 38.3468 87.5462 38.1636C87.362 37.9814 87.0548 37.8903 86.6237 37.8903C86.0963 37.8903 85.4483 38.1086 84.68 38.5485V37.6564C85.4707 37.2922 86.2462 37.1086 87.0073 37.1086C87.747 37.1086 88.2586 37.2619 88.5443 37.5674C88.8296 37.8715 88.9726 38.3332 88.9726 38.9489V42.8194ZM87.8317 40.2654H87.2492C86.0486 40.2654 85.4483 40.6264 85.4483 41.3479C85.4483 41.6015 85.5289 41.7836 85.6898 41.8996C85.8511 42.0152 86.0518 42.0722 86.2939 42.0722C86.601 42.0722 86.8967 41.9977 87.1832 41.8486C87.4685 41.7009 87.6849 41.5299 87.8317 41.3365V40.2654ZM91.8443 37.3778H93.5788L93.3036 38.1364H91.8443V41.08C91.8443 41.8237 92.1587 42.1954 92.7874 42.1954C93.0293 42.1954 93.2737 42.1438 93.5237 42.0394V42.7525C93.1795 42.8867 92.7702 42.9543 92.293 42.9543C91.745 42.9543 91.3426 42.7959 91.0863 42.4789C90.8299 42.1643 90.7014 41.7493 90.7014 41.235V36.641L91.8443 35.8036V37.3778Z" fill="#B6B6B6"/>
</svg>
