<svg width="33" height="33" viewBox="0 0 33 33" fill="none" xmlns="http://www.w3.org/2000/svg">
<path d="M31.6867 10.1438C29.1247 4.13976 23.1712 0 16.4355 0C7.27482 0 0 7.55758 0 16.5645C0 25.6485 7.35081 33 16.4355 33C25.4523 33 33 25.7149 33 16.5645C33 14.3462 32.5582 12.186 31.6867 10.1438ZM30.213 11.6405C28.5196 10.3002 26.3314 9.3651 24.2361 8.76994C23.6414 6.67257 22.7082 4.484 21.3567 2.78599C25.4708 4.25996 28.7383 7.52677 30.213 11.6405ZM24.3104 15.5982C24.8381 15.6046 25.2656 16.0352 25.2656 16.5645C25.2656 17.0937 24.8381 17.5244 24.3104 17.5307C24.3066 17.5304 24.303 17.5296 24.2993 17.5294C24.2831 17.5284 24.2672 17.5291 24.2513 17.5289C23.7405 17.5038 23.3324 17.0818 23.3321 16.5651C23.3321 16.5649 23.3321 16.5647 23.3321 16.5645C23.3321 16.5642 23.3321 16.5641 23.3321 16.5638C23.3324 16.0537 23.73 15.6359 24.2315 15.6011C24.2338 15.6011 24.2361 15.6014 24.2383 15.6014C24.2585 15.6014 24.2788 15.6007 24.2993 15.5995C24.303 15.5992 24.3066 15.5985 24.3104 15.5982ZM17.4023 2.09408C19.2552 2.706 20.9474 5.02908 22.0448 8.25271C20.5621 7.96931 19.0014 7.79889 17.4023 7.74978V2.09408ZM17.4023 9.68421C19.2333 9.7437 21.0035 9.9718 22.6439 10.3538C22.904 11.4649 23.0971 12.6474 23.2107 13.8767C22.4454 14.1877 21.842 14.8159 21.5647 15.5977H17.4023V9.68421ZM17.4023 17.5312H21.5647C21.842 18.3131 22.4455 18.9414 23.2109 19.2523C23.1026 20.432 22.9213 21.5745 22.6729 22.6572C21.5469 22.9132 20.3554 23.1001 19.1236 23.2114C18.8128 22.4458 18.1844 21.8421 17.4023 21.5647V17.5312ZM11.5096 2.8032C10.8596 3.63509 10.2689 4.63959 9.75498 5.80297C9.72598 5.80213 9.69717 5.80078 9.66797 5.80078C7.8248 5.80078 6.42978 7.51337 6.83841 9.33584C5.2452 9.93854 3.88459 10.6968 2.80668 11.5629C4.2755 7.50163 7.47985 4.27595 11.5096 2.8032ZM10.6348 8.70117C10.6348 9.23426 10.2011 9.66797 9.66797 9.66797C9.13488 9.66797 8.70117 9.23426 8.70117 8.70117C8.70117 8.16808 9.13488 7.73438 9.66797 7.73438C10.2011 7.73438 10.6348 8.16808 10.6348 8.70117ZM7.90717 11.0038C7.99367 11.07 8.08371 11.1318 8.17743 11.1882C7.94108 12.5706 7.79399 14.0882 7.74933 15.5977H2.09099C2.66997 13.8044 4.81271 12.093 7.90717 11.0038ZM7.74901 17.5312C7.79599 19.1332 7.95925 20.6667 8.22344 22.1037C4.98996 21.039 2.69459 19.3811 2.09144 17.5312H7.74901ZM2.79179 21.4798C4.47595 22.8016 6.63609 23.6978 8.71774 24.2718C9.37864 26.6732 10.3432 28.7092 11.5222 30.2089C7.47257 28.7462 4.25513 25.5292 2.79179 21.4798ZM15.4688 30.9028C13.173 30.1325 11.649 27.0602 10.891 24.7697C11.7873 24.9358 12.7141 25.0618 13.6614 25.145C13.9301 26.0243 14.6062 26.727 15.4688 27.0329V30.9028ZM15.4688 21.5647C14.6868 21.8421 14.0584 22.4457 13.7475 23.2112C12.5463 23.1021 11.3955 22.9208 10.3157 22.678C9.95549 21.0711 9.74048 19.3337 9.6837 17.5312H15.4688V21.5647ZM15.4688 15.5977H9.6837C9.72688 14.2171 9.86068 12.8342 10.0735 11.5726C11.0472 11.4357 11.8674 10.8141 12.2807 9.95988C13.3176 9.81041 14.385 9.71921 15.4688 9.68473V15.5977ZM15.4688 7.75036C14.4561 7.78065 13.4561 7.85813 12.4783 7.98291C12.3291 7.39967 12.0023 6.8872 11.5597 6.50538C12.6184 4.14633 14.0124 2.58367 15.4688 2.09685V7.75036ZM16.4355 25.2656C15.9063 25.2656 15.4756 24.8381 15.4693 24.3104C15.4696 24.3067 15.4704 24.3031 15.4706 24.2993C15.4715 24.2833 15.4709 24.2676 15.4711 24.2518C15.4959 23.7406 15.9183 23.332 16.4355 23.332C16.9528 23.332 17.3752 23.7406 17.4 24.2518C17.4002 24.2677 17.3995 24.2834 17.4005 24.2993C17.4008 24.3031 17.4015 24.3067 17.4018 24.3104C17.3954 24.8381 16.9648 25.2656 16.4355 25.2656ZM17.4023 30.9084V27.0329C18.2649 26.727 18.9409 26.0244 19.2097 25.1451C20.1923 25.0589 21.1536 24.9269 22.0829 24.7524C21.3011 27.062 19.7175 30.1567 17.4023 30.9084ZM21.395 30.208C22.7537 28.5052 23.6744 26.329 24.2598 24.2494C26.3348 23.6735 28.5191 22.7694 30.2139 21.4424C28.7442 25.5085 25.492 28.7404 21.395 30.208ZM24.7679 22.0759C24.9352 21.1892 25.0614 20.2735 25.1446 19.3387C26.0241 19.0701 26.727 18.381 27.0329 17.5184H30.9019C30.1366 19.7771 27.0465 21.3183 24.7679 22.0759ZM27.0329 15.5977C26.727 14.735 26.0241 14.0588 25.1446 13.7902C25.0587 12.8215 24.9264 11.8725 24.7508 10.9538C27.0588 11.7424 30.1315 13.31 30.9019 15.5977H27.0329Z" fill="#B3A4FF"/>
</svg>
