<svg version="1.1"  xmlns="http://www.w3.org/2000/svg" xmlns:xlink="http://www.w3.org/1999/xlink">

  <symbol id="icon-logo" width="33" height="33" viewBox="0 0 33 33" fill="none" xmlns="http://www.w3.org/2000/svg">
    <path fill="#B3A4FF" d="M31.6867 10.1438C29.1247 4.13976 23.1712 0 16.4355 0C7.27482 0 0 7.55758 0 16.5645C0 25.6485 7.35081 33 16.4355 33C25.4523 33 33 25.7149 33 16.5645C33 14.3462 32.5582 12.186 31.6867 10.1438ZM30.213 11.6405C28.5196 10.3002 26.3314 9.3651 24.2361 8.76994C23.6414 6.67257 22.7082 4.484 21.3567 2.78599C25.4708 4.25996 28.7383 7.52677 30.213 11.6405ZM24.3104 15.5982C24.8381 15.6046 25.2656 16.0352 25.2656 16.5645C25.2656 17.0937 24.8381 17.5244 24.3104 17.5307C24.3066 17.5304 24.303 17.5296 24.2993 17.5294C24.2831 17.5284 24.2672 17.5291 24.2513 17.5289C23.7405 17.5038 23.3324 17.0818 23.3321 16.5651C23.3321 16.5649 23.3321 16.5647 23.3321 16.5645C23.3321 16.5642 23.3321 16.5641 23.3321 16.5638C23.3324 16.0537 23.73 15.6359 24.2315 15.6011C24.2338 15.6011 24.2361 15.6014 24.2383 15.6014C24.2585 15.6014 24.2788 15.6007 24.2993 15.5995C24.303 15.5992 24.3066 15.5985 24.3104 15.5982ZM17.4023 2.09408C19.2552 2.706 20.9474 5.02908 22.0448 8.25271C20.5621 7.96931 19.0014 7.79889 17.4023 7.74978V2.09408ZM17.4023 9.68421C19.2333 9.7437 21.0035 9.9718 22.6439 10.3538C22.904 11.4649 23.0971 12.6474 23.2107 13.8767C22.4454 14.1877 21.842 14.8159 21.5647 15.5977H17.4023V9.68421ZM17.4023 17.5312H21.5647C21.842 18.3131 22.4455 18.9414 23.2109 19.2523C23.1026 20.432 22.9213 21.5745 22.6729 22.6572C21.5469 22.9132 20.3554 23.1001 19.1236 23.2114C18.8128 22.4458 18.1844 21.8421 17.4023 21.5647V17.5312ZM11.5096 2.8032C10.8596 3.63509 10.2689 4.63959 9.75498 5.80297C9.72598 5.80213 9.69717 5.80078 9.66797 5.80078C7.8248 5.80078 6.42978 7.51337 6.83841 9.33584C5.2452 9.93854 3.88459 10.6968 2.80668 11.5629C4.2755 7.50163 7.47985 4.27595 11.5096 2.8032ZM10.6348 8.70117C10.6348 9.23426 10.2011 9.66797 9.66797 9.66797C9.13488 9.66797 8.70117 9.23426 8.70117 8.70117C8.70117 8.16808 9.13488 7.73438 9.66797 7.73438C10.2011 7.73438 10.6348 8.16808 10.6348 8.70117ZM7.90717 11.0038C7.99367 11.07 8.08371 11.1318 8.17743 11.1882C7.94108 12.5706 7.79399 14.0882 7.74933 15.5977H2.09099C2.66997 13.8044 4.81271 12.093 7.90717 11.0038ZM7.74901 17.5312C7.79599 19.1332 7.95925 20.6667 8.22344 22.1037C4.98996 21.039 2.69459 19.3811 2.09144 17.5312H7.74901ZM2.79179 21.4798C4.47595 22.8016 6.63609 23.6978 8.71774 24.2718C9.37864 26.6732 10.3432 28.7092 11.5222 30.2089C7.47257 28.7462 4.25513 25.5292 2.79179 21.4798ZM15.4688 30.9028C13.173 30.1325 11.649 27.0602 10.891 24.7697C11.7873 24.9358 12.7141 25.0618 13.6614 25.145C13.9301 26.0243 14.6062 26.727 15.4688 27.0329V30.9028ZM15.4688 21.5647C14.6868 21.8421 14.0584 22.4457 13.7475 23.2112C12.5463 23.1021 11.3955 22.9208 10.3157 22.678C9.95549 21.0711 9.74048 19.3337 9.6837 17.5312H15.4688V21.5647ZM15.4688 15.5977H9.6837C9.72688 14.2171 9.86068 12.8342 10.0735 11.5726C11.0472 11.4357 11.8674 10.8141 12.2807 9.95988C13.3176 9.81041 14.385 9.71921 15.4688 9.68473V15.5977ZM15.4688 7.75036C14.4561 7.78065 13.4561 7.85813 12.4783 7.98291C12.3291 7.39967 12.0023 6.8872 11.5597 6.50538C12.6184 4.14633 14.0124 2.58367 15.4688 2.09685V7.75036ZM16.4355 25.2656C15.9063 25.2656 15.4756 24.8381 15.4693 24.3104C15.4696 24.3067 15.4704 24.3031 15.4706 24.2993C15.4715 24.2833 15.4709 24.2676 15.4711 24.2518C15.4959 23.7406 15.9183 23.332 16.4355 23.332C16.9528 23.332 17.3752 23.7406 17.4 24.2518C17.4002 24.2677 17.3995 24.2834 17.4005 24.2993C17.4008 24.3031 17.4015 24.3067 17.4018 24.3104C17.3954 24.8381 16.9648 25.2656 16.4355 25.2656ZM17.4023 30.9084V27.0329C18.2649 26.727 18.9409 26.0244 19.2097 25.1451C20.1923 25.0589 21.1536 24.9269 22.0829 24.7524C21.3011 27.062 19.7175 30.1567 17.4023 30.9084ZM21.395 30.208C22.7537 28.5052 23.6744 26.329 24.2598 24.2494C26.3348 23.6735 28.5191 22.7694 30.2139 21.4424C28.7442 25.5085 25.492 28.7404 21.395 30.208ZM24.7679 22.0759C24.9352 21.1892 25.0614 20.2735 25.1446 19.3387C26.0241 19.0701 26.727 18.381 27.0329 17.5184H30.9019C30.1366 19.7771 27.0465 21.3183 24.7679 22.0759ZM27.0329 15.5977C26.727 14.735 26.0241 14.0588 25.1446 13.7902C25.0587 12.8215 24.9264 11.8725 24.7508 10.9538C27.0588 11.7424 30.1315 13.31 30.9019 15.5977H27.0329Z"/>
  </symbol>

  <symbol id="icon-instagram" width="120" height="27" viewBox="0 0 120 27" fill="inherit" xmlns="http://www.w3.org/2000/svg">
    <g opacity="inherit">
      <path fill-rule="evenodd" clip-rule="evenodd" fill="inherit" d="M19.1855 0.156128H8.10205C3.92485 0.156128 0.527405 3.55358 0.527405 7.73077V18.8143C0.527405 22.9914 3.92485 26.3889 8.10205 26.3889H19.1855C23.3627 26.3889 26.7602 22.9914 26.7602 18.8143V7.73077C26.7602 3.53501 23.3627 0.156128 19.1855 0.156128ZM24.3467 18.9999C24.3467 21.7661 22.1003 24.0311 19.3155 24.0311H7.97209C5.20586 24.0311 2.94089 21.7847 2.94089 18.9999V7.65651C2.94089 4.89028 5.18729 2.62531 7.97209 2.62531H19.3155C22.0817 2.62531 24.3467 4.87171 24.3467 7.65651V18.9999ZM13.6531 6.52402C9.90286 6.52402 6.85816 9.56872 6.85816 13.3189C6.85816 17.0691 9.90286 20.1138 13.6531 20.1138C17.4032 20.1138 20.448 17.0691 20.448 13.3189C20.448 9.56872 17.4032 6.52402 13.6531 6.52402ZM13.6531 17.7375C11.221 17.7375 9.23451 15.7695 9.23451 13.3189C9.23451 10.8869 11.2024 8.90037 13.6531 8.90037C16.0851 8.90037 18.0716 10.8683 18.0716 13.3189C18.053 15.751 16.0851 17.7375 13.6531 17.7375ZM22.2488 6.26407C22.2488 7.13561 21.5423 7.84212 20.6708 7.84212C19.7992 7.84212 19.0927 7.13561 19.0927 6.26407C19.0927 5.39254 19.7992 4.68602 20.6708 4.68602C21.5423 4.68602 22.2488 5.39254 22.2488 6.26407Z"/>
      <path fill-rule="evenodd" clip-rule="evenodd" fill="inherit" d="M42.2622 3.12655C42.5036 3.07085 42.7449 3.10798 42.9863 3.16368C43.339 3.25651 43.7103 3.34933 43.9888 3.57212C44.1373 3.68351 44.2673 3.8506 44.2487 4.05482C44.2487 7.4337 44.2487 10.794 44.2487 14.1729C44.2487 15.2868 44.3044 16.4007 44.1002 17.4961C43.9517 18.3872 43.5989 19.2784 42.9677 19.9281C42.7635 20.1695 42.5221 20.3737 42.2436 20.5222C42.0023 20.6522 41.7424 20.7636 41.4825 20.745C41.4268 20.6708 41.3711 20.5965 41.3711 20.5037C41.3896 20.2438 41.4825 19.9838 41.5753 19.7425C41.8352 18.9071 41.9095 18.0159 41.928 17.1433C41.9466 13.0404 41.9652 8.91892 41.9837 4.81599C41.9837 4.7046 41.9837 4.61177 41.9652 4.50038C41.8166 4.50038 41.7053 4.63034 41.5939 4.74173C41.0926 5.22443 40.6842 5.79995 40.4057 6.43117C40.0158 7.22948 39.8302 8.10205 39.7559 8.99318C39.6816 9.56871 39.7373 10.1442 39.8673 10.7012C39.9787 11.1282 40.1643 11.5552 40.4428 11.9079C40.5542 12.0565 40.6099 12.2607 40.4985 12.4278C40.35 12.5763 40.1086 12.502 39.9415 12.4463C39.3475 12.2421 38.8462 11.8337 38.4563 11.3324C37.9922 10.7383 37.788 9.97714 37.7694 9.23453C37.8065 8.58475 37.9922 7.93496 38.2335 7.32231C38.5863 6.41261 39.0875 5.57717 39.7559 4.85312C40.1829 4.40756 40.647 3.99912 41.1669 3.66494C41.501 3.4236 41.8538 3.21938 42.2622 3.12655ZM64.5406 3.29364C64.7262 3.12655 65.0047 3.14512 65.246 3.18225C65.673 3.25651 66.0815 3.34933 66.4714 3.53499C66.6013 3.59068 66.6941 3.66494 66.787 3.75777C66.7498 4.68604 66.7127 5.59574 66.657 6.524C67.5853 6.56113 68.5135 6.61683 69.4418 6.67252C69.6089 6.67252 69.8131 6.72822 69.8502 6.91387C69.8874 7.19235 69.8502 7.50796 69.7203 7.74931C69.646 7.87926 69.5346 8.04635 69.349 8.02779C68.4578 8.04635 67.5481 8.06492 66.657 8.08348C66.6013 9.38305 66.5642 10.6641 66.5271 11.9636C66.5085 13.1332 66.3971 14.3214 66.5271 15.5096C66.5827 15.9737 66.6384 16.4379 66.8612 16.8463C66.9541 17.032 67.1211 17.1805 67.3254 17.199C67.5853 17.2176 67.8638 17.1062 68.0494 16.9391C68.365 16.6606 68.5878 16.3079 68.7735 15.9366C68.9962 15.5096 69.1448 15.064 69.2933 14.5999C69.349 14.3957 69.3118 14.1915 69.3304 13.9872C69.349 12.9105 69.5161 11.8151 69.8874 10.8126C70.1659 10.07 70.5557 9.34592 71.1869 8.84466C71.8739 8.26914 72.8578 8.08349 73.6932 8.43623C74.2316 8.64044 74.6587 9.06744 74.9186 9.56871C74.9557 9.32736 74.9 9.06745 75.0114 8.84466C75.1599 8.60331 75.4755 8.58475 75.7354 8.62188C76.0696 8.65901 76.4224 8.75183 76.7194 8.91892C76.9051 9.03031 77.0907 9.1974 77.0907 9.42018C77.035 11.3881 76.9422 13.3746 77.0164 15.3425C77.035 15.7695 77.0907 16.1965 77.1835 16.6235C77.2578 16.9206 77.3506 17.2547 77.6105 17.459C77.8519 17.6446 78.1861 17.5889 78.4088 17.4033C78.7616 17.1248 78.9844 16.6978 79.1515 16.2893C79.2071 16.178 79.2628 16.048 79.2443 15.918C79.1143 14.7299 79.0772 13.5231 79.2814 12.3535C79.4114 11.5552 79.6527 10.7755 80.0612 10.0885C80.4696 9.38305 81.0822 8.75183 81.8249 8.39909C81.9734 8.3434 82.1219 8.26914 82.2704 8.25057C83.013 8.25057 83.7742 8.49192 84.294 9.03031C84.424 9.17884 84.5354 9.34592 84.6468 9.51301C84.7025 9.29023 84.6468 9.04888 84.721 8.84466C84.8324 8.60331 85.1666 8.58475 85.408 8.62188C85.8164 8.69614 86.2248 8.7704 86.5776 8.97462C86.8004 9.10458 86.8004 9.38305 86.7818 9.60584C86.7632 11.8337 86.7261 14.0429 86.7075 16.2708C87.2088 15.5653 87.6729 14.8227 88.0628 14.0429C88.5455 13.0961 88.9539 12.1122 89.1581 11.0539C88.8797 10.8126 88.6197 10.497 88.5455 10.1257C88.4712 9.82862 88.5455 9.51301 88.6198 9.21597C88.7497 8.7704 89.0839 8.36196 89.5295 8.23201C89.8822 8.13918 90.2721 8.12061 90.6062 8.30627C90.8476 8.43622 90.9961 8.7147 91.0332 8.97462C91.0704 9.2531 91.0332 9.53158 90.9775 9.79149C91.5716 9.69866 92.1657 9.60584 92.7598 9.45732C93.1682 9.36449 93.5953 9.29023 93.9851 9.42018C94.2636 9.51301 94.4864 9.77293 94.5421 10.0514C94.6163 10.3485 94.6349 10.6826 94.5235 10.9797C94.375 11.3695 94.3379 11.7965 94.245 12.205C94.0594 13.3003 93.818 14.4142 93.9851 15.5096C94.0594 16.0109 94.1522 16.4936 94.3564 16.9577C94.4678 17.199 94.6349 17.4775 94.9134 17.5518C95.1919 17.626 95.4703 17.4775 95.6746 17.3104C96.0273 16.9948 96.2501 16.5678 96.3615 16.1037C96.1201 14.9341 96.0644 13.7273 96.2501 12.5577C96.38 11.6852 96.64 10.8126 97.067 10.0143C97.4011 9.42019 97.8653 8.88179 98.4965 8.56618C99.1834 8.23201 100.037 8.23201 100.724 8.60331C101.151 8.8261 101.467 9.17884 101.708 9.58727C101.745 9.34592 101.69 9.08601 101.82 8.86323C102.005 8.62188 102.358 8.64044 102.637 8.67757C103.045 8.75183 103.472 8.84466 103.75 9.16027C103.936 9.36449 103.843 9.64297 103.843 9.88432C103.806 11.1839 103.75 12.4835 103.769 13.7645C103.769 14.7484 103.732 15.7695 104.01 16.7349C104.085 16.9763 104.177 17.2362 104.4 17.4033C104.642 17.5703 104.976 17.5332 105.217 17.3661C105.533 17.1248 105.737 16.7906 105.923 16.4379C106.071 16.1223 106.238 15.8252 106.312 15.491C106.312 13.3189 106.331 11.1282 106.331 8.95605C106.312 8.7704 106.387 8.54762 106.572 8.47336C106.702 8.39909 106.869 8.45479 106.999 8.47336C107.389 8.54762 107.798 8.54762 108.15 8.73327C108.28 8.80753 108.429 8.91892 108.41 9.08601C108.41 10.1628 108.41 11.2396 108.41 12.3164C108.41 12.4463 108.41 12.5577 108.429 12.6877C108.745 11.7037 109.079 10.7198 109.469 9.77293C109.617 9.42019 109.766 9.06744 109.97 8.73327C110.118 8.47335 110.453 8.41766 110.731 8.43623C111.325 8.47336 111.938 8.73327 112.253 9.2531C112.365 9.43875 112.42 9.66153 112.42 9.88432C112.402 10.9982 112.476 12.1307 112.55 13.2446C112.569 13.5974 112.588 13.9501 112.643 14.2843C112.68 14.2657 112.699 14.2286 112.718 14.1729C112.829 13.3375 113.033 12.5392 113.274 11.7408C113.534 10.8497 113.831 9.97714 114.203 9.12314C114.296 8.91892 114.388 8.67757 114.611 8.54762C114.927 8.38053 115.298 8.43623 115.632 8.52905C116.004 8.65901 116.393 8.78896 116.69 9.04888C116.913 9.23453 117.08 9.49445 117.099 9.79149C117.006 11.5181 116.932 13.2632 117.062 15.0083C117.099 15.491 117.155 15.9737 117.285 16.4379C117.359 16.6978 117.452 16.9577 117.619 17.1805C117.767 17.3847 118.064 17.4961 118.324 17.4033C118.547 17.3104 118.696 17.1062 118.807 16.9206C119.067 16.4379 119.141 15.8809 119.29 15.3611C119.327 15.2126 119.401 15.0269 119.568 14.9712C119.679 14.8969 119.809 14.9898 119.902 15.064C120.032 15.1754 119.995 15.3611 119.995 15.5096C119.958 16.345 119.828 17.2176 119.345 17.9231C118.955 18.4986 118.25 18.8699 117.544 18.7957C116.895 18.7585 116.301 18.3872 115.948 17.8488C115.502 17.1805 115.335 16.3822 115.205 15.6024C115.001 14.0429 115.057 12.4649 115.094 10.9054C115.038 10.9425 114.982 11.0168 114.964 11.0725C114.518 11.9451 114.221 12.8919 113.999 13.8387C113.701 15.064 113.497 16.3265 113.46 17.5889C113.46 17.756 113.33 17.8674 113.182 17.9045C112.829 18.053 112.42 18.0716 112.086 17.9045C111.734 17.7374 111.474 17.4218 111.325 17.0691C111.158 16.7163 111.084 16.3265 111.028 15.9366C110.824 14.3214 110.75 12.7062 110.675 11.0911C110.694 10.9797 110.545 11.0539 110.49 11.0539C109.691 12.4278 109.301 13.9872 109.097 15.5467C108.967 16.4564 108.93 17.3661 108.912 18.2944C108.912 18.4615 108.819 18.6286 108.67 18.7028C108.392 18.8514 108.076 18.8514 107.779 18.8328C107.426 18.7957 107.037 18.7585 106.739 18.5543C106.61 18.4615 106.517 18.3315 106.517 18.1644C106.498 17.8674 106.498 17.5703 106.461 17.2733C106.294 17.5147 106.164 17.7746 105.96 17.9974C105.644 18.3687 105.236 18.6843 104.772 18.7957C104.103 18.9442 103.342 18.7214 102.878 18.2201C102.488 17.8117 102.284 17.2547 102.191 16.7163C101.857 17.459 101.3 18.1087 100.576 18.4986C100.223 18.6843 99.8332 18.7957 99.4248 18.8328C98.9792 18.8885 98.5336 18.8328 98.1252 18.6286C97.5497 18.3315 97.1041 17.7931 96.8442 17.2176C96.5286 17.9045 96.0087 18.5729 95.2476 18.7771C94.4864 18.9813 93.6881 18.6843 93.1497 18.1459C92.4628 17.4775 92.11 16.5307 91.9986 15.5839C91.9429 15.1197 91.9615 14.6742 91.9986 14.21C92.0729 13.1889 92.1843 12.1678 92.4442 11.1653C92.4442 11.1096 92.4442 11.0539 92.4442 10.9982C91.8872 10.9797 91.3489 10.9982 90.7919 10.9982C90.5134 11.9265 90.1235 12.8176 89.6594 13.6716C88.8797 15.1383 87.9143 16.5121 86.856 17.7746C86.8746 18.9999 86.9117 20.2066 86.856 21.4319C86.8004 22.3973 86.6518 23.3813 86.2434 24.2539C85.9278 24.9222 85.4637 25.5163 84.7953 25.869C84.3126 26.129 83.7556 26.2775 83.1987 26.3146C82.5118 26.2589 81.8063 26.0918 81.2679 25.6463C80.8966 25.3306 80.6367 24.8851 80.5253 24.4209C80.451 24.0125 80.4325 23.5669 80.5624 23.1585C80.8038 22.3973 81.2865 21.7475 81.8249 21.1535C82.3633 20.5594 82.9759 20.0395 83.5514 19.4826C84.0156 19.0556 84.4797 18.61 84.9438 18.183C84.9438 17.8488 84.9067 17.5147 84.8881 17.1619C84.6653 17.4404 84.4797 17.7374 84.2012 17.9788C83.5329 18.6286 82.5675 18.9627 81.6206 18.8514C80.9708 18.74 80.451 18.2944 80.0612 17.7746C79.9126 17.5889 79.7827 17.3847 79.6713 17.1805C79.3371 17.8674 78.8358 18.5543 78.0747 18.7957C77.3135 18.9999 76.4595 18.7028 75.9768 18.1087C75.6426 17.7003 75.4384 17.2176 75.3641 16.6978C75.0485 17.3847 74.5658 17.9973 73.916 18.3872C73.5076 18.6471 73.0249 18.7957 72.5236 18.8328C71.9852 18.8885 71.4469 18.7771 71.0013 18.4615C70.203 17.9045 69.8131 16.9577 69.5903 16.0666C69.4604 16.475 69.2747 16.8463 69.0705 17.2176C68.8663 17.5518 68.6435 17.8674 68.365 18.1459C68.0308 18.4615 67.6224 18.7214 67.1583 18.7957C66.6199 18.8699 66.0629 18.7028 65.6545 18.3501C65.3203 18.0716 65.079 17.7003 64.8933 17.2919C64.5591 16.5678 64.4292 15.7695 64.3549 14.9712C63.9279 15.8995 63.4452 16.8092 62.7026 17.5147C62.1456 18.0902 61.4402 18.5172 60.6418 18.7214C60.0292 18.8885 59.3794 18.8699 58.7482 18.8142C58.2098 18.7585 57.6528 18.6471 57.1701 18.3872C56.9474 18.2573 56.706 18.053 56.6318 17.7931C56.5946 17.4961 56.7617 17.2176 56.9288 16.9948C57.0959 16.772 57.263 16.5493 57.5229 16.4564C57.7642 16.3822 57.9685 16.5678 58.1727 16.6978C58.4697 16.9577 58.8039 17.1805 59.1938 17.2733C59.5651 17.3661 60.0292 17.2547 60.252 16.9206C60.4562 16.605 60.5119 16.2336 60.5305 15.8623C60.5305 15.1754 60.0849 14.5813 59.6208 14.1172C59.1752 13.6902 58.7296 13.3003 58.2841 12.8919C57.6343 13.9872 56.9474 15.0455 56.2976 16.1408C55.9077 16.8463 55.4436 17.4961 54.8495 18.0345C54.4225 18.4244 53.9026 18.74 53.3271 18.8328C52.9373 18.8885 52.5474 18.7028 52.306 18.3872C51.9904 17.9973 51.8605 17.4961 51.7862 16.9948C51.6748 16.1223 51.7119 15.2311 51.7305 14.34C51.7491 13.2261 51.8048 12.0936 51.8419 10.9797C51.8419 10.7383 51.879 10.497 51.8605 10.2556C51.7862 10.2742 51.6934 10.2742 51.6562 10.3484C50.5795 11.5552 49.9111 13.059 49.3913 14.5813C48.9457 15.8995 48.6301 17.2733 48.4259 18.6471C48.2588 18.7957 48.0175 18.8328 47.8132 18.7957C47.5533 18.7585 47.2748 18.7957 47.0149 18.74C46.7921 18.6843 46.6251 18.48 46.5322 18.2573C46.3466 17.8117 46.328 17.329 46.328 16.8649C46.3466 14.21 46.3651 11.5552 46.3837 8.90036C46.3837 8.7704 46.4208 8.60331 46.5508 8.56618C46.8293 8.47336 47.1078 8.54762 47.3862 8.60331C47.7018 8.67757 48.036 8.7704 48.2588 8.99318C48.3702 9.10458 48.3331 9.27166 48.3331 9.42018C48.3331 10.8868 48.3145 12.3721 48.3145 13.8387C48.7972 12.5392 49.2799 11.2025 50.0225 10.0328C50.1896 9.79149 50.3567 9.53158 50.5609 9.32736C50.9136 8.91892 51.4149 8.54762 51.9719 8.52905C52.3989 8.51049 52.7887 8.7147 53.16 8.90036C53.5128 9.06745 53.847 9.32736 53.9769 9.69866C54.0697 9.92145 54.0326 10.1628 54.0326 10.3856C53.9955 11.648 53.9583 12.9105 53.9212 14.1915C53.9212 14.7113 53.8655 15.2311 53.9027 15.7324C53.9212 15.9737 53.9398 16.2336 54.0326 16.4564C54.0883 16.5864 54.1626 16.7349 54.3111 16.7535C54.4596 16.772 54.571 16.6606 54.6824 16.5864C54.9237 16.3822 55.1094 16.1223 55.295 15.8623C55.8334 15.1197 56.279 14.34 56.7431 13.5602C57.0031 13.0775 57.2815 12.5949 57.5414 12.0936C57.4486 11.9451 57.3187 11.8337 57.2444 11.6852C56.9474 11.2025 56.8731 10.6084 57.0216 10.0885C57.1701 9.56871 57.4858 9.10457 57.9128 8.7704C58.2098 8.54762 58.5625 8.41766 58.9338 8.3434C59.2866 8.25057 59.6765 8.30627 59.9735 8.49192C60.1777 8.62188 60.2891 8.86323 60.3077 9.10457C60.3262 9.56871 60.1592 9.99571 59.9364 10.4041C59.7322 10.794 59.4537 11.1468 59.1752 11.4809C60.0849 12.1493 61.0317 12.7805 61.8115 13.5788C62.2199 14.0058 62.5541 14.5442 62.6283 15.1569C62.684 15.4725 62.6283 15.7881 62.5912 16.0851C63.4452 15.3425 64.1136 14.3214 64.2806 13.1889C64.2992 11.4624 64.2992 9.73579 64.3178 7.99066C63.5195 7.97209 62.7397 7.97209 61.9414 7.95353C61.7929 7.8607 61.7558 7.65648 61.7372 7.48939C61.7372 7.09952 61.8486 6.67252 62.1271 6.37548C62.1642 6.31978 62.257 6.33835 62.3127 6.31978C63.0182 6.31978 63.7237 6.33835 64.4292 6.35691C64.4663 5.5586 64.4849 4.7603 64.5034 3.96199C64.392 3.72064 64.392 3.47929 64.5406 3.29364ZM73.1734 9.95858C72.7093 10.0514 72.3566 10.4227 72.1523 10.8311C71.8553 11.3695 71.7253 11.9822 71.6325 12.5763C71.5211 13.356 71.484 14.1543 71.5397 14.9526C71.5768 15.5653 71.6696 16.1965 71.9481 16.7349C72.0966 17.032 72.338 17.3104 72.6722 17.4218C72.8949 17.5147 73.1363 17.4961 73.3405 17.3847C73.7675 17.1619 74.046 16.772 74.2502 16.3636C74.6215 15.6024 74.7886 14.767 74.8629 13.9316C74.9371 13.059 74.9557 12.1864 74.7515 11.3324C74.6401 10.924 74.473 10.5155 74.1574 10.2371C73.8975 9.99571 73.5262 9.88432 73.1734 9.95858ZM83.013 9.99571C82.4561 10.1442 82.0662 10.6269 81.8249 11.1282C81.4536 11.9079 81.3236 12.7434 81.2493 13.5974C81.2122 14.5442 81.1936 15.5096 81.4907 16.4379C81.6392 16.8649 81.8805 17.3104 82.3261 17.5147C82.6046 17.6446 82.9202 17.6075 83.1801 17.459C83.4029 17.329 83.5886 17.1433 83.7371 16.9206C84.0898 16.4564 84.294 15.8995 84.424 15.3239C84.6282 14.4885 84.7025 13.6159 84.6839 12.7619C84.6839 12.1678 84.6282 11.5738 84.4426 11.0168C84.3312 10.6826 84.1455 10.3299 83.8299 10.1257C83.5886 9.95858 83.2915 9.90288 83.013 9.99571ZM100.112 10.07C99.629 10.1442 99.2577 10.5155 99.0349 10.9425C98.645 11.6852 98.5151 12.5392 98.4408 13.3746C98.3851 14.3029 98.348 15.2683 98.5707 16.178C98.6821 16.6235 98.8678 17.0877 99.2391 17.3847C99.4805 17.5703 99.8146 17.6817 100.112 17.5703C100.502 17.4404 100.761 17.1062 100.984 16.772C101.485 15.9552 101.671 14.9898 101.764 14.0429C101.838 13.1889 101.857 12.2978 101.634 11.4624C101.523 11.0539 101.356 10.6269 101.021 10.3484C100.78 10.1257 100.427 9.99571 100.112 10.07ZM84.1826 20.4294C83.3286 21.2834 82.5303 22.2302 82.0476 23.3442C81.8805 23.734 81.7877 24.1982 81.8991 24.6252C81.9734 24.9593 82.2519 25.2378 82.586 25.3306C82.9945 25.442 83.4772 25.442 83.8485 25.2007C84.1826 24.9779 84.4054 24.6252 84.5354 24.2353C84.7953 23.5112 84.8324 22.7501 84.8696 21.9889C84.8881 21.2463 84.9067 20.5037 84.9067 19.7611C84.6468 19.9653 84.424 20.2066 84.1826 20.4294Z"/>
    </g>
  </symbol>

  <symbol id="icon-google" width="79" height="25" viewBox="0 0 79 25" fill="inherit" xmlns="http://www.w3.org/2000/svg">
    <g opacity="inherit">
    <path d="M9.875 8.82249V11.4847H16.221C16.0353 12.9706 15.54 14.0541 14.7661 14.828C13.8374 15.7567 12.3824 16.7782 9.875 16.7782C5.97453 16.7782 2.90987 13.6207 2.90987 9.72022C2.90987 5.81975 5.97453 2.66223 9.875 2.66223C11.98 2.66223 13.5278 3.49804 14.6732 4.55055L16.5306 2.69319C14.9518 1.14538 12.8468 0 9.875 0C4.51959 0 0 4.36481 0 9.72022C0 15.0756 4.51959 19.4404 9.875 19.4404C12.7849 19.4404 14.9518 18.4808 16.6544 16.7163C18.4189 14.9518 18.9451 12.5063 18.9451 10.4941C18.9451 9.875 18.9142 9.31779 18.7904 8.82249H9.875Z" fill="inherit"/>
    <path d="M26.9009 6.65558C23.4338 6.65558 20.5858 9.28685 20.5858 12.9397C20.5858 16.5615 23.4028 19.2238 26.9009 19.2238C30.3679 19.2238 33.2159 16.5615 33.2159 12.9397C33.2159 9.28685 30.3679 6.65558 26.9009 6.65558ZM26.9009 16.7473C25.0125 16.7473 23.3719 15.1685 23.3719 12.9397C23.3719 10.6799 25.0125 9.13207 26.9009 9.13207C28.7892 9.13207 30.4299 10.6799 30.4299 12.9397C30.4608 15.1685 28.8201 16.7473 26.9009 16.7473Z" fill="inherit"/>
    <path d="M57.795 8.07955H57.7021C57.083 7.3366 55.9067 6.68652 54.3898 6.68652C51.2633 6.68652 48.5082 9.41066 48.5082 12.9706C48.5082 16.4996 51.2323 19.2547 54.3898 19.2547C55.9067 19.2547 57.083 18.5737 57.7021 17.8307H57.795V18.6975C57.795 21.0811 56.4948 22.3813 54.4517 22.3813C52.7801 22.3813 51.7276 21.174 51.2942 20.1524L48.9106 21.143C49.5916 22.8147 51.418 24.8578 54.4827 24.8578C57.7021 24.8578 60.4572 22.9694 60.4572 18.326V7.02704H57.8569V8.07955H57.795ZM54.6375 16.7473C52.7492 16.7473 51.2942 15.1375 51.2942 12.9397C51.2942 10.7108 52.7492 9.13205 54.6375 9.13205C56.5258 9.13205 57.9807 10.7418 57.9807 12.9706C57.9807 15.1685 56.4949 16.7473 54.6375 16.7473Z" fill="inherit"/>
    <path d="M40.9549 6.65558C37.4879 6.65558 34.6399 9.28685 34.6399 12.9397C34.6399 16.5615 37.4569 19.2238 40.9549 19.2238C44.453 19.2238 47.27 16.5615 47.27 12.9397C47.27 9.28685 44.422 6.65558 40.9549 6.65558ZM40.9549 16.7473C39.0666 16.7473 37.4259 15.1685 37.4259 12.9397C37.4259 10.6799 39.0666 9.13207 40.9549 9.13207C42.8433 9.13207 44.4839 10.6799 44.4839 12.9397C44.5149 15.1685 42.8742 16.7473 40.9549 16.7473Z" fill="inherit"/>
    <path d="M62.5623 0.24762H65.2864V19.2237H62.5623V0.24762Z" fill="inherit"/>
    <path d="M73.6446 16.7473C72.2516 16.7473 71.261 16.0972 70.6109 14.8589L79 11.3919L78.7214 10.6799C78.1951 9.28683 76.6164 6.68652 73.366 6.68652C70.1466 6.68652 67.4534 9.22492 67.4534 12.9706C67.4534 16.4996 70.1156 19.2547 73.6755 19.2547C76.5545 19.2547 78.2261 17.4902 78.9071 16.4687L76.7712 15.0447C76.0282 16.0662 75.0686 16.7473 73.6446 16.7473ZM73.4589 9.00823C74.5733 9.00823 75.5329 9.5964 75.8425 10.4013L70.1775 12.7539C70.1775 10.1227 72.0349 9.00823 73.4589 9.00823Z" fill="inherit"/>
    </g>
  </symbol>

  <symbol id="icon-mail" width="70" height="21" viewBox="0 0 70 21" fill="inherit" xmlns="http://www.w3.org/2000/svg">
    <g opacity="inherit">
    <path d="M13.6291 10.6542C13.5133 8.41033 11.8505 7.06099 9.84328 7.06099H9.76715C7.45009 7.06099 6.16455 8.88644 6.16455 10.9603C6.16455 13.2822 7.71968 14.7498 9.75794 14.7498C12.0309 14.7498 13.5258 13.0817 13.6336 11.1079L13.6291 10.6542ZM9.77872 5.05366C11.3269 5.05366 12.7827 5.73921 13.8513 6.81229V6.81607C13.8513 6.30094 14.1973 5.91293 14.6784 5.91293L14.7993 5.91139C15.5513 5.91139 15.7056 6.62438 15.7056 6.85013L15.7099 14.8637C15.6561 15.3883 16.2501 15.6591 16.5793 15.3228C17.8629 14.0004 19.3993 8.52456 15.7803 5.35191C12.4067 2.39401 7.88092 2.88159 5.47415 4.54384C2.9163 6.31217 1.27878 10.2247 2.86932 13.9011C4.6034 17.9101 9.56436 19.1054 12.5123 17.9124C14.0054 17.3085 14.6949 19.331 13.1444 19.9916C10.8019 20.9919 4.27998 20.8912 1.23333 15.6036C-0.825106 12.0338 -0.715333 5.75245 4.74363 2.49772C8.92 0.00777781 14.4258 0.696755 17.7457 4.17074C21.2162 7.80271 21.0139 14.6028 17.6293 17.2477C16.0944 18.4485 13.8175 17.2789 13.8316 15.5283L13.8158 14.9564C12.7473 16.0184 11.3268 16.6375 9.7786 16.6375C6.71979 16.6375 4.0275 13.9415 4.0275 10.8767C4.02762 7.78142 6.71991 5.05378 9.77872 5.05366Z" fill="inherit"/>
    <path d="M68.0111 15.6822C66.2739 15.6816 64.7246 14.3428 64.7246 12.3691L64.7269 2.35856C64.7246 1.60324 64.1103 1.07498 63.3586 1.07498C62.4854 1.07852 61.9811 1.72233 61.9811 2.35856V12.3801C61.9709 15.7742 64.7733 18.4366 67.9633 18.4366C68.9107 18.4366 69.3675 17.667 69.3675 17.0145C69.3674 16.3914 68.8774 15.6827 68.0111 15.6822ZM48.082 15.8021C45.6153 15.8021 43.617 13.8006 43.617 11.3314C43.617 8.86069 45.6153 6.8595 48.082 6.8595C50.5482 6.8595 52.5481 8.86069 52.5481 11.3314C52.5481 13.8006 50.5482 15.8021 48.082 15.8021ZM53.8514 4.23793C53.081 4.23746 52.5357 4.85513 52.5357 5.45742V5.92703C51.3203 4.88931 49.7456 4.24539 48.0435 4.24243C44.3015 4.23734 40.9876 7.39593 40.9876 11.3464C40.9876 14.9695 44.1453 18.4296 48.0435 18.4296C49.6214 18.4296 51.3172 17.8221 52.5227 16.7913L52.5264 17.1268C52.5264 17.7701 53.0344 18.4296 53.8706 18.4296C54.8188 18.4296 55.2431 17.6699 55.2431 17.0706V5.53122C55.2537 4.98912 54.6598 4.23947 53.8514 4.23793ZM58.6154 4.23545C57.7946 4.23794 57.2657 4.91213 57.2644 5.59602L57.2671 17.0926C57.2619 17.8568 57.8642 18.4248 58.6103 18.4248C59.4602 18.4248 60.0045 17.7591 60.0045 17.0336L60.0093 5.61506C60.0093 4.93957 59.3288 4.23309 58.6154 4.23545ZM35.2527 4.24255C33.5716 4.2183 32.2846 5.19583 31.4908 5.84614C30.6098 4.90042 29.481 4.3232 28.3211 4.2513C27.0987 4.17502 25.9514 4.58786 25.2232 5.18105C24.9671 4.58786 24.6312 4.23805 24.0544 4.23805C23.4223 4.23805 22.7501 4.78003 22.7501 5.66225C22.7501 6.54446 22.7584 17.1067 22.7584 17.1067C22.7584 17.7639 23.318 18.4297 24.1183 18.4297C24.9993 18.4297 25.4872 17.7547 25.4872 17.1019V8.61364C25.4872 7.78748 26.8963 6.80924 28.0886 6.82533C28.8497 6.83585 29.7543 7.5868 29.7543 8.77388L29.7614 17.1224C29.7614 17.8598 30.5023 18.4251 31.1749 18.4251C31.9749 18.4251 32.5802 17.8199 32.5802 17.1301V8.6937C32.5802 7.65917 34.1479 6.79316 35.2208 6.84922C36.0618 6.89344 36.8058 7.81184 36.8058 8.6937V17.1184C36.8058 17.8473 37.4895 18.4251 38.227 18.4251C38.8742 18.4251 39.6232 17.996 39.6232 17.1067V8.71747C39.6314 5.63848 36.5972 4.20269 35.2527 4.24255ZM59.9966 1.98072C59.9966 2.55298 59.4255 3.02199 58.603 3.02199C57.7763 3.02199 57.26 2.45411 57.26 1.91875L57.2608 1.18176C57.2703 0.624172 57.7561 0 58.5956 0C59.5151 0 59.9967 0.597445 59.9967 1.18176L59.9966 1.98072Z" fill="inherit"/>
    </g>
  </symbol>

  <symbol id="icon-yandex" width="69" height="29" viewBox="0 0 69 29" fill="inherit" xmlns="http://www.w3.org/2000/svg">
    <g opacity="inherit">
    <path d="M11.2055 0.95105H7.53356C3.92646 0.95105 0.859351 3.69417 0.859351 9.02922C0.859351 12.2259 2.34971 14.6019 4.98483 15.7682L0.0601748 24.6888C-0.0910208 24.9696 0.0601742 25.2072 0.319367 25.2072H2.6089C2.80329 25.2072 2.93289 25.1424 2.99769 24.9912L7.49036 16.2218H9.11031V24.9912C9.11031 25.0776 9.19671 25.2072 9.32631 25.2072H11.335C11.5294 25.2072 11.5942 25.1208 11.5942 24.948V1.27504C11.5726 1.05905 11.443 0.95105 11.2055 0.95105ZM9.08871 14.1483H7.72795C5.58962 14.1483 3.53767 12.5931 3.53767 8.70523C3.53767 4.66614 5.48162 3.00299 7.44716 3.00299H9.08871V14.1483Z" fill="inherit"/>
    <path d="M23.3443 9.00763H21.3356C21.1844 9.00763 21.0764 9.13723 21.0764 9.22362V15.401H17.3613V9.22362C17.3613 9.07243 17.2965 9.00763 17.1453 9.00763H15.1366C14.9854 9.00763 14.8774 9.09403 14.8774 9.22362V24.948C14.8774 25.0992 14.9422 25.2072 15.0934 25.2072H17.1237C17.2533 25.2072 17.3397 25.1208 17.3397 24.948V17.453H21.0548V24.948C21.0548 25.0992 21.1412 25.2072 21.314 25.2072H23.3227C23.4739 25.2072 23.5387 25.0776 23.5387 24.948V9.22362C23.5603 9.09403 23.4523 9.00763 23.3443 9.00763Z" fill="inherit"/>
    <path d="M68.9838 24.1704L68.7246 23.0688C68.703 22.9824 68.6598 22.9392 68.5734 22.9392C68.4222 22.9392 67.5367 23.2848 66.2839 23.2848C63.8432 23.2848 62.6336 20.9305 62.6336 17.1722C62.6336 13.8675 63.6272 10.606 65.3119 10.606C65.7655 10.606 66.3055 10.7356 67.1911 11.5347C67.2775 11.6211 67.3423 11.6643 67.4503 11.6643C67.5367 11.6643 67.6446 11.5995 67.731 11.4267L68.595 10.0012C68.6598 9.89319 68.6814 9.80679 68.6814 9.69879C68.6814 9.5692 68.5518 9.4828 68.3574 9.3748C67.0399 8.70522 66.1327 8.57562 65.3551 8.57562C62.3312 8.57562 59.9769 12.2043 59.9769 17.8634C59.9769 22.7448 62.2448 25.5527 65.4631 25.5527C66.8239 25.5527 68.271 24.9048 68.8542 24.4944C68.9838 24.4296 69.027 24.3 68.9838 24.1704Z" fill="inherit"/>
    <path d="M54.9658 16.3082L58.8321 9.22362C58.8969 9.13722 58.8537 9.00762 58.7457 9.00762H56.8449C56.305 9.00762 56.1106 9.20202 55.9162 9.61241L53.0219 15.6602C52.8707 16.0058 52.6979 16.2434 52.5467 16.3298V9.20202C52.5467 9.07242 52.4819 8.98602 52.3523 8.98602H50.2571C50.1707 8.98602 50.0627 9.07242 50.0627 9.20202V24.948C50.0627 25.0344 50.1275 25.164 50.2571 25.164H52.3523C52.4819 25.164 52.5467 25.0776 52.5467 24.948V16.8266C52.6331 16.8914 52.6979 16.9778 52.7627 17.1074L56.4346 24.6672C56.629 25.056 56.9097 25.1424 57.3417 25.1424H59.4153C59.5449 25.1424 59.5665 25.0128 59.5017 24.9264L54.9658 16.3082Z" fill="inherit"/>
    <path d="M36.4983 23.1768H36.1095C35.6343 23.1768 35.5047 22.9824 35.5047 22.5936V9.22362C35.5047 9.07243 35.4399 9.00763 35.3103 9.00763H28.8521C28.7009 9.00763 28.5929 9.09403 28.5929 9.22362V10.39C28.5929 14.2995 28.3769 19.3537 26.3034 23.1768H25.5906C25.3962 23.1768 25.3314 23.2848 25.3314 23.436C25.3314 23.436 25.3314 27.3239 25.3314 28.1663C25.3314 28.3391 25.461 28.3823 25.5474 28.3823H27.1026C27.4482 28.3823 27.5778 28.1231 27.5778 27.9071V25.2288H34.4896V28.1447C34.4896 28.2743 34.576 28.3607 34.7056 28.3607H36.3471C36.5415 28.3607 36.7359 28.2095 36.7359 27.8855V23.4144C36.7575 23.2632 36.6495 23.1768 36.4983 23.1768ZM32.9992 23.1768H28.3337C29.9753 20.3689 30.6233 17.1938 30.8393 13.3059C30.9041 12.4635 30.9257 11.5996 30.9257 11.038H32.9992V23.1768Z" fill="inherit"/>
    <path d="M43.0645 8.61884C39.587 8.61884 38.0319 13.0251 38.0319 17.7986C38.0319 22.68 40.235 25.5959 43.4533 25.5959C45.0301 25.5959 46.4124 24.9912 47.1252 24.5376C47.2548 24.4728 47.2764 24.3864 47.2548 24.2568L46.9956 23.1552C46.974 23.0256 46.9092 22.9608 46.7364 22.9608C46.6068 22.9608 45.678 23.3064 44.3605 23.3064C41.8766 23.3064 40.7102 21.1465 40.7102 18.2954C40.7102 17.9066 40.7102 17.5394 40.7102 17.5394C40.7102 17.5394 41.9629 17.6906 42.7189 17.6906H47.4276V16.3298C47.4276 11.2972 45.6564 8.61884 43.0645 8.61884ZM42.7189 15.6386C41.9845 15.6386 40.8182 15.7682 40.8182 15.7682C40.8182 15.7682 40.8182 15.293 40.883 14.7747C41.1638 12.0315 41.8549 10.6276 42.9781 10.6276C44.0149 10.6276 44.6629 12.0531 44.8141 14.5371C44.8357 15.0554 44.8357 15.6386 44.8357 15.6386H42.7189Z" fill="inherit"/>
    </g>
  </symbol>

  <symbol id="icon-facebook" width="92" height="19" viewBox="0 0 92 19" fill="inherit" xmlns="http://www.w3.org/2000/svg">
    <g opacity="inherit">
    <path fill="inherit" d="M7.19945 3.6801C6.11634 3.6801 5.79778 4.16856 5.79778 5.23042V6.99312H8.68606L8.38874 9.83892H5.79778V18.4613H2.3361V9.83892H0V6.99312H2.3361V5.29414C2.3361 2.4271 3.48292 0.91925 6.71099 0.91925C7.41182 0.91925 8.21884 0.961726 8.72853 1.04668V3.72257"/>
    <path fill="inherit" d="M8.91968 12.3449C8.91968 9.1381 10.4275 6.73828 13.6131 6.73828C15.3546 6.73828 16.3952 7.63025 16.9049 8.73459V6.97189H20.2179V18.44H16.9049V16.6986C16.4164 17.8029 15.3333 18.6736 13.6131 18.6736C10.4275 18.6736 8.91968 16.2738 8.91968 13.067V12.3449ZM12.3814 13.1095C12.3814 14.8297 13.0185 15.9553 14.6113 15.9553C16.0342 15.9553 16.7562 14.9146 16.7562 13.2794V12.1326C16.7562 10.4973 16.0342 9.45665 14.6113 9.45665C12.9972 9.45665 12.3814 10.5822 12.3814 12.3025V13.1095Z"/>
    <path fill="inherit" d="M27.4598 6.73828C28.7978 6.73828 30.0932 7.0356 30.7728 7.50282L30.0083 9.96635C29.4774 9.7115 28.6066 9.43542 27.6934 9.43542C25.8245 9.43542 24.9963 10.5185 24.9963 12.3662V13.0458C24.9963 14.8934 25.8245 15.9765 27.6934 15.9765C28.6066 15.9765 29.4774 15.7217 30.0083 15.4456L30.7728 17.9091C30.072 18.3976 28.7978 18.6736 27.4598 18.6736C23.3823 18.6736 21.5346 16.4862 21.5346 12.9608V12.4299C21.5346 8.92572 23.4035 6.73828 27.4598 6.73828Z"/>
    <path fill="inherit" d="M31.2401 13.1519V12.1326C31.2401 8.88325 33.0877 6.73828 36.8679 6.73828C40.4358 6.73828 41.9861 8.90448 41.9861 12.0901V13.9165H34.7017C34.7654 15.488 35.4663 16.1889 37.3989 16.1889C38.6943 16.1889 40.0748 15.934 41.0729 15.488L41.6888 17.8666C40.7756 18.3551 38.9067 18.7161 37.229 18.7161C32.8753 18.6949 31.2401 16.5074 31.2401 13.1519ZM34.7017 11.6441H38.8855V11.3468C38.8855 10.0938 38.3758 9.11686 36.8679 9.11686C35.3176 9.11686 34.7017 10.115 34.7017 11.6441Z"/>
    <path fill="inherit" d="M54.856 13.067C54.856 16.2738 53.3056 18.6736 50.1413 18.6736C48.3998 18.6736 47.2105 17.8029 46.7221 16.6986V18.44H43.4515V1.21657L46.9132 0.89801V8.56467C47.4229 7.54528 48.5273 6.73827 50.1413 6.73827C53.3269 6.73827 54.856 9.13808 54.856 12.3449V13.067ZM51.3943 12.2812C51.3943 10.6672 50.7572 9.45664 49.1007 9.45664C47.6778 9.45664 46.9132 10.476 46.9132 12.1113V13.3218C46.9132 14.9571 47.6778 15.9765 49.1007 15.9765C50.7572 15.9765 51.3943 14.766 51.3943 13.1519V12.2812Z"/>
    <path fill="inherit" d="M56.024 13.0033V12.4299C56.024 9.13809 57.8929 6.73828 61.7369 6.73828C65.5596 6.73828 67.4497 9.11686 67.4497 12.4299V13.0033C67.4497 16.2951 65.5808 18.6949 61.7369 18.6949C57.8929 18.6736 56.024 16.2951 56.024 13.0033ZM63.9668 12.175C63.9668 10.6672 63.3297 9.45665 61.7369 9.45665C60.1228 9.45665 59.507 10.6672 59.507 12.175V13.2369C59.507 14.7447 60.1228 15.9553 61.7369 15.9553C63.3509 15.9553 63.9668 14.7447 63.9668 13.2369V12.175Z"/>
    <path fill="inherit" d="M68.5753 13.0033V12.4299C68.5753 9.13809 70.4441 6.73828 74.2881 6.73828C78.1108 6.73828 80.0009 9.11686 80.0009 12.4299V13.0033C80.0009 16.2951 78.132 18.6949 74.2881 18.6949C70.4654 18.6736 68.5753 16.2951 68.5753 13.0033ZM76.518 12.175C76.518 10.6672 75.8809 9.45665 74.2881 9.45665C72.6741 9.45665 72.0582 10.6672 72.0582 12.175V13.2369C72.0582 14.7447 72.6741 15.9553 74.2881 15.9553C75.9021 15.9553 76.518 14.7447 76.518 13.2369V12.175Z"/>
    <path fill="inherit" d="M84.7581 12.4511L88.1773 6.97188H91.8726L88.2835 12.6422L92 18.44H88.3259L84.7581 12.8334V18.44H81.2964V1.21657L84.7581 0.91925"/>
    </g>
  </symbol>

  <symbol id="icon-tooligram" width="123" height="33" viewBox="0 0 123 33" fill="inherit" xmlns="http://www.w3.org/2000/svg">
    <g opacity="inherit" clip-path="url(#clip0)">
      <path fill="inherit" d="M12.0839 32.6979C11.109 32.5015 10.1564 32.2102 9.23975 31.8284C8.33997 31.4523 7.47929 30.9914 6.6693 30.4522C5.86571 29.9164 5.11564 29.3062 4.4297 28.6298C3.74359 27.953 3.12457 27.2133 2.581 26.4205C2.03399 25.6218 1.56673 24.7728 1.1857 23.8853C0.798944 22.9812 0.504106 22.0416 0.305053 21.0802C0.0997269 20.0901 -0.00355074 19.0821 -0.00292688 18.0715V1.57149L4.99297 0.00396729C4.95614 0.350931 4.93737 0.699549 4.93742 1.04841V6.08588L19.9116 1.60366V6.73348L4.93742 11.3345V17.904C4.9403 20.5697 6.01527 23.1254 7.92654 25.0103C9.83781 26.8952 12.4293 27.9555 15.1322 27.9583C17.8356 27.9561 20.4277 26.8962 22.3395 25.0112C24.2513 23.1262 25.3266 20.5701 25.3295 17.904V15.1518L9.91902 19.6753V14.3821L29.3651 8.82901L30.2719 8.56913V18.0715C30.272 19.082 30.169 20.09 29.9647 21.0802C29.7652 22.0417 29.4698 22.9813 29.0824 23.8853C28.7018 24.7728 28.2348 25.6219 27.6879 26.4205C27.1445 27.2133 26.5254 27.9531 25.8392 28.6298C25.1532 29.3061 24.4032 29.9164 23.5996 30.4522C22.7895 30.9918 21.9286 31.4526 21.0284 31.8284C20.1118 32.2102 19.1587 32.5015 18.1838 32.6979C17.1798 32.8999 16.1577 33.0016 15.133 33.0015C14.1089 33.0015 13.0873 32.8998 12.0839 32.6979Z"/>
      <path fill="inherit" d="M46.1146 19.8156H47.6488V12.8972H48.9136C48.9485 12.8926 48.9841 12.8959 49.0175 12.9071C49.0509 12.9182 49.0812 12.9368 49.1061 12.9614C49.1311 12.986 49.1499 13.0159 49.1612 13.0488C49.1725 13.0818 49.1759 13.1168 49.1712 13.1513V13.6463H50.5264V12.3543C50.5264 11.8115 50.3273 11.6118 49.7735 11.6118H43.9714C43.4209 11.6118 43.2336 11.8082 43.2336 12.3543V13.6479H44.5804V13.1529C44.5754 13.1183 44.5786 13.0831 44.5898 13.0499C44.6009 13.0168 44.6197 12.9866 44.6447 12.9619C44.6697 12.9371 44.7001 12.9183 44.7337 12.9071C44.7672 12.8959 44.8029 12.8925 44.838 12.8972H46.1146V19.8156ZM52.064 15.6576C52.0503 16.2207 52.1518 16.7806 52.3622 17.3042C52.5727 17.8277 52.8878 18.3042 53.2888 18.7051C53.6899 19.106 54.1687 19.4232 54.6967 19.6378C55.2246 19.8524 55.791 19.96 56.3621 19.9542C56.9331 19.96 57.4995 19.8524 58.0274 19.6378C58.5554 19.4232 59.0342 19.106 59.4353 18.7051C59.8363 18.3042 60.1515 17.8277 60.3619 17.3042C60.5723 16.7806 60.6738 16.2207 60.6601 15.6576C60.6655 15.1022 60.5575 14.5514 60.3426 14.038C60.1277 13.5245 59.8104 13.0589 59.4094 12.6689C59.0085 12.2788 58.5321 11.9723 58.0085 11.7674C57.485 11.5626 56.9251 11.4637 56.3621 11.4765C55.799 11.4637 55.2391 11.5626 54.7156 11.7674C54.192 11.9723 53.7156 12.2788 53.3147 12.6689C52.9137 13.0589 52.5964 13.5245 52.3815 14.038C52.1666 14.5514 52.0587 15.1022 52.064 15.6576ZM53.6534 15.6576C53.6428 15.2992 53.7049 14.9423 53.8359 14.6079C53.967 14.2735 54.1645 13.9682 54.4168 13.71C54.6691 13.4518 54.9711 13.2459 55.3051 13.1044C55.6392 12.9628 55.9985 12.8884 56.3621 12.8856C56.7253 12.8889 57.0843 12.9636 57.4179 13.1053C57.7516 13.2471 58.0532 13.4531 58.3051 13.7112C58.5571 13.9693 58.7542 14.2744 58.8851 14.6087C59.016 14.9429 59.078 15.2995 59.0674 15.6576C59.0857 16.0233 59.0299 16.3888 58.9032 16.7329C58.7765 17.077 58.5815 17.3928 58.3295 17.6616C58.0776 17.9305 57.7739 18.1471 57.436 18.2988C57.0982 18.4505 56.7331 18.5343 56.3621 18.5451C55.991 18.5343 55.6259 18.4505 55.2881 18.2988C54.9502 18.1471 54.6465 17.9305 54.3946 17.6616C54.1426 17.3928 53.9476 17.077 53.8209 16.7329C53.6943 16.3888 53.6384 16.0233 53.6567 15.6576H53.6534ZM62.5306 15.6576C62.517 16.2209 62.6185 16.7812 62.8292 17.305C63.0398 17.8287 63.3553 18.3053 63.7567 18.7063C64.1581 19.1073 64.6373 19.4244 65.1656 19.6388C65.694 19.8532 66.2608 19.9605 66.8321 19.9542C67.4031 19.96 67.9695 19.8524 68.4974 19.6378C69.0254 19.4232 69.5042 19.106 69.9053 18.7051C70.3063 18.3042 70.6215 17.8277 70.8319 17.3042C71.0423 16.7806 71.1438 16.2207 71.1302 15.6576C71.1355 15.1022 71.0275 14.5514 70.8126 14.038C70.5978 13.5245 70.2804 13.0589 69.8794 12.6689C69.4785 12.2788 69.0021 11.9723 68.4786 11.7674C67.955 11.5626 67.3951 11.4637 66.8321 11.4765C66.269 11.4637 65.7091 11.5626 65.1856 11.7674C64.6621 11.9723 64.1857 12.2788 63.7847 12.6689C63.3837 13.0589 63.0664 13.5245 62.8515 14.038C62.6366 14.5514 62.5287 15.1022 62.534 15.6576H62.5306ZM64.12 15.6576C64.1094 15.2989 64.1716 14.9418 64.3029 14.6071C64.4342 14.2725 64.632 13.9671 64.8846 13.7089C65.1373 13.4506 65.4397 13.2448 65.7741 13.1034C66.1085 12.962 66.4682 12.888 66.8321 12.8856C67.1953 12.8889 67.5543 12.9636 67.8879 13.1053C68.2216 13.2471 68.5232 13.4531 68.7751 13.7112C69.0271 13.9693 69.2242 14.2744 69.3551 14.6087C69.486 14.9429 69.548 15.2995 69.5374 15.6576C69.5557 16.0233 69.4999 16.3888 69.3732 16.7329C69.2465 17.077 69.0515 17.3928 68.7996 17.6616C68.5476 17.9305 68.2439 18.1471 67.906 18.2988C67.5682 18.4505 67.2031 18.5343 66.8321 18.5451C66.461 18.5343 66.0959 18.4505 65.7581 18.2988C65.4202 18.1471 65.1165 17.9305 64.8646 17.6616C64.6127 17.3928 64.4176 17.077 64.291 16.7329C64.1643 16.3888 64.1084 16.0233 64.1267 15.6576H64.12ZM73.7535 19.0302C73.7535 19.5846 73.9995 19.8156 74.5499 19.8156H78.2156C78.7777 19.8156 79.0119 19.5846 79.0119 19.0302V17.7828H77.63V18.2778C77.6337 18.3121 77.6296 18.3467 77.6179 18.3792C77.6063 18.4117 77.5874 18.4412 77.5627 18.4656C77.538 18.4899 77.5081 18.5085 77.4751 18.52C77.4422 18.5315 77.4071 18.5356 77.3723 18.5319H75.5454C75.5106 18.5356 75.4755 18.5315 75.4426 18.52C75.4096 18.5085 75.3797 18.4899 75.355 18.4656C75.3303 18.4412 75.3114 18.4117 75.2998 18.3792C75.2881 18.3467 75.284 18.3121 75.2877 18.2778V12.4005C75.2877 11.8577 75.0535 11.6151 74.503 11.6151H72.9923V12.8972H73.4942C73.5289 12.8935 73.5641 12.8976 73.597 12.9091C73.6299 12.9206 73.6598 12.9392 73.6845 12.9635C73.7092 12.9879 73.7281 13.0174 73.7398 13.0499C73.7514 13.0824 73.7555 13.117 73.7518 13.1513L73.7535 19.0302ZM80.8038 19.8156H83.9307V18.5336H83.0992V12.8972H83.9307V11.6151H80.8038V12.8972H81.6453V18.5336H80.8038V19.8156ZM85.8631 15.6692C85.8254 16.2162 85.9017 16.7651 86.0875 17.2819C86.2732 17.7988 86.5644 18.2726 86.943 18.6741C87.3216 19.0756 87.7796 19.3964 88.2888 19.6166C88.798 19.8367 89.3476 19.9517 89.9036 19.9542C90.803 19.9729 91.6769 19.6586 92.3529 19.0731H92.3763C92.3763 19.0731 92.3646 19.2464 92.3646 19.4196V19.8156H93.6746V16.316C93.6746 15.7731 93.4404 15.5421 92.89 15.5421H91.5314V16.8242H92.0334C92.0683 16.8196 92.1039 16.8229 92.1373 16.8341C92.1706 16.8452 92.201 16.8638 92.2259 16.8884C92.2508 16.913 92.2697 16.9429 92.281 16.9758C92.2923 17.0088 92.2957 17.0438 92.291 17.0783V17.6904C91.7309 18.2396 90.9727 18.547 90.183 18.5451C89.8071 18.5465 89.4351 18.4712 89.0901 18.324C88.7452 18.1767 88.4349 17.9608 88.1786 17.6896C87.9224 17.4184 87.7257 17.098 87.6011 16.7483C87.4764 16.3986 87.4264 16.0273 87.4542 15.6576C87.4375 15.3003 87.4941 14.9434 87.6204 14.6081C87.7468 14.2729 87.9404 13.9662 88.1896 13.7063C88.4389 13.4465 88.7387 13.2389 89.0711 13.0959C89.4035 12.9529 89.7617 12.8775 90.1244 12.8741C90.8961 12.8822 91.6442 13.1376 92.2559 13.6017L93.1225 12.516C92.2917 11.7936 91.2072 11.4204 90.101 11.4765C89.5407 11.4672 88.9843 11.5694 88.465 11.777C87.9457 11.9845 87.4741 12.2932 87.0785 12.6846C86.6829 13.076 86.3714 13.542 86.1626 14.0548C85.9538 14.5676 85.8519 15.1167 85.8631 15.6692ZM96.3917 19.8156H97.9259V16.7549H98.6988C99.1439 16.7549 99.3078 16.8126 99.4835 17.136L100.561 19.2035C100.83 19.7232 101.1 19.8156 101.72 19.8156H102.517V18.5336H102.365C102.107 18.5336 101.908 18.5105 101.791 18.2679L100.969 16.6856C100.88 16.5091 100.736 16.3648 100.559 16.2731V16.25C100.997 16.0871 101.37 15.7886 101.621 15.3991C101.872 15.0097 101.989 14.5504 101.953 14.0901C101.97 13.7539 101.915 13.4178 101.79 13.1045C101.665 12.7912 101.473 12.5078 101.228 12.2734C100.983 12.039 100.69 11.859 100.369 11.7455C100.047 11.632 99.705 11.5875 99.3647 11.6151H95.6304V12.8972H96.3917V19.8156ZM97.9259 15.4613V12.8972H99.1673C99.3359 12.8858 99.5049 12.9115 99.6621 12.9725C99.8194 13.0335 99.9609 13.1283 100.076 13.2499C100.192 13.3716 100.278 13.517 100.33 13.6758C100.381 13.8345 100.396 14.0025 100.374 14.1677C100.397 14.336 100.382 14.5073 100.33 14.6692C100.277 14.8311 100.189 14.9794 100.071 15.1033C99.9533 15.2273 99.8089 15.3237 99.6485 15.3856C99.4881 15.4476 99.3157 15.4734 99.1439 15.4613H97.9259ZM104.028 19.8156H104.953C105.538 19.8156 105.749 19.6655 105.925 19.1457L106.452 17.7135H109.251L109.778 19.1457C109.954 19.6655 110.164 19.8156 110.75 19.8156H111.663V18.5336H111.476C111.277 18.5336 111.195 18.4874 111.113 18.2795L108.654 11.6151H107.049L104.578 18.2795C104.508 18.4874 104.426 18.5336 104.227 18.5336H104.028V19.8156ZM106.803 16.4661L107.506 14.4102C107.658 13.9598 107.834 13.1859 107.834 13.1859H107.857C107.857 13.1859 108.045 13.9598 108.197 14.4102L108.911 16.4661H106.803ZM113.233 19.8156H114.556C115.107 19.8156 115.309 19.5846 115.341 19.0302L115.622 15.3804C115.649 14.9536 115.653 14.5256 115.634 14.0984H115.657C115.657 14.0984 115.915 14.9184 116.114 15.3804L117.496 18.4065H118.737L120.119 15.3804C120.293 14.9647 120.445 14.5407 120.576 14.1099H120.599C120.58 14.5333 120.584 14.9574 120.611 15.3804L120.892 19.0302C120.927 19.5846 121.126 19.8156 121.677 19.8156H123V18.5336H122.635C122.468 18.5336 122.389 18.4412 122.378 18.2795L121.841 11.6151H120.251L118.536 15.519C118.337 15.9926 118.126 16.6163 118.126 16.6163H118.103C118.103 16.6163 117.892 15.9926 117.693 15.519L115.985 11.6151H114.395L113.852 18.2795C113.84 18.4445 113.758 18.5336 113.594 18.5336H113.233V19.8156Z"/>
    </g>
    <defs>
    <clipPath id="clip0">
    <rect width="123" height="33" fill="inherit"/>
    </clipPath>
    </defs>
  </symbol>

  <symbol id="icon-check" width="9" height="5" viewBox="0 0 9 5" fill="none" xmlns="http://www.w3.org/2000/svg">
    <path fill-rule="evenodd" clip-rule="evenodd" d="M0.146447 0.146447C-0.0488155 0.341709 -0.0488156 0.658291 0.146447 0.853553L3.68198 4.38909C3.70029 4.40739 3.71966 4.42398 3.7399 4.43886C3.77086 4.46161 3.80385 4.48035 3.83815 4.49507C4.02059 4.57338 4.24015 4.53806 4.38911 4.3891L7.92464 0.853568C8.11991 0.658306 8.11991 0.341723 7.92464 0.146461C7.72938 -0.048801 7.4128 -0.0488011 7.21754 0.146461L4.03555 3.32845L0.853554 0.146447C0.658291 -0.0488155 0.341709 -0.0488155 0.146447 0.146447Z" fill="white"/>
  </symbol>
  <view id="icon-check-view" viewBox="0 0 9 5" />
  <use xlink:href="#icon-check" width="9" height="5" x="0" y="0"></use>


</svg>

