<svg version="1.1"  xmlns="http://www.w3.org/2000/svg" xmlns:xlink="http://www.w3.org/1999/xlink">

  <symbol id="icon-logo" width="33" height="33" viewBox="0 0 33 33" fill="none" xmlns="http://www.w3.org/2000/svg">
    <path fill="#B3A4FF" d="M31.6867 10.1438C29.1247 4.13976 23.1712 0 16.4355 0C7.27482 0 0 7.55758 0 16.5645C0 25.6485 7.35081 33 16.4355 33C25.4523 33 33 25.7149 33 16.5645C33 14.3462 32.5582 12.186 31.6867 10.1438ZM30.213 11.6405C28.5196 10.3002 26.3314 9.3651 24.2361 8.76994C23.6414 6.67257 22.7082 4.484 21.3567 2.78599C25.4708 4.25996 28.7383 7.52677 30.213 11.6405ZM24.3104 15.5982C24.8381 15.6046 25.2656 16.0352 25.2656 16.5645C25.2656 17.0937 24.8381 17.5244 24.3104 17.5307C24.3066 17.5304 24.303 17.5296 24.2993 17.5294C24.2831 17.5284 24.2672 17.5291 24.2513 17.5289C23.7405 17.5038 23.3324 17.0818 23.3321 16.5651C23.3321 16.5649 23.3321 16.5647 23.3321 16.5645C23.3321 16.5642 23.3321 16.5641 23.3321 16.5638C23.3324 16.0537 23.73 15.6359 24.2315 15.6011C24.2338 15.6011 24.2361 15.6014 24.2383 15.6014C24.2585 15.6014 24.2788 15.6007 24.2993 15.5995C24.303 15.5992 24.3066 15.5985 24.3104 15.5982ZM17.4023 2.09408C19.2552 2.706 20.9474 5.02908 22.0448 8.25271C20.5621 7.96931 19.0014 7.79889 17.4023 7.74978V2.09408ZM17.4023 9.68421C19.2333 9.7437 21.0035 9.9718 22.6439 10.3538C22.904 11.4649 23.0971 12.6474 23.2107 13.8767C22.4454 14.1877 21.842 14.8159 21.5647 15.5977H17.4023V9.68421ZM17.4023 17.5312H21.5647C21.842 18.3131 22.4455 18.9414 23.2109 19.2523C23.1026 20.432 22.9213 21.5745 22.6729 22.6572C21.5469 22.9132 20.3554 23.1001 19.1236 23.2114C18.8128 22.4458 18.1844 21.8421 17.4023 21.5647V17.5312ZM11.5096 2.8032C10.8596 3.63509 10.2689 4.63959 9.75498 5.80297C9.72598 5.80213 9.69717 5.80078 9.66797 5.80078C7.8248 5.80078 6.42978 7.51337 6.83841 9.33584C5.2452 9.93854 3.88459 10.6968 2.80668 11.5629C4.2755 7.50163 7.47985 4.27595 11.5096 2.8032ZM10.6348 8.70117C10.6348 9.23426 10.2011 9.66797 9.66797 9.66797C9.13488 9.66797 8.70117 9.23426 8.70117 8.70117C8.70117 8.16808 9.13488 7.73438 9.66797 7.73438C10.2011 7.73438 10.6348 8.16808 10.6348 8.70117ZM7.90717 11.0038C7.99367 11.07 8.08371 11.1318 8.17743 11.1882C7.94108 12.5706 7.79399 14.0882 7.74933 15.5977H2.09099C2.66997 13.8044 4.81271 12.093 7.90717 11.0038ZM7.74901 17.5312C7.79599 19.1332 7.95925 20.6667 8.22344 22.1037C4.98996 21.039 2.69459 19.3811 2.09144 17.5312H7.74901ZM2.79179 21.4798C4.47595 22.8016 6.63609 23.6978 8.71774 24.2718C9.37864 26.6732 10.3432 28.7092 11.5222 30.2089C7.47257 28.7462 4.25513 25.5292 2.79179 21.4798ZM15.4688 30.9028C13.173 30.1325 11.649 27.0602 10.891 24.7697C11.7873 24.9358 12.7141 25.0618 13.6614 25.145C13.9301 26.0243 14.6062 26.727 15.4688 27.0329V30.9028ZM15.4688 21.5647C14.6868 21.8421 14.0584 22.4457 13.7475 23.2112C12.5463 23.1021 11.3955 22.9208 10.3157 22.678C9.95549 21.0711 9.74048 19.3337 9.6837 17.5312H15.4688V21.5647ZM15.4688 15.5977H9.6837C9.72688 14.2171 9.86068 12.8342 10.0735 11.5726C11.0472 11.4357 11.8674 10.8141 12.2807 9.95988C13.3176 9.81041 14.385 9.71921 15.4688 9.68473V15.5977ZM15.4688 7.75036C14.4561 7.78065 13.4561 7.85813 12.4783 7.98291C12.3291 7.39967 12.0023 6.8872 11.5597 6.50538C12.6184 4.14633 14.0124 2.58367 15.4688 2.09685V7.75036ZM16.4355 25.2656C15.9063 25.2656 15.4756 24.8381 15.4693 24.3104C15.4696 24.3067 15.4704 24.3031 15.4706 24.2993C15.4715 24.2833 15.4709 24.2676 15.4711 24.2518C15.4959 23.7406 15.9183 23.332 16.4355 23.332C16.9528 23.332 17.3752 23.7406 17.4 24.2518C17.4002 24.2677 17.3995 24.2834 17.4005 24.2993C17.4008 24.3031 17.4015 24.3067 17.4018 24.3104C17.3954 24.8381 16.9648 25.2656 16.4355 25.2656ZM17.4023 30.9084V27.0329C18.2649 26.727 18.9409 26.0244 19.2097 25.1451C20.1923 25.0589 21.1536 24.9269 22.0829 24.7524C21.3011 27.062 19.7175 30.1567 17.4023 30.9084ZM21.395 30.208C22.7537 28.5052 23.6744 26.329 24.2598 24.2494C26.3348 23.6735 28.5191 22.7694 30.2139 21.4424C28.7442 25.5085 25.492 28.7404 21.395 30.208ZM24.7679 22.0759C24.9352 21.1892 25.0614 20.2735 25.1446 19.3387C26.0241 19.0701 26.727 18.381 27.0329 17.5184H30.9019C30.1366 19.7771 27.0465 21.3183 24.7679 22.0759ZM27.0329 15.5977C26.727 14.735 26.0241 14.0588 25.1446 13.7902C25.0587 12.8215 24.9264 11.8725 24.7508 10.9538C27.0588 11.7424 30.1315 13.31 30.9019 15.5977H27.0329Z"/>
  </symbol>

  <symbol id="icon-instagram" width="120" height="27" viewBox="0 0 120 27" fill="inherit" xmlns="http://www.w3.org/2000/svg">
    <g opacity="inherit">
      <path fill-rule="evenodd" clip-rule="evenodd" fill="inherit" d="M19.1855 0.156128H8.10205C3.92485 0.156128 0.527405 3.55358 0.527405 7.73077V18.8143C0.527405 22.9914 3.92485 26.3889 8.10205 26.3889H19.1855C23.3627 26.3889 26.7602 22.9914 26.7602 18.8143V7.73077C26.7602 3.53501 23.3627 0.156128 19.1855 0.156128ZM24.3467 18.9999C24.3467 21.7661 22.1003 24.0311 19.3155 24.0311H7.97209C5.20586 24.0311 2.94089 21.7847 2.94089 18.9999V7.65651C2.94089 4.89028 5.18729 2.62531 7.97209 2.62531H19.3155C22.0817 2.62531 24.3467 4.87171 24.3467 7.65651V18.9999ZM13.6531 6.52402C9.90286 6.52402 6.85816 9.56872 6.85816 13.3189C6.85816 17.0691 9.90286 20.1138 13.6531 20.1138C17.4032 20.1138 20.448 17.0691 20.448 13.3189C20.448 9.56872 17.4032 6.52402 13.6531 6.52402ZM13.6531 17.7375C11.221 17.7375 9.23451 15.7695 9.23451 13.3189C9.23451 10.8869 11.2024 8.90037 13.6531 8.90037C16.0851 8.90037 18.0716 10.8683 18.0716 13.3189C18.053 15.751 16.0851 17.7375 13.6531 17.7375ZM22.2488 6.26407C22.2488 7.13561 21.5423 7.84212 20.6708 7.84212C19.7992 7.84212 19.0927 7.13561 19.0927 6.26407C19.0927 5.39254 19.7992 4.68602 20.6708 4.68602C21.5423 4.68602 22.2488 5.39254 22.2488 6.26407Z"/>
      <path fill-rule="evenodd" clip-rule="evenodd" fill="inherit" d="M42.2622 3.12655C42.5036 3.07085 42.7449 3.10798 42.9863 3.16368C43.339 3.25651 43.7103 3.34933 43.9888 3.57212C44.1373 3.68351 44.2673 3.8506 44.2487 4.05482C44.2487 7.4337 44.2487 10.794 44.2487 14.1729C44.2487 15.2868 44.3044 16.4007 44.1002 17.4961C43.9517 18.3872 43.5989 19.2784 42.9677 19.9281C42.7635 20.1695 42.5221 20.3737 42.2436 20.5222C42.0023 20.6522 41.7424 20.7636 41.4825 20.745C41.4268 20.6708 41.3711 20.5965 41.3711 20.5037C41.3896 20.2438 41.4825 19.9838 41.5753 19.7425C41.8352 18.9071 41.9095 18.0159 41.928 17.1433C41.9466 13.0404 41.9652 8.91892 41.9837 4.81599C41.9837 4.7046 41.9837 4.61177 41.9652 4.50038C41.8166 4.50038 41.7053 4.63034 41.5939 4.74173C41.0926 5.22443 40.6842 5.79995 40.4057 6.43117C40.0158 7.22948 39.8302 8.10205 39.7559 8.99318C39.6816 9.56871 39.7373 10.1442 39.8673 10.7012C39.9787 11.1282 40.1643 11.5552 40.4428 11.9079C40.5542 12.0565 40.6099 12.2607 40.4985 12.4278C40.35 12.5763 40.1086 12.502 39.9415 12.4463C39.3475 12.2421 38.8462 11.8337 38.4563 11.3324C37.9922 10.7383 37.788 9.97714 37.7694 9.23453C37.8065 8.58475 37.9922 7.93496 38.2335 7.32231C38.5863 6.41261 39.0875 5.57717 39.7559 4.85312C40.1829 4.40756 40.647 3.99912 41.1669 3.66494C41.501 3.4236 41.8538 3.21938 42.2622 3.12655ZM64.5406 3.29364C64.7262 3.12655 65.0047 3.14512 65.246 3.18225C65.673 3.25651 66.0815 3.34933 66.4714 3.53499C66.6013 3.59068 66.6941 3.66494 66.787 3.75777C66.7498 4.68604 66.7127 5.59574 66.657 6.524C67.5853 6.56113 68.5135 6.61683 69.4418 6.67252C69.6089 6.67252 69.8131 6.72822 69.8502 6.91387C69.8874 7.19235 69.8502 7.50796 69.7203 7.74931C69.646 7.87926 69.5346 8.04635 69.349 8.02779C68.4578 8.04635 67.5481 8.06492 66.657 8.08348C66.6013 9.38305 66.5642 10.6641 66.5271 11.9636C66.5085 13.1332 66.3971 14.3214 66.5271 15.5096C66.5827 15.9737 66.6384 16.4379 66.8612 16.8463C66.9541 17.032 67.1211 17.1805 67.3254 17.199C67.5853 17.2176 67.8638 17.1062 68.0494 16.9391C68.365 16.6606 68.5878 16.3079 68.7735 15.9366C68.9962 15.5096 69.1448 15.064 69.2933 14.5999C69.349 14.3957 69.3118 14.1915 69.3304 13.9872C69.349 12.9105 69.5161 11.8151 69.8874 10.8126C70.1659 10.07 70.5557 9.34592 71.1869 8.84466C71.8739 8.26914 72.8578 8.08349 73.6932 8.43623C74.2316 8.64044 74.6587 9.06744 74.9186 9.56871C74.9557 9.32736 74.9 9.06745 75.0114 8.84466C75.1599 8.60331 75.4755 8.58475 75.7354 8.62188C76.0696 8.65901 76.4224 8.75183 76.7194 8.91892C76.9051 9.03031 77.0907 9.1974 77.0907 9.42018C77.035 11.3881 76.9422 13.3746 77.0164 15.3425C77.035 15.7695 77.0907 16.1965 77.1835 16.6235C77.2578 16.9206 77.3506 17.2547 77.6105 17.459C77.8519 17.6446 78.1861 17.5889 78.4088 17.4033C78.7616 17.1248 78.9844 16.6978 79.1515 16.2893C79.2071 16.178 79.2628 16.048 79.2443 15.918C79.1143 14.7299 79.0772 13.5231 79.2814 12.3535C79.4114 11.5552 79.6527 10.7755 80.0612 10.0885C80.4696 9.38305 81.0822 8.75183 81.8249 8.39909C81.9734 8.3434 82.1219 8.26914 82.2704 8.25057C83.013 8.25057 83.7742 8.49192 84.294 9.03031C84.424 9.17884 84.5354 9.34592 84.6468 9.51301C84.7025 9.29023 84.6468 9.04888 84.721 8.84466C84.8324 8.60331 85.1666 8.58475 85.408 8.62188C85.8164 8.69614 86.2248 8.7704 86.5776 8.97462C86.8004 9.10458 86.8004 9.38305 86.7818 9.60584C86.7632 11.8337 86.7261 14.0429 86.7075 16.2708C87.2088 15.5653 87.6729 14.8227 88.0628 14.0429C88.5455 13.0961 88.9539 12.1122 89.1581 11.0539C88.8797 10.8126 88.6197 10.497 88.5455 10.1257C88.4712 9.82862 88.5455 9.51301 88.6198 9.21597C88.7497 8.7704 89.0839 8.36196 89.5295 8.23201C89.8822 8.13918 90.2721 8.12061 90.6062 8.30627C90.8476 8.43622 90.9961 8.7147 91.0332 8.97462C91.0704 9.2531 91.0332 9.53158 90.9775 9.79149C91.5716 9.69866 92.1657 9.60584 92.7598 9.45732C93.1682 9.36449 93.5953 9.29023 93.9851 9.42018C94.2636 9.51301 94.4864 9.77293 94.5421 10.0514C94.6163 10.3485 94.6349 10.6826 94.5235 10.9797C94.375 11.3695 94.3379 11.7965 94.245 12.205C94.0594 13.3003 93.818 14.4142 93.9851 15.5096C94.0594 16.0109 94.1522 16.4936 94.3564 16.9577C94.4678 17.199 94.6349 17.4775 94.9134 17.5518C95.1919 17.626 95.4703 17.4775 95.6746 17.3104C96.0273 16.9948 96.2501 16.5678 96.3615 16.1037C96.1201 14.9341 96.0644 13.7273 96.2501 12.5577C96.38 11.6852 96.64 10.8126 97.067 10.0143C97.4011 9.42019 97.8653 8.88179 98.4965 8.56618C99.1834 8.23201 100.037 8.23201 100.724 8.60331C101.151 8.8261 101.467 9.17884 101.708 9.58727C101.745 9.34592 101.69 9.08601 101.82 8.86323C102.005 8.62188 102.358 8.64044 102.637 8.67757C103.045 8.75183 103.472 8.84466 103.75 9.16027C103.936 9.36449 103.843 9.64297 103.843 9.88432C103.806 11.1839 103.75 12.4835 103.769 13.7645C103.769 14.7484 103.732 15.7695 104.01 16.7349C104.085 16.9763 104.177 17.2362 104.4 17.4033C104.642 17.5703 104.976 17.5332 105.217 17.3661C105.533 17.1248 105.737 16.7906 105.923 16.4379C106.071 16.1223 106.238 15.8252 106.312 15.491C106.312 13.3189 106.331 11.1282 106.331 8.95605C106.312 8.7704 106.387 8.54762 106.572 8.47336C106.702 8.39909 106.869 8.45479 106.999 8.47336C107.389 8.54762 107.798 8.54762 108.15 8.73327C108.28 8.80753 108.429 8.91892 108.41 9.08601C108.41 10.1628 108.41 11.2396 108.41 12.3164C108.41 12.4463 108.41 12.5577 108.429 12.6877C108.745 11.7037 109.079 10.7198 109.469 9.77293C109.617 9.42019 109.766 9.06744 109.97 8.73327C110.118 8.47335 110.453 8.41766 110.731 8.43623C111.325 8.47336 111.938 8.73327 112.253 9.2531C112.365 9.43875 112.42 9.66153 112.42 9.88432C112.402 10.9982 112.476 12.1307 112.55 13.2446C112.569 13.5974 112.588 13.9501 112.643 14.2843C112.68 14.2657 112.699 14.2286 112.718 14.1729C112.829 13.3375 113.033 12.5392 113.274 11.7408C113.534 10.8497 113.831 9.97714 114.203 9.12314C114.296 8.91892 114.388 8.67757 114.611 8.54762C114.927 8.38053 115.298 8.43623 115.632 8.52905C116.004 8.65901 116.393 8.78896 116.69 9.04888C116.913 9.23453 117.08 9.49445 117.099 9.79149C117.006 11.5181 116.932 13.2632 117.062 15.0083C117.099 15.491 117.155 15.9737 117.285 16.4379C117.359 16.6978 117.452 16.9577 117.619 17.1805C117.767 17.3847 118.064 17.4961 118.324 17.4033C118.547 17.3104 118.696 17.1062 118.807 16.9206C119.067 16.4379 119.141 15.8809 119.29 15.3611C119.327 15.2126 119.401 15.0269 119.568 14.9712C119.679 14.8969 119.809 14.9898 119.902 15.064C120.032 15.1754 119.995 15.3611 119.995 15.5096C119.958 16.345 119.828 17.2176 119.345 17.9231C118.955 18.4986 118.25 18.8699 117.544 18.7957C116.895 18.7585 116.301 18.3872 115.948 17.8488C115.502 17.1805 115.335 16.3822 115.205 15.6024C115.001 14.0429 115.057 12.4649 115.094 10.9054C115.038 10.9425 114.982 11.0168 114.964 11.0725C114.518 11.9451 114.221 12.8919 113.999 13.8387C113.701 15.064 113.497 16.3265 113.46 17.5889C113.46 17.756 113.33 17.8674 113.182 17.9045C112.829 18.053 112.42 18.0716 112.086 17.9045C111.734 17.7374 111.474 17.4218 111.325 17.0691C111.158 16.7163 111.084 16.3265 111.028 15.9366C110.824 14.3214 110.75 12.7062 110.675 11.0911C110.694 10.9797 110.545 11.0539 110.49 11.0539C109.691 12.4278 109.301 13.9872 109.097 15.5467C108.967 16.4564 108.93 17.3661 108.912 18.2944C108.912 18.4615 108.819 18.6286 108.67 18.7028C108.392 18.8514 108.076 18.8514 107.779 18.8328C107.426 18.7957 107.037 18.7585 106.739 18.5543C106.61 18.4615 106.517 18.3315 106.517 18.1644C106.498 17.8674 106.498 17.5703 106.461 17.2733C106.294 17.5147 106.164 17.7746 105.96 17.9974C105.644 18.3687 105.236 18.6843 104.772 18.7957C104.103 18.9442 103.342 18.7214 102.878 18.2201C102.488 17.8117 102.284 17.2547 102.191 16.7163C101.857 17.459 101.3 18.1087 100.576 18.4986C100.223 18.6843 99.8332 18.7957 99.4248 18.8328C98.9792 18.8885 98.5336 18.8328 98.1252 18.6286C97.5497 18.3315 97.1041 17.7931 96.8442 17.2176C96.5286 17.9045 96.0087 18.5729 95.2476 18.7771C94.4864 18.9813 93.6881 18.6843 93.1497 18.1459C92.4628 17.4775 92.11 16.5307 91.9986 15.5839C91.9429 15.1197 91.9615 14.6742 91.9986 14.21C92.0729 13.1889 92.1843 12.1678 92.4442 11.1653C92.4442 11.1096 92.4442 11.0539 92.4442 10.9982C91.8872 10.9797 91.3489 10.9982 90.7919 10.9982C90.5134 11.9265 90.1235 12.8176 89.6594 13.6716C88.8797 15.1383 87.9143 16.5121 86.856 17.7746C86.8746 18.9999 86.9117 20.2066 86.856 21.4319C86.8004 22.3973 86.6518 23.3813 86.2434 24.2539C85.9278 24.9222 85.4637 25.5163 84.7953 25.869C84.3126 26.129 83.7556 26.2775 83.1987 26.3146C82.5118 26.2589 81.8063 26.0918 81.2679 25.6463C80.8966 25.3306 80.6367 24.8851 80.5253 24.4209C80.451 24.0125 80.4325 23.5669 80.5624 23.1585C80.8038 22.3973 81.2865 21.7475 81.8249 21.1535C82.3633 20.5594 82.9759 20.0395 83.5514 19.4826C84.0156 19.0556 84.4797 18.61 84.9438 18.183C84.9438 17.8488 84.9067 17.5147 84.8881 17.1619C84.6653 17.4404 84.4797 17.7374 84.2012 17.9788C83.5329 18.6286 82.5675 18.9627 81.6206 18.8514C80.9708 18.74 80.451 18.2944 80.0612 17.7746C79.9126 17.5889 79.7827 17.3847 79.6713 17.1805C79.3371 17.8674 78.8358 18.5543 78.0747 18.7957C77.3135 18.9999 76.4595 18.7028 75.9768 18.1087C75.6426 17.7003 75.4384 17.2176 75.3641 16.6978C75.0485 17.3847 74.5658 17.9973 73.916 18.3872C73.5076 18.6471 73.0249 18.7957 72.5236 18.8328C71.9852 18.8885 71.4469 18.7771 71.0013 18.4615C70.203 17.9045 69.8131 16.9577 69.5903 16.0666C69.4604 16.475 69.2747 16.8463 69.0705 17.2176C68.8663 17.5518 68.6435 17.8674 68.365 18.1459C68.0308 18.4615 67.6224 18.7214 67.1583 18.7957C66.6199 18.8699 66.0629 18.7028 65.6545 18.3501C65.3203 18.0716 65.079 17.7003 64.8933 17.2919C64.5591 16.5678 64.4292 15.7695 64.3549 14.9712C63.9279 15.8995 63.4452 16.8092 62.7026 17.5147C62.1456 18.0902 61.4402 18.5172 60.6418 18.7214C60.0292 18.8885 59.3794 18.8699 58.7482 18.8142C58.2098 18.7585 57.6528 18.6471 57.1701 18.3872C56.9474 18.2573 56.706 18.053 56.6318 17.7931C56.5946 17.4961 56.7617 17.2176 56.9288 16.9948C57.0959 16.772 57.263 16.5493 57.5229 16.4564C57.7642 16.3822 57.9685 16.5678 58.1727 16.6978C58.4697 16.9577 58.8039 17.1805 59.1938 17.2733C59.5651 17.3661 60.0292 17.2547 60.252 16.9206C60.4562 16.605 60.5119 16.2336 60.5305 15.8623C60.5305 15.1754 60.0849 14.5813 59.6208 14.1172C59.1752 13.6902 58.7296 13.3003 58.2841 12.8919C57.6343 13.9872 56.9474 15.0455 56.2976 16.1408C55.9077 16.8463 55.4436 17.4961 54.8495 18.0345C54.4225 18.4244 53.9026 18.74 53.3271 18.8328C52.9373 18.8885 52.5474 18.7028 52.306 18.3872C51.9904 17.9973 51.8605 17.4961 51.7862 16.9948C51.6748 16.1223 51.7119 15.2311 51.7305 14.34C51.7491 13.2261 51.8048 12.0936 51.8419 10.9797C51.8419 10.7383 51.879 10.497 51.8605 10.2556C51.7862 10.2742 51.6934 10.2742 51.6562 10.3484C50.5795 11.5552 49.9111 13.059 49.3913 14.5813C48.9457 15.8995 48.6301 17.2733 48.4259 18.6471C48.2588 18.7957 48.0175 18.8328 47.8132 18.7957C47.5533 18.7585 47.2748 18.7957 47.0149 18.74C46.7921 18.6843 46.6251 18.48 46.5322 18.2573C46.3466 17.8117 46.328 17.329 46.328 16.8649C46.3466 14.21 46.3651 11.5552 46.3837 8.90036C46.3837 8.7704 46.4208 8.60331 46.5508 8.56618C46.8293 8.47336 47.1078 8.54762 47.3862 8.60331C47.7018 8.67757 48.036 8.7704 48.2588 8.99318C48.3702 9.10458 48.3331 9.27166 48.3331 9.42018C48.3331 10.8868 48.3145 12.3721 48.3145 13.8387C48.7972 12.5392 49.2799 11.2025 50.0225 10.0328C50.1896 9.79149 50.3567 9.53158 50.5609 9.32736C50.9136 8.91892 51.4149 8.54762 51.9719 8.52905C52.3989 8.51049 52.7887 8.7147 53.16 8.90036C53.5128 9.06745 53.847 9.32736 53.9769 9.69866C54.0697 9.92145 54.0326 10.1628 54.0326 10.3856C53.9955 11.648 53.9583 12.9105 53.9212 14.1915C53.9212 14.7113 53.8655 15.2311 53.9027 15.7324C53.9212 15.9737 53.9398 16.2336 54.0326 16.4564C54.0883 16.5864 54.1626 16.7349 54.3111 16.7535C54.4596 16.772 54.571 16.6606 54.6824 16.5864C54.9237 16.3822 55.1094 16.1223 55.295 15.8623C55.8334 15.1197 56.279 14.34 56.7431 13.5602C57.0031 13.0775 57.2815 12.5949 57.5414 12.0936C57.4486 11.9451 57.3187 11.8337 57.2444 11.6852C56.9474 11.2025 56.8731 10.6084 57.0216 10.0885C57.1701 9.56871 57.4858 9.10457 57.9128 8.7704C58.2098 8.54762 58.5625 8.41766 58.9338 8.3434C59.2866 8.25057 59.6765 8.30627 59.9735 8.49192C60.1777 8.62188 60.2891 8.86323 60.3077 9.10457C60.3262 9.56871 60.1592 9.99571 59.9364 10.4041C59.7322 10.794 59.4537 11.1468 59.1752 11.4809C60.0849 12.1493 61.0317 12.7805 61.8115 13.5788C62.2199 14.0058 62.5541 14.5442 62.6283 15.1569C62.684 15.4725 62.6283 15.7881 62.5912 16.0851C63.4452 15.3425 64.1136 14.3214 64.2806 13.1889C64.2992 11.4624 64.2992 9.73579 64.3178 7.99066C63.5195 7.97209 62.7397 7.97209 61.9414 7.95353C61.7929 7.8607 61.7558 7.65648 61.7372 7.48939C61.7372 7.09952 61.8486 6.67252 62.1271 6.37548C62.1642 6.31978 62.257 6.33835 62.3127 6.31978C63.0182 6.31978 63.7237 6.33835 64.4292 6.35691C64.4663 5.5586 64.4849 4.7603 64.5034 3.96199C64.392 3.72064 64.392 3.47929 64.5406 3.29364ZM73.1734 9.95858C72.7093 10.0514 72.3566 10.4227 72.1523 10.8311C71.8553 11.3695 71.7253 11.9822 71.6325 12.5763C71.5211 13.356 71.484 14.1543 71.5397 14.9526C71.5768 15.5653 71.6696 16.1965 71.9481 16.7349C72.0966 17.032 72.338 17.3104 72.6722 17.4218C72.8949 17.5147 73.1363 17.4961 73.3405 17.3847C73.7675 17.1619 74.046 16.772 74.2502 16.3636C74.6215 15.6024 74.7886 14.767 74.8629 13.9316C74.9371 13.059 74.9557 12.1864 74.7515 11.3324C74.6401 10.924 74.473 10.5155 74.1574 10.2371C73.8975 9.99571 73.5262 9.88432 73.1734 9.95858ZM83.013 9.99571C82.4561 10.1442 82.0662 10.6269 81.8249 11.1282C81.4536 11.9079 81.3236 12.7434 81.2493 13.5974C81.2122 14.5442 81.1936 15.5096 81.4907 16.4379C81.6392 16.8649 81.8805 17.3104 82.3261 17.5147C82.6046 17.6446 82.9202 17.6075 83.1801 17.459C83.4029 17.329 83.5886 17.1433 83.7371 16.9206C84.0898 16.4564 84.294 15.8995 84.424 15.3239C84.6282 14.4885 84.7025 13.6159 84.6839 12.7619C84.6839 12.1678 84.6282 11.5738 84.4426 11.0168C84.3312 10.6826 84.1455 10.3299 83.8299 10.1257C83.5886 9.95858 83.2915 9.90288 83.013 9.99571ZM100.112 10.07C99.629 10.1442 99.2577 10.5155 99.0349 10.9425C98.645 11.6852 98.5151 12.5392 98.4408 13.3746C98.3851 14.3029 98.348 15.2683 98.5707 16.178C98.6821 16.6235 98.8678 17.0877 99.2391 17.3847C99.4805 17.5703 99.8146 17.6817 100.112 17.5703C100.502 17.4404 100.761 17.1062 100.984 16.772C101.485 15.9552 101.671 14.9898 101.764 14.0429C101.838 13.1889 101.857 12.2978 101.634 11.4624C101.523 11.0539 101.356 10.6269 101.021 10.3484C100.78 10.1257 100.427 9.99571 100.112 10.07ZM84.1826 20.4294C83.3286 21.2834 82.5303 22.2302 82.0476 23.3442C81.8805 23.734 81.7877 24.1982 81.8991 24.6252C81.9734 24.9593 82.2519 25.2378 82.586 25.3306C82.9945 25.442 83.4772 25.442 83.8485 25.2007C84.1826 24.9779 84.4054 24.6252 84.5354 24.2353C84.7953 23.5112 84.8324 22.7501 84.8696 21.9889C84.8881 21.2463 84.9067 20.5037 84.9067 19.7611C84.6468 19.9653 84.424 20.2066 84.1826 20.4294Z"/>
    </g>
  </symbol>

  <symbol id="icon-google" width="79" height="25" viewBox="0 0 79 25" fill="inherit" xmlns="http://www.w3.org/2000/svg">
    <g opacity="inherit">
    <path d="M9.875 8.82249V11.4847H16.221C16.0353 12.9706 15.54 14.0541 14.7661 14.828C13.8374 15.7567 12.3824 16.7782 9.875 16.7782C5.97453 16.7782 2.90987 13.6207 2.90987 9.72022C2.90987 5.81975 5.97453 2.66223 9.875 2.66223C11.98 2.66223 13.5278 3.49804 14.6732 4.55055L16.5306 2.69319C14.9518 1.14538 12.8468 0 9.875 0C4.51959 0 0 4.36481 0 9.72022C0 15.0756 4.51959 19.4404 9.875 19.4404C12.7849 19.4404 14.9518 18.4808 16.6544 16.7163C18.4189 14.9518 18.9451 12.5063 18.9451 10.4941C18.9451 9.875 18.9142 9.31779 18.7904 8.82249H9.875Z" fill="inherit"/>
    <path d="M26.9009 6.65558C23.4338 6.65558 20.5858 9.28685 20.5858 12.9397C20.5858 16.5615 23.4028 19.2238 26.9009 19.2238C30.3679 19.2238 33.2159 16.5615 33.2159 12.9397C33.2159 9.28685 30.3679 6.65558 26.9009 6.65558ZM26.9009 16.7473C25.0125 16.7473 23.3719 15.1685 23.3719 12.9397C23.3719 10.6799 25.0125 9.13207 26.9009 9.13207C28.7892 9.13207 30.4299 10.6799 30.4299 12.9397C30.4608 15.1685 28.8201 16.7473 26.9009 16.7473Z" fill="inherit"/>
    <path d="M57.795 8.07955H57.7021C57.083 7.3366 55.9067 6.68652 54.3898 6.68652C51.2633 6.68652 48.5082 9.41066 48.5082 12.9706C48.5082 16.4996 51.2323 19.2547 54.3898 19.2547C55.9067 19.2547 57.083 18.5737 57.7021 17.8307H57.795V18.6975C57.795 21.0811 56.4948 22.3813 54.4517 22.3813C52.7801 22.3813 51.7276 21.174 51.2942 20.1524L48.9106 21.143C49.5916 22.8147 51.418 24.8578 54.4827 24.8578C57.7021 24.8578 60.4572 22.9694 60.4572 18.326V7.02704H57.8569V8.07955H57.795ZM54.6375 16.7473C52.7492 16.7473 51.2942 15.1375 51.2942 12.9397C51.2942 10.7108 52.7492 9.13205 54.6375 9.13205C56.5258 9.13205 57.9807 10.7418 57.9807 12.9706C57.9807 15.1685 56.4949 16.7473 54.6375 16.7473Z" fill="inherit"/>
    <path d="M40.9549 6.65558C37.4879 6.65558 34.6399 9.28685 34.6399 12.9397C34.6399 16.5615 37.4569 19.2238 40.9549 19.2238C44.453 19.2238 47.27 16.5615 47.27 12.9397C47.27 9.28685 44.422 6.65558 40.9549 6.65558ZM40.9549 16.7473C39.0666 16.7473 37.4259 15.1685 37.4259 12.9397C37.4259 10.6799 39.0666 9.13207 40.9549 9.13207C42.8433 9.13207 44.4839 10.6799 44.4839 12.9397C44.5149 15.1685 42.8742 16.7473 40.9549 16.7473Z" fill="inherit"/>
    <path d="M62.5623 0.24762H65.2864V19.2237H62.5623V0.24762Z" fill="inherit"/>
    <path d="M73.6446 16.7473C72.2516 16.7473 71.261 16.0972 70.6109 14.8589L79 11.3919L78.7214 10.6799C78.1951 9.28683 76.6164 6.68652 73.366 6.68652C70.1466 6.68652 67.4534 9.22492 67.4534 12.9706C67.4534 16.4996 70.1156 19.2547 73.6755 19.2547C76.5545 19.2547 78.2261 17.4902 78.9071 16.4687L76.7712 15.0447C76.0282 16.0662 75.0686 16.7473 73.6446 16.7473ZM73.4589 9.00823C74.5733 9.00823 75.5329 9.5964 75.8425 10.4013L70.1775 12.7539C70.1775 10.1227 72.0349 9.00823 73.4589 9.00823Z" fill="inherit"/>
    </g>
  </symbol>

  <symbol id="icon-mail" width="70" height="21" viewBox="0 0 70 21" fill="inherit" xmlns="http://www.w3.org/2000/svg">
    <g opacity="inherit">
    <path d="M13.6291 10.6542C13.5133 8.41033 11.8505 7.06099 9.84328 7.06099H9.76715C7.45009 7.06099 6.16455 8.88644 6.16455 10.9603C6.16455 13.2822 7.71968 14.7498 9.75794 14.7498C12.0309 14.7498 13.5258 13.0817 13.6336 11.1079L13.6291 10.6542ZM9.77872 5.05366C11.3269 5.05366 12.7827 5.73921 13.8513 6.81229V6.81607C13.8513 6.30094 14.1973 5.91293 14.6784 5.91293L14.7993 5.91139C15.5513 5.91139 15.7056 6.62438 15.7056 6.85013L15.7099 14.8637C15.6561 15.3883 16.2501 15.6591 16.5793 15.3228C17.8629 14.0004 19.3993 8.52456 15.7803 5.35191C12.4067 2.39401 7.88092 2.88159 5.47415 4.54384C2.9163 6.31217 1.27878 10.2247 2.86932 13.9011C4.6034 17.9101 9.56436 19.1054 12.5123 17.9124C14.0054 17.3085 14.6949 19.331 13.1444 19.9916C10.8019 20.9919 4.27998 20.8912 1.23333 15.6036C-0.825106 12.0338 -0.715333 5.75245 4.74363 2.49772C8.92 0.00777781 14.4258 0.696755 17.7457 4.17074C21.2162 7.80271 21.0139 14.6028 17.6293 17.2477C16.0944 18.4485 13.8175 17.2789 13.8316 15.5283L13.8158 14.9564C12.7473 16.0184 11.3268 16.6375 9.7786 16.6375C6.71979 16.6375 4.0275 13.9415 4.0275 10.8767C4.02762 7.78142 6.71991 5.05378 9.77872 5.05366Z" fill="inherit"/>
    <path d="M68.0111 15.6822C66.2739 15.6816 64.7246 14.3428 64.7246 12.3691L64.7269 2.35856C64.7246 1.60324 64.1103 1.07498 63.3586 1.07498C62.4854 1.07852 61.9811 1.72233 61.9811 2.35856V12.3801C61.9709 15.7742 64.7733 18.4366 67.9633 18.4366C68.9107 18.4366 69.3675 17.667 69.3675 17.0145C69.3674 16.3914 68.8774 15.6827 68.0111 15.6822ZM48.082 15.8021C45.6153 15.8021 43.617 13.8006 43.617 11.3314C43.617 8.86069 45.6153 6.8595 48.082 6.8595C50.5482 6.8595 52.5481 8.86069 52.5481 11.3314C52.5481 13.8006 50.5482 15.8021 48.082 15.8021ZM53.8514 4.23793C53.081 4.23746 52.5357 4.85513 52.5357 5.45742V5.92703C51.3203 4.88931 49.7456 4.24539 48.0435 4.24243C44.3015 4.23734 40.9876 7.39593 40.9876 11.3464C40.9876 14.9695 44.1453 18.4296 48.0435 18.4296C49.6214 18.4296 51.3172 17.8221 52.5227 16.7913L52.5264 17.1268C52.5264 17.7701 53.0344 18.4296 53.8706 18.4296C54.8188 18.4296 55.2431 17.6699 55.2431 17.0706V5.53122C55.2537 4.98912 54.6598 4.23947 53.8514 4.23793ZM58.6154 4.23545C57.7946 4.23794 57.2657 4.91213 57.2644 5.59602L57.2671 17.0926C57.2619 17.8568 57.8642 18.4248 58.6103 18.4248C59.4602 18.4248 60.0045 17.7591 60.0045 17.0336L60.0093 5.61506C60.0093 4.93957 59.3288 4.23309 58.6154 4.23545ZM35.2527 4.24255C33.5716 4.2183 32.2846 5.19583 31.4908 5.84614C30.6098 4.90042 29.481 4.3232 28.3211 4.2513C27.0987 4.17502 25.9514 4.58786 25.2232 5.18105C24.9671 4.58786 24.6312 4.23805 24.0544 4.23805C23.4223 4.23805 22.7501 4.78003 22.7501 5.66225C22.7501 6.54446 22.7584 17.1067 22.7584 17.1067C22.7584 17.7639 23.318 18.4297 24.1183 18.4297C24.9993 18.4297 25.4872 17.7547 25.4872 17.1019V8.61364C25.4872 7.78748 26.8963 6.80924 28.0886 6.82533C28.8497 6.83585 29.7543 7.5868 29.7543 8.77388L29.7614 17.1224C29.7614 17.8598 30.5023 18.4251 31.1749 18.4251C31.9749 18.4251 32.5802 17.8199 32.5802 17.1301V8.6937C32.5802 7.65917 34.1479 6.79316 35.2208 6.84922C36.0618 6.89344 36.8058 7.81184 36.8058 8.6937V17.1184C36.8058 17.8473 37.4895 18.4251 38.227 18.4251C38.8742 18.4251 39.6232 17.996 39.6232 17.1067V8.71747C39.6314 5.63848 36.5972 4.20269 35.2527 4.24255ZM59.9966 1.98072C59.9966 2.55298 59.4255 3.02199 58.603 3.02199C57.7763 3.02199 57.26 2.45411 57.26 1.91875L57.2608 1.18176C57.2703 0.624172 57.7561 0 58.5956 0C59.5151 0 59.9967 0.597445 59.9967 1.18176L59.9966 1.98072Z" fill="inherit"/>
    </g>
  </symbol>

  <symbol id="icon-yandex" width="69" height="29" viewBox="0 0 69 29" fill="inherit" xmlns="http://www.w3.org/2000/svg">
    <g opacity="inherit">
    <path d="M11.2055 0.95105H7.53356C3.92646 0.95105 0.859351 3.69417 0.859351 9.02922C0.859351 12.2259 2.34971 14.6019 4.98483 15.7682L0.0601748 24.6888C-0.0910208 24.9696 0.0601742 25.2072 0.319367 25.2072H2.6089C2.80329 25.2072 2.93289 25.1424 2.99769 24.9912L7.49036 16.2218H9.11031V24.9912C9.11031 25.0776 9.19671 25.2072 9.32631 25.2072H11.335C11.5294 25.2072 11.5942 25.1208 11.5942 24.948V1.27504C11.5726 1.05905 11.443 0.95105 11.2055 0.95105ZM9.08871 14.1483H7.72795C5.58962 14.1483 3.53767 12.5931 3.53767 8.70523C3.53767 4.66614 5.48162 3.00299 7.44716 3.00299H9.08871V14.1483Z" fill="inherit"/>
    <path d="M23.3443 9.00763H21.3356C21.1844 9.00763 21.0764 9.13723 21.0764 9.22362V15.401H17.3613V9.22362C17.3613 9.07243 17.2965 9.00763 17.1453 9.00763H15.1366C14.9854 9.00763 14.8774 9.09403 14.8774 9.22362V24.948C14.8774 25.0992 14.9422 25.2072 15.0934 25.2072H17.1237C17.2533 25.2072 17.3397 25.1208 17.3397 24.948V17.453H21.0548V24.948C21.0548 25.0992 21.1412 25.2072 21.314 25.2072H23.3227C23.4739 25.2072 23.5387 25.0776 23.5387 24.948V9.22362C23.5603 9.09403 23.4523 9.00763 23.3443 9.00763Z" fill="inherit"/>
    <path d="M68.9838 24.1704L68.7246 23.0688C68.703 22.9824 68.6598 22.9392 68.5734 22.9392C68.4222 22.9392 67.5367 23.2848 66.2839 23.2848C63.8432 23.2848 62.6336 20.9305 62.6336 17.1722C62.6336 13.8675 63.6272 10.606 65.3119 10.606C65.7655 10.606 66.3055 10.7356 67.1911 11.5347C67.2775 11.6211 67.3423 11.6643 67.4503 11.6643C67.5367 11.6643 67.6446 11.5995 67.731 11.4267L68.595 10.0012C68.6598 9.89319 68.6814 9.80679 68.6814 9.69879C68.6814 9.5692 68.5518 9.4828 68.3574 9.3748C67.0399 8.70522 66.1327 8.57562 65.3551 8.57562C62.3312 8.57562 59.9769 12.2043 59.9769 17.8634C59.9769 22.7448 62.2448 25.5527 65.4631 25.5527C66.8239 25.5527 68.271 24.9048 68.8542 24.4944C68.9838 24.4296 69.027 24.3 68.9838 24.1704Z" fill="inherit"/>
    <path d="M54.9658 16.3082L58.8321 9.22362C58.8969 9.13722 58.8537 9.00762 58.7457 9.00762H56.8449C56.305 9.00762 56.1106 9.20202 55.9162 9.61241L53.0219 15.6602C52.8707 16.0058 52.6979 16.2434 52.5467 16.3298V9.20202C52.5467 9.07242 52.4819 8.98602 52.3523 8.98602H50.2571C50.1707 8.98602 50.0627 9.07242 50.0627 9.20202V24.948C50.0627 25.0344 50.1275 25.164 50.2571 25.164H52.3523C52.4819 25.164 52.5467 25.0776 52.5467 24.948V16.8266C52.6331 16.8914 52.6979 16.9778 52.7627 17.1074L56.4346 24.6672C56.629 25.056 56.9097 25.1424 57.3417 25.1424H59.4153C59.5449 25.1424 59.5665 25.0128 59.5017 24.9264L54.9658 16.3082Z" fill="inherit"/>
    <path d="M36.4983 23.1768H36.1095C35.6343 23.1768 35.5047 22.9824 35.5047 22.5936V9.22362C35.5047 9.07243 35.4399 9.00763 35.3103 9.00763H28.8521C28.7009 9.00763 28.5929 9.09403 28.5929 9.22362V10.39C28.5929 14.2995 28.3769 19.3537 26.3034 23.1768H25.5906C25.3962 23.1768 25.3314 23.2848 25.3314 23.436C25.3314 23.436 25.3314 27.3239 25.3314 28.1663C25.3314 28.3391 25.461 28.3823 25.5474 28.3823H27.1026C27.4482 28.3823 27.5778 28.1231 27.5778 27.9071V25.2288H34.4896V28.1447C34.4896 28.2743 34.576 28.3607 34.7056 28.3607H36.3471C36.5415 28.3607 36.7359 28.2095 36.7359 27.8855V23.4144C36.7575 23.2632 36.6495 23.1768 36.4983 23.1768ZM32.9992 23.1768H28.3337C29.9753 20.3689 30.6233 17.1938 30.8393 13.3059C30.9041 12.4635 30.9257 11.5996 30.9257 11.038H32.9992V23.1768Z" fill="inherit"/>
    <path d="M43.0645 8.61884C39.587 8.61884 38.0319 13.0251 38.0319 17.7986C38.0319 22.68 40.235 25.5959 43.4533 25.5959C45.0301 25.5959 46.4124 24.9912 47.1252 24.5376C47.2548 24.4728 47.2764 24.3864 47.2548 24.2568L46.9956 23.1552C46.974 23.0256 46.9092 22.9608 46.7364 22.9608C46.6068 22.9608 45.678 23.3064 44.3605 23.3064C41.8766 23.3064 40.7102 21.1465 40.7102 18.2954C40.7102 17.9066 40.7102 17.5394 40.7102 17.5394C40.7102 17.5394 41.9629 17.6906 42.7189 17.6906H47.4276V16.3298C47.4276 11.2972 45.6564 8.61884 43.0645 8.61884ZM42.7189 15.6386C41.9845 15.6386 40.8182 15.7682 40.8182 15.7682C40.8182 15.7682 40.8182 15.293 40.883 14.7747C41.1638 12.0315 41.8549 10.6276 42.9781 10.6276C44.0149 10.6276 44.6629 12.0531 44.8141 14.5371C44.8357 15.0554 44.8357 15.6386 44.8357 15.6386H42.7189Z" fill="inherit"/>
    </g>
  </symbol>

  <symbol id="icon-facebook" width="92" height="19" viewBox="0 0 92 19" fill="inherit" xmlns="http://www.w3.org/2000/svg">
    <g opacity="inherit">
    <path fill="inherit" d="M7.19945 3.6801C6.11634 3.6801 5.79778 4.16856 5.79778 5.23042V6.99312H8.68606L8.38874 9.83892H5.79778V18.4613H2.3361V9.83892H0V6.99312H2.3361V5.29414C2.3361 2.4271 3.48292 0.91925 6.71099 0.91925C7.41182 0.91925 8.21884 0.961726 8.72853 1.04668V3.72257"/>
    <path fill="inherit" d="M8.91968 12.3449C8.91968 9.1381 10.4275 6.73828 13.6131 6.73828C15.3546 6.73828 16.3952 7.63025 16.9049 8.73459V6.97189H20.2179V18.44H16.9049V16.6986C16.4164 17.8029 15.3333 18.6736 13.6131 18.6736C10.4275 18.6736 8.91968 16.2738 8.91968 13.067V12.3449ZM12.3814 13.1095C12.3814 14.8297 13.0185 15.9553 14.6113 15.9553C16.0342 15.9553 16.7562 14.9146 16.7562 13.2794V12.1326C16.7562 10.4973 16.0342 9.45665 14.6113 9.45665C12.9972 9.45665 12.3814 10.5822 12.3814 12.3025V13.1095Z"/>
    <path fill="inherit" d="M27.4598 6.73828C28.7978 6.73828 30.0932 7.0356 30.7728 7.50282L30.0083 9.96635C29.4774 9.7115 28.6066 9.43542 27.6934 9.43542C25.8245 9.43542 24.9963 10.5185 24.9963 12.3662V13.0458C24.9963 14.8934 25.8245 15.9765 27.6934 15.9765C28.6066 15.9765 29.4774 15.7217 30.0083 15.4456L30.7728 17.9091C30.072 18.3976 28.7978 18.6736 27.4598 18.6736C23.3823 18.6736 21.5346 16.4862 21.5346 12.9608V12.4299C21.5346 8.92572 23.4035 6.73828 27.4598 6.73828Z"/>
    <path fill="inherit" d="M31.2401 13.1519V12.1326C31.2401 8.88325 33.0877 6.73828 36.8679 6.73828C40.4358 6.73828 41.9861 8.90448 41.9861 12.0901V13.9165H34.7017C34.7654 15.488 35.4663 16.1889 37.3989 16.1889C38.6943 16.1889 40.0748 15.934 41.0729 15.488L41.6888 17.8666C40.7756 18.3551 38.9067 18.7161 37.229 18.7161C32.8753 18.6949 31.2401 16.5074 31.2401 13.1519ZM34.7017 11.6441H38.8855V11.3468C38.8855 10.0938 38.3758 9.11686 36.8679 9.11686C35.3176 9.11686 34.7017 10.115 34.7017 11.6441Z"/>
    <path fill="inherit" d="M54.856 13.067C54.856 16.2738 53.3056 18.6736 50.1413 18.6736C48.3998 18.6736 47.2105 17.8029 46.7221 16.6986V18.44H43.4515V1.21657L46.9132 0.89801V8.56467C47.4229 7.54528 48.5273 6.73827 50.1413 6.73827C53.3269 6.73827 54.856 9.13808 54.856 12.3449V13.067ZM51.3943 12.2812C51.3943 10.6672 50.7572 9.45664 49.1007 9.45664C47.6778 9.45664 46.9132 10.476 46.9132 12.1113V13.3218C46.9132 14.9571 47.6778 15.9765 49.1007 15.9765C50.7572 15.9765 51.3943 14.766 51.3943 13.1519V12.2812Z"/>
    <path fill="inherit" d="M56.024 13.0033V12.4299C56.024 9.13809 57.8929 6.73828 61.7369 6.73828C65.5596 6.73828 67.4497 9.11686 67.4497 12.4299V13.0033C67.4497 16.2951 65.5808 18.6949 61.7369 18.6949C57.8929 18.6736 56.024 16.2951 56.024 13.0033ZM63.9668 12.175C63.9668 10.6672 63.3297 9.45665 61.7369 9.45665C60.1228 9.45665 59.507 10.6672 59.507 12.175V13.2369C59.507 14.7447 60.1228 15.9553 61.7369 15.9553C63.3509 15.9553 63.9668 14.7447 63.9668 13.2369V12.175Z"/>
    <path fill="inherit" d="M68.5753 13.0033V12.4299C68.5753 9.13809 70.4441 6.73828 74.2881 6.73828C78.1108 6.73828 80.0009 9.11686 80.0009 12.4299V13.0033C80.0009 16.2951 78.132 18.6949 74.2881 18.6949C70.4654 18.6736 68.5753 16.2951 68.5753 13.0033ZM76.518 12.175C76.518 10.6672 75.8809 9.45665 74.2881 9.45665C72.6741 9.45665 72.0582 10.6672 72.0582 12.175V13.2369C72.0582 14.7447 72.6741 15.9553 74.2881 15.9553C75.9021 15.9553 76.518 14.7447 76.518 13.2369V12.175Z"/>
    <path fill="inherit" d="M84.7581 12.4511L88.1773 6.97188H91.8726L88.2835 12.6422L92 18.44H88.3259L84.7581 12.8334V18.44H81.2964V1.21657L84.7581 0.91925"/>
    </g>
  </symbol>

  <symbol id="icon-tooligram" width="123" height="33" viewBox="0 0 123 33" fill="inherit" xmlns="http://www.w3.org/2000/svg">
    <g opacity="inherit" clip-path="url(#clip0)">
      <path fill="inherit" d="M12.0839 32.6979C11.109 32.5015 10.1564 32.2102 9.23975 31.8284C8.33997 31.4523 7.47929 30.9914 6.6693 30.4522C5.86571 29.9164 5.11564 29.3062 4.4297 28.6298C3.74359 27.953 3.12457 27.2133 2.581 26.4205C2.03399 25.6218 1.56673 24.7728 1.1857 23.8853C0.798944 22.9812 0.504106 22.0416 0.305053 21.0802C0.0997269 20.0901 -0.00355074 19.0821 -0.00292688 18.0715V1.57149L4.99297 0.00396729C4.95614 0.350931 4.93737 0.699549 4.93742 1.04841V6.08588L19.9116 1.60366V6.73348L4.93742 11.3345V17.904C4.9403 20.5697 6.01527 23.1254 7.92654 25.0103C9.83781 26.8952 12.4293 27.9555 15.1322 27.9583C17.8356 27.9561 20.4277 26.8962 22.3395 25.0112C24.2513 23.1262 25.3266 20.5701 25.3295 17.904V15.1518L9.91902 19.6753V14.3821L29.3651 8.82901L30.2719 8.56913V18.0715C30.272 19.082 30.169 20.09 29.9647 21.0802C29.7652 22.0417 29.4698 22.9813 29.0824 23.8853C28.7018 24.7728 28.2348 25.6219 27.6879 26.4205C27.1445 27.2133 26.5254 27.9531 25.8392 28.6298C25.1532 29.3061 24.4032 29.9164 23.5996 30.4522C22.7895 30.9918 21.9286 31.4526 21.0284 31.8284C20.1118 32.2102 19.1587 32.5015 18.1838 32.6979C17.1798 32.8999 16.1577 33.0016 15.133 33.0015C14.1089 33.0015 13.0873 32.8998 12.0839 32.6979Z"/>
      <path fill="inherit" d="M46.1146 19.8156H47.6488V12.8972H48.9136C48.9485 12.8926 48.9841 12.8959 49.0175 12.9071C49.0509 12.9182 49.0812 12.9368 49.1061 12.9614C49.1311 12.986 49.1499 13.0159 49.1612 13.0488C49.1725 13.0818 49.1759 13.1168 49.1712 13.1513V13.6463H50.5264V12.3543C50.5264 11.8115 50.3273 11.6118 49.7735 11.6118H43.9714C43.4209 11.6118 43.2336 11.8082 43.2336 12.3543V13.6479H44.5804V13.1529C44.5754 13.1183 44.5786 13.0831 44.5898 13.0499C44.6009 13.0168 44.6197 12.9866 44.6447 12.9619C44.6697 12.9371 44.7001 12.9183 44.7337 12.9071C44.7672 12.8959 44.8029 12.8925 44.838 12.8972H46.1146V19.8156ZM52.064 15.6576C52.0503 16.2207 52.1518 16.7806 52.3622 17.3042C52.5727 17.8277 52.8878 18.3042 53.2888 18.7051C53.6899 19.106 54.1687 19.4232 54.6967 19.6378C55.2246 19.8524 55.791 19.96 56.3621 19.9542C56.9331 19.96 57.4995 19.8524 58.0274 19.6378C58.5554 19.4232 59.0342 19.106 59.4353 18.7051C59.8363 18.3042 60.1515 17.8277 60.3619 17.3042C60.5723 16.7806 60.6738 16.2207 60.6601 15.6576C60.6655 15.1022 60.5575 14.5514 60.3426 14.038C60.1277 13.5245 59.8104 13.0589 59.4094 12.6689C59.0085 12.2788 58.5321 11.9723 58.0085 11.7674C57.485 11.5626 56.9251 11.4637 56.3621 11.4765C55.799 11.4637 55.2391 11.5626 54.7156 11.7674C54.192 11.9723 53.7156 12.2788 53.3147 12.6689C52.9137 13.0589 52.5964 13.5245 52.3815 14.038C52.1666 14.5514 52.0587 15.1022 52.064 15.6576ZM53.6534 15.6576C53.6428 15.2992 53.7049 14.9423 53.8359 14.6079C53.967 14.2735 54.1645 13.9682 54.4168 13.71C54.6691 13.4518 54.9711 13.2459 55.3051 13.1044C55.6392 12.9628 55.9985 12.8884 56.3621 12.8856C56.7253 12.8889 57.0843 12.9636 57.4179 13.1053C57.7516 13.2471 58.0532 13.4531 58.3051 13.7112C58.5571 13.9693 58.7542 14.2744 58.8851 14.6087C59.016 14.9429 59.078 15.2995 59.0674 15.6576C59.0857 16.0233 59.0299 16.3888 58.9032 16.7329C58.7765 17.077 58.5815 17.3928 58.3295 17.6616C58.0776 17.9305 57.7739 18.1471 57.436 18.2988C57.0982 18.4505 56.7331 18.5343 56.3621 18.5451C55.991 18.5343 55.6259 18.4505 55.2881 18.2988C54.9502 18.1471 54.6465 17.9305 54.3946 17.6616C54.1426 17.3928 53.9476 17.077 53.8209 16.7329C53.6943 16.3888 53.6384 16.0233 53.6567 15.6576H53.6534ZM62.5306 15.6576C62.517 16.2209 62.6185 16.7812 62.8292 17.305C63.0398 17.8287 63.3553 18.3053 63.7567 18.7063C64.1581 19.1073 64.6373 19.4244 65.1656 19.6388C65.694 19.8532 66.2608 19.9605 66.8321 19.9542C67.4031 19.96 67.9695 19.8524 68.4974 19.6378C69.0254 19.4232 69.5042 19.106 69.9053 18.7051C70.3063 18.3042 70.6215 17.8277 70.8319 17.3042C71.0423 16.7806 71.1438 16.2207 71.1302 15.6576C71.1355 15.1022 71.0275 14.5514 70.8126 14.038C70.5978 13.5245 70.2804 13.0589 69.8794 12.6689C69.4785 12.2788 69.0021 11.9723 68.4786 11.7674C67.955 11.5626 67.3951 11.4637 66.8321 11.4765C66.269 11.4637 65.7091 11.5626 65.1856 11.7674C64.6621 11.9723 64.1857 12.2788 63.7847 12.6689C63.3837 13.0589 63.0664 13.5245 62.8515 14.038C62.6366 14.5514 62.5287 15.1022 62.534 15.6576H62.5306ZM64.12 15.6576C64.1094 15.2989 64.1716 14.9418 64.3029 14.6071C64.4342 14.2725 64.632 13.9671 64.8846 13.7089C65.1373 13.4506 65.4397 13.2448 65.7741 13.1034C66.1085 12.962 66.4682 12.888 66.8321 12.8856C67.1953 12.8889 67.5543 12.9636 67.8879 13.1053C68.2216 13.2471 68.5232 13.4531 68.7751 13.7112C69.0271 13.9693 69.2242 14.2744 69.3551 14.6087C69.486 14.9429 69.548 15.2995 69.5374 15.6576C69.5557 16.0233 69.4999 16.3888 69.3732 16.7329C69.2465 17.077 69.0515 17.3928 68.7996 17.6616C68.5476 17.9305 68.2439 18.1471 67.906 18.2988C67.5682 18.4505 67.2031 18.5343 66.8321 18.5451C66.461 18.5343 66.0959 18.4505 65.7581 18.2988C65.4202 18.1471 65.1165 17.9305 64.8646 17.6616C64.6127 17.3928 64.4176 17.077 64.291 16.7329C64.1643 16.3888 64.1084 16.0233 64.1267 15.6576H64.12ZM73.7535 19.0302C73.7535 19.5846 73.9995 19.8156 74.5499 19.8156H78.2156C78.7777 19.8156 79.0119 19.5846 79.0119 19.0302V17.7828H77.63V18.2778C77.6337 18.3121 77.6296 18.3467 77.6179 18.3792C77.6063 18.4117 77.5874 18.4412 77.5627 18.4656C77.538 18.4899 77.5081 18.5085 77.4751 18.52C77.4422 18.5315 77.4071 18.5356 77.3723 18.5319H75.5454C75.5106 18.5356 75.4755 18.5315 75.4426 18.52C75.4096 18.5085 75.3797 18.4899 75.355 18.4656C75.3303 18.4412 75.3114 18.4117 75.2998 18.3792C75.2881 18.3467 75.284 18.3121 75.2877 18.2778V12.4005C75.2877 11.8577 75.0535 11.6151 74.503 11.6151H72.9923V12.8972H73.4942C73.5289 12.8935 73.5641 12.8976 73.597 12.9091C73.6299 12.9206 73.6598 12.9392 73.6845 12.9635C73.7092 12.9879 73.7281 13.0174 73.7398 13.0499C73.7514 13.0824 73.7555 13.117 73.7518 13.1513L73.7535 19.0302ZM80.8038 19.8156H83.9307V18.5336H83.0992V12.8972H83.9307V11.6151H80.8038V12.8972H81.6453V18.5336H80.8038V19.8156ZM85.8631 15.6692C85.8254 16.2162 85.9017 16.7651 86.0875 17.2819C86.2732 17.7988 86.5644 18.2726 86.943 18.6741C87.3216 19.0756 87.7796 19.3964 88.2888 19.6166C88.798 19.8367 89.3476 19.9517 89.9036 19.9542C90.803 19.9729 91.6769 19.6586 92.3529 19.0731H92.3763C92.3763 19.0731 92.3646 19.2464 92.3646 19.4196V19.8156H93.6746V16.316C93.6746 15.7731 93.4404 15.5421 92.89 15.5421H91.5314V16.8242H92.0334C92.0683 16.8196 92.1039 16.8229 92.1373 16.8341C92.1706 16.8452 92.201 16.8638 92.2259 16.8884C92.2508 16.913 92.2697 16.9429 92.281 16.9758C92.2923 17.0088 92.2957 17.0438 92.291 17.0783V17.6904C91.7309 18.2396 90.9727 18.547 90.183 18.5451C89.8071 18.5465 89.4351 18.4712 89.0901 18.324C88.7452 18.1767 88.4349 17.9608 88.1786 17.6896C87.9224 17.4184 87.7257 17.098 87.6011 16.7483C87.4764 16.3986 87.4264 16.0273 87.4542 15.6576C87.4375 15.3003 87.4941 14.9434 87.6204 14.6081C87.7468 14.2729 87.9404 13.9662 88.1896 13.7063C88.4389 13.4465 88.7387 13.2389 89.0711 13.0959C89.4035 12.9529 89.7617 12.8775 90.1244 12.8741C90.8961 12.8822 91.6442 13.1376 92.2559 13.6017L93.1225 12.516C92.2917 11.7936 91.2072 11.4204 90.101 11.4765C89.5407 11.4672 88.9843 11.5694 88.465 11.777C87.9457 11.9845 87.4741 12.2932 87.0785 12.6846C86.6829 13.076 86.3714 13.542 86.1626 14.0548C85.9538 14.5676 85.8519 15.1167 85.8631 15.6692ZM96.3917 19.8156H97.9259V16.7549H98.6988C99.1439 16.7549 99.3078 16.8126 99.4835 17.136L100.561 19.2035C100.83 19.7232 101.1 19.8156 101.72 19.8156H102.517V18.5336H102.365C102.107 18.5336 101.908 18.5105 101.791 18.2679L100.969 16.6856C100.88 16.5091 100.736 16.3648 100.559 16.2731V16.25C100.997 16.0871 101.37 15.7886 101.621 15.3991C101.872 15.0097 101.989 14.5504 101.953 14.0901C101.97 13.7539 101.915 13.4178 101.79 13.1045C101.665 12.7912 101.473 12.5078 101.228 12.2734C100.983 12.039 100.69 11.859 100.369 11.7455C100.047 11.632 99.705 11.5875 99.3647 11.6151H95.6304V12.8972H96.3917V19.8156ZM97.9259 15.4613V12.8972H99.1673C99.3359 12.8858 99.5049 12.9115 99.6621 12.9725C99.8194 13.0335 99.9609 13.1283 100.076 13.2499C100.192 13.3716 100.278 13.517 100.33 13.6758C100.381 13.8345 100.396 14.0025 100.374 14.1677C100.397 14.336 100.382 14.5073 100.33 14.6692C100.277 14.8311 100.189 14.9794 100.071 15.1033C99.9533 15.2273 99.8089 15.3237 99.6485 15.3856C99.4881 15.4476 99.3157 15.4734 99.1439 15.4613H97.9259ZM104.028 19.8156H104.953C105.538 19.8156 105.749 19.6655 105.925 19.1457L106.452 17.7135H109.251L109.778 19.1457C109.954 19.6655 110.164 19.8156 110.75 19.8156H111.663V18.5336H111.476C111.277 18.5336 111.195 18.4874 111.113 18.2795L108.654 11.6151H107.049L104.578 18.2795C104.508 18.4874 104.426 18.5336 104.227 18.5336H104.028V19.8156ZM106.803 16.4661L107.506 14.4102C107.658 13.9598 107.834 13.1859 107.834 13.1859H107.857C107.857 13.1859 108.045 13.9598 108.197 14.4102L108.911 16.4661H106.803ZM113.233 19.8156H114.556C115.107 19.8156 115.309 19.5846 115.341 19.0302L115.622 15.3804C115.649 14.9536 115.653 14.5256 115.634 14.0984H115.657C115.657 14.0984 115.915 14.9184 116.114 15.3804L117.496 18.4065H118.737L120.119 15.3804C120.293 14.9647 120.445 14.5407 120.576 14.1099H120.599C120.58 14.5333 120.584 14.9574 120.611 15.3804L120.892 19.0302C120.927 19.5846 121.126 19.8156 121.677 19.8156H123V18.5336H122.635C122.468 18.5336 122.389 18.4412 122.378 18.2795L121.841 11.6151H120.251L118.536 15.519C118.337 15.9926 118.126 16.6163 118.126 16.6163H118.103C118.103 16.6163 117.892 15.9926 117.693 15.519L115.985 11.6151H114.395L113.852 18.2795C113.84 18.4445 113.758 18.5336 113.594 18.5336H113.233V19.8156Z"/>
    </g>
    <defs>
    <clipPath id="clip0">
    <rect width="123" height="33" fill="inherit"/>
    </clipPath>
    </defs>
  </symbol>

  <symbol id="icon-check" width="9" height="5" viewBox="0 0 9 5" fill="none" xmlns="http://www.w3.org/2000/svg">
    <path fill-rule="evenodd" clip-rule="evenodd" d="M0.146447 0.146447C-0.0488155 0.341709 -0.0488156 0.658291 0.146447 0.853553L3.68198 4.38909C3.70029 4.40739 3.71966 4.42398 3.7399 4.43886C3.77086 4.46161 3.80385 4.48035 3.83815 4.49507C4.02059 4.57338 4.24015 4.53806 4.38911 4.3891L7.92464 0.853568C8.11991 0.658306 8.11991 0.341723 7.92464 0.146461C7.72938 -0.048801 7.4128 -0.0488011 7.21754 0.146461L4.03555 3.32845L0.853554 0.146447C0.658291 -0.0488155 0.341709 -0.0488155 0.146447 0.146447Z" fill="white"/>
  </symbol>
  <view id="icon-check-view" viewBox="0 0 9 5" />
  <use xlink:href="#icon-check" width="9" height="5" x="0" y="0"></use>

  <symbol id="icon-cogwheels" width="52" height="52" viewBox="0 0 52 52" fill="none" xmlns="http://www.w3.org/2000/svg">
    <g clip-path="url(#clip0)">
      <path d="M20.4089 23.9628C19.7139 23.805 18.9972 23.7251 18.2784 23.7251C12.9896 23.7251 8.68674 28.028 8.68674 33.3168C8.68674 35.2241 9.24543 37.0669 10.3025 38.646C10.477 38.9067 10.7634 39.0477 11.0553 39.0477C11.2282 39.0477 11.4032 38.9982 11.5578 38.8946C11.9731 38.6166 12.0844 38.0546 11.8064 37.6393C10.9494 36.3592 10.4966 34.8644 10.4966 33.3168C10.4966 29.0258 13.9876 25.5348 18.2785 25.5348C18.8627 25.5348 19.4447 25.5997 20.0084 25.7276C20.4956 25.8382 20.9806 25.5327 21.0912 25.0454C21.2017 24.558 20.8962 24.0734 20.4089 23.9628Z" fill="#7E64FE"/>
      <path d="M27.6325 31.1859C27.5216 30.6984 27.0369 30.3929 26.5497 30.5036C26.0623 30.6142 25.7569 31.099 25.8675 31.5864C25.9955 32.1503 26.0605 32.7325 26.0605 33.3169C26.0605 37.6078 22.5695 41.0988 18.2785 41.0988C16.7314 41.0988 15.2372 40.6463 13.9574 39.7899C13.5421 39.512 12.98 39.6235 12.7021 40.0388C12.4243 40.4541 12.5357 41.0162 12.9511 41.294C14.5298 42.3502 16.372 42.9086 18.2786 42.9086C23.5674 42.9086 27.8703 38.6057 27.8703 33.3169C27.8702 32.598 27.7903 31.8811 27.6325 31.1859Z" fill="#7E64FE"/>
      <path d="M25.7387 27.2877C25.3145 26.7636 24.8338 26.2828 24.3099 25.8586C23.9215 25.5441 23.3516 25.6042 23.0373 25.9926C22.7228 26.3808 22.7827 26.9505 23.1711 27.265C23.5967 27.6096 23.9872 28.0002 24.3317 28.4261C24.5105 28.6471 24.772 28.7619 25.0357 28.7619C25.2356 28.7619 25.4369 28.6958 25.6044 28.5604C25.9929 28.2459 26.0529 27.6762 25.7387 27.2877Z" fill="#7E64FE"/>
      <path d="M18.2784 27.5858C15.1185 27.5858 12.5475 30.1568 12.5475 33.3167C12.5475 36.4766 15.1185 39.0475 18.2784 39.0475C21.4383 39.0475 24.0093 36.4766 24.0093 33.3167C24.0093 30.1568 21.4383 27.5858 18.2784 27.5858ZM18.2784 37.2378C16.1164 37.2378 14.3573 35.4787 14.3573 33.3167C14.3573 31.1546 16.1164 29.3956 18.2784 29.3956C20.4405 29.3956 22.1995 31.1546 22.1995 33.3167C22.1995 35.4787 20.4405 37.2378 18.2784 37.2378Z" fill="#7E64FE"/>
      <path d="M34.6867 29.5162H33.1869C32.8253 28.0941 32.2612 26.7371 31.5036 25.4662L32.5681 24.4014C32.9214 24.0483 33.1159 23.5786 33.1159 23.0791C33.1159 22.5796 32.9214 22.1099 32.5681 21.7567L29.838 19.0266C29.1089 18.2977 27.9226 18.2977 27.1934 19.0266L26.1286 20.0912C24.8577 19.3336 23.5008 18.7695 22.0786 18.4079V16.908C22.0786 15.8769 21.2397 15.038 20.2085 15.038H16.3477C15.3165 15.038 14.4776 15.8769 14.4776 16.908V18.4079C13.0556 18.7695 11.6985 19.3336 10.4276 20.0912L9.36315 19.0267C8.63403 18.2978 7.44768 18.2978 6.71846 19.0267L3.98866 21.7569C3.63543 22.1101 3.44094 22.5798 3.44094 23.0793C3.44094 23.5788 3.63543 24.0485 3.98866 24.4016L5.05324 25.4664C4.29559 26.7373 3.73151 28.0944 3.36995 29.5164H1.87007C0.838906 29.5162 0 30.3551 0 31.3863V35.2471C0 36.2782 0.838906 37.1171 1.87007 37.1171H3.36995C3.73151 38.5391 4.29559 39.8963 5.05324 41.1672L3.98866 42.2319C3.25955 42.961 3.25955 44.1474 3.98866 44.8766L6.71877 47.6067C7.44788 48.3356 8.63434 48.3356 9.36335 47.6067L10.4279 46.5421C11.6988 47.2998 13.056 47.8639 14.4779 48.2254V49.7253C14.4779 50.7565 15.3168 51.5954 16.348 51.5954H20.2088C21.24 51.5954 22.0789 50.7565 22.0789 49.7253V48.2254C23.501 47.8639 24.858 47.2998 26.1289 46.5421L27.1937 47.6069C27.9228 48.3358 29.1091 48.3358 29.8382 47.6069L32.5684 44.8768C33.2975 44.1477 33.2973 42.9613 32.5684 42.2321L31.5038 41.1674C32.2614 39.8966 32.8255 38.5393 33.1871 37.1173H34.6868C35.718 37.1173 36.5569 36.2784 36.5569 35.2473V31.3865C36.5568 30.3552 35.718 29.5162 34.6867 29.5162ZM34.6867 35.3074H32.4656C32.0353 35.3074 31.6643 35.6105 31.5788 36.0323C31.234 37.7309 30.5679 39.3339 29.599 40.7971C29.3614 41.1559 29.4094 41.6322 29.7136 41.9365L31.2886 43.5114C31.3121 43.535 31.3121 43.5733 31.2886 43.5968L28.5587 46.3267C28.5351 46.3503 28.4969 46.3503 28.4732 46.3267L26.8984 44.7518C26.5941 44.4476 26.1178 44.3995 25.759 44.6371C24.2959 45.6059 22.6927 46.2722 20.9941 46.617C20.5723 46.7025 20.2692 47.0734 20.2692 47.5037V49.7249C20.2692 49.7582 20.2422 49.7852 20.2089 49.7852H16.3481C16.3148 49.7852 16.2878 49.7582 16.2878 49.7249V47.5037C16.2878 47.0734 15.9847 46.7025 15.5629 46.617C13.8643 46.2722 12.2611 45.606 10.798 44.6371C10.6454 44.536 10.4715 44.4867 10.2986 44.4867C10.065 44.4867 9.83328 44.577 9.65849 44.7518L8.08356 46.3267C8.06 46.3503 8.02181 46.3503 7.99815 46.3267L5.26815 43.5967C5.24459 43.5732 5.24459 43.5349 5.26815 43.5113L6.84318 41.9366C7.14746 41.6323 7.1954 41.1559 6.95784 40.7972C5.98894 39.3341 5.32279 37.7309 4.97798 36.0324C4.89247 35.6106 4.52156 35.3075 4.09124 35.3075H1.87007C1.83676 35.3075 1.80974 35.2805 1.80974 35.2472V31.3864C1.80974 31.3531 1.83676 31.3261 1.87007 31.3261H4.09124C4.52156 31.3261 4.89247 31.023 4.97798 30.6012C5.32279 28.9026 5.98894 27.2994 6.95784 25.8363C7.1954 25.4775 7.14746 25.0011 6.84318 24.6969L5.26825 23.1219C5.24469 23.0984 5.24469 23.0602 5.26825 23.0366L7.99815 20.3067C8.02171 20.2832 8.0599 20.2832 8.08356 20.3067L9.65859 21.8817C9.96287 22.1859 10.4392 22.234 10.798 21.9963C12.2611 21.0275 13.8642 20.3613 15.5628 20.0165C15.9846 19.9309 16.2877 19.56 16.2877 19.1297V16.9085C16.2877 16.8752 16.3147 16.8482 16.348 16.8482H20.2088C20.2421 16.8482 20.2691 16.8752 20.2691 16.9085V19.1297C20.2691 19.56 20.5722 19.9309 20.994 20.0165C22.6926 20.3613 24.2957 21.0274 25.7588 21.9963C26.1175 22.2339 26.5939 22.1861 26.8982 21.8817L28.473 20.3068C28.4966 20.2833 28.5348 20.2833 28.5585 20.3068L31.2884 23.0367C31.3119 23.0603 31.3119 23.0985 31.2884 23.122L29.7134 24.697C29.4091 25.0012 29.3612 25.4777 29.5988 25.8364C30.5676 27.2995 31.2338 28.9027 31.5786 30.6013C31.6641 31.0231 32.035 31.3262 32.4654 31.3262H34.6865C34.7199 31.3262 34.7469 31.3532 34.7469 31.3865V35.2471H34.747C34.7471 35.2804 34.7201 35.3074 34.6867 35.3074Z" fill="#7E64FE"/>
      <path d="M41.6686 6.50167C41.2813 6.40204 40.8807 6.35156 40.4778 6.35156C37.8501 6.35156 35.7122 8.48945 35.7122 11.1172C35.7122 11.5197 35.7627 11.9198 35.862 12.3066C35.9671 12.715 36.3346 12.9863 36.7377 12.9863C36.8122 12.9863 36.8881 12.9771 36.9637 12.9576C37.4477 12.8332 37.7392 12.3399 37.6147 11.8559C37.553 11.6164 37.5218 11.3678 37.5218 11.1172C37.5218 9.4873 38.8479 8.16131 40.4776 8.16131C40.7287 8.16141 40.9776 8.19279 41.2177 8.25444C41.7018 8.37895 42.195 8.08747 42.3195 7.60342C42.4441 7.11948 42.1526 6.62619 41.6686 6.50167Z" fill="#7E64FE"/>
      <path d="M45.093 9.92484C44.9682 9.4408 44.4742 9.14962 43.9908 9.27454C43.5068 9.39926 43.2158 9.89275 43.3405 10.3767C43.4023 10.6169 43.4337 10.8661 43.4337 11.1174C43.4337 12.7473 42.1076 14.0733 40.4778 14.0733C40.2269 14.0733 39.978 14.0419 39.7379 13.9801C39.2543 13.8554 38.7605 14.1468 38.636 14.6308C38.5114 15.1148 38.8028 15.6081 39.2867 15.7327C39.6741 15.8324 40.0749 15.883 40.478 15.883C43.1058 15.883 45.2437 13.7451 45.2437 11.1174C45.2437 10.7138 45.193 10.3125 45.093 9.92484Z" fill="#7E64FE"/>
      <path d="M50.1299 8.28198H48.6176C48.2606 7.25366 47.7134 6.30364 47.0052 5.48221L47.7594 4.17591C48.2748 3.28287 47.9679 2.13694 47.0748 1.62141L45.4031 0.656262C44.9707 0.406519 44.4666 0.339894 43.9841 0.469387C43.5014 0.598676 43.0982 0.908137 42.8485 1.34069L42.0935 2.64851C41.0138 2.43878 39.9422 2.43878 38.8625 2.64851L38.1075 1.34079C37.8577 0.908136 37.4544 0.598676 36.9719 0.469387C36.4896 0.340098 35.9854 0.406519 35.5528 0.656262L33.881 1.62141C32.9881 2.13694 32.6811 3.28287 33.1966 4.17591L33.9507 5.48211C33.2425 6.30364 32.6954 7.25356 32.3383 8.28188H30.8259C29.7948 8.28188 28.9559 9.12078 28.9559 10.1519V12.0823C28.9559 13.1135 29.7948 13.9524 30.8259 13.9524H32.3383C32.6953 14.9807 33.2424 15.9308 33.9507 16.7522L33.1966 18.0584C32.6811 18.9513 32.9881 20.0972 33.881 20.6129L35.5528 21.578C35.8466 21.7476 36.1676 21.8283 36.4847 21.8283C37.1316 21.8283 37.7614 21.4929 38.1074 20.8936L38.8624 19.5859C39.9421 19.7956 41.0137 19.7956 42.0934 19.5859L42.8484 20.8936C43.3639 21.7866 44.51 22.0937 45.4029 21.578L47.0747 20.6129C47.9677 20.0972 48.2747 18.9513 47.7592 18.0584L47.0051 16.7522C47.7132 15.9307 48.2603 14.9806 48.6175 13.9524H50.1299C51.1611 13.9524 52 13.1135 52 12.0823V10.1519C52 9.12089 51.1611 8.28198 50.1299 8.28198ZM50.1903 12.0824C50.1903 12.1158 50.1632 12.1428 50.1299 12.1428H47.9464C47.5337 12.1428 47.1733 12.4221 47.0703 12.8217C46.7604 14.0231 46.1318 15.1147 45.2523 15.9786C44.9579 16.2676 44.8964 16.7193 45.1027 17.0766L46.192 18.9633C46.2087 18.9922 46.1988 19.029 46.17 19.0457L44.4983 20.0108C44.4694 20.0276 44.4326 20.0174 44.4159 19.9888L43.3249 18.099C43.1188 17.7419 42.697 17.5692 42.2997 17.6794C41.6904 17.8482 41.0775 17.9337 40.4781 17.9337C39.8787 17.9337 39.2659 17.8482 38.6566 17.6794C38.2593 17.5691 37.8376 17.7417 37.6313 18.099L36.5404 19.9888C36.5237 20.0175 36.4869 20.0277 36.458 20.0108L34.7863 19.0457C34.7574 19.029 34.7476 18.9919 34.764 18.9631L35.8534 17.0764C36.0597 16.7192 35.9982 16.2674 35.7038 15.9784C34.8243 15.1145 34.1957 14.0229 33.8858 12.8215C33.7827 12.4218 33.4224 12.1426 33.0096 12.1426H30.8262C30.7929 12.1426 30.7659 12.1156 30.7659 12.0822V10.1519C30.7659 10.1186 30.7929 10.0916 30.8262 10.0916H33.0097C33.4225 10.0916 33.7828 9.81232 33.8859 9.41267C34.1958 8.21129 34.8244 7.1196 35.7039 6.25581C35.9983 5.96676 36.0598 5.51511 35.8535 5.15782L34.7642 3.27109C34.7476 3.24225 34.7574 3.20518 34.7863 3.18852L36.4581 2.22337C36.4634 2.22022 36.4797 2.21078 36.5038 2.21738C36.5279 2.22398 36.5373 2.24003 36.5405 2.24551L37.6314 4.13528C37.8376 4.49238 38.2595 4.66514 38.6567 4.55494C39.266 4.38614 39.8789 4.30063 40.4782 4.30063C41.0777 4.30063 41.6905 4.38614 42.2998 4.55494C42.6973 4.66524 43.1189 4.49258 43.325 4.13528L44.416 2.24541C44.4191 2.24013 44.4286 2.22378 44.4526 2.21728C44.4769 2.21088 44.493 2.22022 44.4983 2.22327L46.17 3.18842C46.1988 3.20507 46.2087 3.24194 46.192 3.27079L45.1027 5.15761C44.8964 5.51481 44.9579 5.96656 45.2523 6.25561C46.1318 7.1195 46.7604 8.21109 47.0703 9.41247C47.1733 9.81202 47.5337 10.0914 47.9464 10.0914H50.1298C50.1631 10.0914 50.1902 10.1184 50.1902 10.1517V12.0824H50.1903Z" fill="#7E64FE"/>
      <path d="M51.0952 29.5162H49.9825C49.8584 28.8737 49.6059 28.2765 49.2512 27.7535L50.0388 26.9659C50.3922 26.6125 50.3922 26.0395 50.0388 25.6863C49.6855 25.3329 49.1125 25.3329 48.7592 25.6863L47.9716 26.4739C47.4486 26.1193 46.8514 25.8667 46.2089 25.7426V24.6299C46.2089 24.1302 45.8038 23.7251 45.3041 23.7251C44.8044 23.7251 44.3992 24.1302 44.3992 24.6299V25.7426C43.7567 25.8666 43.1595 26.1193 42.6364 26.4739L41.8488 25.6863C41.4955 25.3329 40.9225 25.3329 40.5692 25.6863C40.2159 26.0396 40.2159 26.6126 40.5692 26.9659L41.3569 27.7535C41.0023 28.2765 40.7496 28.8737 40.6256 29.5162H39.5129C39.0132 29.5162 38.6081 29.9213 38.6081 30.4211C38.6081 30.9208 39.0132 31.3259 39.5129 31.3259H40.6256C40.7496 31.9684 41.0023 32.5656 41.3569 33.0886L40.5692 33.8763C40.2159 34.2296 40.2159 34.8026 40.5692 35.1558C40.7459 35.3326 40.9775 35.4209 41.2091 35.4209C41.4406 35.4209 41.6722 35.3326 41.8489 35.1558L42.6365 34.3682C43.1596 34.7228 43.7568 34.9754 44.3993 35.0995V36.2122C44.3993 36.7119 44.8044 37.117 45.3041 37.117C45.8038 37.117 46.209 36.7119 46.209 36.2122V35.0995C46.8515 34.9755 47.4486 34.7228 47.9717 34.3682L48.7593 35.1558C48.936 35.3326 49.1676 35.4209 49.3992 35.4209C49.6307 35.4209 49.8623 35.3326 50.039 35.1558C50.3924 34.8025 50.3924 34.2296 50.039 33.8763L49.2514 33.0886C49.606 32.5656 49.8586 31.9684 49.9827 31.3259H51.0954C51.5951 31.3259 52.0002 30.9208 52.0002 30.4211C52.0002 29.9214 51.5949 29.5162 51.0952 29.5162ZM45.304 33.377C43.6741 33.377 42.3481 32.0509 42.3481 30.4211C42.3481 28.7912 43.6742 27.4652 45.304 27.4652C46.9339 27.4652 48.2599 28.7913 48.2599 30.4211C48.2599 32.051 46.9338 33.377 45.304 33.377Z" fill="#7E64FE"/>
      <path d="M45.304 29.5115C44.8043 29.5115 44.3943 29.9215 44.3943 30.4212C44.3943 30.9209 44.8043 31.3309 45.304 31.3309C45.8036 31.3309 46.2136 30.9209 46.2136 30.4212C46.2136 29.9215 45.8036 29.5115 45.304 29.5115Z" fill="#7E64FE"/>
    </g>
    <defs>
      <clipPath id="clip0">
        <rect width="52" height="52" fill="white"/>
      </clipPath>
    </defs>
  </symbol>

  <symbol id="icon-data-storage" width="52" height="52" viewBox="0 0 52 52" fill="none" xmlns="http://www.w3.org/2000/svg">
    <g clip-path="url(#clip0)">
      <path d="M18.9824 21.8226C18.8955 21.3814 18.4667 21.0942 18.0262 21.1812C17.4931 21.2862 16.9266 21.3775 16.3426 21.4523C15.8967 21.5095 15.5814 21.9175 15.6386 22.3635C15.6912 22.7744 16.0416 23.0742 16.4452 23.0742C16.4797 23.0742 16.5147 23.072 16.5497 23.0675C17.1697 22.9881 17.7723 22.8909 18.341 22.7788C18.7822 22.692 19.0694 22.2638 18.9824 21.8226Z" fill="#7E64FE"/>
      <path d="M18.9824 16.6117C18.8955 16.1705 18.4667 15.8833 18.0262 15.9702C17.4931 16.0752 16.9266 16.1665 16.3426 16.2414C15.8967 16.2986 15.5814 16.7066 15.6386 17.1525C15.6912 17.5634 16.0416 17.8633 16.4452 17.8633C16.4797 17.8633 16.5147 17.861 16.5497 17.8565C17.1697 17.7771 17.7723 17.6799 18.341 17.5679C18.7822 17.4811 19.0694 17.0529 18.9824 16.6117Z" fill="#7E64FE"/>
      <path d="M20.3272 4.52738C18.1194 3.84803 15.1991 3.47388 12.1044 3.47388C9.00971 3.47388 6.08948 3.84793 3.88162 4.52738C2.11088 5.07227 0 6.07571 0 7.76205V29.474C0 30.4048 0.673359 31.7215 3.88152 32.7086C6.08938 33.388 9.00961 33.7621 12.1043 33.7621C14.32 33.7621 16.4769 33.568 18.3416 33.2006C18.7828 33.1137 19.0699 32.6856 18.983 32.2444C18.8961 31.8031 18.4675 31.5157 18.0268 31.6029C16.264 31.9502 14.2161 32.1338 12.1042 32.1338C9.16744 32.1338 6.41723 31.7852 4.36038 31.1523C2.19923 30.4874 1.62825 29.7637 1.62825 29.4741V26.5371C2.31552 26.9515 3.12894 27.2663 3.88141 27.4979C6.08928 28.1772 9.00951 28.5514 12.1042 28.5514C12.4008 28.5514 12.6995 28.5479 12.9919 28.541C13.4414 28.5305 13.7973 28.1575 13.7867 27.7079C13.7761 27.2584 13.4045 26.9017 12.9536 26.9131C12.6738 26.9197 12.3881 26.9229 12.1042 26.9229C9.16744 26.9229 6.41723 26.5744 4.36038 25.9414C2.19913 25.2765 1.62815 24.5529 1.62815 24.2632V21.3261C2.31542 21.7405 3.12884 22.0553 3.88131 22.2869C6.08918 22.9663 9.00941 23.3404 12.1041 23.3404C12.4007 23.3404 12.6994 23.337 12.9918 23.3301C13.4413 23.3195 13.7972 22.9466 13.7866 22.4969C13.776 22.0473 13.4044 21.692 12.9535 21.7021C12.6737 21.7087 12.388 21.712 12.1041 21.712C9.16734 21.712 6.41713 21.3634 4.36028 20.7305C2.19903 20.0655 1.62805 19.3419 1.62805 19.0522V16.1153C2.31532 16.5296 3.12873 16.8445 3.88121 17.076C6.08908 17.7554 9.00931 18.1295 12.104 18.1295C12.4006 18.1295 12.6993 18.1261 12.9917 18.1192C13.4412 18.1086 13.7971 17.7357 13.7865 17.2861C13.7759 16.8365 13.4043 16.4823 12.9534 16.4912C12.6736 16.4978 12.3879 16.5011 12.104 16.5011C9.16723 16.5011 6.41702 16.1525 4.36018 15.5196C2.19893 14.8547 1.62795 14.131 1.62795 13.8414V10.0359C2.31522 10.4503 3.12863 10.7652 3.88111 10.9967C6.08898 11.6761 9.0092 12.0501 12.1039 12.0501C15.1986 12.0501 18.1189 11.6761 20.3267 10.9967C21.0793 10.7652 21.8927 10.4504 22.5799 10.0359V13.8414C22.5799 14.0705 22.2448 14.5015 21.3004 14.9617C20.8961 15.1586 20.7282 15.646 20.9251 16.0503C21.0661 16.3397 21.356 16.5079 21.6577 16.5079C21.7774 16.5079 21.8989 16.4814 22.0138 16.4255C22.2211 16.3246 22.4086 16.222 22.5799 16.1183V19.0522C22.5799 19.2814 22.2448 19.7124 21.3004 20.1726C20.8961 20.3695 20.7282 20.8569 20.9251 21.2611C21.0661 21.5506 21.356 21.7188 21.6577 21.7188C21.7774 21.7188 21.8989 21.6923 22.0138 21.6364C22.2211 21.5354 22.4086 21.4329 22.5799 21.3292V21.6574C22.5799 22.107 22.9444 22.4717 23.3941 22.4717C23.8438 22.4717 24.2083 22.1071 24.2083 21.6574V7.76205C24.2087 6.07571 22.098 5.07227 20.3272 4.52738ZM19.8483 9.44027C17.7914 10.0732 15.0411 10.4218 12.1044 10.4218C9.16774 10.4218 6.41743 10.0732 4.36059 9.44027C2.19944 8.77534 1.62845 8.05171 1.62845 7.76205C1.62845 7.47239 2.19944 6.74876 4.36059 6.08383C6.41743 5.45089 9.16774 5.10233 12.1044 5.10233C15.0411 5.10233 17.7914 5.45089 19.8483 6.08383C22.0093 6.74876 22.5804 7.47239 22.5804 7.76205C22.5804 8.05171 22.0093 8.77534 19.8483 9.44027Z" fill="#7E64FE"/>
      <path d="M18.9824 27.0334C18.8956 26.5923 18.4667 26.305 18.0262 26.392C17.4931 26.497 16.9266 26.5883 16.3426 26.6632C15.8967 26.7203 15.5814 27.1283 15.6386 27.5743C15.6912 27.9852 16.0416 28.285 16.4452 28.285C16.4797 28.285 16.5147 28.2828 16.5497 28.2783C17.1697 28.1989 17.7723 28.1017 18.341 27.9897C18.7821 27.9028 19.0693 27.4746 18.9824 27.0334Z" fill="#7E64FE"/>
      <path d="M50.3173 43.4237H50.2631V26.8684C50.2631 25.4617 49.1187 24.3173 47.7119 24.3173H23.3946C21.9879 24.3173 20.8435 25.4617 20.8435 26.8684V43.4237H20.7893C19.8614 43.4237 19.1066 44.1785 19.1066 45.1064V46.8433C19.1066 47.7712 19.8614 48.526 20.7893 48.526H50.3174C51.2453 48.526 52.0001 47.7712 52.0001 46.8433V45.1064C52 44.1785 51.2452 43.4237 50.3173 43.4237ZM22.4718 26.8684C22.4718 26.3596 22.8858 25.9456 23.3946 25.9456H47.7119C48.2208 25.9456 48.6347 26.3596 48.6347 26.8684V43.4237H22.4718V26.8684ZM50.3716 46.8434C50.3716 46.8734 50.3474 46.8976 50.3174 46.8976H20.7892C20.7592 46.8976 20.7349 46.8734 20.7349 46.8434V45.1065C20.7349 45.0765 20.7592 45.0523 20.7892 45.0523H21.6576H49.4488H50.3173C50.3473 45.0523 50.3715 45.0765 50.3715 45.1065V46.8434H50.3716Z" fill="#7E64FE"/>
      <path d="M39.8961 27.7913H25.1315C24.6819 27.7913 24.3173 28.1558 24.3173 28.6055V40.7641C24.3173 41.2138 24.6818 41.5784 25.1315 41.5784H27.7371C28.1868 41.5784 28.5514 41.2139 28.5514 40.7641C28.5514 40.3145 28.187 39.9499 27.7371 39.9499H25.9458V29.4196H39.8961C40.3457 29.4196 40.7103 29.0551 40.7103 28.6054C40.7103 28.1557 40.3457 27.7913 39.8961 27.7913Z" fill="#7E64FE"/>
      <path d="M45.9749 27.7913H43.3694C42.9198 27.7913 42.5552 28.1558 42.5552 28.6055C42.5552 29.0552 42.9197 29.4197 43.3694 29.4197H45.1608V39.95H31.2105C30.7608 39.95 30.3962 40.3145 30.3962 40.7642C30.3962 41.2139 30.7607 41.5785 31.2105 41.5785H45.975C46.4246 41.5785 46.7892 41.214 46.7892 40.7642V28.6054C46.7891 28.1558 46.4246 27.7913 45.9749 27.7913Z" fill="#7E64FE"/>
      <path d="M26.8685 13.0271C26.4189 13.0271 26.0543 13.3916 26.0543 13.8413C26.0543 14.291 26.4188 14.6556 26.8685 14.6556C30.7294 14.6556 33.8706 17.7967 33.8706 21.6577C33.8706 22.1073 34.2351 22.4719 34.6848 22.4719C35.1346 22.4719 35.4991 22.1074 35.4991 21.6577C35.499 16.8988 31.6273 13.0271 26.8685 13.0271Z" fill="#7E64FE"/>
      <path d="M16.4467 43.4238C12.5858 43.4238 9.44462 40.2826 9.44462 36.4216C9.44462 35.972 9.08011 35.6074 8.63039 35.6074C8.18067 35.6074 7.81616 35.9719 7.81616 36.4216C7.81616 41.1805 11.6878 45.0521 16.4466 45.0521C16.8963 45.0521 17.2609 44.6876 17.2609 44.2379C17.261 43.7884 16.8965 43.4238 16.4467 43.4238Z" fill="#7E64FE"/>
    </g>
    <defs>
      <clipPath id="clip0">
        <rect width="52" height="52" fill="white"/>
      </clipPath>
    </defs>
  </symbol>

  <symbol id="icon-earth-globe" width="52" height="52" viewBox="0 0 52 52" fill="none" xmlns="http://www.w3.org/2000/svg">
    <g clip-path="url(#clip0)">
      <path d="M47.131 14.19C46.8217 13.6378 46.4865 13.0907 46.1345 12.5643C45.8761 12.1775 45.3526 12.0737 44.9661 12.3323C44.5794 12.5909 44.4755 13.114 44.7341 13.5007C45.0613 13.9903 45.3732 14.4992 45.661 15.013C45.8155 15.2888 46.1017 15.4439 46.3967 15.4439C46.5359 15.4439 46.6773 15.4092 46.8075 15.3364C47.2134 15.1091 47.3582 14.5959 47.131 14.19Z" fill="#7E64FE"/>
      <path d="M39.4342 5.86464C38.908 5.51272 38.3608 5.17736 37.808 4.8679C37.4021 4.64061 36.8888 4.78543 36.6616 5.19138C36.4344 5.59722 36.5789 6.11052 36.985 6.33782C37.4994 6.62575 38.0082 6.93775 38.4979 7.26508C38.6416 7.36126 38.8044 7.40737 38.9652 7.40737C39.237 7.40737 39.5037 7.27605 39.6661 7.03311C39.9247 6.64647 39.8209 6.12332 39.4342 5.86464Z" fill="#7E64FE"/>
      <path d="M34.3447 3.27424C33.7499 3.05578 33.139 2.85855 32.5287 2.68803C32.0806 2.5625 31.616 2.82453 31.4908 3.27252C31.3655 3.72051 31.6273 4.18526 32.0754 4.31049C32.6428 4.46903 33.2108 4.65245 33.7638 4.85567C33.8597 4.89082 33.9578 4.90757 34.0542 4.90757C34.3974 4.90757 34.7198 4.69632 34.845 4.35548C35.0053 3.91876 34.7814 3.43471 34.3447 3.27424Z" fill="#7E64FE"/>
      <path d="M43.7746 9.57251C43.3446 9.10756 42.8912 8.65398 42.4264 8.22448C42.0847 7.90851 41.5518 7.92964 41.236 8.27119C40.92 8.61275 40.9411 9.14565 41.2826 9.46151C41.7153 9.86146 42.1376 10.2837 42.5376 10.7163C42.7037 10.8959 42.9296 10.9868 43.1563 10.9868C43.3609 10.9868 43.5659 10.9127 43.728 10.7629C44.0695 10.447 44.0904 9.91407 43.7746 9.57251Z" fill="#7E64FE"/>
      <path d="M49.3105 19.4656C49.1399 18.8559 48.9429 18.2455 48.7244 17.6513C48.564 17.2148 48.0802 16.9903 47.6432 17.1512C47.2066 17.3117 46.9826 17.7957 47.1431 18.2324C47.3462 18.785 47.5296 19.3527 47.6883 19.9196C47.7924 20.2917 48.1306 20.5352 48.4991 20.5352C48.5742 20.5352 48.6507 20.525 48.7264 20.5038C49.1743 20.3784 49.4359 19.9137 49.3105 19.4656Z" fill="#7E64FE"/>
      <path d="M15.3361 5.19282C15.1088 4.78698 14.5956 4.64225 14.1897 4.86945C13.6377 5.1785 13.0909 5.51386 12.5641 5.86598C12.1774 6.12456 12.0734 6.64771 12.332 7.03436C12.4944 7.27729 12.7611 7.40861 13.033 7.40861C13.1939 7.40861 13.3565 7.3626 13.5004 7.26643C13.9904 6.93878 14.4992 6.62678 15.0127 6.33926C15.4187 6.11196 15.5635 5.59867 15.3361 5.19282Z" fill="#7E64FE"/>
      <path d="M7.03303 12.334C6.64628 12.0753 6.12313 12.1794 5.86466 12.5661C5.51254 13.0928 5.17718 13.6401 4.86792 14.1923C4.64063 14.598 4.78535 15.1114 5.1914 15.3387C5.3216 15.4116 5.46288 15.4463 5.60212 15.4463C5.89706 15.4463 6.18346 15.2911 6.33784 15.0153C6.62556 14.5015 6.93756 13.9925 7.26521 13.5022C7.52378 13.1157 7.41978 12.5926 7.03303 12.334Z" fill="#7E64FE"/>
      <path d="M10.7627 8.27206C10.4467 7.93051 9.91394 7.90958 9.57229 8.22555C9.10733 8.65556 8.65375 9.10914 8.22435 9.57369C7.90849 9.91524 7.92941 10.4481 8.27107 10.764C8.43306 10.9139 8.63811 10.9879 8.84266 10.9879C9.06935 10.9879 9.29543 10.8969 9.46138 10.7174C9.86123 10.2848 10.2834 9.86273 10.7162 9.46237C11.0577 9.14652 11.0786 8.61362 10.7627 8.27206Z" fill="#7E64FE"/>
      <path d="M4.35527 17.1552C3.91906 16.9948 3.43461 17.2186 3.27414 17.6553C3.05578 18.2498 2.85844 18.8608 2.68792 19.4711C2.56269 19.9192 2.82442 20.384 3.27241 20.5092C3.34838 20.5304 3.42445 20.5405 3.49961 20.5405C3.86797 20.5405 4.20638 20.2969 4.31038 19.9248C4.46912 19.3571 4.65234 18.7891 4.85557 18.2363C5.01594 17.7997 4.79189 17.3156 4.35527 17.1552Z" fill="#7E64FE"/>
      <path d="M20.5031 3.27397C20.3777 2.82598 19.9128 2.56435 19.465 2.68968C18.8554 2.8603 18.2449 3.05754 17.6509 3.2758C17.2142 3.43627 16.9904 3.92031 17.1508 4.35693C17.276 4.69787 17.5984 4.90902 17.9415 4.90902C18.038 4.90902 18.136 4.89237 18.232 4.85712C18.7846 4.6541 19.3522 4.47078 19.9191 4.31204C20.3669 4.18681 20.6285 3.72196 20.5031 3.27397Z" fill="#7E64FE"/>
      <path d="M28.7874 1.95579C28.7059 1.94645 28.6236 1.93862 28.5418 1.93009C28.231 0.818187 27.2096 0 26 0C24.7904 0 23.7689 0.818187 23.4583 1.93009C23.3761 1.93862 23.2935 1.94665 23.212 1.95589C22.7499 2.00901 22.4182 2.42673 22.4713 2.88884C22.5205 3.31835 22.8848 3.63512 23.307 3.63512C23.3391 3.63512 23.3715 3.6333 23.4042 3.62964C23.4519 3.62416 23.5002 3.61969 23.5483 3.61451C23.937 4.58839 24.8892 5.27861 26.0001 5.27861C27.111 5.27861 28.0631 4.58839 28.4519 3.61441C28.4997 3.61959 28.5479 3.62405 28.5955 3.62944C28.6282 3.63309 28.6604 3.63492 28.6925 3.63492C29.1147 3.63492 29.479 3.31805 29.5283 2.88854C29.5813 2.42633 29.2496 2.0088 28.7874 1.95579ZM26 3.59399C25.4736 3.59399 25.0453 3.1657 25.0453 2.6393C25.0453 2.11291 25.4736 1.68462 26 1.68462C26.5264 1.68462 26.9547 2.11291 26.9547 2.6393C26.9547 3.1657 26.5264 3.59399 26 3.59399Z" fill="#7E64FE"/>
      <path d="M10.7171 42.5384C10.2849 42.1384 9.86256 41.7162 9.4624 41.2836C9.14644 40.9419 8.61354 40.9211 8.27199 41.237C7.93033 41.5529 7.90951 42.0858 8.22537 42.4274C8.65529 42.8923 9.10897 43.3459 9.57351 43.7754C9.73551 43.9252 9.94056 43.9993 10.1451 43.9993C10.3718 43.9993 10.5979 43.9083 10.7638 43.7287C11.0796 43.3871 11.0588 42.8543 10.7171 42.5384Z" fill="#7E64FE"/>
      <path d="M15.015 45.662C14.5012 45.3743 13.9922 45.0622 13.5019 44.7346C13.1153 44.4759 12.5921 44.58 12.3336 44.9668C12.075 45.3534 12.179 45.8766 12.5657 46.1352C13.0924 46.4873 13.6397 46.8226 14.1919 47.1319C14.3221 47.2048 14.4633 47.2394 14.6026 47.2394C14.8975 47.2394 15.1839 47.0843 15.3383 46.8085C15.5658 46.4027 15.4209 45.8893 15.015 45.662Z" fill="#7E64FE"/>
      <path d="M19.9244 47.6895C19.3574 47.531 18.7892 47.3476 18.236 47.1443C17.7994 46.9839 17.3153 47.2079 17.1549 47.6445C16.9945 48.0811 17.2185 48.5652 17.6551 48.7256C18.2501 48.9442 18.861 49.1415 19.471 49.3118C19.5468 49.333 19.6231 49.3432 19.6981 49.3432C20.0666 49.3432 20.4049 49.0996 20.5089 48.7274C20.6342 48.2793 20.3725 47.8146 19.9244 47.6895Z" fill="#7E64FE"/>
      <path d="M4.85698 33.7674C4.65396 33.2148 4.47054 32.6472 4.3119 32.0803C4.18657 31.6324 3.72212 31.3709 3.27372 31.496C2.82573 31.6213 2.56411 32.0861 2.68944 32.5342C2.86006 33.1437 3.05729 33.7542 3.27555 34.3485C3.40078 34.6893 3.72314 34.9005 4.06632 34.9005C4.1628 34.9005 4.26081 34.8838 4.35679 34.8486C4.79351 34.6882 5.01735 34.2042 4.85698 33.7674Z" fill="#7E64FE"/>
      <path d="M7.2662 38.4995C6.93836 38.0092 6.62646 37.5003 6.33894 36.987C6.11164 36.581 5.59845 36.4365 5.1925 36.6636C4.78666 36.8909 4.64183 37.4042 4.86913 37.8101C5.17818 38.362 5.51354 38.9089 5.86566 39.4357C6.02806 39.6786 6.29476 39.81 6.56674 39.81C6.72772 39.81 6.89032 39.764 7.03413 39.6678C7.42088 39.4094 7.52488 38.8862 7.2662 38.4995Z" fill="#7E64FE"/>
      <path d="M5.27861 26.0001C5.27861 24.8891 4.58839 23.937 3.61441 23.5482C3.61959 23.5004 3.62405 23.4523 3.62944 23.4047C3.68245 22.9426 3.35075 22.5249 2.88854 22.4719C2.42511 22.4189 2.0087 22.7506 1.95569 23.2128C1.94634 23.2942 1.93852 23.3764 1.92999 23.4583C0.818188 23.769 0 24.7904 0 26.0001C0 27.2097 0.818187 28.2311 1.93009 28.5418C1.93862 28.6237 1.94645 28.706 1.95579 28.7873C2.00495 29.2169 2.36935 29.5337 2.79165 29.5337C2.82364 29.5337 2.85614 29.5319 2.88864 29.5282C3.35085 29.4752 3.68245 29.0577 3.62954 28.5954C3.62405 28.5477 3.61969 28.4996 3.61451 28.4519C4.58839 28.0631 5.27861 27.111 5.27861 26.0001ZM2.6393 26.9547C2.11291 26.9547 1.68462 26.5266 1.68462 26.0001C1.68462 25.4736 2.11291 25.0454 2.6393 25.0454C3.1657 25.0454 3.59399 25.4737 3.59399 26.0001C3.59399 26.5264 3.1657 26.9547 2.6393 26.9547Z" fill="#7E64FE"/>
      <path d="M46.8086 36.6613C46.4025 36.434 45.8893 36.5786 45.662 36.9847C45.3743 37.4984 45.0623 38.0075 44.7347 38.4978C44.4761 38.8847 44.5801 39.4077 44.967 39.6662C45.1107 39.7622 45.2734 39.8083 45.4341 39.8083C45.706 39.8083 45.9729 39.6769 46.1352 39.4338C46.4874 38.9069 46.8227 38.3598 47.1319 37.8078C47.3593 37.4019 47.2145 36.8886 46.8086 36.6613Z" fill="#7E64FE"/>
      <path d="M39.6679 44.9655C39.4093 44.579 38.886 44.4751 38.4995 44.7336C38.0093 45.0613 37.5004 45.3732 36.9871 45.6607C36.5813 45.888 36.4366 46.4014 36.6638 46.8072C36.8182 47.0829 37.1044 47.238 37.3995 47.238C37.5387 47.238 37.6801 47.2032 37.8103 47.1304C38.362 46.8215 38.9088 46.4862 39.4357 46.1339C39.8225 45.8754 39.9265 45.3524 39.6679 44.9655Z" fill="#7E64FE"/>
      <path d="M43.7289 41.236C43.387 40.92 42.8541 40.9411 42.5385 41.2826C42.1384 41.7153 41.7162 42.1375 41.2835 42.5374C40.9419 42.8533 40.9209 43.3862 41.2369 43.7277C41.403 43.9073 41.6288 43.9983 41.8556 43.9983C42.0601 43.9983 42.2652 43.9243 42.4273 43.7745C42.8921 43.3446 43.3457 42.8912 43.7754 42.4263C44.0915 42.0848 44.0704 41.5519 43.7289 41.236Z" fill="#7E64FE"/>
      <path d="M34.8491 47.643C34.6887 47.2064 34.205 46.9823 33.7679 47.1429C33.2156 47.346 32.6479 47.5293 32.0809 47.688C31.6329 47.8134 31.3712 48.2781 31.4966 48.7262C31.6007 49.0983 31.9389 49.3418 32.3073 49.3418C32.3825 49.3418 32.459 49.3316 32.5346 49.3104C33.1446 49.1397 33.7549 48.9425 34.3489 48.7243C34.7857 48.5638 35.0096 48.0798 34.8491 47.643Z" fill="#7E64FE"/>
      <path d="M48.7275 31.4908C48.2787 31.3652 47.8146 31.6273 47.6895 32.0753C47.5307 32.6431 47.3474 33.2112 47.1443 33.7639C46.9839 34.2005 47.2078 34.6846 47.6445 34.845C47.7404 34.8801 47.8385 34.8969 47.9349 34.8969C48.2781 34.8969 48.6004 34.6856 48.7257 34.3448C48.944 33.7505 49.1412 33.1396 49.3119 32.5291C49.4372 32.0808 49.1757 31.616 48.7275 31.4908Z" fill="#7E64FE"/>
      <path d="M29.5285 49.1113C29.4754 48.6492 29.0573 48.3173 28.5956 48.3705C28.548 48.376 28.4997 48.3804 28.4517 48.3855C28.063 47.4117 27.111 46.7214 26 46.7214C24.889 46.7214 23.9369 47.4117 23.5482 48.3856C23.5003 48.3805 23.452 48.376 23.4042 48.3706C22.9412 48.3173 22.5244 48.6494 22.4714 49.1115C22.4184 49.5737 22.7501 49.9913 23.2123 50.0444C23.2937 50.0537 23.3761 50.0616 23.4582 50.0702C23.7689 51.1819 24.7904 52 26 52C27.2096 52 28.231 51.1819 28.5417 50.0699C28.6236 50.0614 28.7061 50.0534 28.7876 50.0442C29.2497 49.9911 29.5814 49.5735 29.5285 49.1113ZM26 50.3154C25.4736 50.3154 25.0453 49.8871 25.0453 49.3607C25.0453 48.8343 25.4736 48.4061 26 48.4061C26.5264 48.4061 26.9547 48.8342 26.9547 49.3607C26.9547 49.8872 26.5264 50.3154 26 50.3154Z" fill="#7E64FE"/>
      <path d="M50.0699 23.4583C50.0614 23.3764 50.0536 23.294 50.0443 23.2127C49.9912 22.7505 49.5735 22.419 49.1114 22.4718C48.6493 22.5249 48.3176 22.9424 48.3705 23.4046C48.3759 23.4521 48.3804 23.5005 48.3855 23.5482C47.4117 23.937 46.7214 24.8891 46.7214 26C46.7214 27.1109 47.4117 28.0631 48.3856 28.4518C48.3805 28.4996 48.376 28.5478 48.3706 28.5953C48.3176 29.0576 48.6493 29.4752 49.1115 29.5282C49.1441 29.5319 49.1764 29.5337 49.2086 29.5337C49.6308 29.5337 49.9951 29.2168 50.0443 28.7873C50.0536 28.7061 50.0614 28.6237 50.0699 28.5417C51.1819 28.231 52 27.2096 52 26C52 24.7904 51.1819 23.769 50.0699 23.4583ZM49.3607 26.9547C48.8343 26.9547 48.4061 26.5265 48.4061 26C48.4061 25.4735 48.8342 25.0453 49.3607 25.0453C49.8872 25.0453 50.3154 25.4736 50.3154 26C50.3154 26.5264 49.8871 26.9547 49.3607 26.9547Z" fill="#7E64FE"/>
      <path d="M44.8684 25.1577H43.8933C43.4649 15.949 36.0511 8.53528 26.8424 8.10679V7.13179C26.8424 6.66663 26.4654 6.28943 26.0001 6.28943C25.5349 6.28943 25.1577 6.66653 25.1577 7.13179V8.10679C15.949 8.53528 8.53528 15.949 8.10679 25.1577H7.13179C6.66663 25.1577 6.28943 25.5348 6.28943 26.0001C6.28943 26.4652 6.66653 26.8424 7.13179 26.8424H8.10679C8.53528 36.0511 15.949 43.465 25.1577 43.8933V44.8684C25.1577 45.3335 25.5348 45.7107 26.0001 45.7107C26.4653 45.7107 26.8424 45.3336 26.8424 44.8684V43.8933C36.0511 43.4649 43.465 36.0512 43.8933 26.8424H44.8684C45.3336 26.8424 45.7107 26.4653 45.7107 26.0001C45.7106 25.5349 45.3336 25.1577 44.8684 25.1577ZM20.2608 10.8203C19.5472 11.5718 18.883 12.4695 18.2824 13.5068C17.804 14.3333 17.379 15.2263 17.0095 16.1728H13.0939C14.9216 13.7784 17.3989 11.9059 20.2608 10.8203ZM11.9664 17.8575H16.4297C15.7497 20.1031 15.3566 22.5814 15.2864 25.1577H9.79283C9.92892 22.5078 10.7042 20.0242 11.9664 17.8575ZM9.79283 26.8424H15.2863C15.3565 29.4188 15.7497 31.897 16.4296 34.1426H11.9663C10.7042 31.9759 9.92892 29.4923 9.79283 26.8424ZM13.0941 35.8273H17.0097C17.3791 36.7737 17.8041 37.6668 18.2826 38.4933C18.8832 39.5305 19.5473 40.4283 20.261 41.1797C17.3989 40.0942 14.9216 38.2216 13.0941 35.8273ZM25.1577 42.1571C23.141 41.814 21.2426 40.2439 19.7404 37.6493C19.4085 37.0761 19.1046 36.4669 18.829 35.8273H25.1577V42.1571ZM25.1577 34.1426H18.1954C17.4682 31.9307 17.0459 29.4453 16.9712 26.8424H25.1576V34.1426H25.1577ZM25.1577 25.1577H16.9713C17.0459 22.5549 17.4682 20.0694 18.1955 17.8575H25.1578V25.1577H25.1577ZM25.1577 16.1729H18.829C19.1046 15.5333 19.4085 14.9241 19.7404 14.3509C21.2426 11.7562 23.1409 10.1863 25.1577 9.843V16.1729ZM38.906 16.1729H34.9905C34.621 15.2264 34.1961 14.3334 33.7176 13.5069C33.1171 12.4696 32.4528 11.5718 31.7393 10.8202C34.6012 11.9059 37.0784 13.7784 38.906 16.1729ZM26.8424 9.843C28.8592 10.1862 30.7576 11.7562 32.2597 14.3509C32.5916 14.9241 32.8955 15.5332 33.171 16.1729H26.8425V9.843H26.8424ZM26.8424 17.8575H33.8047C34.5319 20.0694 34.9542 22.5549 35.029 25.1577H26.8425V17.8575H26.8424ZM26.8424 26.8424H35.0289C34.9542 29.4453 34.5319 31.9307 33.8046 34.1426H26.8423V26.8424H26.8424ZM26.8424 42.1571V35.8273H33.1711C32.8956 36.4668 32.5917 37.0761 32.2598 37.6493C30.7576 40.2439 28.8592 41.814 26.8424 42.1571ZM31.7393 41.1798C32.4528 40.4283 33.1171 39.5306 33.7176 38.4932C34.1962 37.6667 34.621 36.7736 34.9905 35.8272H38.906C37.0784 38.2216 34.6012 40.0942 31.7393 41.1798ZM40.0338 34.1426H35.5704C36.2505 31.897 36.6435 29.4188 36.7137 26.8424H42.2072C42.0712 29.4923 41.2959 31.9759 40.0338 34.1426ZM36.7139 25.1577C36.6437 22.5814 36.2506 20.1031 35.5706 17.8575H40.034C41.296 20.0242 42.0713 22.5078 42.2074 25.1577H36.7139Z" fill="#7E64FE"/>
    </g>
    <defs>
      <clipPath id="clip0">
        <rect width="52" height="52" fill="white"/>
      </clipPath>
    </defs>
  </symbol>



</svg>

