<svg width="88" height="32" viewBox="0 0 88 32" fill="none" xmlns="http://www.w3.org/2000/svg">
<path d="M58.76 6.7109V21.5641C58.76 21.787 58.5789 21.9677 58.3555 21.9677H55.315C55.0916 21.9677 54.9105 21.787 54.9105 21.5641V6.7109C54.9105 6.48783 55.0916 6.3071 55.315 6.3071H58.3555C58.5789 6.3071 58.76 6.48783 58.76 6.7109ZM82.4518 6.3071H79.0499C78.8719 6.3071 78.7149 6.42222 78.663 6.59075L75.971 15.3683L73.0124 6.58099C72.9573 6.41749 72.8027 6.3071 72.6286 6.3071H70.2547C70.0806 6.3071 69.926 6.41749 69.8709 6.58099L66.9122 15.3683L64.2203 6.59075C64.1684 6.42222 64.0113 6.3071 63.8334 6.3071H60.4315C60.3014 6.3071 60.1793 6.36913 60.1032 6.47361C60.0272 6.57797 60.0066 6.71234 60.0478 6.83434L65.0445 21.6956C65.0996 21.8591 65.2541 21.9693 65.4282 21.9693H68.1283C68.3023 21.9693 68.4568 21.8591 68.512 21.6957L71.4416 13.0134L74.3713 21.6957C74.4264 21.8591 74.581 21.9693 74.7549 21.9693H77.4551C77.6292 21.9693 77.7837 21.8591 77.8388 21.6956L82.8355 6.83434C82.8766 6.71234 82.856 6.57797 82.78 6.47361C82.704 6.36913 82.5819 6.3071 82.4518 6.3071ZM87.5683 6.3071H84.5278C84.3044 6.3071 84.1233 6.48783 84.1233 6.7109V21.5641C84.1233 21.787 84.3044 21.9677 84.5278 21.9677H87.5683C87.7917 21.9677 87.9728 21.787 87.9728 21.5641V6.7109C87.9728 6.48783 87.7917 6.3071 87.5683 6.3071ZM53.1511 21.4583C53.3282 21.6539 53.1828 21.9693 52.9156 21.9693H49.1899C49.0383 21.9693 48.8945 21.902 48.7975 21.7856L48.166 21.0275C46.8798 21.8599 45.3484 22.3455 43.7046 22.3455C39.1695 22.3455 35.4799 18.6634 35.4799 14.1375C35.4799 9.61155 39.1695 5.92947 43.7046 5.92947C48.2399 5.92947 51.9295 9.61155 51.9295 14.1375C51.9295 15.769 51.4481 17.2895 50.6224 18.5687L53.1511 21.4583ZM45.7669 18.1478L44.1351 16.1892C43.964 15.9838 44.1104 15.6723 44.3781 15.6723H47.7922C47.9548 15.1895 48.0467 14.6733 48.0467 14.1375C48.0467 11.6837 46.2166 9.56819 43.7046 9.56819C41.1928 9.56819 39.3626 11.6837 39.3626 14.1375C39.3626 16.5913 41.1928 18.6769 43.7046 18.6769C44.4658 18.6769 45.1629 18.483 45.7669 18.1478ZM26.1447 21.3829C26.2372 22.002 26.0413 22.2583 25.8444 22.2583C25.6297 22.2583 25.36 22.0073 25.042 21.5122C24.7282 21.0235 24.6133 20.4626 24.7689 20.1791C24.8716 19.9917 25.0868 19.9101 25.3581 20.0125C25.8833 20.2106 26.0895 21.0131 26.1447 21.3829ZM23.239 22.7325C23.8686 23.2638 24.0604 23.8955 23.7271 24.3411C23.5419 24.5853 23.2416 24.7201 22.8819 24.7201C22.5285 24.7201 22.1685 24.5897 21.9185 24.372C21.3459 23.8726 21.1778 23.0628 21.5517 22.6028C21.6977 22.4231 21.935 22.3241 22.2195 22.3241C22.5652 22.3241 22.9272 22.4693 23.239 22.7325ZM22.1853 27.8614C24.8981 27.8614 27.8417 28.7897 31.0996 31.6705C31.426 31.9591 31.8604 31.6005 31.5759 31.242C28.374 27.2078 25.4127 26.4396 22.4595 25.7902C18.8471 24.9959 16.9889 22.9674 15.6939 20.7402C15.4363 20.2971 15.3207 20.3752 15.2975 20.9447C15.2692 21.6413 15.3173 22.5632 15.4735 23.4701C15.3279 23.4768 15.1812 23.475 15.0339 23.475C9.86585 23.475 5.67634 19.2941 5.67634 14.1367C5.67634 8.97928 9.86585 4.79833 15.0339 4.79833C20.2019 4.79833 24.3914 8.97928 24.3914 14.1367C24.3914 14.5037 24.3735 14.8663 24.3323 15.2223C23.6487 15.0993 22.3039 15.0855 21.3603 15.1669C21.0054 15.1975 21.0553 15.3625 21.3236 15.4109C24.4169 15.9688 26.5422 17.8818 27.0279 21.3534C27.0391 21.4331 27.1438 21.4571 27.1852 21.3881C28.4581 19.2684 29.1894 16.7877 29.1894 14.1367C29.1894 6.33488 22.8517 0.0102539 15.0339 0.0102539C7.21604 0.0102539 0.878418 6.33488 0.878418 14.1367C0.878418 21.9385 7.21604 28.2639 15.0339 28.2639C17.1081 28.2639 19.1655 27.8614 22.1853 27.8614Z" fill="#FF8C00"/>
</svg>
